<svg xmlns="http://www.w3.org/2000/svg" width="1.25em" height="1.25em" fill="none" viewBox="0 0 37 37"><path fill="currentColor" d="M35.5956 1.40438C33.6529 -0.538305 30.4758 -0.45736 28.6444 1.59662L24.3341 6.39262L8.45876 2.63879C7.09281 2.31501 5.65604 2.71974 4.66446 3.71131L2.68131 5.69447L17.9496 13.4956L14.1755 17.7047L11.2817 20.9324L7.05234 19.9307L3.58182 19.1111L0 22.6929L8.04392 26.811L9.46046 27.5395L10.189 28.9561L14.307 37L17.8889 33.4182L17.0693 29.9476L16.0676 25.7183L19.2852 22.8245L23.4943 19.0504L31.2954 34.3187L33.2786 32.3355C34.2701 31.3439 34.6749 29.9072 34.3511 28.5412L30.5973 12.6659L35.3932 8.35554C37.4371 6.52416 37.5282 3.34706 35.5855 1.40438H35.5956Z"/></svg>