<svg xmlns="http://www.w3.org/2000/svg" width="1.25em" height="1.25em" fill="none" viewBox="0 0 34 34"><path fill="currentColor" d="M34 17C34 13.6377 33.003 10.351 31.135 7.55531C29.267 4.75968 26.612 2.58075 23.5056 1.29406C20.3993 0.00736618 16.9811 -0.329291 13.6835 0.326658C10.3858 0.982607 7.35669 2.6017 4.97919 4.97919C2.6017 7.35669 0.982607 10.3858 0.326658 13.6835C-0.329291 16.9811 0.00736618 20.3993 1.29406 23.5056C2.58075 26.612 4.75968 29.267 7.55531 31.135C10.351 33.003 13.6377 34 17 34V28C14.8244 28 12.6977 27.3549 10.8887 26.1462C9.07979 24.9375 7.6699 23.2195 6.83733 21.2095C6.00477 19.1995 5.78693 16.9878 6.21137 14.854C6.63581 12.7202 7.68345 10.7602 9.22183 9.22183C10.7602 7.68345 12.7202 6.63581 14.854 6.21137C16.9878 5.78693 19.1995 6.00477 21.2095 6.83733C23.2195 7.6699 24.9375 9.07979 26.1462 10.8887C27.3549 12.6977 28 14.8244 28 17V19H24V14C24 12.9391 23.5786 11.9217 22.8284 11.1716C22.0783 10.4214 21.0609 10 20 10H14C12.9391 10 11.9217 10.4214 11.1716 11.1716C10.4214 11.9217 10 12.9391 10 14V20C10 21.0609 10.4214 22.0783 11.1716 22.8284C11.9217 23.5786 12.9391 24 14 24H30C31.0609 24 32.0783 23.5786 32.8284 22.8284C33.5786 22.0783 34 21.0609 34 20V19V17ZM19 19H15V15H19V19Z"/></svg>