<svg xmlns="http://www.w3.org/2000/svg" width="1.25em" height="1.25em" fill="none" viewBox="0 0 37 30"><path fill="currentColor" fill-rule="evenodd" d="M4 0H14C15.0609 0 16.0783 0.421427 16.8284 1.17157C17.5786 1.92172 18 2.93913 18 4V26C18 27.0609 17.5786 28.0783 16.8284 28.8284C16.0783 29.5786 15.0609 30 14 30H4C2.93913 30 1.92172 29.5786 1.17157 28.8284C0.421427 28.0783 0 27.0609 0 26V4C0 2.93913 0.421427 1.92172 1.17157 1.17157C1.92172 0.421427 2.93913 0 4 0ZM7 26H11V22H7V26ZM5.036 19H13V5H5.036V19ZM22 5H25V16H22V5ZM34 8H31V13H34V16H31H28V5H31H34V8ZM34 8H37V13H34V8Z" clip-rule="evenodd"/></svg>