<svg xmlns="http://www.w3.org/2000/svg" width="1.25em" height="1.25em" fill="none" viewBox="0 0 32 36"><path fill="currentColor" d="M27.5291 31.9049H21.8018L18.3508 19.8711C19.5634 19.9004 20.7545 20.1979 21.8385 20.742C22.3222 21.0302 22.8599 21.2163 23.4183 21.2887C23.9766 21.3611 24.5439 21.3183 25.0852 21.1631C25.6264 21.0078 26.1301 20.7433 26.5651 20.3858C27.0002 20.0284 27.3574 19.5856 27.6148 19.0848C28.5719 17.4152 30.1468 16.1886 32 15.6695C30.9034 11.8516 28.4511 8.5652 25.1034 6.42709C21.7557 4.28898 17.7427 3.44616 13.8177 4.05682L12.6541 0L8.73289 1.1218L9.89548 5.17862C6.24288 6.74086 3.2861 9.58259 1.58019 13.1703C-0.125713 16.7581 -0.463423 20.8451 0.630458 24.6642C2.47692 24.1233 4.46199 24.3295 6.15786 25.2384C6.64073 25.5264 7.17751 25.7125 7.73508 25.785C8.29264 25.8576 8.85916 25.8151 9.39966 25.6601C9.94016 25.5052 10.4432 25.2412 10.8777 24.8843C11.3122 24.5275 11.6689 24.0854 11.9259 23.5853C12.5584 22.5478 13.4127 21.6632 14.4275 20.9949L17.5584 31.9049H12.2319C11.15 31.9049 10.1124 32.3347 9.3474 33.0997C8.58239 33.8647 8.15262 34.9023 8.15262 35.9842H31.6084C31.6084 34.9023 31.1786 33.8647 30.4136 33.0997C29.6486 32.3347 28.611 31.9049 27.5291 31.9049Z"/></svg>