<svg xmlns="http://www.w3.org/2000/svg" width="1.25em" height="1.25em" fill="none" viewBox="0 0 35 26"><path fill="currentColor" d="M35 17C35 15.1435 34.2625 13.363 32.9497 12.0503C31.637 10.7375 29.8565 10 28 10C27.835 10 27.674 10.014 27.513 10.025L25 5V4H27C27.5282 4.01061 28.0531 3.9144 28.5432 3.71714C29.0333 3.51988 29.4785 3.22563 29.8521 2.85206C30.2256 2.47849 30.5199 2.0333 30.7171 1.5432C30.9144 1.0531 31.0106 0.528201 31 0H21V5.173L13.748 12.425L12.078 4H14C14 2.93913 13.5786 1.92172 12.8284 1.17157C12.0783 0.421427 11.0609 0 10 0H6V4H8L10.343 15.828L4.171 22H0V26H32V22.738C32.9262 22.0948 33.6828 21.237 34.2052 20.2377C34.7277 19.2385 35.0004 18.1276 35 17ZM22.61 9.219L23.732 11.461C22.9375 12.0703 22.2833 12.8433 21.8136 13.7276C21.344 14.6119 21.0699 15.5868 21.01 16.5862C20.9501 17.5857 21.1057 18.5863 21.4663 19.5204C21.8269 20.4545 22.384 21.3001 23.1 22H9.828L22.61 9.219Z"/></svg>