<svg xmlns="http://www.w3.org/2000/svg" width="1.25em" height="1.25em" fill="none" viewBox="0 0 36 25"><path fill="currentColor" d="M28.7983 10.2844C28.5772 10.2844 28.3592 10.2978 28.1422 10.3173L26.7415 5.11033V4.11377H28.7983C29.8894 4.11377 30.9357 3.68036 31.7072 2.90887C32.4787 2.13739 32.9121 1.09104 32.9121 0H22.6277V5.73665L14.0782 10.6732L12.3134 4.11377H14.4002C14.4002 3.02273 13.9667 1.97638 13.1953 1.20489C12.4238 0.433414 11.3774 0 10.2864 0H6.17261V4.11377H8.05363L9.85032 10.7986C8.33495 10.1984 6.66074 10.1301 5.10153 10.605C3.54233 11.0799 2.19042 12.0699 1.26696 13.413C0.343487 14.7561 -0.0968845 16.3728 0.0178724 17.9986C0.132629 19.6245 0.795722 21.1633 1.89869 22.3634C3.00165 23.5634 4.47921 24.3537 6.08966 24.6049C7.70011 24.8561 9.34814 24.5533 10.7642 23.7462C12.1802 22.939 13.2804 21.6752 13.8849 20.1615C14.4893 18.6478 14.5622 16.9738 14.0916 15.4133L23.7497 9.83602L24.2958 11.8682C22.9703 12.9317 22.0637 14.4298 21.7365 16.0975C21.4093 17.7651 21.6826 19.4947 22.508 20.9803C23.3335 22.4658 24.6578 23.6114 26.2467 24.2143C27.8356 24.8172 29.5866 24.8386 31.1897 24.2747C32.7929 23.7108 34.1448 22.5979 35.0064 21.133C35.8679 19.6681 36.1834 17.9457 35.897 16.2706C35.6107 14.5954 34.741 13.0756 33.4418 11.98C32.1426 10.8845 30.4978 10.2838 28.7983 10.2844Z"/></svg>