<svg xmlns="http://www.w3.org/2000/svg" width="1.25em" height="1.25em" fill="none" viewBox="0 0 36 25"><path fill="currentColor" fill-rule="evenodd" d="M11 9C12.035 1.534 20 0 20 0L28 9H11ZM0 25V13H36V13.426C36 14.9459 35.7006 16.451 35.119 17.8552C34.5373 19.2594 33.6848 20.5353 32.6101 21.6101C31.5353 22.6848 30.2594 23.5373 28.8552 24.119C27.451 24.7006 25.9459 25 24.426 25H0ZM4.88886 20.6309C5.21776 20.8507 5.60444 20.968 6 20.968C6.53043 20.968 7.03914 20.7573 7.41421 20.3822C7.78929 20.0071 8 19.4984 8 18.968C8 18.5724 7.8827 18.1858 7.66294 17.8569C7.44318 17.528 7.13082 17.2716 6.76537 17.1202C6.39991 16.9689 5.99778 16.9293 5.60982 17.0064C5.22186 17.0836 4.86549 17.2741 4.58579 17.5538C4.30608 17.8335 4.1156 18.1899 4.03843 18.5778C3.96126 18.9658 4.00087 19.3679 4.15224 19.7334C4.30362 20.0988 4.55996 20.4112 4.88886 20.6309Z" clip-rule="evenodd"/></svg>