<svg xmlns="http://www.w3.org/2000/svg" width="1.25em" height="1.25em" fill="none" viewBox="0 0 28 30"><path fill="currentColor" d="M28 8.00001H18V1.35148e-05H3.72001C3.23113 -0.00130603 2.7468 0.0940138 2.29487 0.280494C1.84294 0.466974 1.43233 0.740937 1.08663 1.08663C0.740937 1.43233 0.466974 1.84294 0.280494 2.29487C0.0940138 2.7468 -0.00130603 3.23113 1.35148e-05 3.72001V30H28V8.00001ZM13 25H5.00001V21H13V25ZM13 17H5.00001V13H13V17ZM13 9.00001H5.00001V5.00001H13V9.00001ZM23 25H19V21H23V25ZM23 17H19V13H23V17Z"/></svg>