<svg xmlns="http://www.w3.org/2000/svg" width="1.25em" height="1.25em" fill="none" viewBox="0 0 32 32"><path fill="currentColor" d="M28 0H4C2.93913 0 1.92172 0.421428 1.17157 1.17157C0.421427 1.92172 0 2.93913 0 4V31.936L13 31.968V25.968C13 25.1724 13.3161 24.4093 13.8787 23.8467C14.4413 23.2841 15.2044 22.968 16 22.968C16.7956 22.968 17.5587 23.2841 18.1213 23.8467C18.6839 24.4093 19 25.1724 19 25.968V31.968L32 31.927V4C32 2.93913 31.5786 1.92172 30.8284 1.17157C30.0783 0.421428 29.0609 0 28 0ZM5 18.968V6.968C5 6.43757 5.21071 5.92886 5.58579 5.55379C5.96086 5.17871 6.46957 4.968 7 4.968C7.53043 4.968 8.03914 5.17871 8.41421 5.55379C8.78929 5.92886 9 6.43757 9 6.968V18.968H5ZM14 18.968V6.968C14 6.43757 14.2107 5.92886 14.5858 5.55379C14.9609 5.17871 15.4696 4.968 16 4.968C16.5304 4.968 17.0391 5.17871 17.4142 5.55379C17.7893 5.92886 18 6.43757 18 6.968V18.968H14ZM23 18.968V6.968C23 6.43757 23.2107 5.92886 23.5858 5.55379C23.9609 5.17871 24.4696 4.968 25 4.968C25.5304 4.968 26.0391 5.17871 26.4142 5.55379C26.7893 5.92886 27 6.43757 27 6.968V18.968H23Z"/></svg>