<svg xmlns="http://www.w3.org/2000/svg" width="1.25em" height="1.25em" fill="none" viewBox="0 0 40 26"><path fill="currentColor" d="M36 12H30V3.99999H36L35.1 2.211C34.7682 1.54747 34.2584 0.989285 33.6276 0.598833C32.9968 0.208381 32.2699 0.00104564 31.528 0H4.13104C3.58605 0.00248941 3.04689 0.112299 2.54434 0.323159C2.04179 0.534019 1.5857 0.8418 1.2021 1.22893C0.818502 1.61606 0.51491 2.07495 0.30866 2.57941C0.102411 3.08386 -0.00245713 3.62401 4.36964e-05 4.16899V21H4.00004V22C4.00004 23.0608 4.42146 24.0782 5.17161 24.8284C5.92175 25.5785 6.93917 26 8.00003 26C9.0609 26 10.0783 25.5785 10.8285 24.8284C11.5786 24.0782 12 23.0608 12 22V21H28V22C28 23.0608 28.4214 24.0782 29.1716 24.8284C29.9217 25.5785 30.9391 26 32 26C33.0609 26 34.0783 25.5785 34.8284 24.8284C35.5786 24.0782 36 23.0608 36 22V21H40V16C40 14.9391 39.5786 13.9217 38.8284 13.1716C38.0783 12.4214 37.0609 12 36 12ZM12 9.99998H6.00003V3.99999H12V9.99998ZM24 9.99998H18V3.99999H24V9.99998Z"/></svg>