<svg xmlns="http://www.w3.org/2000/svg" width="1.25em" height="1.25em" fill="none" viewBox="0 0 26 28"><path fill="currentColor" fill-rule="evenodd" d="M22 0V4H26V6C26 7.06087 25.5786 8.07828 24.8284 8.82843C24.0783 9.57857 23.0609 10 22 10H4C2.93913 10 1.92172 9.57857 1.17157 8.82843C0.421427 8.07828 0 7.06087 0 6V4H4V0H8V4H18V0H22ZM1.17157 26.8284C0.421427 26.0783 0 25.0609 0 24V14H26V24C26 25.0609 25.5786 26.0783 24.8284 26.8284C24.0783 27.5786 23.0609 28 22 28H4C2.93913 28 1.92172 27.5786 1.17157 26.8284Z" clip-rule="evenodd"/></svg>