<svg xmlns="http://www.w3.org/2000/svg" width="1.25em" height="1.25em" fill="none" viewBox="0 0 31 28"><path fill="currentColor" d="M26.071 0H4C2.93913 0 1.92172 0.421427 1.17157 1.17157C0.421427 1.92172 0 2.93913 0 4V18C0 19.0609 0.421427 20.0783 1.17157 20.8284C1.92172 21.5786 2.93913 22 4 22H15.071V24C15.071 25.0609 15.4924 26.0783 16.2426 26.8284C16.9927 27.5786 18.0101 28 19.071 28H23.071V22H26.071C27.1319 22 28.1493 21.5786 28.8994 20.8284C29.6496 20.0783 30.071 19.0609 30.071 18V4C30.071 2.93913 29.6496 1.92172 28.8994 1.17157C28.1493 0.421427 27.1319 0 26.071 0ZM9.071 13H5.071V9H9.071V13ZM17.071 13H13.071V9H17.071V13ZM25.071 13H21.071V9H25.071V13Z"/></svg>