<svg xmlns="http://www.w3.org/2000/svg" width="1.25em" height="1.25em" fill="none" viewBox="0 0 30 24"><path fill="currentColor" fill-rule="evenodd" d="M30 4V6H0V4C0 2.93913 0.421427 1.92172 1.17157 1.17157C1.92172 0.421427 2.93913 0 4 0H26C27.0609 0 28.0783 0.421427 28.8284 1.17157C29.5786 1.92172 30 2.93913 30 4ZM0 20V10H30V20C30 21.0609 29.5786 22.0783 28.8284 22.8284C28.0783 23.5786 27.0609 24 26 24H4C2.93913 24 1.92172 23.5786 1.17157 22.8284C0.421427 22.0783 0 21.0609 0 20ZM5 18H9V14H5V18Z" clip-rule="evenodd"/></svg>