<svg xmlns="http://www.w3.org/2000/svg" width="1.25em" height="1.25em" fill="none" viewBox="0 0 28 33"><path fill="currentColor" fill-rule="evenodd" d="M12 0H23.27C24.5245 0 25.7276 0.498338 26.6146 1.38538C27.5017 2.27243 28 3.47553 28 4.73V21C28 22.0609 27.5786 23.0783 26.8284 23.8284C26.0783 24.5786 25.0609 25 24 25V8C24 6.93913 23.5786 5.92172 22.8284 5.17157C22.0783 4.42143 21.0609 4 20 4H8C8 2.93913 8.42143 1.92172 9.17157 1.17157C9.92172 0.421427 10.9391 0 12 0ZM4 8H16C17.0609 8 18.0783 8.42143 18.8284 9.17157C19.5786 9.92172 20 10.9391 20 12V29C20 30.0609 19.5786 31.0783 18.8284 31.8284C18.0783 32.5786 17.0609 33 16 33H4C2.93913 33 1.92172 32.5786 1.17157 31.8284C0.421427 31.0783 0 30.0609 0 29V12C0 10.9391 0.421427 9.92172 1.17157 9.17157C1.92172 8.42143 2.93913 8 4 8ZM4 23.9H16V20.1H4V23.9ZM4 15.9H16V12.1H4V15.9Z" clip-rule="evenodd"/></svg>