<svg xmlns="http://www.w3.org/2000/svg" width="1.25em" height="1.25em" fill="none" viewBox="0 0 31 31"><path fill="currentColor" d="M31 26.7106L25.7417 21.4522C28.5778 16.9307 28.0327 10.9053 24.1067 6.96908L19.2621 2.12453L15.6893 5.69739L10.5823 0.590429C9.79506 -0.19681 8.51328 -0.19681 7.72604 0.590429C6.9388 1.37767 6.9388 2.65945 7.72604 3.44669L12.833 8.55365L8.55365 12.833L3.44669 7.72604C2.65945 6.9388 1.37767 6.9388 0.590429 7.72604C-0.19681 8.51328 -0.19681 9.79506 0.590429 10.5823L5.69739 15.6893L2.12453 19.2621L6.525 23.6626C10.5419 27.6795 16.6481 28.3355 21.3513 25.6408L26.7106 31L30.9899 26.7207L31 26.7106Z"/></svg>