<svg xmlns="http://www.w3.org/2000/svg" width="1.25em" height="1.25em" fill="none" viewBox="0 0 30 30"><path fill="currentColor" d="M26 0H4C2.93913 0 1.92172 0.421427 1.17157 1.17157C0.421427 1.92172 0 2.93913 0 4V26C0 27.0609 0.421427 28.0783 1.17157 28.8284C1.92172 29.5786 2.93913 30 4 30H26C27.0609 30 28.0783 29.5786 28.8284 28.8284C29.5786 28.0783 30 27.0609 30 26V4C30 2.93913 29.5786 1.92172 28.8284 1.17157C28.0783 0.421427 27.0609 0 26 0ZM25 12.071L23.511 13.56L21.39 11.438L11.438 21.39L13.56 23.511L12.071 25H6.707C6.25428 25 5.82009 24.8202 5.49997 24.5C5.17984 24.1799 5 23.7457 5 23.293V17.929L6.489 16.44L8.61 18.562L18.562 8.61L16.44 6.489L17.929 5H23.293C23.7457 5 24.1799 5.17984 24.5 5.49997C24.8202 5.82009 25 6.25428 25 6.707V12.071Z"/></svg>