<svg xmlns="http://www.w3.org/2000/svg" width="1.25em" height="1.25em" fill="none" viewBox="0 0 22 30"><path fill="currentColor" fill-rule="evenodd" d="M9 0V9C9 10.0609 9.42143 11.0783 10.1716 11.8284C10.9217 12.5786 11.9391 13 13 13H22V26C22 27.0609 21.5786 28.0783 20.8284 28.8284C20.0783 29.5786 19.0609 30 18 30H4C2.93913 30 1.92172 29.5786 1.17157 28.8284C0.421427 28.0783 0 27.0609 0 26V4C0 2.93913 0.421427 1.92172 1.17157 1.17157C1.92172 0.421427 2.93913 0 4 0H9ZM13 0H15L22 7V9H15C14.4696 9 13.9609 8.78929 13.5858 8.41421C13.2107 8.03914 13 7.53043 13 7V0Z" clip-rule="evenodd"/></svg>