<svg xmlns="http://www.w3.org/2000/svg" width="1.25em" height="1.25em" fill="none" viewBox="0 0 32 34"><path fill="currentColor" d="M26.6985 23.375C24.5249 23.375 22.6587 24.6925 21.8423 26.5625H0V30.8125H21.8423C22.6587 32.6825 24.5249 34 26.6985 34C29.6249 34 32 31.62 32 28.6875C32 25.755 29.6249 23.375 26.6985 23.375Z"/><path fill="currentColor" d="M26.6985 10.625C29.6249 10.625 32 8.245 32 5.3125C32 2.38 29.6249 0 26.6985 0C24.5249 0 22.6587 1.3175 21.8423 3.1875H0V7.4375H21.8423C22.6587 9.3075 24.5249 10.625 26.6985 10.625Z"/><path fill="currentColor" d="M16.0954 11.6875C13.9218 11.6875 12.0557 13.005 11.2392 14.875H0V19.125H11.2392C12.0557 20.995 13.9218 22.3125 16.0954 22.3125C18.2691 22.3125 20.1352 20.995 20.9516 19.125H32V14.875H20.941C20.1246 13.005 18.2584 11.6875 16.0954 11.6875Z"/></svg>