<svg xmlns="http://www.w3.org/2000/svg" width="1.25em" height="1.25em" fill="none" viewBox="0 0 31 28"><path fill="currentColor" d="M22.5232 0C21.0109 0.00386993 19.5302 0.433904 18.2511 1.24078C16.972 2.04767 15.9462 3.19872 15.2913 4.56194C14.499 2.912 13.1676 1.58169 11.517 0.790765C9.8664 -0.000156401 7.99538 -0.204363 6.21303 0.21188C4.43068 0.628123 2.84364 1.63991 1.71409 3.0801C0.584539 4.52028 -0.0199444 6.3027 0.000502171 8.13289C-0.00145175 10.1569 0.751212 12.109 2.11147 13.6078L12.1713 26.4787C12.5417 26.9525 13.0152 27.3358 13.5558 27.5994C14.0963 27.863 14.6899 27.9999 15.2913 27.9999C15.8927 27.9999 16.4863 27.863 17.0268 27.5994C17.5674 27.3358 18.0409 26.9525 18.4113 26.4787L28.4711 13.6078C29.5253 12.4455 30.221 11.0032 30.4746 9.45463C30.7281 7.90606 30.5286 6.31722 29.9001 4.87939C29.2717 3.44156 28.241 2.21603 26.9322 1.35035C25.6234 0.484665 24.0923 0.0157308 22.5232 0Z"/></svg>