<svg xmlns="http://www.w3.org/2000/svg" width="1.25em" height="1.25em" fill="none" viewBox="0 0 35 32"><path fill="currentColor" d="M33.7576 8.586L30.1716 5H20.1716V3C20.1716 2.20435 19.8555 1.44129 19.2929 0.878679C18.7303 0.31607 17.9672 0 17.1716 0C16.3759 0 15.6129 0.31607 15.0503 0.878679C14.4876 1.44129 14.1716 2.20435 14.1716 3V13H4.17157L0.585573 16.586C0.210631 16.9611 0 17.4697 0 18C0 18.5303 0.210631 19.0389 0.585573 19.414L4.17157 23H14.1716V32H20.1716V15H30.1716L33.7576 11.414C34.1325 11.0389 34.3431 10.5303 34.3431 10C34.3431 9.46967 34.1325 8.96106 33.7576 8.586Z"/></svg>