<svg xmlns="http://www.w3.org/2000/svg" width="1.25em" height="1.25em" fill="none" viewBox="0 0 28 28"><path fill="currentColor" d="M16.6 0.962832C15.8751 0.341516 14.9518 0 13.997 0C13.0422 0 12.1189 0.341516 11.394 0.962832L0 10.7308V27.7308H28V10.7308L16.6 0.962832ZM16 23.7308H12V15.7308H16V23.7308ZM14 11.7308C13.6044 11.7308 13.2178 11.6135 12.8889 11.3938C12.56 11.174 12.3036 10.8617 12.1522 10.4962C12.0009 10.1307 11.9613 9.72861 12.0384 9.34065C12.1156 8.95269 12.3061 8.59632 12.5858 8.31662C12.8655 8.03691 13.2219 7.84643 13.6098 7.76926C13.9978 7.69209 14.3999 7.7317 14.7654 7.88307C15.1308 8.03445 15.4432 8.29079 15.6629 8.61969C15.8827 8.94859 16 9.33527 16 9.73083C16 10.2613 15.7893 10.77 15.4142 11.145C15.0391 11.5201 14.5304 11.7308 14 11.7308Z"/></svg>