<svg xmlns="http://www.w3.org/2000/svg" width="1.25em" height="1.25em" fill="none" viewBox="0 0 38 23"><path fill="currentColor" d="M20.8003 8.071L13.9004 1.17113C13.1503 0.421255 12.1331 0 11.0725 0C10.0118 0 8.9946 0.421255 8.2445 1.17113L1.17162 8.242C0.800175 8.61343 0.505524 9.05439 0.304496 9.5397C0.103468 10.025 0 10.5452 0 11.0705C0 11.5957 0.103468 12.1159 0.304496 12.6012C0.505524 13.0865 0.800175 13.5275 1.17162 13.8989L8.2435 20.9708C8.9936 21.7206 10.0108 22.1419 11.0714 22.1419C12.1321 22.1419 13.1493 21.7206 13.8994 20.9708L20.8003 14.0709H27.0002V20.0708H33.0001V14.0709H38V8.071H20.8003ZM14.0724 14.0709H8.0725V8.071H14.0724V14.0709Z"/></svg>