<svg xmlns="http://www.w3.org/2000/svg" width="1.25em" height="1.25em" fill="none" viewBox="0 0 33 30"><path fill="currentColor" fill-rule="evenodd" d="M16.954 0.0129699C14.1678 -0.0982239 11.3996 0.507048 8.91404 1.77093C6.42847 3.03482 4.30859 4.91508 2.75703 7.23199C1.20546 9.54891 0.274066 12.2251 0.0518554 15.0046C-0.170355 17.7842 0.324049 20.5743 1.48781 23.1083C2.65158 25.6423 4.44581 27.8355 6.69901 29.4782C7.91167 30.3623 9.61144 30.096 10.4955 28.8833C11.3796 27.6706 11.1133 25.9709 9.90064 25.0868C8.3985 23.9916 7.20235 22.5295 6.42651 20.8402C5.65066 19.1509 5.32106 17.2908 5.4692 15.4377C5.61734 13.5847 6.23827 11.8006 7.27265 10.256C8.30703 8.71135 9.72027 7.45784 11.3773 6.61525C13.0344 5.77266 14.8798 5.36915 16.7373 5.44328C18.5948 5.51741 20.4022 6.0667 21.9869 7.03866C23.5715 8.01062 24.8804 9.37276 25.7884 10.9949C26.6964 12.617 27.1731 14.4449 27.1731 16.3039C27.1731 17.8046 28.3897 19.0212 29.8905 19.0212C31.3912 19.0212 32.6078 17.8046 32.6078 16.3039C32.6078 13.5154 31.8926 10.7736 30.5306 8.34039C29.1686 5.9072 27.2053 3.86399 24.8284 2.40605C22.4514 0.948106 19.7403 0.124164 16.954 0.0129699ZM28.5318 27.1732C30.0325 27.1732 31.2491 25.9566 31.2491 24.4558C31.2491 22.9551 30.0325 21.7385 28.5318 21.7385C27.031 21.7385 25.8145 22.9551 25.8145 24.4558C25.8145 25.9566 27.031 27.1732 28.5318 27.1732Z" clip-rule="evenodd"/></svg>