<svg xmlns="http://www.w3.org/2000/svg" width="1.25em" height="1.25em" fill="none" viewBox="0 0 25 30"><path fill="currentColor" d="M23.7777 9.64467L15.2877 1.15475C14.9217 0.788653 14.4871 0.498245 14.0087 0.300112C13.5304 0.101979 13.0177 0 12.5 0C11.9823 0 11.4696 0.101979 10.9913 0.300112C10.513 0.498245 10.0784 0.788653 9.71228 1.15475L1.22237 9.64467C0.567569 10.2995 0.149147 11.1535 0.0329766 12.0722C-0.0831936 12.9909 0.109487 13.9222 0.580683 14.7194L9.36052 28.1005C9.70152 28.6221 10.1671 29.0506 10.7153 29.3471C11.2634 29.6437 11.8768 29.799 12.5 29.799C13.1232 29.799 13.7366 29.6437 14.2848 29.3471C14.8329 29.0506 15.2985 28.6221 15.6395 28.1005L24.4193 14.7194C24.8905 13.9222 25.0832 12.9909 24.9671 12.0722C24.8509 11.1535 24.4325 10.2995 23.7777 9.64467ZM15.5412 15.6003H9.45885V9.51795H15.5412V15.6003Z"/></svg>