<svg xmlns="http://www.w3.org/2000/svg" width="1.25em" height="1.25em" fill="none" viewBox="0 0 28 22"><path fill="currentColor" fill-rule="evenodd" d="M28 4L15.984 10.866C15.3797 11.2112 14.6959 11.3927 14 11.3927C13.3041 11.3927 12.6203 11.2112 12.016 10.866L0 4C0 2.93913 0.421427 1.92172 1.17157 1.17157C1.92172 0.421427 2.93913 0 4 0H24C25.0609 0 26.0783 0.421427 26.8284 1.17157C27.5786 1.92172 28 2.93913 28 4ZM0 9L12 16H16L28 9V18C28 19.0609 27.5786 20.0783 26.8284 20.8284C26.0783 21.5786 25.0609 22 24 22H4C2.93913 22 1.92172 21.5786 1.17157 20.8284C0.421427 20.0783 0 19.0609 0 18V9Z" clip-rule="evenodd"/></svg>