<svg xmlns="http://www.w3.org/2000/svg" width="1.25em" height="1.25em" fill="none" viewBox="0 0 22 35"><path fill="currentColor" fill-rule="evenodd" d="M2.51 17.205L2.28 16.915H2.24C1.09834 15.315 0.41945 13.4314 0.277819 11.471C0.136187 9.51058 0.537288 7.54902 1.43711 5.80154C2.33694 4.05407 3.70071 2.58821 5.37881 1.56481C7.0569 0.541404 8.98446 0 10.95 0C12.9155 0 14.8431 0.541404 16.5212 1.56481C18.1993 2.58821 19.5631 4.05407 20.4629 5.80154C21.3627 7.54902 21.7638 9.51058 21.6222 11.471C21.4806 13.4314 20.8017 15.315 19.66 16.915L19.43 17.215L19.43 17.215C19.33 17.345 19.23 17.475 19.12 17.595L14.12 24.015C13.828 24.6005 13.3785 25.0931 12.8221 25.4374C12.2657 25.7816 11.6243 25.964 10.97 25.964C10.3157 25.964 9.67431 25.7816 9.11789 25.4374C8.56147 25.0931 8.11202 24.6005 7.82 24.015L2.82 17.605C2.74304 17.514 2.67097 17.4182 2.60037 17.3243C2.57007 17.284 2.54004 17.244 2.51 17.205ZM14 8.00497H8V14.005H14V8.00497ZM4 30.005H18L22 34.005H0L4 30.005Z" clip-rule="evenodd"/></svg>