<svg xmlns="http://www.w3.org/2000/svg" width="1.25em" height="1.25em" fill="none" viewBox="0 0 22 32"><path fill="currentColor" d="M18 0H4C2.93914 0 1.92172 0.421427 1.17157 1.17157C0.421427 1.92172 0 2.93913 0 4V28C0 29.0609 0.421427 30.0783 1.17157 30.8284C1.92172 31.5786 2.93914 32 4 32H18C19.0609 32 20.0783 31.5786 20.8284 30.8284C21.5786 30.0783 22 29.0609 22 28V4C22 2.93913 21.5786 1.92172 20.8284 1.17157C20.0783 0.421427 19.0609 0 18 0ZM13.036 28H9.036V24H13.036V28ZM16.036 20H6.036V6H16.036V20Z"/></svg>