<svg xmlns="http://www.w3.org/2000/svg" width="1.25em" height="1.25em" fill="none" viewBox="0 0 36 33"><path fill="currentColor" fill-rule="evenodd" d="M30 0V7H36L31 18H29V11H23L28 0H30ZM15.035 20H25C26.0609 20 27.0783 20.4214 27.8284 21.1716C28.5786 21.9217 29 22.9391 29 24V27H25V28.544C25 29.0036 24.9095 29.4588 24.7336 29.8834C24.5577 30.308 24.2999 30.6939 23.9749 31.0189C23.6499 31.3439 23.264 31.6017 22.8394 31.7776C22.4148 31.9535 21.9596 32.044 21.5 32.044C21.0404 32.044 20.5852 31.9535 20.1606 31.7776C19.736 31.6017 19.3501 31.3439 19.0251 31.0189C18.7001 30.6939 18.4423 30.308 18.2664 29.8834C18.0905 29.4588 18 29.0036 18 28.544V27H11V28.544C11 29.4723 10.6313 30.3625 9.97487 31.0189C9.3185 31.6753 8.42826 32.044 7.5 32.044C6.57174 32.044 5.6815 31.6753 5.02513 31.0189C4.36875 30.3625 4 29.4723 4 28.544V27H0V20L1.148 14.23C1.32846 13.3223 1.81808 12.5053 2.53341 11.9181C3.24875 11.331 4.14555 11.01 5.071 11.01L16.525 11C17.2686 10.9996 17.9976 11.2064 18.6302 11.5973C19.2627 11.9882 19.7738 12.5477 20.106 13.213L21 15H15.035V20ZM6.035 20H11.035V15H6.035V20Z" clip-rule="evenodd"/></svg>