<svg xmlns="http://www.w3.org/2000/svg" width="1.25em" height="1.25em" fill="none" viewBox="0 0 28 28"><path fill="currentColor" d="M22 16H20V12H22C23.1867 12 24.3467 11.6481 25.3334 10.9888C26.3201 10.3295 27.0892 9.39246 27.5433 8.2961C27.9974 7.19975 28.1162 5.99335 27.8847 4.82946C27.6532 3.66557 27.0818 2.59648 26.2426 1.75736C25.4035 0.918247 24.3344 0.346802 23.1705 0.115291C22.0067 -0.11622 20.8003 0.00259972 19.7039 0.456726C18.6075 0.910851 17.6705 1.67989 17.0112 2.66658C16.3519 3.65328 16 4.81331 16 6V8H12V6C12 4.81331 11.6481 3.65328 10.9888 2.66658C10.3295 1.67989 9.39246 0.910851 8.2961 0.456726C7.19975 0.00259972 5.99335 -0.11622 4.82946 0.115291C3.66557 0.346802 2.59648 0.918247 1.75736 1.75736C0.918247 2.59648 0.346802 3.66557 0.115291 4.82946C-0.11622 5.99335 0.00259972 7.19975 0.456726 8.2961C0.910851 9.39246 1.67989 10.3295 2.66658 10.9888C3.65328 11.6481 4.81331 12 6 12H8V16H6C4.81331 16 3.65328 16.3519 2.66658 17.0112C1.67989 17.6705 0.910851 18.6075 0.456726 19.7039C0.00259972 20.8003 -0.11622 22.0067 0.115291 23.1705C0.346802 24.3344 0.918247 25.4035 1.75736 26.2426C2.59648 27.0818 3.66557 27.6532 4.82946 27.8847C5.99335 28.1162 7.19975 27.9974 8.2961 27.5433C9.39246 27.0892 10.3295 26.3201 10.9888 25.3334C11.6481 24.3467 12 23.1867 12 22V20H16V22C16 23.1867 16.3519 24.3467 17.0112 25.3334C17.6705 26.3201 18.6075 27.0892 19.7039 27.5433C20.8003 27.9974 22.0067 28.1162 23.1705 27.8847C24.3344 27.6532 25.4035 27.0818 26.2426 26.2426C27.0818 25.4035 27.6532 24.3344 27.8847 23.1705C28.1162 22.0067 27.9974 20.8003 27.5433 19.7039C27.0892 18.6075 26.3201 17.6705 25.3334 17.0112C24.3467 16.3519 23.1867 16 22 16ZM20 6C20 5.60444 20.1173 5.21776 20.3371 4.88886C20.5568 4.55996 20.8692 4.30362 21.2346 4.15224C21.6001 4.00087 22.0022 3.96126 22.3902 4.03843C22.7781 4.1156 23.1345 4.30608 23.4142 4.58579C23.6939 4.86549 23.8844 5.22186 23.9616 5.60982C24.0387 5.99778 23.9991 6.39992 23.8478 6.76537C23.6964 7.13082 23.44 7.44318 23.1111 7.66294C22.7822 7.8827 22.3956 8 22 8H20V6ZM8 22C8 22.3956 7.8827 22.7822 7.66294 23.1111C7.44318 23.44 7.13082 23.6964 6.76537 23.8478C6.39992 23.9991 5.99778 24.0387 5.60982 23.9616C5.22186 23.8844 4.86549 23.6939 4.58579 23.4142C4.30608 23.1345 4.1156 22.7781 4.03843 22.3902C3.96126 22.0022 4.00087 21.6001 4.15224 21.2346C4.30362 20.8692 4.55996 20.5568 4.88886 20.3371C5.21776 20.1173 5.60444 20 6 20H8V22ZM8 8H6C5.60444 8 5.21776 7.8827 4.88886 7.66294C4.55996 7.44318 4.30362 7.13082 4.15224 6.76537C4.00087 6.39992 3.96126 5.99778 4.03843 5.60982C4.1156 5.22186 4.30608 4.86549 4.58579 4.58579C4.86549 4.30608 5.22186 4.1156 5.60982 4.03843C5.99778 3.96126 6.39992 4.00087 6.76537 4.15224C7.13082 4.30362 7.44318 4.55996 7.66294 4.88886C7.8827 5.21776 8 5.60444 8 6V8ZM16 16H12V12H16V16ZM22 24C21.4696 24 20.9609 23.7893 20.5858 23.4142C20.2107 23.0391 20 22.5304 20 22V20H22C22.5304 20 23.0391 20.2107 23.4142 20.5858C23.7893 20.9609 24 21.4696 24 22C24 22.5304 23.7893 23.0391 23.4142 23.4142C23.0391 23.7893 22.5304 24 22 24Z"/></svg>