<svg xmlns="http://www.w3.org/2000/svg" width="1.25em" height="1.25em" fill="none" viewBox="0 0 32 32"><path fill="currentColor" d="M28 4H18V0H14V4H4C2.93913 4 1.92172 4.42143 1.17157 5.17157C0.421427 5.92172 0 6.93913 0 8V19C0 20.0609 0.421427 21.0783 1.17157 21.8284C1.92172 22.5786 2.93913 23 4 23H10.17L4 29.17L6.83 32L15.83 23H16.17L25.17 32L28 29.17L21.83 23H28C29.0609 23 30.0783 22.5786 30.8284 21.8284C31.5786 21.0783 32 20.0609 32 19V8C32 6.93913 31.5786 5.92172 30.8284 5.17157C30.0783 4.42143 29.0609 4 28 4Z"/></svg>