<svg xmlns="http://www.w3.org/2000/svg" width="1.25em" height="1.25em" fill="none" viewBox="0 0 34 33"><path fill="currentColor" fill-rule="evenodd" d="M15 0H34V6H15V0ZM15 13H34V19H15V13ZM34 26H15V32H34V26ZM4.09817 0.201203C4.38012 0.0680152 4.68818 -0.000714446 5 5.5997e-06C5.31182 -0.000714446 5.61988 0.0680152 5.90183 0.201203C6.18377 0.334391 6.43252 0.528695 6.63 0.770006L10 4.89001V7.00001H7V25H10V27.1L6.63 31.22C6.43416 31.464 6.18603 31.661 5.90391 31.7963C5.6218 31.9316 5.31289 32.0019 5 32.0019C4.68711 32.0019 4.3782 31.9316 4.09609 31.7963C3.81397 31.661 3.56584 31.464 3.37 31.22L0 27.1V25H3V7.00001H0V4.89001L3.37 0.770006C3.56748 0.528695 3.81623 0.334391 4.09817 0.201203Z" clip-rule="evenodd"/></svg>