<svg xmlns="http://www.w3.org/2000/svg" width="1.25em" height="1.25em" fill="none" viewBox="0 0 30 26"><path fill="currentColor" fill-rule="evenodd" d="M3.651 0C2.68278 0.000265085 1.75428 0.385008 1.06965 1.06965C0.385008 1.75428 0.000265085 2.68278 0 3.651V7.351C0.000795044 8.31888 0.385772 9.24686 1.07035 9.93106C1.75493 10.6153 2.68312 10.9997 3.651 11H5V26H10V11H11.349C12.3172 10.9997 13.2457 10.615 13.9304 9.93035C14.615 9.24572 14.9997 8.31723 15 7.349V3.649C14.9992 2.68112 14.6142 1.75314 13.9296 1.06894C13.2451 0.384733 12.3169 0.0002647 11.349 0H10V11H5V0H3.651ZM23.781 0H25H30V26H25V15H19V4.781C19.0003 3.51308 19.5041 2.29717 20.4006 1.40062C21.2972 0.504062 22.5131 0.000265116 23.781 0Z" clip-rule="evenodd"/></svg>