<svg xmlns="http://www.w3.org/2000/svg" width="1.25em" height="1.25em" fill="none" viewBox="0 0 31 30"><path fill="currentColor" d="M22.6223 18.3355C24.1269 15.7873 24.6502 12.7778 24.0942 9.87131C23.5381 6.96482 21.9409 4.36099 19.602 2.54811C17.2632 0.735222 14.3433 -0.162198 11.39 0.0241357C8.43662 0.210469 5.6527 1.46776 3.56023 3.56023C1.46776 5.6527 0.210469 8.43662 0.0241357 11.39C-0.162198 14.3433 0.735222 17.2632 2.54811 19.602C4.36099 21.9409 6.96482 23.5381 9.87131 24.0942C12.7778 24.6502 15.7873 24.1269 18.3355 22.6223L23.8559 28.1428C24.2312 28.5181 24.6767 28.8158 25.1671 29.0189C25.6574 29.222 26.1829 29.3265 26.7137 29.3265C27.2444 29.3265 27.77 29.222 28.2603 29.0189C28.7506 28.8158 29.1961 28.5181 29.5714 28.1428L31 26.7142L22.6223 18.3355ZM17.2383 17.2383H7.13492V7.13492H17.2383V17.2383Z"/></svg>