<svg xmlns="http://www.w3.org/2000/svg" width="1.25em" height="1.25em" fill="none" viewBox="0 0 24 32"><path fill="currentColor" d="M20 8C20 5.87827 19.1571 3.84344 17.6569 2.34315C16.1566 0.842854 14.1217 0 12 0C9.87827 0 7.84344 0.842854 6.34315 2.34315C4.84285 3.84344 4 5.87827 4 8H0V28C0 29.0609 0.421427 30.0783 1.17157 30.8284C1.92172 31.5786 2.93913 32 4 32H20C21.0609 32 22.0783 31.5786 22.8284 30.8284C23.5786 30.0783 24 29.0609 24 28V8H20ZM12 4C13.0609 4 14.0783 4.42143 14.8284 5.17157C15.5786 5.92172 16 6.93913 16 8H8C8 6.93913 8.42143 5.92172 9.17157 5.17157C9.92172 4.42143 10.9391 4 12 4Z"/></svg>