<svg xmlns="http://www.w3.org/2000/svg" width="1.25em" height="1.25em" fill="none" viewBox="0 0 36 34"><path fill="currentColor" fill-rule="evenodd" d="M11.0583 9.11873L19.2717 1.18688C21.805 -1.34648 26.1379 0.442959 26.1379 4.03189V11.5214C19.5431 12.0341 14.3256 17.5231 14.2653 24.2385L11.0583 21.1824H0V13.1399C0 10.9182 1.79949 9.11873 4.02122 9.11873H11.0583ZM33.3954 18.0953C33.0038 17.6938 32.5621 17.3324 32.0904 17.0111C32.09 17.0109 32.0897 17.0106 32.0894 17.0104C31.8581 16.8495 31.6068 16.6987 31.3555 16.5681C30.8528 16.2966 30.32 16.0654 29.7671 15.8945C28.9327 15.6331 28.048 15.4924 27.1332 15.4924C26.7914 15.4924 26.4597 15.5125 26.1279 15.5527C21.7046 16.0554 18.2765 19.7951 18.2765 24.3491C18.2765 26.2994 18.9199 28.109 19.9855 29.5666C21.594 31.7683 24.1977 33.2058 27.1332 33.2058C28.048 33.2058 28.9327 33.0651 29.7671 32.8037C30.32 32.6328 30.8528 32.4016 31.3555 32.1302C31.6068 31.9894 31.8481 31.8487 32.0894 31.6878C32.5619 31.3661 33.0042 31.0042 33.3963 30.6021C33.7984 30.2 34.1603 29.7576 34.482 29.2952C34.9645 28.5915 35.3365 27.8074 35.5979 26.973C35.8593 26.1386 36 25.2539 36 24.3391C36 23.4242 35.8593 22.5396 35.5979 21.7052V21.7253C35.3365 20.8909 34.9645 20.1168 34.482 19.403C34.1603 18.9305 33.7984 18.4882 33.3962 18.0961C33.396 18.0959 33.3957 18.0956 33.3954 18.0953ZM29.6766 28.8629L31.637 26.9026L29.0936 24.3592L31.637 21.8157L29.6766 19.8554L27.1332 22.3988L26.1279 21.3935L24.5898 19.8554L22.6295 21.8157L25.1729 24.3592L22.6295 26.9026L24.5898 28.8629L25.8866 27.5661L27.1332 26.3195L29.6766 28.8629Z" clip-rule="evenodd"/></svg>