<svg xmlns="http://www.w3.org/2000/svg" width="1.25em" height="1.25em" fill="none" viewBox="0 0 30 29"><path fill="currentColor" d="M29.3383 12.7649C29.6327 12.4813 29.8406 12.12 29.9379 11.7229C30.0352 11.3259 30.0179 10.9093 29.888 10.5217C29.7581 10.1341 29.5209 9.79127 29.204 9.53304C28.8871 9.2748 28.5034 9.11174 28.0975 9.06279L21.5838 8.14226C21.2353 8.09645 20.9026 7.96935 20.6123 7.7712C20.322 7.57306 20.0824 7.30943 19.9128 7.00161L17.0012 1.20827C16.8093 0.843684 16.5215 0.538437 16.1688 0.325493C15.8161 0.112549 15.412 0 15 0C14.588 0 14.1839 0.112549 13.8312 0.325493C13.4785 0.538437 13.1907 0.843684 12.9989 1.20827L10.0872 7.00161C9.92357 7.31877 9.68659 7.59228 9.39595 7.79938C9.10531 8.00649 8.76942 8.14119 8.41622 8.19229L1.90246 9.11282C1.4966 9.16177 1.11294 9.32483 0.796019 9.58306C0.479101 9.8413 0.241924 10.1841 0.112019 10.5717C-0.0178861 10.9594 -0.0351905 11.3759 0.0621147 11.7729C0.15942 12.17 0.367344 12.5313 0.66175 12.815L5.37446 17.2875C5.623 17.5249 5.80952 17.8196 5.91767 18.1458C6.02583 18.472 6.05232 18.8198 5.99482 19.1586L4.88418 25.4722C4.82403 25.8781 4.87745 26.2927 5.03852 26.67C5.1996 27.0473 5.46204 27.3727 5.79674 27.61C6.13143 27.8473 6.52531 27.9872 6.9347 28.0144C7.34409 28.0415 7.75298 27.9547 8.11604 27.7636L13.9394 24.7618C14.2621 24.5991 14.6185 24.5143 14.98 24.5143C15.3414 24.5143 15.6979 24.5991 16.0206 24.7618L21.8439 27.7636C22.207 27.9547 22.6159 28.0415 23.0253 28.0144C23.4347 27.9872 23.8286 27.8473 24.1633 27.61C24.4979 27.3727 24.7604 27.0473 24.9215 26.67C25.0825 26.2927 25.136 25.8781 25.0758 25.4722L24.0052 19.1586C23.9414 18.8104 23.9667 18.4517 24.0787 18.1158C24.1906 17.78 24.3856 17.4778 24.6456 17.2375L29.3383 12.7649Z"/></svg>