<svg xmlns="http://www.w3.org/2000/svg" width="1.25em" height="1.25em" fill="none" viewBox="0 0 28 36"><path fill="currentColor" fill-rule="evenodd" d="M4 0H24C25.0609 0 26.0783 0.421427 26.8284 1.17157C27.5786 1.92172 28 2.93913 28 4V28H0V4C0 2.93913 0.421427 1.92172 1.17157 1.17157C1.92172 0.421427 2.93913 0 4 0ZM5.88886 22.6629C6.21776 22.8827 6.60444 23 7 23C7.53043 23 8.03914 22.7893 8.41421 22.4142C8.78929 22.0391 9 21.5304 9 21C9 20.6044 8.8827 20.2178 8.66294 19.8889C8.44318 19.56 8.13082 19.3036 7.76537 19.1522C7.39992 19.0009 6.99778 18.9613 6.60982 19.0384C6.22186 19.1156 5.86549 19.3061 5.58579 19.5858C5.30608 19.8655 5.1156 20.2219 5.03843 20.6098C4.96126 20.9978 5.00087 21.3999 5.15224 21.7654C5.30362 22.1308 5.55996 22.4432 5.88886 22.6629ZM19.8889 22.6629C20.2178 22.8827 20.6044 23 21 23C21.5304 23 22.0391 22.7893 22.4142 22.4142C22.7893 22.0391 23 21.5304 23 21C23 20.6044 22.8827 20.2178 22.6629 19.8889C22.4432 19.56 22.1308 19.3036 21.7654 19.1522C21.3999 19.0009 20.9978 18.9613 20.6098 19.0384C20.2219 19.1156 19.8655 19.3061 19.5858 19.5858C19.3061 19.8655 19.1156 20.2219 19.0384 20.6098C18.9613 20.9978 19.0009 21.3999 19.1522 21.7654C19.3036 22.1308 19.56 22.4432 19.8889 22.6629ZM4 15H24V5H4V15ZM4 36H9L12 31.999H7L4 36ZM16 32L19 36H24L21 32H16Z" clip-rule="evenodd"/></svg>