<svg xmlns="http://www.w3.org/2000/svg" width="1.25em" height="1.25em" fill="none" viewBox="0 0 40 40"><path fill="currentColor" fill-rule="evenodd" d="M22 0H18V6H22V0ZM20 10C14.48 10 10 14.48 10 20C10 25.52 14.48 30 20 30C25.52 30 30 25.52 30 20C30 14.48 25.52 10 20 10ZM18 40V34H22V40H18ZM40 18H34V22H40V18ZM6 18V22H0V18H6ZM7.27514 4.44452L4.44672 7.27295L8.68936 11.5156L11.5178 8.68716L7.27514 4.44452ZM32.726 4.44556L35.5544 7.27398L31.3117 11.5166L28.4833 8.6882L32.726 4.44556ZM11.5167 31.314L8.68823 28.4856L4.44559 32.7282L7.27402 35.5567L11.5167 31.314ZM28.4844 31.3129L31.3129 28.4844L35.5555 32.7271L32.7271 35.5555L28.4844 31.3129Z" clip-rule="evenodd"/></svg>