<svg xmlns="http://www.w3.org/2000/svg" width="1.25em" height="1.25em" fill="none" viewBox="0 0 32 32"><path fill="currentColor" d="M23.9998 17.9999V0H21.9998C21.4694 0 20.9607 0.210712 20.5856 0.585782C20.2106 0.960852 19.9998 1.46956 19.9998 1.99998V7.99994H11.9999V1.99998C11.9999 1.46956 11.7892 0.960852 11.4141 0.585782C11.0391 0.210712 10.5304 0 9.99992 0H7.99994V17.9999H0V31.9998C1.87708 32.0147 3.68777 31.306 5.05596 30.0208C5.43967 29.6283 5.89792 29.3165 6.40382 29.1035C6.90972 28.8906 7.45307 28.781 8.00194 28.781C8.55081 28.781 9.09416 28.8906 9.60005 29.1035C10.106 29.3165 10.5642 29.6283 10.9479 30.0208C12.3239 31.293 14.1289 31.9996 16.0029 31.9996C17.8768 31.9996 19.6819 31.293 21.0578 30.0208C21.441 29.6283 21.8989 29.3165 22.4043 29.1035C22.9098 28.8906 23.4528 28.7809 24.0013 28.7809C24.5498 28.7809 25.0928 28.8906 25.5983 29.1035C26.1038 29.3165 26.5616 29.6283 26.9448 30.0208C28.3124 31.3062 30.1229 32.015 31.9998 31.9998V17.9999H23.9998ZM11.9999 17.9999V11.9999H19.9998V17.9999H11.9999Z"/></svg>