<svg xmlns="http://www.w3.org/2000/svg" width="1.25em" height="1.25em" fill="none" viewBox="0 0 30 29"><path fill="currentColor" d="M26 7H17.829L22 2.829L19.171 0L15 4.171L10.829 0L8 2.829L12.171 7H4C2.93913 7 1.92172 7.42143 1.17157 8.17157C0.421427 8.92172 0 9.93913 0 11V25C0 26.0609 0.421427 27.0783 1.17157 27.8284C1.92172 28.5786 2.93913 29 4 29H26C27.0609 29 28.0783 28.5786 28.8284 27.8284C29.5786 27.0783 30 26.0609 30 25V11C30 9.93913 29.5786 8.92172 28.8284 8.17157C28.0783 7.42143 27.0609 7 26 7ZM20 24H5V12H20V24ZM25 16C24.6044 16 24.2178 15.8827 23.8889 15.6629C23.56 15.4432 23.3036 15.1308 23.1522 14.7654C23.0009 14.3999 22.9613 13.9978 23.0384 13.6098C23.1156 13.2219 23.3061 12.8655 23.5858 12.5858C23.8655 12.3061 24.2219 12.1156 24.6098 12.0384C24.9978 11.9613 25.3999 12.0009 25.7654 12.1522C26.1308 12.3036 26.4432 12.56 26.6629 12.8889C26.8827 13.2178 27 13.6044 27 14C27 14.5304 26.7893 15.0391 26.4142 15.4142C26.0391 15.7893 25.5304 16 25 16Z"/></svg>