<svg xmlns="http://www.w3.org/2000/svg" width="1.25em" height="1.25em" fill="none" viewBox="0 0 36 32"><path fill="currentColor" d="M25.51 0C22.7243 -1.26095e-06 20.0526 1.10593 18.0818 3.07477C16.1111 5.04362 15.0027 7.71431 15 10.5V13H4C2.93913 13 1.92172 13.4214 1.17157 14.1716C0.421427 14.9217 0 15.9391 0 17V32H24V17C24 15.9391 23.5786 14.9217 22.8284 14.1716C22.0783 13.4214 21.0609 13 20 13V10.5C19.9337 9.04131 20.4496 7.61602 21.4341 6.53769C22.4187 5.45935 23.7913 4.8163 25.25 4.75C26.7087 4.6837 28.134 5.19957 29.2123 6.18414C30.2906 7.1687 30.9337 8.54131 31 10H36C35.8691 7.30536 34.707 4.76425 32.7543 2.90276C30.8016 1.04127 28.2078 0.0019557 25.51 0ZM14 27H10V19H14V27Z"/></svg>