<svg xmlns="http://www.w3.org/2000/svg" width="1.25em" height="1.25em" fill="none" viewBox="0 0 27 29"><path fill="currentColor" d="M14.5381 0H5.24119V4.13196H11.7294L14.6331 11.4755L7.12639 18.9605C6.52684 18.7202 5.88713 18.5957 5.24119 18.5938C4.12713 18.5857 3.03987 18.9353 2.13939 19.5913C1.23892 20.2474 0.572786 21.1751 0.239005 22.238C-0.0947747 23.3009 -0.0785728 24.4429 0.285226 25.4959C0.649025 26.5489 1.34121 27.4574 2.25993 28.0876C3.17865 28.7178 4.27539 29.0364 5.38877 28.9967C6.50215 28.957 7.57338 28.5609 8.44484 27.8668C9.31629 27.1727 9.94194 26.2172 10.2297 25.1409C10.5175 24.0647 10.4523 22.9244 10.0436 21.888L16.288 15.6612L18.0689 20.165C17.2947 20.9596 16.7969 21.9824 16.6493 23.082C16.5017 24.1815 16.712 25.2994 17.2492 26.27C17.7863 27.2407 18.6218 28.0127 19.6318 28.4716C20.6418 28.9305 21.7728 29.052 22.8573 28.8181C23.9417 28.5842 24.9221 28.0073 25.6532 27.1729C26.3842 26.3384 26.8272 25.2907 26.9165 24.1849C27.0058 23.0791 26.7366 21.9739 26.1489 21.033C25.5612 20.0921 24.6861 19.3654 23.6532 18.9605L26.8224 11.1026C26.9489 10.789 26.9964 10.4492 26.9609 10.1129C26.9254 9.77664 26.8079 9.45424 26.6187 9.17399C26.4295 8.89374 26.1745 8.66421 25.8759 8.50554C25.5773 8.34686 25.2443 8.26389 24.9062 8.26392H17.8065L14.5381 0Z"/></svg>