<svg xmlns="http://www.w3.org/2000/svg" width="1.25em" height="1.25em" fill="none" viewBox="0 0 27 29"><path fill="currentColor" d="M14.538 0H5.24116V4.13194H11.7293L14.6331 11.4754L7.12636 18.9604C6.52681 18.7201 5.8871 18.5957 5.24116 18.5937C4.12711 18.5856 3.03985 18.9352 2.13939 19.5913C1.23892 20.2473 0.572783 21.175 0.239004 22.2379C-0.0947742 23.3008 -0.0785725 24.4428 0.285225 25.4958C0.649022 26.5488 1.3412 27.4572 2.25992 28.0874C3.17864 28.7176 4.27537 29.0363 5.38875 28.9966C6.50213 28.9568 7.57335 28.5608 8.4448 27.8667C9.31625 27.1726 9.9419 26.2171 10.2297 25.1408C10.5175 24.0646 10.4522 22.9243 10.0435 21.8879L16.2879 15.6611L18.0688 20.1649C17.2946 20.9595 16.7969 21.9823 16.6492 23.0819C16.5016 24.1814 16.7119 25.2992 17.2491 26.2699C17.7862 27.2406 18.6217 28.0126 19.6317 28.4715C20.6417 28.9304 21.7727 29.0519 22.8572 28.818C23.9416 28.5841 24.922 28.0072 25.6531 27.1728C26.3841 26.3383 26.8271 25.2906 26.9164 24.1848C27.0057 23.079 26.7365 21.9739 26.1488 21.0329C25.5611 20.092 24.686 19.3653 23.6531 18.9604L26.8223 11.1025C26.9487 10.7889 26.9963 10.4491 26.9608 10.1129C26.9253 9.7766 26.8078 9.4542 26.6186 9.17395C26.4294 8.8937 26.1744 8.66417 25.8758 8.5055C25.5772 8.34682 25.2442 8.26386 24.9061 8.26388H17.8064L14.538 0Z"/></svg>