<svg xmlns="http://www.w3.org/2000/svg" width="1.25em" height="1.25em" fill="none" viewBox="0 0 32 30"><path fill="currentColor" d="M31.549 24.132L20.12 2.155C19.7824 1.50555 19.273 0.961197 18.6474 0.581216C18.0218 0.201234 17.304 0.000197802 16.572 0H15.428C14.696 0.000197802 13.9782 0.201234 13.3526 0.581216C12.727 0.961197 12.2176 1.50555 11.88 2.155L0.451 24.132C0.154748 24.7022 6.05376e-05 25.3354 0 25.978V26C0 27.0609 0.421427 28.0783 1.17157 28.8284C1.92172 29.5786 2.93913 30 4 30H28C29.0609 30 30.0783 29.5786 30.8284 28.8284C31.5786 28.0783 32 27.0609 32 26V25.978C31.9999 25.3354 31.8453 24.7022 31.549 24.132ZM18 26H14V22H18V26ZM18 18H14V7H18V18Z"/></svg>