<svg xmlns="http://www.w3.org/2000/svg" width="1.25em" height="1.25em" fill="none" viewBox="0 0 28 32"><path fill="currentColor" d="M24 0H4C2.93913 0 1.92172 0.421427 1.17157 1.17157C0.421427 1.92172 0 2.93913 0 4V32H28V4C28 2.93913 27.5786 1.92172 26.8284 1.17157C26.0783 0.421427 25.0609 0 24 0ZM5 4H12V8H5V4ZM14 27C12.4177 27 10.871 26.5308 9.55544 25.6518C8.23985 24.7727 7.21446 23.5233 6.60896 22.0615C6.00346 20.5997 5.84504 18.9911 6.15372 17.4393C6.4624 15.8874 7.22433 14.462 8.34315 13.3431C9.46197 12.2243 10.8874 11.4624 12.4393 11.1537C13.9911 10.845 15.5997 11.0035 17.0615 11.609C18.5233 12.2145 19.7727 13.2398 20.6518 14.5554C21.5308 15.871 22 17.4177 22 19C22 21.1217 21.1571 23.1566 19.6569 24.6569C18.1566 26.1571 16.1217 27 14 27Z"/></svg>