<svg xmlns="http://www.w3.org/2000/svg" width="1.25em" height="1.25em" fill="none" viewBox="0 0 30 30"><path fill="currentColor" d="M28.8035 21.6111L19.6217 12.4294C20.1276 11.1595 20.2493 9.76894 19.9718 8.43046C19.6944 7.09197 19.0299 5.86446 18.0608 4.90032L14.3881 1.21741C14.0084 0.831839 13.5558 0.525641 13.0566 0.316638C12.5575 0.107634 12.0217 0 11.4806 0C10.9394 0 10.4037 0.107634 9.90451 0.316638C9.40534 0.525641 8.95273 0.831839 8.57302 1.21741L7.04273 2.7375L13.0415 8.74646L8.73625 13.0925L2.7375 7.09374L1.21741 8.61383C0.831839 8.99354 0.525641 9.44615 0.316638 9.94532C0.107634 10.4445 0 10.9802 0 11.5214C0 12.0625 0.107634 12.5983 0.316638 13.0975C0.525641 13.5966 0.831839 14.0492 1.21741 14.4289L4.89012 18.1118C5.85914 19.0766 7.08886 19.7373 8.42822 20.0128C9.76758 20.2883 11.1582 20.1665 12.4294 19.6625L21.6111 28.8443C22.3532 29.5844 23.3584 30 24.4065 30C25.4545 30 26.4598 29.5844 27.2018 28.8443L28.8341 27.2222C29.2016 26.8524 29.4925 26.4136 29.69 25.931C29.8874 25.4485 29.9876 24.9317 29.9848 24.4103C29.9819 23.8889 29.8761 23.3732 29.6734 22.8929C29.4707 22.4125 29.175 21.9769 28.8035 21.6111Z"/></svg>