<svg xmlns="http://www.w3.org/2000/svg" xml:space="preserve" height="48" width="48" viewBox="31.5 0 204.72 148.32">
  <path d="M108.5 47c0-16.9-13.6-30.5-30.3-30.5-16.8 0-30.4 13.7-30.4 30.5 0 16.9 13.6 30.5 30.4 30.5 16.7 0 30.3-13.7 30.3-30.5m66.5 1.1c0-6.6-5.4-12-12-12s-12 5.4-12 12c0 6.7 5.4 12 12 12 6.7 0 12-5.4 12-12M203.9 76c3.1-.5 6.8-11.5 1-10.9-41.3 2.9-42.4 2.8-83.5 0-5.9-.6-2.1 10.4 1 10.9 18.4 3.7 23.1 4.5 23.1 9.6-.6 8.5-.8 16.2-12.3 49.7-2.7 6.3 9.1 4.4 10.5 1.2 7.4-14.3 12.1-25.7 17-31.2 1.3-1.5 4-1.6 5.1 0 4.9 5.6 9.6 16.9 17 31.2 1.4 3.2 13.2 5.1 10.5-1.2-11.5-33.5-11.8-41.2-12.3-49.7-.2-5.1 4.5-5.9 22.9-9.6m32.3-15.8v67.3c0 10.6-7.3 20.8-20.5 20.8H97.3c-13.8 0-19.3-12.2-19.3-20.8v-24.3c0-4.5-3.2-9.4-8.9-10.1C47.7 88.8 31.5 69.8 31.5 47c0-26 20.9-47 46.7-47 14.7 0 27.8 6.8 36.3 17.5 4.3 5.4 8.9 5 12.8 2.9 10.7-6.1 19.3-11 20.5-11.7 5.6-3.2 11-4.3 17.9-.2 3.2 1.9 54.8 31.8 63.4 36.9 6.9 4 7.1 8.4 7.1 14.8" style="fill:#0d4fa7"/>
  <path d="M204.9 65.1c5.9-.6 2.1 10.4-1 10.9-18.4 3.7-23.1 4.5-23.1 9.6.6 8.5.8 16.2 12.3 49.7 2.7 6.3-9.1 4.4-10.5 1.2-7.4-14.3-12.1-25.7-17-31.3-1.2-1.6-3.9-1.5-5.1 0-4.9 5.6-9.6 16.9-17 31.3-1.4 3.2-13.2 5.1-10.5-1.2 11.6-33.5 11.8-41.2 12.3-49.7 0-5.1-4.7-5.9-23.1-9.6-3.1-.5-6.8-11.5-1-10.9 41.2 2.8 42.4 2.9 83.7 0M163.1 36c6.6 0 12 5.4 12 12 0 6.7-5.4 12-12 12s-12-5.4-12-12 5.4-12 12-12" style="fill:#fff"/>
  <path d="M78.2 16.4c16.8 0 30.3 13.7 30.3 30.5 0 16.9-13.6 30.5-30.3 30.5-16.8 0-30.4-13.7-30.4-30.5s13.6-30.5 30.4-30.5" style="fill:#008761"/>
</svg>
