<svg xmlns="http://www.w3.org/2000/svg" viewBox="0 0 571 397">
  <style>
    @media (prefers-color-scheme: dark) {
      path { fill: #fff; }
    }
  </style>
  <path fill="#333" d="m323.48 12.21-67.86 40.06c-12.25 7.23-27.95 4.56-37.05-6.37-22.9-27.49-57.54-44.86-96.23-44.4C55.85 2.28 1.51 56.5.59 122.99-.37 191.87 55.18 248 123.83 248h.28c14.83-.03 26.95 11.78 26.95 26.62v75.52c0 25.61 20.76 46.37 46.37 46.37h326.62c25.61 0 46.37-20.76 46.37-46.37V161.58c0-21.71-10.94-41.96-29.1-53.87L398.34 13.97c-22.58-14.8-51.61-15.48-74.86-1.76Zm-199.65 189.1c-42.22 0-76.56-34.35-76.56-76.56s34.35-76.56 76.56-76.56 76.56 34.35 76.56 76.56-34.35 76.56-76.56 76.56ZM360.79 67.67c20.2 0 36.53 16.33 36.53 36.96s-16.33 36.96-36.53 36.96-36.53-16.33-36.53-36.96 16.33-36.96 36.53-36.96Zm108.57 109.11c-18.38 8.46-42.06 17.46-60 24.1-3.42 1.27-5.43 4.81-4.74 8.39 5.71 29.57 31.18 106.84 43.69 137.54.4.98-.11 2.08-1.1 2.43l-15.03 5.25c-9.27 3.24-19.47-1.18-23.44-10.16-12.59-28.53-28.69-62.9-40.83-82.49-3.28-5.29-10.95-5.29-14.23 0-12.14 19.6-28.24 53.96-40.83 82.49-3.96 8.98-14.17 13.4-23.44 10.16l-15.03-5.25c-1-.35-1.5-1.45-1.1-2.43 12.51-30.7 37.97-107.97 43.69-137.54a7.443 7.443 0 0 0-4.74-8.39c-17.94-6.65-41.61-15.64-60-24.1-9-4.14-13.3-14.51-9.81-23.78l6.02-16.01a1.946 1.946 0 0 1 2.71-1.05c13.55 6.92 60.86 28.75 109.65 28.75s96.1-21.82 109.65-28.75c1.04-.53 2.3-.04 2.71 1.05l6.02 16.01c3.49 9.27-.81 19.64-9.81 23.78Z"/>
</svg>
