<svg xmlns="http://www.w3.org/2000/svg" width="1.5em" height="1.5em" fill="none" viewBox="0 0 24 24"><path stroke="currentColor" stroke-linecap="round" stroke-linejoin="round" stroke-width="1.5" d="M20.26 3.74C19.34 2.82 17.83 2.86 16.96 3.83L14.91 6.11L7.37 4.33C6.72 4.18 6.04 4.37 5.57 4.84L4.63 5.78L12.11 9.48L8.94 12.78L4.76 12.44L3.06 14.14L8.06 15.93L9.85 20.93L11.55 19.23L11.21 15.05L14.74 12.12L18.21 19.37L19.15 18.43C19.62 17.96 19.81 17.28 19.66 16.63L17.88 9.09L20.16 7.04C21.13 6.17 21.17 4.66 20.25 3.74H20.26Z"/></svg>