<svg xmlns="http://www.w3.org/2000/svg" width="1.25em" height="1.25em" fill="none" viewBox="0 0 19 19"><path fill="currentColor" d="M18.2788 0.721167C17.2812 -0.276427 15.6498 -0.234861 14.7093 0.819887L12.4959 3.2827L4.34369 1.35505C3.64226 1.18879 2.90445 1.39662 2.39526 1.90581L1.37689 2.92419L9.21735 6.93015L7.27932 9.0916L5.79332 10.7491L3.62147 10.2347L1.83931 9.81382L0 11.6531L4.13066 13.7678L4.85807 14.1419L5.23217 14.8693L7.34686 19L9.18618 17.1607L8.76532 15.3785L8.25093 13.2067L9.9032 11.7207L12.0646 9.78264L16.0706 17.6231L17.089 16.6047C17.5982 16.0955 17.806 15.3577 17.6397 14.6563L15.7121 6.50409L18.1749 4.29068C19.2245 3.35024 19.2712 1.71876 18.2736 0.721167H18.2788Z"/></svg>