<svg xmlns="http://www.w3.org/2000/svg" width="1.5em" height="1.5em" fill="none" viewBox="0 0 24 24"><path fill="currentColor" d="M20.09 4.195C19.13 3.235 17.56 3.275 16.655 4.29L14.525 6.66L6.68 4.805C6.005 4.645 5.295 4.845 4.805 5.335L3.825 6.315L11.37 10.17L9.505 12.25L8.075 13.845L5.985 13.35L4.27 12.945L2.5 14.715L6.475 16.75L7.175 17.11L7.535 17.81L9.57 21.785L11.34 20.015L10.935 18.3L10.44 16.21L12.03 14.78L14.11 12.915L17.965 20.46L18.945 19.48C19.435 18.99 19.635 18.28 19.475 17.605L17.62 9.76L19.99 7.63C21 6.725 21.045 5.155 20.085 4.195H20.09Z"/></svg>