<svg xmlns="http://www.w3.org/2000/svg" width="1.5em" height="1.5em" fill="none" viewBox="0 0 24 24"><path fill="currentColor" d="M20.5 12C20.5 10.3189 20.0015 8.67548 19.0675 7.27766C18.1335 5.87984 16.806 4.79037 15.2528 4.14703C13.6996 3.50368 11.9906 3.33535 10.3417 3.66333C8.6929 3.9913 7.17834 4.80085 5.9896 5.9896C4.80085 7.17834 3.9913 8.6929 3.66333 10.3417C3.33535 11.9906 3.50368 13.6996 4.14703 15.2528C4.79037 16.806 5.87984 18.1335 7.27766 19.0675C8.67548 20.0015 10.3189 20.5 12 20.5V17.5C10.9122 17.5 9.84884 17.1774 8.94437 16.5731C8.0399 15.9687 7.33495 15.1098 6.91867 14.1048C6.50238 13.0998 6.39347 11.9939 6.60568 10.927C6.8179 9.86011 7.34173 8.88011 8.11092 8.11092C8.88011 7.34173 9.86011 6.8179 10.927 6.60568C11.9939 6.39347 13.0998 6.50238 14.1048 6.91867C15.1098 7.33495 15.9687 8.0399 16.5731 8.94437C17.1774 9.84884 17.5 10.9122 17.5 12V13H15.5V10.5C15.5 9.96957 15.2893 9.46086 14.9142 9.08579C14.5391 8.71072 14.0304 8.5 13.5 8.5H10.5C9.96957 8.5 9.46086 8.71072 9.08579 9.08579C8.71072 9.46086 8.5 9.96957 8.5 10.5V13.5C8.5 14.0304 8.71072 14.5391 9.08579 14.9142C9.46086 15.2893 9.96957 15.5 10.5 15.5H18.5C19.0304 15.5 19.5391 15.2893 19.9142 14.9142C20.2893 14.5391 20.5 14.0304 20.5 13.5V13V12ZM13 13H11V11H13V13Z"/></svg>