<svg xmlns="http://www.w3.org/2000/svg" width="1.25em" height="1.25em" fill="none" viewBox="0 0 17 17"><path fill="currentColor" d="M17 8.5C17 6.81886 16.5015 5.17548 15.5675 3.77766C14.6335 2.37984 13.306 1.29037 11.7528 0.647028C10.1996 0.00368309 8.49057 -0.164645 6.84174 0.163329C5.1929 0.491303 3.67834 1.30085 2.4896 2.4896C1.30085 3.67834 0.491303 5.1929 0.163329 6.84174C-0.164645 8.49057 0.00368309 10.1996 0.647028 11.7528C1.29037 13.306 2.37984 14.6335 3.77766 15.5675C5.17548 16.5015 6.81886 17 8.5 17V14C7.41221 14 6.34884 13.6774 5.44437 13.0731C4.5399 12.4687 3.83495 11.6098 3.41867 10.6048C3.00238 9.59977 2.89347 8.4939 3.10568 7.42701C3.3179 6.36011 3.84173 5.38011 4.61092 4.61092C5.38011 3.84173 6.36011 3.3179 7.42701 3.10568C8.4939 2.89347 9.59977 3.00238 10.6048 3.41867C11.6098 3.83495 12.4687 4.5399 13.0731 5.44437C13.6774 6.34884 14 7.41221 14 8.5V9.5H12V7C12 6.46957 11.7893 5.96086 11.4142 5.58579C11.0391 5.21072 10.5304 5 10 5H7C6.46957 5 5.96086 5.21072 5.58579 5.58579C5.21072 5.96086 5 6.46957 5 7V10C5 10.5304 5.21072 11.0391 5.58579 11.4142C5.96086 11.7893 6.46957 12 7 12H15C15.5304 12 16.0391 11.7893 16.4142 11.4142C16.7893 11.0391 17 10.5304 17 10V9.5V8.5ZM9.5 9.5H7.5V7.5H9.5V9.5Z"/></svg>