<svg xmlns="http://www.w3.org/2000/svg" width="1.5em" height="1.5em" fill="none" viewBox="0 0 24 24"><path fill="currentColor" fill-rule="evenodd" d="M6.5 4.5H17.5C18.0304 4.5 18.5391 4.71071 18.9142 5.08579C19.2893 5.46086 19.5 5.96957 19.5 6.5V17.5C19.5 18.0304 19.2893 18.5391 18.9142 18.9142C18.5391 19.2893 18.0304 19.5 17.5 19.5H6.5C5.96957 19.5 5.46086 19.2893 5.08579 18.9142C4.71071 18.5391 4.5 18.0304 4.5 17.5V6.5C4.5 5.96957 4.71071 5.46086 5.08579 5.08579C5.46086 4.71071 5.96957 4.5 6.5 4.5ZM7 16H9V8H7V16ZM15 14.5H17V9.5H15V8H11V16H15V14.5ZM15 14.5V9.5H13V14.5H15Z" clip-rule="evenodd"/></svg>