<svg xmlns="http://www.w3.org/2000/svg" width="1.25em" height="1.25em" fill="none" viewBox="0 0 15 15"><path fill="currentColor" fill-rule="evenodd" d="M2 0H13C13.5304 0 14.0391 0.210713 14.4142 0.585786C14.7893 0.960859 15 1.46957 15 2V13C15 13.5304 14.7893 14.0391 14.4142 14.4142C14.0391 14.7893 13.5304 15 13 15H2C1.46957 15 0.960859 14.7893 0.585786 14.4142C0.210714 14.0391 0 13.5304 0 13V2C0 1.46957 0.210714 0.960859 0.585786 0.585786C0.960859 0.210713 1.46957 0 2 0ZM2.5 11.5H4.5V3.5H2.5V11.5ZM10.5 10H12.5V5H10.5V3.5H6.5V11.5H10.5V10ZM10.5 10V5H8.5V10H10.5Z" clip-rule="evenodd"/></svg>