<svg xmlns="http://www.w3.org/2000/svg" width="1.5em" height="1.5em" fill="none" viewBox="0 0 24 24"><path fill="currentColor" fill-rule="evenodd" d="M5.5 4.5H10.5C11.0304 4.5 11.5391 4.71071 11.9142 5.08579C12.2893 5.46086 12.5 5.96957 12.5 6.5V17.5C12.5 18.0304 12.2893 18.5391 11.9142 18.9142C11.5391 19.2893 11.0304 19.5 10.5 19.5H5.5C4.96957 19.5 4.46086 19.2893 4.08579 18.9142C3.71071 18.5391 3.5 18.0304 3.5 17.5V6.5C3.5 5.96957 3.71071 5.46086 4.08579 5.08579C4.46086 4.71071 4.96957 4.5 5.5 4.5ZM7 17.5H9V15.5H7V17.5ZM6.018 14H10V7H6.018V14ZM14.5 7H16V12.5H14.5V7ZM20.5 8.5H19V11H20.5V12.5H19H17.5V7H19H20.5V8.5ZM20.5 8.5H22V11H20.5V8.5Z" clip-rule="evenodd"/></svg>