<svg xmlns="http://www.w3.org/2000/svg" width="1.5em" height="1.5em" fill="none" viewBox="0 0 24 24"><path stroke="currentColor" stroke-linecap="round" stroke-linejoin="round" stroke-width="1.5" d="M10.42 16.075C10.42 15.1775 9.69246 14.45 8.795 14.45C7.89754 14.45 7.17 15.1775 7.17 16.075C7.17 16.9724 7.89754 17.7 8.795 17.7C9.69246 17.7 10.42 16.9724 10.42 16.075Z"/><path stroke="currentColor" stroke-linecap="round" stroke-linejoin="round" stroke-width="1.5" d="M13.04 4.15002L3.59 13.6V19.52C3.59 20.49 4.38 21.28 5.35 21.28H11.27L20.72 11.83V5.91002C20.72 4.94002 19.93 4.15002 18.96 4.15002H13.04Z"/><path stroke="currentColor" stroke-linecap="round" stroke-linejoin="round" stroke-width="1.5" d="M15.0918 7.12178L10.8209 11.3927L13.4938 14.0656L17.7647 9.79464L15.0918 7.12178Z"/></svg>