<svg xmlns="http://www.w3.org/2000/svg" width="1.25em" height="1.25em" fill="none" viewBox="0 0 30 30"><path fill="currentColor" fill-rule="evenodd" d="M4 0H26C27.0609 0 28.0783 0.421427 28.8284 1.17157C29.5786 1.92172 30 2.93913 30 4V26C30 27.0609 29.5786 28.0783 28.8284 28.8284C28.0783 29.5786 27.0609 30 26 30H4C2.93913 30 1.92172 29.5786 1.17157 28.8284C0.421427 28.0783 0 27.0609 0 26V4C0 2.93913 0.421427 1.92172 1.17157 1.17157C1.92172 0.421427 2.93913 0 4 0ZM5 23H9V7H5V23ZM21 20H25V10H21V7H13V23H21V20ZM21 20V10H17V20H21Z" clip-rule="evenodd"/></svg>