<svg xmlns="http://www.w3.org/2000/svg" width="1.5em" height="1.5em" fill="none" viewBox="0 0 24 24"><path stroke="currentColor" stroke-linecap="round" stroke-linejoin="round" stroke-width="1.5" d="M8.11 15.75H8.1C7.23291 15.75 6.53 16.4529 6.53 17.32V17.33C6.53 18.1971 7.23291 18.9 8.1 18.9H8.11C8.97709 18.9 9.68 18.1971 9.68 17.33V17.32C9.68 16.4529 8.97709 15.75 8.11 15.75Z"/><path stroke="currentColor" stroke-linecap="round" stroke-linejoin="round" stroke-width="1.5" d="M11.11 3.02H5.11C3.79 3.02 2.71 4.11 2.71 5.46V18.85C2.71 20.19 3.78 21.29 5.11 21.29H11.11C12.43 21.29 13.51 20.2 13.51 18.85V5.46C13.51 4.12 12.44 3.02 11.11 3.02ZM16.19 5.98V10.46M18.45 5.98V10.47H20.23C20.82 10.47 21.3 9.99 21.3 9.4V7.05C21.3 6.46 20.82 5.98 20.23 5.98H18.45Z"/><path stroke="currentColor" stroke-linecap="round" stroke-linejoin="round" stroke-width="1.5" d="M10.7 5.97998H5.50999V13.07H10.7V5.97998Z"/></svg>