<svg xmlns="http://www.w3.org/2000/svg" width="1.5em" height="1.5em" fill="none" viewBox="0 0 24 24"><path stroke="currentColor" stroke-linecap="round" stroke-linejoin="round" stroke-width="1.5" d="M8.11 15.75H8.1C7.23291 15.75 6.53 16.4529 6.53 17.32V17.33C6.53 18.1971 7.23291 18.9 8.1 18.9H8.11C8.97709 18.9 9.68 18.1971 9.68 17.33V17.32C9.68 16.4529 8.97709 15.75 8.11 15.75Z"/><path stroke="currentColor" stroke-linecap="round" stroke-linejoin="round" stroke-width="1.5" d="M11.11 3.02002H5.11001C3.79001 3.02002 2.71001 4.11002 2.71001 5.46002V18.85C2.71001 20.19 3.78001 21.29 5.11001 21.29H11.11C12.43 21.29 13.51 20.2 13.51 18.85V5.46002C13.51 4.12002 12.44 3.02002 11.11 3.02002ZM16.19 5.97998V10.46M18.45 5.97998V10.47H20.23C20.82 10.47 21.3 9.98998 21.3 9.39998V7.04998C21.3 6.45998 20.82 5.97998 20.23 5.97998H18.45Z"/><path stroke="currentColor" stroke-linecap="round" stroke-linejoin="round" stroke-width="1.5" d="M10.7 5.97998H5.50999V13.07H10.7V5.97998Z"/></svg>