<svg xmlns="http://www.w3.org/2000/svg" width="1.25em" height="1.25em" fill="none" viewBox="0 0 19 15"><path fill="currentColor" fill-rule="evenodd" d="M2 0H7C7.53043 0 8.03914 0.210713 8.41421 0.585786C8.78929 0.960859 9 1.46957 9 2V13C9 13.5304 8.78929 14.0391 8.41421 14.4142C8.03914 14.7893 7.53043 15 7 15H2C1.46957 15 0.960859 14.7893 0.585786 14.4142C0.210714 14.0391 0 13.5304 0 13V2C0 1.46957 0.210714 0.960859 0.585786 0.585786C0.960859 0.210713 1.46957 0 2 0ZM3.5 13H5.5V11H3.5V13ZM2.518 9.5H6.5V2.5H2.518V9.5ZM11 2.5H12.5V8H11V2.5ZM17 4H15.5V6.5H17V8H15.5H14V2.5H15.5H17V4ZM17 4H18.5V6.5H17V4Z" clip-rule="evenodd"/></svg>