<svg xmlns="http://www.w3.org/2000/svg" width="1.25em" height="1.25em" fill="none" viewBox="0 0 16 18"><path fill="currentColor" d="M13.7646 15.9525H10.9009L9.17538 9.93555C9.78169 9.95022 10.3772 10.0989 10.9193 10.371C11.1611 10.5151 11.4299 10.6081 11.7091 10.6443C11.9883 10.6805 12.272 10.6592 12.5426 10.5815C12.8132 10.5039 13.065 10.3716 13.2826 10.1929C13.5001 10.0142 13.6787 9.79282 13.8074 9.54241C14.2859 8.7076 15.0734 8.0943 16 7.83473C15.4517 5.9258 14.2255 4.2826 12.5517 3.21355C10.8778 2.14449 8.87135 1.72308 6.90884 2.02841L6.32704 0L4.36645 0.560898L4.94774 2.58931C3.12144 3.37043 1.64305 4.79129 0.790096 6.58517C-0.0628563 8.37904 -0.231711 10.4226 0.315229 12.3321C1.23846 12.0617 2.231 12.1648 3.07893 12.6192C3.32037 12.7632 3.58876 12.8562 3.86754 12.8925C4.14632 12.9288 4.42958 12.9075 4.69983 12.8301C4.97008 12.7526 5.22159 12.6206 5.43884 12.4422C5.65609 12.2637 5.83447 12.0427 5.96297 11.7926C6.27922 11.2739 6.70637 10.8316 7.21377 10.4975L8.77919 15.9525H6.11594C5.57499 15.9525 5.05621 16.1673 4.6737 16.5499C4.2912 16.9324 4.07631 17.4511 4.07631 17.9921H15.8042C15.8042 17.4511 15.5893 16.9324 15.2068 16.5499C14.8243 16.1673 14.3055 15.9525 13.7646 15.9525Z"/></svg>