<svg xmlns="http://www.w3.org/2000/svg" width="1.5em" height="1.5em" fill="none" viewBox="0 0 24 24"><path stroke="currentColor" stroke-linecap="round" stroke-linejoin="round" stroke-width="1.5" d="M12.21 13.08C13.31 12.78 14.47 13.25 14.98 13.57C15.96 14.16 17.27 13.86 17.86 12.88C17.86 12.83 17.91 12.83 17.91 12.78C18.39 11.95 19.24 11.34 20.18 11.09C19.09 7.06 15.11 4.44 10.98 5.01C10.98 5.01 10.35 5.13 9.93 5.24C9.54 5.35 8.99 5.55 8.99 5.55C5.11 7.11 3.01 11.36 4.1 15.39C5.04 15.14 6.08 15.26 6.91 15.74C7.89 16.33 9.2 16.03 9.79 15.05C10.35 14.24 10.97 13.41 12.2 13.07L12.21 13.08Z"/><path stroke="currentColor" stroke-linecap="round" stroke-linejoin="round" stroke-width="1.5" d="M9.06 21H19.54"/><path stroke="currentColor" stroke-linecap="round" stroke-linejoin="round" stroke-width="1.5" d="M12.18 13.27L14.33 21"/><path stroke="currentColor" stroke-linecap="round" stroke-linejoin="round" stroke-width="1.5" d="M9.32999 3L9.88999 5.04"/></svg>