<svg xmlns="http://www.w3.org/2000/svg" width="1.5em" height="1.5em" fill="none" viewBox="0 0 24 24"><path fill="currentColor" d="M17.5 18.5H14.692L13 12.6C13.5945 12.6144 14.1785 12.7602 14.71 13.027C14.9472 13.1683 15.2108 13.2595 15.4845 13.295C15.7583 13.3305 16.0364 13.3096 16.3018 13.2334C16.5671 13.1573 16.8141 13.0276 17.0274 12.8524C17.2407 12.6771 17.4158 12.46 17.542 12.2145C18.0113 11.3959 18.7834 10.7945 19.692 10.54C19.1544 8.66816 17.952 7.05689 16.3107 6.0086C14.6694 4.96032 12.7019 4.5471 10.7775 4.8465L10.207 2.8575L8.2845 3.4075L8.8545 5.3965C7.06369 6.16244 5.61402 7.5557 4.77764 9.31472C3.94126 11.0737 3.77569 13.0776 4.312 14.95C5.2173 14.6848 6.19055 14.7859 7.022 15.2315C7.25875 15.3727 7.52193 15.4639 7.79529 15.4995C8.06866 15.5351 8.34641 15.5142 8.61141 15.4383C8.87641 15.3623 9.12304 15.2329 9.33606 15.0579C9.54909 14.883 9.724 14.6662 9.85 14.421C10.1601 13.9123 10.579 13.4786 11.0765 13.151L12.6115 18.5H10C9.46957 18.5 8.96086 18.7107 8.58579 19.0858C8.21072 19.4609 8 19.9696 8 20.5H19.5C19.5 19.9696 19.2893 19.4609 18.9142 19.0858C18.5391 18.7107 18.0304 18.5 17.5 18.5Z"/></svg>