<svg xmlns="http://www.w3.org/2000/svg" width="1.5em" height="1.5em" fill="none" viewBox="0 0 24 24"><path stroke="currentColor" stroke-linecap="round" stroke-linejoin="round" stroke-width="1.5" d="M5 9C5 9.53043 5.21071 10.0391 5.58579 10.4142C5.96086 10.7893 6.46957 11 7 11C7.53043 11 8.03914 10.7893 8.41421 10.4142C8.78929 10.0391 9 9.53043 9 9C9 8.46957 8.78929 7.96086 8.41421 7.58579C8.03914 7.21071 7.53043 7 7 7C6.46957 7 5.96086 7.21071 5.58579 7.58579C5.21071 7.96086 5 8.46957 5 9Z"/><path stroke="currentColor" stroke-linecap="round" stroke-linejoin="round" stroke-width="1.5" d="M22 17V14H2"/><path stroke="currentColor" stroke-linecap="round" stroke-linejoin="round" stroke-width="1.5" d="M2 8V17"/><path stroke="currentColor" stroke-linecap="round" stroke-linejoin="round" stroke-width="1.5" d="M12 14H22V12C22 11.2044 21.6839 10.4413 21.1213 9.87868C20.5587 9.31607 19.7956 9 19 9H12V14Z"/></svg>