<svg xmlns="http://www.w3.org/2000/svg" width="1.5em" height="1.5em" fill="none" viewBox="0 0 24 24"><path stroke="currentColor" stroke-linecap="round" stroke-linejoin="round" stroke-width="1.5" d="M5 9C5 9.53 5.211 10.039 5.586 10.414 5.961 10.789 6.47 11 7 11 7.53 11 8.039 10.789 8.414 10.414 8.789 10.039 9 9.53 9 9 9 8.47 8.789 7.961 8.414 7.586 8.039 7.211 7.53 7 7 7 6.47 7 5.961 7.211 5.586 7.586 5.211 7.961 5 8.47 5 9ZM22 17V14H2M2 8V17M12 14H22V12C22 11.204 21.684 10.441 21.121 9.879 20.559 9.316 19.796 9 19 9H12V14Z"/></svg>