<svg xmlns="http://www.w3.org/2000/svg" width="1.5em" height="1.5em" fill="none" viewBox="0 0 24 24"><path stroke="currentColor" stroke-linecap="round" stroke-linejoin="round" stroke-width="1.5" d="M6.48 17.6C8.557 17.6 10.24 15.917 10.24 13.84 10.24 11.763 8.557 10.08 6.48 10.08 4.403 10.08 2.72 11.763 2.72 13.84 2.72 15.917 4.403 17.6 6.48 17.6ZM17.52 17.6C19.597 17.6 21.28 15.917 21.28 13.84 21.28 11.763 19.597 10.08 17.52 10.08 15.443 10.08 13.76 11.763 13.76 13.84 13.76 15.917 15.443 17.6 17.52 17.6Z"/><path stroke="currentColor" stroke-linecap="round" stroke-linejoin="round" stroke-width="1.5" d="M17.52 13.84 13.36 6.4H10.11M6.48 13.84 14.11 8.43"/></svg>