<svg xmlns="http://www.w3.org/2000/svg" width="1.25em" height="1.25em" fill="none" viewBox="0 0 18 13"><path fill="currentColor" d="M17.5 8.5C17.5 7.57174 17.1313 6.6815 16.4749 6.02513C15.8185 5.36875 14.9283 5 14 5C13.9175 5 13.837 5.007 13.7565 5.0125L12.5 2.5V2H13.5C13.7641 2.00531 14.0266 1.9572 14.2716 1.85857C14.5167 1.75994 14.7392 1.61282 14.926 1.42603C15.1128 1.23925 15.2599 1.01665 15.3586 0.771601C15.4572 0.526551 15.5053 0.264101 15.5 0H10.5V2.5865L6.874 6.2125L6.039 2H7C7 1.46957 6.78929 0.960859 6.41421 0.585786C6.03914 0.210714 5.53043 0 5 0H3V2H4L5.1715 7.914L2.0855 11H0V13H16V11.369C16.4631 11.0474 16.8414 10.6185 17.1026 10.1189C17.3638 9.61924 17.5002 9.06379 17.5 8.5ZM11.305 4.6095L11.866 5.7305C11.4688 6.03516 11.1416 6.42166 10.9068 6.8638C10.672 7.30593 10.535 7.79338 10.505 8.29311C10.475 8.79284 10.5528 9.29317 10.7331 9.7602C10.9134 10.2272 11.192 10.65 11.55 11H4.914L11.305 4.6095Z"/></svg>