<svg xmlns="http://www.w3.org/2000/svg" width="1.5em" height="1.5em" fill="none" viewBox="0 0 24 24"><path fill="currentColor" d="M21 14.5C21 13.5717 20.6313 12.6815 19.9749 12.0251C19.3185 11.3687 18.4283 11 17.5 11C17.4175 11 17.337 11.007 17.2565 11.0125L16 8.5V8H17C17.2641 8.00531 17.5266 7.9572 17.7716 7.85857C18.0167 7.75994 18.2392 7.61282 18.426 7.42603C18.6128 7.23925 18.7599 7.01665 18.8586 6.7716C18.9572 6.52655 19.0053 6.2641 19 6H14V8.5865L10.374 12.2125L9.539 8H10.5C10.5 7.46957 10.2893 6.96086 9.91421 6.58579C9.53914 6.21071 9.03043 6 8.5 6H6.5V8H7.5L8.6715 13.914L5.5855 17H3.5V19H19.5V17.369C19.9631 17.0474 20.3414 16.6185 20.6026 16.1189C20.8638 15.6192 21.0002 15.0638 21 14.5ZM14.805 10.6095L15.366 11.7305C14.9688 12.0352 14.6416 12.4217 14.4068 12.8638C14.172 13.3059 14.035 13.7934 14.005 14.2931C13.975 14.7928 14.0528 15.2932 14.2331 15.7602C14.4134 16.2272 14.692 16.65 15.05 17H8.414L14.805 10.6095Z"/></svg>