<svg xmlns="http://www.w3.org/2000/svg" width="1.5em" height="1.5em" fill="none" viewBox="0 0 24 24"><path fill="currentColor" d="M17 11C16.8925 11 16.7865 11.0065 16.681 11.016L16 8.4845V8H17C17.5304 8 18.0391 7.78929 18.4142 7.41421C18.7893 7.03914 19 6.53043 19 6H14V8.789L9.84351 11.189L8.98551 8H10C10 7.46957 9.78929 6.96086 9.41422 6.58579C9.03915 6.21071 8.53044 6 8.00001 6H6.00001V8H6.91451L7.78801 11.25C7.05128 10.9582 6.23732 10.925 5.47928 11.1559C4.72123 11.3868 4.06398 11.868 3.61501 12.521C3.16605 13.174 2.95195 13.96 3.00774 14.7504C3.06353 15.5409 3.38591 16.289 3.92214 16.8725C4.45837 17.4559 5.17672 17.8401 5.95968 17.9622C6.74263 18.0843 7.54386 17.9371 8.2323 17.5447C8.92073 17.1523 9.45563 16.5379 9.74949 15.802C10.0434 15.066 10.0788 14.2522 9.85001 13.4935L14.5455 10.782L14.811 11.77C14.1666 12.287 13.7258 13.0154 13.5667 13.8261C13.4076 14.6369 13.5405 15.4778 13.9418 16.2C14.3431 16.9222 14.987 17.4792 15.7595 17.7723C16.532 18.0654 17.3832 18.0759 18.1626 17.8017C18.942 17.5275 19.5993 16.9865 20.0182 16.2743C20.437 15.5621 20.5904 14.7247 20.4512 13.9103C20.312 13.0959 19.8892 12.357 19.2575 11.8243C18.6259 11.2917 17.8262 10.9997 17 11Z"/></svg>