<svg xmlns="http://www.w3.org/2000/svg" width="1.25em" height="1.25em" fill="none" viewBox="0 0 18 13"><path fill="currentColor" d="M14.3992 5.14221C14.2886 5.14221 14.1796 5.1489 14.0711 5.15867L13.3707 2.55516V2.05688H14.3992C14.9447 2.05688 15.4679 1.84018 15.8536 1.45444C16.2393 1.0687 16.4561 0.54552 16.4561 0H11.3138V2.86833L7.03912 5.33659L6.15672 2.05688H7.20008C7.20008 1.51136 6.98337 0.988188 6.59763 0.602447C6.21189 0.216707 5.68871 0 5.14319 0H3.08631V2.05688H4.02682L4.92516 5.39932C4.16748 5.09919 3.33037 5.06507 2.55077 5.30252C1.77116 5.53997 1.09521 6.03495 0.633478 6.70649C0.171744 7.37803 -0.0484422 8.18638 0.00893618 8.99932C0.0663146 9.81226 0.397861 10.5817 0.949344 11.1817C1.50083 11.7817 2.2396 12.1768 3.04483 12.3024C3.85006 12.428 4.67407 12.2767 5.38209 11.8731C6.0901 11.4695 6.64022 10.8376 6.94244 10.0808C7.24466 9.3239 7.2811 8.48689 7.04581 7.70663L11.8749 4.91801L12.1479 5.93411C11.4851 6.46585 11.0318 7.21491 10.8682 8.04874C10.7046 8.88256 10.8413 9.74737 11.254 10.4901C11.6667 11.2329 12.3289 11.8057 13.1234 12.1071C13.9178 12.4086 14.7933 12.4193 15.5949 12.1374C16.3964 11.8554 17.0724 11.299 17.5032 10.5665C17.9339 9.83407 18.0917 8.97285 17.9485 8.13528C17.8054 7.29771 17.3705 6.53778 16.7209 5.99001C16.0713 5.44223 15.2489 5.14191 14.3992 5.14221Z"/></svg>