<svg xmlns="http://www.w3.org/2000/svg" width="1.5em" height="1.5em" fill="none" viewBox="0 0 24 24"><path stroke="currentColor" stroke-linecap="round" stroke-linejoin="round" stroke-width="1.5" d="M6.48 17.6C8.55659 17.6 10.24 15.9166 10.24 13.84 10.24 11.7634 8.55659 10.08 6.48 10.08 4.40341 10.08 2.72 11.7634 2.72 13.84 2.72 15.9166 4.40341 17.6 6.48 17.6ZM17.52 17.6C19.5966 17.6 21.28 15.9166 21.28 13.84 21.28 11.7634 19.5966 10.08 17.52 10.08 15.4434 10.08 13.76 11.7634 13.76 13.84 13.76 15.9166 15.4434 17.6 17.52 17.6Z"/><path stroke="currentColor" stroke-linecap="round" stroke-linejoin="round" stroke-width="1.5" d="M17.52 13.84 13.36 6.39999H10.11M6.48001 13.84 14.11 8.42999"/></svg>