<svg xmlns="http://www.w3.org/2000/svg" width="1.25em" height="1.25em" fill="none" viewBox="0 0 18 13"><path fill="currentColor" fill-rule="evenodd" d="M5.5 4.5C6.0175 0.767 10 0 10 0L14 4.5H5.5ZM0 12.5V6.5H18V6.713C18 7.47296 17.8503 8.22548 17.5595 8.92759C17.2687 9.6297 16.8424 10.2677 16.305 10.805C15.7677 11.3424 15.1297 11.7687 14.4276 12.0595C13.7255 12.3503 12.973 12.5 12.213 12.5H0ZM2.44443 10.3155C2.60888 10.4254 2.80222 10.484 3 10.484C3.26522 10.484 3.51957 10.3786 3.70711 10.1911C3.89464 10.0036 4 9.74922 4 9.484C4 9.28622 3.94135 9.09288 3.83147 8.92843C3.72159 8.76398 3.56541 8.63581 3.38268 8.56012C3.19996 8.48443 2.99889 8.46463 2.80491 8.50321C2.61093 8.5418 2.43275 8.63704 2.29289 8.77689C2.15304 8.91675 2.0578 9.09493 2.01921 9.28891C1.98063 9.48289 2.00043 9.68396 2.07612 9.86668C2.15181 10.0494 2.27998 10.2056 2.44443 10.3155Z" clip-rule="evenodd"/></svg>