<svg xmlns="http://www.w3.org/2000/svg" width="1.5em" height="1.5em" fill="none" viewBox="0 0 24 24"><path fill="currentColor" fill-rule="evenodd" d="M8.5 9C9.0175 5.267 13 4.5 13 4.5L17 9H8.5ZM3 17V11H21V11.213C21 11.973 20.8503 12.7255 20.5595 13.4276C20.2687 14.1297 19.8424 14.7677 19.305 15.305C18.7677 15.8424 18.1297 16.2687 17.4276 16.5595C16.7255 16.8503 15.973 17 15.213 17H3ZM5.44443 14.8155C5.60888 14.9254 5.80222 14.984 6 14.984C6.26522 14.984 6.51957 14.8786 6.70711 14.6911C6.89464 14.5036 7 14.2492 7 13.984C7 13.7862 6.94135 13.5929 6.83147 13.4284C6.72159 13.264 6.56541 13.1358 6.38268 13.0601C6.19996 12.9844 5.99889 12.9646 5.80491 13.0032C5.61093 13.0418 5.43275 13.137 5.29289 13.2769C5.15304 13.4167 5.0578 13.5949 5.01921 13.7889C4.98063 13.9829 5.00043 14.184 5.07612 14.3667C5.15181 14.5494 5.27998 14.7056 5.44443 14.8155Z" clip-rule="evenodd"/></svg>