<svg xmlns="http://www.w3.org/2000/svg" width="1.5em" height="1.5em" fill="none" viewBox="0 0 24 24"><path stroke="currentColor" stroke-linecap="round" stroke-linejoin="round" stroke-width="1.5" d="M3 9C3 8.46957 3.21071 7.96086 3.58579 7.58579 3.96086 7.21071 4.46957 7 5 7H19C19.5304 7 20.0391 7.21071 20.4142 7.58579 20.7893 7.96086 21 8.46957 21 9V18C21 18.5304 20.7893 19.0391 20.4142 19.4142 20.0391 19.7893 19.5304 20 19 20H5C4.46957 20 3.96086 19.7893 3.58579 19.4142 3.21071 19.0391 3 18.5304 3 18V9ZM8 7V5C8 4.46957 8.21071 3.96086 8.58579 3.58579 8.96086 3.21071 9.46957 3 10 3H14C14.5304 3 15.0391 3.21071 15.4142 3.58579 15.7893 3.96086 16 4.46957 16 5V7M12 12V12.01"/><path stroke="currentColor" stroke-linecap="round" stroke-linejoin="round" stroke-width="1.5" d="M3 13C5.79158 14.4067 8.87403 15.1394 12 15.1394C15.126 15.1394 18.2084 14.4067 21 13"/></svg>