<svg xmlns="http://www.w3.org/2000/svg" width="1.5em" height="1.5em" fill="none" viewBox="0 0 24 24"><path stroke="currentColor" stroke-linecap="round" stroke-linejoin="round" stroke-width="1.5" d="M3 9C3 8.47 3.211 7.961 3.586 7.586 3.961 7.211 4.47 7 5 7H19C19.53 7 20.039 7.211 20.414 7.586 20.789 7.961 21 8.47 21 9V18C21 18.53 20.789 19.039 20.414 19.414 20.039 19.789 19.53 20 19 20H5C4.47 20 3.961 19.789 3.586 19.414 3.211 19.039 3 18.53 3 18V9ZM8 7V5C8 4.47 8.211 3.961 8.586 3.586 8.961 3.211 9.47 3 10 3H14C14.53 3 15.039 3.211 15.414 3.586 15.789 3.961 16 4.47 16 5V7M12 12V12.01"/><path stroke="currentColor" stroke-linecap="round" stroke-linejoin="round" stroke-width="1.5" d="M3 13C5.79158 14.4067 8.87403 15.1394 12 15.1394C15.126 15.1394 18.2084 14.4067 21 13"/></svg>