<svg xmlns="http://www.w3.org/2000/svg" width="1.5em" height="1.5em" fill="none" viewBox="0 0 24 24"><path fill="currentColor" d="M19.985 11.48V8.97999H18V6.995C18 5.89 17.105 4.995 16 4.995H8C6.895 4.995 6 5.89 6 6.995V8.97999H3.985V11.48H6V12.98H3.985V15.48H6V18.995H10.5V16.995C10.5 16.165 11.17 15.495 12 15.495C12.83 15.495 13.5 16.165 13.5 16.995V18.995H18V15.48H19.985V12.98H18V11.48H19.985ZM8.5 7.495H10.5V8.97999H8.5V7.495ZM8.5 11.495H10.5V12.98H8.5V11.495ZM15.5 7.495V8.97999H13.5V7.495H15.5ZM13.5 12.98V11.495H15.5V12.98H13.5Z"/></svg>