<svg xmlns="http://www.w3.org/2000/svg" width="1.25em" height="1.25em" fill="none" viewBox="0 0 14 15"><path fill="currentColor" d="M14 4.00001H9.00001V6.7574e-06H1.86001C1.61556 -0.000653013 1.3734 0.0470069 1.14744 0.140247C0.921472 0.233487 0.716165 0.370468 0.543317 0.543317C0.370468 0.716165 0.233487 0.921472 0.140247 1.14744C0.0470069 1.3734 -0.000653013 1.61556 6.7574e-06 1.86001V15H14V4.00001ZM6.50001 12.5H2.50001V10.5H6.50001V12.5ZM6.50001 8.50001H2.50001V6.50001H6.50001V8.50001ZM6.50001 4.50001H2.50001V2.50001H6.50001V4.50001ZM11.5 12.5H9.50001V10.5H11.5V12.5ZM11.5 8.50001H9.50001V6.50001H11.5V8.50001Z"/></svg>