<svg xmlns="http://www.w3.org/2000/svg" width="1.5em" height="1.5em" fill="none" viewBox="0 0 24 24"><path fill="currentColor" d="M18 4.01599H6C5.46957 4.01599 4.96086 4.22671 4.58579 4.60178C4.21071 4.97685 4 5.48556 4 6.01599V19.984L10.5 20V17C10.5 16.6022 10.658 16.2206 10.9393 15.9393C11.2206 15.658 11.6022 15.5 12 15.5C12.3978 15.5 12.7794 15.658 13.0607 15.9393C13.342 16.2206 13.5 16.6022 13.5 17V20L20 19.9795V6.01599C20 5.48556 19.7893 4.97685 19.4142 4.60178C19.0391 4.22671 18.5304 4.01599 18 4.01599ZM6.5 13.5V7.49999C6.5 7.23477 6.60536 6.98042 6.79289 6.79288C6.98043 6.60535 7.23478 6.49999 7.5 6.49999C7.76522 6.49999 8.01957 6.60535 8.20711 6.79288C8.39464 6.98042 8.5 7.23477 8.5 7.49999V13.5H6.5ZM11 13.5V7.49999C11 7.23477 11.1054 6.98042 11.2929 6.79288C11.4804 6.60535 11.7348 6.49999 12 6.49999C12.2652 6.49999 12.5196 6.60535 12.7071 6.79288C12.8946 6.98042 13 7.23477 13 7.49999V13.5H11ZM15.5 13.5V7.49999C15.5 7.23477 15.6054 6.98042 15.7929 6.79288C15.9804 6.60535 16.2348 6.49999 16.5 6.49999C16.7652 6.49999 17.0196 6.60535 17.2071 6.79288C17.3946 6.98042 17.5 7.23477 17.5 7.49999V13.5H15.5Z"/></svg>