<svg xmlns="http://www.w3.org/2000/svg" width="1.25em" height="1.25em" fill="none" viewBox="0 0 16 14"><path fill="currentColor" d="M16 6.485V3.985H14.015V2C14.015 0.895 13.12 0 12.015 0H4.015C2.91 0 2.015 0.895 2.015 2V3.985H0V6.485H2.015V7.985H0V10.485H2.015V14H6.515V12C6.515 11.17 7.185 10.5 8.015 10.5C8.845 10.5 9.515 11.17 9.515 12V14H14.015V10.485H16V7.985H14.015V6.485H16ZM4.515 2.5H6.515V3.985H4.515V2.5ZM4.515 6.5H6.515V7.985H4.515V6.5ZM11.515 2.5V3.985H9.515V2.5H11.515ZM9.515 7.985V6.5H11.515V7.985H9.515Z"/></svg>