<svg xmlns="http://www.w3.org/2000/svg" width="1.25em" height="1.25em" fill="none" viewBox="0 0 16 16"><path fill="currentColor" d="M14 0H2C1.46957 0 0.960859 0.210714 0.585786 0.585787C0.210714 0.96086 0 1.46957 0 2V15.968L6.5 15.984V12.984C6.5 12.5862 6.65804 12.2046 6.93934 11.9233C7.22064 11.642 7.60218 11.484 8 11.484C8.39782 11.484 8.77936 11.642 9.06066 11.9233C9.34196 12.2046 9.5 12.5862 9.5 12.984V15.984L16 15.9635V2C16 1.46957 15.7893 0.96086 15.4142 0.585787C15.0391 0.210714 14.5304 0 14 0ZM2.5 9.484V3.484C2.5 3.21878 2.60536 2.96443 2.79289 2.77689C2.98043 2.58936 3.23478 2.484 3.5 2.484C3.76522 2.484 4.01957 2.58936 4.20711 2.77689C4.39464 2.96443 4.5 3.21878 4.5 3.484V9.484H2.5ZM7 9.484V3.484C7 3.21878 7.10536 2.96443 7.29289 2.77689C7.48043 2.58936 7.73478 2.484 8 2.484C8.26522 2.484 8.51957 2.58936 8.70711 2.77689C8.89464 2.96443 9 3.21878 9 3.484V9.484H7ZM11.5 9.484V3.484C11.5 3.21878 11.6054 2.96443 11.7929 2.77689C11.9804 2.58936 12.2348 2.484 12.5 2.484C12.7652 2.484 13.0196 2.58936 13.2071 2.77689C13.3946 2.96443 13.5 3.21878 13.5 3.484V9.484H11.5Z"/></svg>