<svg xmlns="http://www.w3.org/2000/svg" width="1.5em" height="1.5em" fill="none" viewBox="0 0 24 24"><path fill="currentColor" d="M19 8.50001H14V4.50001H6.86001C6.61556 4.49935 6.3734 4.54701 6.14744 4.64025C5.92147 4.73349 5.71617 4.87047 5.54332 5.04332C5.37047 5.21617 5.23349 5.42147 5.14025 5.64744C5.04701 5.8734 4.99935 6.11556 5.00001 6.36001V19.5H19V8.50001ZM11.5 17H7.50001V15H11.5V17ZM11.5 13H7.50001V11H11.5V13ZM11.5 9.00001H7.50001V7.00001H11.5V9.00001ZM16.5 17H14.5V15H16.5V17ZM16.5 13H14.5V11H16.5V13Z"/></svg>