<svg xmlns="http://www.w3.org/2000/svg" width="1.5em" height="1.5em" fill="none" viewBox="0 0 24 24"><path fill="currentColor" d="M20 11.5H17V7.5H20L19.55 6.6055C19.3841 6.27374 19.1292 5.99464 18.8138 5.79942C18.4984 5.60419 18.1349 5.50052 17.764 5.5H4.06549C3.793 5.50124 3.52342 5.55615 3.27214 5.66158C3.02087 5.76701 2.79282 5.9209 2.60102 6.11446C2.40922 6.30803 2.25742 6.53748 2.1543 6.78971C2.05117 7.04193 1.99874 7.31201 1.99999 7.5845V16H3.99999V16.5C3.99999 17.0304 4.21071 17.5391 4.58578 17.9142C4.96085 18.2893 5.46956 18.5 5.99999 18.5C6.53042 18.5 7.03913 18.2893 7.41421 17.9142C7.78928 17.5391 7.99999 17.0304 7.99999 16.5V16H16V16.5C16 17.0304 16.2107 17.5391 16.5858 17.9142C16.9609 18.2893 17.4696 18.5 18 18.5C18.5304 18.5 19.0391 18.2893 19.4142 17.9142C19.7893 17.5391 20 17.0304 20 16.5V16H22V13.5C22 12.9696 21.7893 12.4609 21.4142 12.0858C21.0391 11.7107 20.5304 11.5 20 11.5ZM7.99999 10.5H4.99999V7.5H7.99999V10.5ZM14 10.5H11V7.5H14V10.5Z"/></svg>