<svg xmlns="http://www.w3.org/2000/svg" width="1.25em" height="1.25em" fill="none" viewBox="0 0 20 13"><path fill="currentColor" d="M18 6H15V2H18L17.55 1.1055C17.3841 0.773735 17.1292 0.494643 16.8138 0.299417C16.4984 0.104191 16.1349 0.000522822 15.764 0H2.06552C1.79303 0.0012447 1.52345 0.0561495 1.27217 0.161579C1.0209 0.26701 0.792851 0.4209 0.601051 0.614464C0.409251 0.808028 0.257455 1.03748 0.15433 1.2897C0.0512055 1.54193 -0.00122857 1.812 2.18482e-05 2.0845V10.5H2.00002V11C2.00002 11.5304 2.21073 12.0391 2.58581 12.4142C2.96088 12.7893 3.46959 13 4.00002 13C4.53045 13 5.03916 12.7893 5.41423 12.4142C5.7893 12.0391 6.00002 11.5304 6.00002 11V10.5H14V11C14 11.5304 14.2107 12.0391 14.5858 12.4142C14.9609 12.7893 15.4696 13 16 13C16.5304 13 17.0391 12.7893 17.4142 12.4142C17.7893 12.0391 18 11.5304 18 11V10.5H20V7.99999C20 7.46956 19.7893 6.96085 19.4142 6.58578C19.0391 6.21071 18.5304 6 18 6ZM6.00002 5H3.00002V2H6.00002V5ZM12 5H9.00002V2H12V5Z"/></svg>