<svg xmlns="http://www.w3.org/2000/svg" width="1.5em" height="1.5em" fill="none" viewBox="0 0 24 24"><path stroke="currentColor" stroke-linecap="round" stroke-linejoin="round" stroke-width="1.5" d="M18.78 17.91C18.78 16.5624 17.6876 15.47 16.34 15.47C14.9924 15.47 13.9 16.5624 13.9 17.91C13.9 19.2576 14.9924 20.35 16.34 20.35C17.6876 20.35 18.78 19.2576 18.78 17.91Z"/><path stroke="currentColor" stroke-linecap="round" stroke-linejoin="round" stroke-width="1.5" d="M10.16 17.91C10.16 16.5624 9.06757 15.47 7.72 15.47C6.37242 15.47 5.28 16.5624 5.28 17.91C5.28 19.2576 6.37242 20.35 7.72 20.35C9.06757 20.35 10.16 19.2576 10.16 17.91Z"/><path stroke="currentColor" stroke-linecap="round" stroke-linejoin="round" stroke-width="1.5" d="M13.9 17.9H10.47"/><path stroke="currentColor" stroke-linecap="round" stroke-linejoin="round" stroke-width="1.5" d="M5.28 17.9H2.73V12.06H18.95C20.24 12.06 21.28 13.11 21.28 14.39V17.89H18.78"/><path stroke="currentColor" stroke-linecap="round" stroke-linejoin="round" stroke-width="1.5" d="M4.2 7.46999H16.64C17.93 7.46999 18.97 8.51999 18.97 9.79999V12.07H2.72V8.93999C2.72 8.12999 3.38 7.45999 4.2 7.45999V7.46999Z"/><path stroke="currentColor" stroke-linecap="round" stroke-linejoin="round" stroke-width="1.5" d="M8.14 7.47V12.07"/><path stroke="currentColor" stroke-linecap="round" stroke-linejoin="round" stroke-width="1.5" d="M13.55 7.47V12.07"/></svg>