<svg xmlns="http://www.w3.org/2000/svg" width="1.5em" height="1.5em" fill="none" viewBox="0 0 24 24"><path stroke="currentColor" stroke-linecap="round" stroke-linejoin="round" stroke-width="1.5" d="M18.78 17.91C18.78 16.562 17.688 15.47 16.34 15.47 14.992 15.47 13.9 16.562 13.9 17.91 13.9 19.258 14.992 20.35 16.34 20.35 17.688 20.35 18.78 19.258 18.78 17.91ZM10.16 17.91C10.16 16.562 9.068 15.47 7.72 15.47 6.372 15.47 5.28 16.562 5.28 17.91 5.28 19.258 6.372 20.35 7.72 20.35 9.068 20.35 10.16 19.258 10.16 17.91ZM13.9 17.9H10.47"/><path stroke="currentColor" stroke-linecap="round" stroke-linejoin="round" stroke-width="1.5" d="M5.28 17.8999H2.73V12.0599H18.95C20.24 12.0599 21.28 13.1099 21.28 14.3899V17.8899H18.78"/><path stroke="currentColor" stroke-linecap="round" stroke-linejoin="round" stroke-width="1.5" d="M4.2 7.47H16.64C17.93 7.47 18.97 8.52 18.97 9.8V12.07H2.72V8.94C2.72 8.13 3.38 7.46 4.2 7.46V7.47ZM8.14 7.47V12.07M13.55 7.47V12.07"/></svg>