<svg xmlns="http://www.w3.org/2000/svg" width="1.5em" height="1.5em" fill="none" viewBox="0 0 24 24"><path stroke="currentColor" stroke-linecap="round" stroke-linejoin="round" stroke-width="1.5" d="M11 6C11 6.79565 11.5268 7.55871 12.4645 8.12132C13.4021 8.68393 14.6739 9 16 9C17.3261 9 18.5979 8.68393 19.5355 8.12132C20.4732 7.55871 21 6.79565 21 6C21 5.20435 20.4732 4.44129 19.5355 3.87868C18.5979 3.31607 17.3261 3 16 3C14.6739 3 13.4021 3.31607 12.4645 3.87868C11.5268 4.44129 11 5.20435 11 6Z"/><path stroke="currentColor" stroke-linecap="round" stroke-linejoin="round" stroke-width="1.5" d="M11 6V10C11 11.657 13.239 13 16 13C18.761 13 21 11.657 21 10V6"/><path stroke="currentColor" stroke-linecap="round" stroke-linejoin="round" stroke-width="1.5" d="M11 10V14C11 15.657 13.239 17 16 17C18.761 17 21 15.657 21 14V10"/><path stroke="currentColor" stroke-linecap="round" stroke-linejoin="round" stroke-width="1.5" d="M11 14V18C11 19.657 13.239 21 16 21 18.761 21 21 19.657 21 18V14M7 9H4.5C4.102 9 3.721 9.158 3.439 9.439 3.158 9.721 3 10.102 3 10.5 3 10.898 3.158 11.279 3.439 11.561 3.721 11.842 4.102 12 4.5 12H5.5C5.898 12 6.279 12.158 6.561 12.439 6.842 12.721 7 13.102 7 13.5 7 13.898 6.842 14.279 6.561 14.561 6.279 14.842 5.898 15 5.5 15H3M5 15V16M5 8V9"/></svg>