<svg xmlns="http://www.w3.org/2000/svg" width="1.25em" height="1.25em" fill="none" viewBox="0 0 13 14"><path fill="currentColor" fill-rule="evenodd" d="M11 0V2H13V3C13 3.53043 12.7893 4.03914 12.4142 4.41421C12.0391 4.78929 11.5304 5 11 5H2C1.46957 5 0.960859 4.78929 0.585786 4.41421C0.210714 4.03914 0 3.53043 0 3V2H2V0H4V2H9V0H11ZM0.585786 13.4142C0.210714 13.0391 0 12.5304 0 12V7H13V12C13 12.5304 12.7893 13.0391 12.4142 13.4142C12.0391 13.7893 11.5304 14 11 14H2C1.46957 14 0.960859 13.7893 0.585786 13.4142Z" clip-rule="evenodd"/></svg>