<svg xmlns="http://www.w3.org/2000/svg" width="1.25em" height="1.25em" fill="none" viewBox="0 0 16 15"><path fill="currentColor" fill-rule="evenodd" d="M12.995 0V2H15.995V3.25C15.995 4.355 15.1 5.25 13.995 5.25H2C0.895 5.25 0 4.355 0 3.25V2H2.995V0H4.995V2H10.995V0H12.995ZM0 12.835V7.25H16V12.835C16 13.94 15.105 14.835 14 14.835H2C0.895 14.835 0 13.94 0 12.835ZM5.685 11.34L6.235 10.78H6.24C6.395 10.625 6.31 10.35 6.095 10.32L5.335 10.205C5.25 10.19 5.18 10.135 5.14 10.055L4.8 9.335C4.705 9.135 4.43 9.135 4.335 9.335L3.995 10.055C3.96 10.135 3.885 10.19 3.8 10.205L3.04 10.32C2.825 10.35 2.74 10.625 2.895 10.78L3.445 11.34C3.505 11.4 3.535 11.49 3.52 11.58L3.39 12.37C3.35 12.59 3.575 12.76 3.765 12.655L4.445 12.28C4.52 12.24 4.61 12.24 4.685 12.28L5.365 12.655C5.555 12.76 5.775 12.59 5.74 12.37L5.61 11.58C5.595 11.49 5.625 11.4 5.685 11.34Z" clip-rule="evenodd"/></svg>