<svg xmlns="http://www.w3.org/2000/svg" width="1.5em" height="1.5em" fill="none" viewBox="0 0 24 24"><path fill="currentColor" fill-rule="evenodd" d="M16.5 5V7H18.5V8C18.5 8.53043 18.2893 9.03914 17.9142 9.41421C17.5391 9.78929 17.0304 10 16.5 10H7.5C6.96957 10 6.46086 9.78929 6.08579 9.41421C5.71071 9.03914 5.5 8.53043 5.5 8V7H7.5V5H9.5V7H14.5V5H16.5ZM6.08579 18.4142C5.71071 18.0391 5.5 17.5304 5.5 17V12H18.5V17C18.5 17.5304 18.2893 18.0391 17.9142 18.4142C17.5391 18.7893 17.0304 19 16.5 19H7.5C6.96957 19 6.46086 18.7893 6.08579 18.4142Z" clip-rule="evenodd"/></svg>