<svg xmlns="http://www.w3.org/2000/svg" width="1.5em" height="1.5em" fill="none" viewBox="0 0 24 24"><path fill="currentColor" fill-rule="evenodd" d="M17.12 4.66498V6.66498H20.12V7.91498C20.12 9.01998 19.225 9.91498 18.12 9.91498H6.125C5.02 9.91498 4.125 9.01998 4.125 7.91498V6.66498H7.12V4.66498H9.12V6.66498H15.12V4.66498H17.12ZM4.125 17.5V11.915H20.125V17.5C20.125 18.605 19.23 19.5 18.125 19.5H6.125C5.02 19.5 4.125 18.605 4.125 17.5ZM9.81 16.005L10.36 15.445H10.365C10.52 15.29 10.435 15.015 10.22 14.985L9.46 14.87C9.375 14.855 9.305 14.8 9.265 14.72L8.925 14C8.83 13.8 8.555 13.8 8.46 14L8.12 14.72C8.085 14.8 8.01 14.855 7.925 14.87L7.165 14.985C6.95 15.015 6.865 15.29 7.02 15.445L7.57 16.005C7.63 16.065 7.66 16.155 7.645 16.245L7.515 17.035C7.475 17.255 7.7 17.425 7.89 17.32L8.57 16.945C8.645 16.905 8.735 16.905 8.81 16.945L9.49 17.32C9.68 17.425 9.9 17.255 9.865 17.035L9.735 16.245C9.72 16.155 9.75 16.065 9.81 16.005Z" clip-rule="evenodd"/></svg>