<svg xmlns="http://www.w3.org/2000/svg" width="1.5em" height="1.5em" fill="none" viewBox="0 0 24 24"><path stroke="currentColor" stroke-linecap="round" stroke-linejoin="round" stroke-width="1.5" d="M4 7C4 6.47 4.211 5.961 4.586 5.586 4.961 5.211 5.47 5 6 5H18C18.53 5 19.039 5.211 19.414 5.586 19.789 5.961 20 6.47 20 7V19C20 19.53 19.789 20.039 19.414 20.414 19.039 20.789 18.53 21 18 21H6C5.47 21 4.961 20.789 4.586 20.414 4.211 20.039 4 19.53 4 19V7ZM16 3V7M8 3V7M4 11H20M11 15H12M12 15V18"/></svg>