<svg xmlns="http://www.w3.org/2000/svg" width="1.25em" height="1.25em" fill="none" viewBox="0 0 32 30"><path fill="currentColor" fill-rule="evenodd" d="M25.99 0V4H31.99V6.5C31.99 8.71 30.2 10.5 27.99 10.5H4C1.79 10.5 0 8.71 0 6.5V4H5.99V0H9.99V4H21.99V0H25.99ZM0 25.67V14.5H32V25.67C32 27.88 30.21 29.67 28 29.67H4C1.79 29.67 0 27.88 0 25.67ZM11.37 22.68L12.47 21.56H12.48C12.79 21.25 12.62 20.7 12.19 20.64L10.67 20.41C10.5 20.38 10.36 20.27 10.28 20.11L9.6 18.67C9.41 18.27 8.86 18.27 8.67 18.67L7.99 20.11C7.92 20.27 7.77 20.38 7.6 20.41L6.08 20.64C5.65 20.7 5.48 21.25 5.79 21.56L6.89 22.68C7.01 22.8 7.07 22.98 7.04 23.16L6.78 24.74C6.7 25.18 7.15 25.52 7.53 25.31L8.89 24.56C9.04 24.48 9.22 24.48 9.37 24.56L10.73 25.31C11.11 25.52 11.55 25.18 11.48 24.74L11.22 23.16C11.19 22.98 11.25 22.8 11.37 22.68Z" clip-rule="evenodd"/></svg>