<svg xmlns="http://www.w3.org/2000/svg" width="1.5em" height="1.5em" fill="none" viewBox="0 0 24 24"><path stroke="currentColor" stroke-linecap="round" stroke-linejoin="round" stroke-width="1.5" d="M9 21H15V11C15 10.735 14.895 10.48 14.707 10.293 14.52 10.105 14.265 10 14 10H10C9.735 10 9.48 10.105 9.293 10.293 9.105 10.48 9 10.735 9 11V21ZM12 2 13.465 3.638C13.726 3.919 13.902 4.269 13.969 4.647 14.037 5.025 13.995 5.414 13.847 5.769 13.7 6.123 13.453 6.427 13.138 6.646 12.822 6.864 12.45 6.987 12.066 6.999 11.683 7.012 11.304 6.914 10.974 6.717 10.645 6.52 10.379 6.232 10.209 5.888 10.038 5.544 9.97 5.158 10.013 4.777 10.056 4.396 10.208 4.035 10.45 3.737L12 2Z"/></svg>