<svg xmlns="http://www.w3.org/2000/svg" width="1.5em" height="1.5em" fill="none" viewBox="0 0 24 24"><path stroke="currentColor" stroke-linecap="round" stroke-linejoin="round" stroke-width="1.5" d="M9 21H15V11C15 10.7348 14.8946 10.4804 14.7071 10.2929 14.5196 10.1054 14.2652 10 14 10H10C9.73478 10 9.48043 10.1054 9.29289 10.2929 9.10536 10.4804 9 10.7348 9 11V21ZM12 2 13.465 3.638C13.7264 3.91903 13.9015 4.26935 13.9692 4.64715 14.037 5.02495 13.9946 5.41426 13.8471 5.76862 13.6996 6.12298 13.4533 6.42742 13.1375 6.64561 12.8218 6.86379 12.4499 6.98651 12.0662 6.99911 11.6826 7.0117 11.3035 6.91365 10.9741 6.71665 10.6447 6.51964 10.3789 6.23202 10.2085 5.88809 10.0381 5.54417 9.97028 5.15848 10.0131 4.77705 10.0559 4.39563 10.2076 4.03458 10.45 3.737L12 2Z"/></svg>