<svg xmlns="http://www.w3.org/2000/svg" width="1.5em" height="1.5em" fill="none" viewBox="0 0 24 24"><path fill="currentColor" d="M19 11H12.5V8H16L15.5525 7.1055C15.3864 6.77336 15.1311 6.49401 14.8152 6.29876C14.4994 6.10351 14.1354 6.00006 13.764 6H7.1395C6.67721 6.00002 6.22921 6.16019 5.87169 6.45326C5.51418 6.74633 5.26922 7.1542 5.1785 7.6075L4.5 11V15H6V15.975C6 16.5054 6.21071 17.0141 6.58579 17.3892C6.96086 17.7643 7.46957 17.975 8 17.975C8.53043 17.975 9.03914 17.7643 9.41421 17.3892C9.78929 17.0141 10 16.5054 10 15.975V15H14.5V15.975C14.5 16.5054 14.7107 17.0141 15.0858 17.3892C15.4609 17.7643 15.9696 17.975 16.5 17.975C17.0304 17.975 17.5391 17.7643 17.9142 17.3892C18.2893 17.0141 18.5 16.5054 18.5 15.975V15H21V13C21 12.4696 20.7893 11.9609 20.4142 11.5858C20.0391 11.2107 19.5304 11 19 11ZM10 11H7V8H10V11Z"/></svg>