<svg xmlns="http://www.w3.org/2000/svg" width="1.25em" height="1.25em" fill="none" viewBox="0 0 17 12"><path fill="currentColor" d="M14.5303 5.01044H8.0167V2.00417H11.524L11.0756 1.10781C10.9091 0.77497 10.6533 0.495044 10.3368 0.299384C10.0202 0.103724 9.65547 5.91667e-05 9.28334 0H2.64501C2.18176 2.49662e-05 1.73282 0.160528 1.37456 0.454209C1.01629 0.74789 0.770829 1.15661 0.679916 1.61086L0 5.01044V9.01878H1.50313V9.99582C1.50313 10.5274 1.71428 11.0371 2.09014 11.413C2.466 11.7888 2.97577 12 3.50731 12C4.03885 12 4.54861 11.7888 4.92447 11.413C5.30033 11.0371 5.51148 10.5274 5.51148 9.99582V9.01878H10.0209V9.99582C10.0209 10.5274 10.232 11.0371 10.6079 11.413C10.9837 11.7888 11.4935 12 12.025 12C12.5566 12 13.0664 11.7888 13.4422 11.413C13.8181 11.0371 14.0292 10.5274 14.0292 9.99582V9.01878H16.5344V7.01461C16.5344 6.48307 16.3233 5.9733 15.9474 5.59745C15.5716 5.22159 15.0618 5.01044 14.5303 5.01044ZM5.51148 5.01044H2.50522V2.00417H5.51148V5.01044Z"/></svg>