<svg xmlns="http://www.w3.org/2000/svg" width="1.25em" height="1.25em" fill="none" viewBox="0 0 33 24"><path fill="currentColor" d="M29 10H16V4H23L22.105 2.211C21.7728 1.54671 21.2623 0.988025 20.6305 0.597521C19.9987 0.207017 19.2707 0.000118087 18.528 0H5.279C4.35443 4.98284e-05 3.45842 0.320388 2.74339 0.906527C2.02835 1.49267 1.53845 2.30841 1.357 3.215L0 10V18H3V19.95C3 21.0109 3.42143 22.0283 4.17157 22.7784C4.92172 23.5286 5.93913 23.95 7 23.95C8.06087 23.95 9.07828 23.5286 9.82843 22.7784C10.5786 22.0283 11 21.0109 11 19.95V18H20V19.95C20 21.0109 20.4214 22.0283 21.1716 22.7784C21.9217 23.5286 22.9391 23.95 24 23.95C25.0609 23.95 26.0783 23.5286 26.8284 22.7784C27.5786 22.0283 28 21.0109 28 19.95V18H33V14C33 12.9391 32.5786 11.9217 31.8284 11.1716C31.0783 10.4214 30.0609 10 29 10ZM11 10H5V4H11V10Z"/></svg>