<svg xmlns="http://www.w3.org/2000/svg" width="1.5em" height="1.5em" fill="none" viewBox="0 0 24 24"><path stroke="currentColor" stroke-linecap="round" stroke-linejoin="round" stroke-width="1.5" d="M3.604 7.197 10.742 4.088C10.86 4.038 10.987 4.011 11.115 4.01 11.243 4.01 11.37 4.035 11.488 4.084 11.607 4.133 11.714 4.205 11.804 4.296 11.894 4.388 11.965 4.496 12.012 4.615L16.936 16.517C17.038 16.758 17.042 17.03 16.946 17.274 16.85 17.518 16.662 17.714 16.422 17.821L9.285 20.93C9.167 20.981 9.04 21.007 8.912 21.008 8.784 21.009 8.657 20.984 8.538 20.935 8.42 20.886 8.312 20.813 8.222 20.722 8.132 20.631 8.061 20.522 8.014 20.403L3.09 8.5C2.988 8.259 2.984 7.987 3.08 7.743 3.176 7.499 3.365 7.304 3.604 7.197ZM15 4H16C16.265 4 16.52 4.105 16.707 4.293 16.895 4.48 17 4.735 17 5V8.5M20 6C20.264 6.112 20.52 6.217 20.768 6.315 21.012 6.419 21.205 6.615 21.305 6.861 21.404 7.107 21.402 7.382 21.298 7.626L19 13"/></svg>