<svg xmlns="http://www.w3.org/2000/svg" width="1.5em" height="1.5em" fill="none" viewBox="0 0 24 24"><g clip-path="url(#clip0_4745_3388)"><path stroke="currentColor" stroke-linecap="round" stroke-linejoin="round" stroke-width="1.5" d="M3.60401 7.19701L10.742 4.08801C10.8598 4.03753 10.9865 4.01113 11.1146 4.01039C11.2428 4.00965 11.3698 4.03457 11.4881 4.08369C11.6065 4.1328 11.7138 4.20512 11.8038 4.29637C11.8938 4.38762 11.9646 4.49597 12.012 4.61501L16.936 16.517C17.0384 16.7584 17.0418 17.0302 16.9457 17.2741C16.8496 17.518 16.6615 17.7144 16.422 17.821L9.28501 20.93C9.16717 20.9807 9.04038 21.0072 8.91212 21.008C8.78387 21.0088 8.65675 20.9839 8.53827 20.9348C8.41979 20.8857 8.31235 20.8133 8.22231 20.722C8.13227 20.6306 8.06144 20.5222 8.01401 20.403L3.09001 8.50001C2.98766 8.25866 2.98418 7.98678 3.08032 7.74289C3.17645 7.499 3.36451 7.30361 3.60401 7.19701Z"/><path stroke="currentColor" stroke-linecap="round" stroke-linejoin="round" stroke-width="1.5" d="M15 4H16C16.2652 4 16.5196 4.10536 16.7071 4.29289C16.8946 4.48043 17 4.73478 17 5V8.5"/><path stroke="currentColor" stroke-linecap="round" stroke-linejoin="round" stroke-width="1.5" d="M20 6C20.264 6.112 20.52 6.217 20.768 6.315C21.0121 6.41859 21.2051 6.6149 21.3045 6.86075C21.4039 7.1066 21.4015 7.38187 21.298 7.626L19 13"/></g><defs><clipPath id="clip0_4745_3388"><rect width="24" height="24" fill="currentColor"/></clipPath></defs></svg>