<svg xmlns="http://www.w3.org/2000/svg" width="1.25em" height="1.25em" fill="none" viewBox="0 0 18 17"><path fill="currentColor" fill-rule="evenodd" d="M15 0V3.5H18L15.5 9H14.5V5.5H11.5L14 0H15ZM7.5175 10H12.5C13.0304 10 13.5391 10.2107 13.9142 10.5858C14.2893 10.9609 14.5 11.4696 14.5 12V13.5H12.5V14.272C12.5 14.5018 12.4547 14.7294 12.3668 14.9417C12.2788 15.154 12.1499 15.3469 11.9874 15.5094C11.8249 15.6719 11.632 15.8008 11.4197 15.8888C11.2074 15.9767 10.9798 16.022 10.75 16.022C10.5202 16.022 10.2926 15.9767 10.0803 15.8888C9.86798 15.8008 9.67507 15.6719 9.51256 15.5094C9.35006 15.3469 9.22116 15.154 9.13321 14.9417C9.04527 14.7294 9 14.5018 9 14.272V13.5H5.5V14.272C5.5 14.7361 5.31563 15.1812 4.98744 15.5094C4.65925 15.8376 4.21413 16.022 3.75 16.022C3.28587 16.022 2.84075 15.8376 2.51256 15.5094C2.18437 15.1812 2 14.7361 2 14.272V13.5H0V10L0.574 7.115C0.664231 6.66116 0.909038 6.25265 1.26671 5.95907C1.62438 5.6655 2.07278 5.50502 2.5355 5.505L8.2625 5.5C8.6343 5.49978 8.9988 5.6032 9.31508 5.79866C9.63136 5.99412 9.8869 6.27386 10.053 6.6065L10.5 7.5H7.5175V10ZM3.0175 10H5.5175V7.5H3.0175V10Z" clip-rule="evenodd"/></svg>