<svg xmlns="http://www.w3.org/2000/svg" width="1.5em" height="1.5em" fill="none" viewBox="0 0 24 24"><path stroke="currentColor" stroke-linecap="round" stroke-linejoin="round" stroke-width="1.5" d="M9.59003 18.4C9.59003 17.1408 8.56924 16.12 7.31003 16.12C6.05082 16.12 5.03003 17.1408 5.03003 18.4C5.03003 19.6592 6.05082 20.68 7.31003 20.68C8.56924 20.68 9.59003 19.6592 9.59003 18.4Z"/><path stroke="currentColor" stroke-linecap="round" stroke-linejoin="round" stroke-width="1.5" d="M17.52 18.4C17.52 17.1408 16.4992 16.12 15.24 16.12C13.9808 16.12 12.96 17.1408 12.96 18.4C12.96 19.6592 13.9808 20.68 15.24 20.68C16.4992 20.68 17.52 19.6592 17.52 18.4Z"/><path stroke="currentColor" stroke-linecap="round" stroke-linejoin="round" stroke-width="1.5" d="M12.46 18.39H10.21"/><path stroke="currentColor" stroke-linecap="round" stroke-linejoin="round" stroke-width="1.5" d="M5.02997 18.39H2.71997V13.05H17.48C18.77 13.05 19.82 14.1 19.82 15.39V18.39H17.51"/><path stroke="currentColor" stroke-linecap="round" stroke-linejoin="round" stroke-width="1.5" d="M17.51 13.05H2.71997L4.79997 9.34C5.10997 8.79 5.68997 8.45 6.31997 8.45H13.92C14.55 8.45 15.13 8.79 15.44 9.34L17.52 13.05H17.51Z"/><path stroke="currentColor" stroke-linecap="round" stroke-linejoin="round" stroke-width="1.5" d="M12.09 13.05V8.45"/><path stroke="currentColor" stroke-linecap="round" stroke-linejoin="round" stroke-width="1.5" d="M19.65 2.92999L17.44 6.62999H21.28L19.07 10.33"/></svg>