<svg xmlns="http://www.w3.org/2000/svg" width="1.5em" height="1.5em" fill="none" viewBox="0 0 24 24"><path fill="currentColor" fill-rule="evenodd" d="M18 4V7.5H21L18.5 13H17.5V9.5H14.5L17 4H18ZM10.5175 14H15.5C16.0304 14 16.5391 14.2107 16.9142 14.5858C17.2893 14.9609 17.5 15.4696 17.5 16V17.5H15.5V18.272C15.5 18.5018 15.4547 18.7294 15.3668 18.9417C15.2788 19.154 15.1499 19.3469 14.9874 19.5094C14.8249 19.6719 14.632 19.8008 14.4197 19.8888C14.2074 19.9767 13.9798 20.022 13.75 20.022C13.5202 20.022 13.2926 19.9767 13.0803 19.8888C12.868 19.8008 12.6751 19.6719 12.5126 19.5094C12.3501 19.3469 12.2212 19.154 12.1332 18.9417C12.0453 18.7294 12 18.5018 12 18.272V17.5H8.5V18.272C8.5 18.7361 8.31563 19.1812 7.98744 19.5094C7.65925 19.8376 7.21413 20.022 6.75 20.022C6.28587 20.022 5.84075 19.8376 5.51256 19.5094C5.18437 19.1812 5 18.7361 5 18.272V17.5H3V14L3.574 11.115C3.66423 10.6612 3.90904 10.2526 4.26671 9.95907C4.62438 9.6655 5.07278 9.50502 5.5355 9.505L11.2625 9.5C11.6343 9.49978 11.9988 9.6032 12.3151 9.79866C12.6314 9.99412 12.8869 10.2739 13.053 10.6065L13.5 11.5H10.5175V14ZM6.0175 14H8.5175V11.5H6.0175V14Z" clip-rule="evenodd"/></svg>