<svg xmlns="http://www.w3.org/2000/svg" width="1.5em" height="1.5em" fill="none" viewBox="0 0 24 24"><path stroke="currentColor" stroke-linecap="round" stroke-linejoin="round" stroke-width="1.5" d="M9.59 18.6C9.59 17.3408 8.56921 16.32 7.31 16.32C6.05079 16.32 5.03 17.3408 5.03 18.6C5.03 19.8592 6.05079 20.88 7.31 20.88C8.56921 20.88 9.59 19.8592 9.59 18.6Z"/><path stroke="currentColor" stroke-linecap="round" stroke-linejoin="round" stroke-width="1.5" d="M17.52 18.6C17.52 17.3408 16.4992 16.32 15.24 16.32C13.9808 16.32 12.96 17.3408 12.96 18.6C12.96 19.8592 13.9808 20.88 15.24 20.88C16.4992 20.88 17.52 19.8592 17.52 18.6Z"/><path stroke="currentColor" stroke-linecap="round" stroke-linejoin="round" stroke-width="1.5" d="M12.46 18.59H10.21"/><path stroke="currentColor" stroke-linecap="round" stroke-linejoin="round" stroke-width="1.5" d="M5.03 18.59H2.72V13.25H17.48C18.77 13.25 19.82 14.3 19.82 15.59V18.59H17.51"/><path stroke="currentColor" stroke-linecap="round" stroke-linejoin="round" stroke-width="1.5" d="M17.51 13.25H2.72L4.8 9.54C5.11 8.99 5.69 8.65 6.32 8.65H13.92C14.55 8.65 15.13 8.99 15.44 9.54L17.52 13.25H17.51Z"/><path stroke="currentColor" stroke-linecap="round" stroke-linejoin="round" stroke-width="1.5" d="M12.09 13.25V8.65"/><path stroke="currentColor" stroke-linecap="round" stroke-linejoin="round" stroke-width="1.5" d="M19.65 3.13L17.44 6.83H21.28L19.07 10.53"/></svg>