<svg xmlns="http://www.w3.org/2000/svg" width="1.5em" height="1.5em" fill="none" viewBox="0 0 24 24"><path stroke="currentColor" stroke-linecap="round" stroke-linejoin="round" stroke-width="1.5" d="M9.59 18.4C9.59 17.141 8.569 16.12 7.31 16.12 6.051 16.12 5.03 17.141 5.03 18.4 5.03 19.659 6.051 20.68 7.31 20.68 8.569 20.68 9.59 19.659 9.59 18.4ZM17.52 18.4C17.52 17.141 16.499 16.12 15.24 16.12 13.981 16.12 12.96 17.141 12.96 18.4 12.96 19.659 13.981 20.68 15.24 20.68 16.499 20.68 17.52 19.659 17.52 18.4ZM12.46 18.39H10.21"/><path stroke="currentColor" stroke-linecap="round" stroke-linejoin="round" stroke-width="1.5" d="M5.03 18.39H2.72V13.05H17.48C18.77 13.05 19.82 14.1 19.82 15.39V18.39H17.51M17.51 13.05H2.72L4.8 9.34C5.11 8.79 5.69 8.45 6.32 8.45H13.92C14.55 8.45 15.13 8.79 15.44 9.34L17.52 13.05H17.51ZM12.09 13.05V8.45M19.65 2.93 17.44 6.63H21.28L19.07 10.33"/></svg>