<svg xmlns="http://www.w3.org/2000/svg" width="1.25em" height="1.25em" fill="none" viewBox="0 0 38 37"><path fill="currentColor" fill-rule="evenodd" d="M18.67 0L33.8 7.89L37.34 9.75L36.79 15.1L31.48 12.32L18.67 5.61L5.86 12.32L0.55 15.1L0 9.75L3.54 7.89L18.67 0ZM30.06 21.23H30.25C32.14 21.23 33.67 22.76 33.67 24.65V33.5H30.69V37H24.68V33.5H12.66V37H6.65998V33.5H3.66998V24.65C3.66998 22.76 5.19998 21.23 7.08998 21.23H7.27998L10.5 14H26.85L30.06 21.23ZM8.15998 23.86V28.24H14.29C14.29 25.82 12.33 23.86 9.90998 23.86H8.15998ZM27.43 23.86C25.01 23.86 23.05 25.82 23.05 28.24H29.18V23.86H27.43Z" clip-rule="evenodd"/></svg>