<svg xmlns="http://www.w3.org/2000/svg" width="1.5em" height="1.5em" fill="none" viewBox="0 0 24 24"><path fill="currentColor" fill-rule="evenodd" d="M11.96 1.5L19.525 5.445L21.295 6.375L21.02 9.05L18.365 7.66L11.96 4.305L5.555 7.66L2.9 9.05L2.625 6.375L4.395 5.445L11.96 1.5ZM17.655 12.115H17.75C18.695 12.115 19.46 12.88 19.46 13.825V18.25H17.97V20H14.965V18.25H8.95499V20H5.95499V18.25H4.45999V13.825C4.45999 12.88 5.22499 12.115 6.16999 12.115H6.26499L7.87499 8.5H16.05L17.655 12.115ZM6.70499 13.43V15.62H9.76999C9.76999 14.41 8.78999 13.43 7.57999 13.43H6.70499ZM16.34 13.43C15.13 13.43 14.15 14.41 14.15 15.62H17.215V13.43H16.34Z" clip-rule="evenodd"/></svg>