<svg xmlns="http://www.w3.org/2000/svg" width="1.25em" height="1.25em" fill="none" viewBox="0 0 19 19"><path fill="currentColor" fill-rule="evenodd" d="M9.5 0L17.1987 4.01473L19 4.96117L18.7201 7.68345L16.0182 6.26888L9.5 2.85458L2.98179 6.26888L0.279861 7.68345L0 4.96117L1.80129 4.01473L9.5 0ZM15.2957 10.8026H15.3923C16.354 10.8026 17.1326 11.5811 17.1326 12.5429V17.0461H15.6162V18.827H12.5581V17.0461H6.44188V18.827H3.38885V17.0461H1.86743V12.5429C1.86743 11.5811 2.64595 10.8026 3.60765 10.8026H3.70433L5.34279 7.12373H13.6623L15.2957 10.8026ZM4.15211 12.1409V14.3696H7.27128C7.27128 13.1382 6.27396 12.1409 5.04257 12.1409H4.15211ZM13.9574 12.1409C12.726 12.1409 11.7287 13.1382 11.7287 14.3696H14.8479V12.1409H13.9574Z" clip-rule="evenodd"/></svg>