<svg xmlns="http://www.w3.org/2000/svg" width="1.5em" height="1.5em" fill="none" viewBox="0 0 24 24"><path fill="currentColor" d="M17.5 6H6.46451C5.93408 6 5.42537 6.21071 5.05029 6.58579C4.67522 6.96086 4.46451 7.46957 4.46451 8V15C4.46451 15.5304 4.67522 16.0391 5.05029 16.4142C5.42537 16.7893 5.93408 17 6.46451 17H12V18C12 18.5304 12.2107 19.0391 12.5858 19.4142C12.9609 19.7893 13.4696 20 14 20H16V17H17.5C18.0304 17 18.5391 16.7893 18.9142 16.4142C19.2893 16.0391 19.5 15.5304 19.5 15V8C19.5 7.46957 19.2893 6.96086 18.9142 6.58579C18.5391 6.21071 18.0304 6 17.5 6ZM9.00001 12.5H7.00001V10.5H9.00001V12.5ZM13 12.5H11V10.5H13V12.5ZM17 12.5H15V10.5H17V12.5Z"/></svg>