<svg xmlns="http://www.w3.org/2000/svg" width="1.25em" height="1.25em" fill="none" viewBox="0 0 16 14"><path fill="currentColor" d="M13.0355 0H2C1.46957 0 0.960859 0.210714 0.585786 0.585786C0.210714 0.960859 0 1.46957 0 2V9C0 9.53043 0.210714 10.0391 0.585786 10.4142C0.960859 10.7893 1.46957 11 2 11H7.5355V12C7.5355 12.5304 7.74621 13.0391 8.12129 13.4142C8.49636 13.7893 9.00507 14 9.5355 14H11.5355V11H13.0355C13.5659 11 14.0746 10.7893 14.4497 10.4142C14.8248 10.0391 15.0355 9.53043 15.0355 9V2C15.0355 1.46957 14.8248 0.960859 14.4497 0.585786C14.0746 0.210714 13.5659 0 13.0355 0ZM4.5355 6.5H2.5355V4.5H4.5355V6.5ZM8.5355 6.5H6.5355V4.5H8.5355V6.5ZM12.5355 6.5H10.5355V4.5H12.5355V6.5Z"/></svg>