<svg xmlns="http://www.w3.org/2000/svg" width="1.5em" height="1.5em" fill="none" viewBox="0 0 24 24"><path stroke="currentColor" stroke-linecap="round" stroke-linejoin="round" stroke-width="1.5" d="M12 3C13.918 3 15.52 4.35 15.91 6.151 16.934 5.874 18.026 6.015 18.947 6.543 19.867 7.071 20.539 7.943 20.817 8.968 21.094 9.992 20.953 11.084 20.424 12.004 19.896 12.924 19.024 13.597 18 13.874V21H6V13.874C5.493 13.737 5.018 13.501 4.602 13.18 4.186 12.859 3.837 12.459 3.576 12.003 3.314 11.548 3.145 11.045 3.078 10.524 3.011 10.003 3.047 9.474 3.185 8.967 3.322 8.459 3.558 7.984 3.879 7.568 4.2 7.152 4.599 6.804 5.055 6.542 5.511 6.281 6.014 6.112 6.535 6.045 7.056 5.978 7.585 6.014 8.092 6.151 8.286 5.259 8.779 4.459 9.49 3.886 10.201 3.313 11.087 3 12 3ZM6.161 17.009 18 17"/></svg>