<svg xmlns="http://www.w3.org/2000/svg" width="1.5em" height="1.5em" fill="none" viewBox="0 0 24 24"><path stroke="currentColor" stroke-linecap="round" stroke-linejoin="round" stroke-width="1.5" d="M12 3C13.918 3 15.52 4.35 15.91 6.151 16.9341 5.87385 18.0264 6.01488 18.9466 6.54308 19.8667 7.07128 20.5393 7.94337 20.8165 8.9675 21.0936 9.99163 20.9526 11.0839 20.4244 12.0041 19.8962 12.9242 19.0241 13.5968 18 13.874V21H6V13.874C5.4929 13.7366 5.01782 13.5007 4.60189 13.1798 4.18595 12.8588 3.83731 12.4591 3.57587 12.0034 3.31443 11.5477 3.1453 11.0449 3.07815 10.5239 3.011 10.0028 3.04713 9.4736 3.1845 8.9665 3.32186 8.4594 3.55776 7.98432 3.87872 7.56839 4.19969 7.15246 4.59943 6.80382 5.05514 6.54237 5.51084 6.28093 6.01358 6.1118 6.53464 6.04465 7.05571 5.9775 7.5849 6.01364 8.092 6.151 8.28583 5.25857 8.77921 4.45933 9.49014 3.88611 10.2011 3.31289 11.0868 3.0002 12 3ZM6.161 17.009 18 17"/></svg>