<svg xmlns="http://www.w3.org/2000/svg" width="1.5em" height="1.5em" fill="none" viewBox="0 0 24 24"><g clip-path="url(#clip0_39_336)"><path stroke="currentColor" stroke-linecap="round" stroke-linejoin="round" stroke-width="1.5" d="M12 3C13.918 3 15.52 4.35 15.91 6.151C16.9341 5.87385 18.0264 6.01488 18.9466 6.54308C19.8667 7.07128 20.5393 7.94337 20.8165 8.9675C21.0936 9.99163 20.9526 11.0839 20.4244 12.0041C19.8962 12.9242 19.0241 13.5968 18 13.874V21H6V13.874C5.4929 13.7366 5.01782 13.5007 4.60189 13.1798C4.18595 12.8588 3.83731 12.4591 3.57587 12.0034C3.31443 11.5477 3.1453 11.0449 3.07815 10.5239C3.011 10.0028 3.04713 9.4736 3.1845 8.9665C3.32186 8.4594 3.55776 7.98432 3.87872 7.56839C4.19969 7.15246 4.59943 6.80382 5.05514 6.54237C5.51084 6.28093 6.01358 6.1118 6.53464 6.04465C7.05571 5.9775 7.5849 6.01364 8.092 6.151C8.28583 5.25857 8.77921 4.45933 9.49014 3.88611C10.2011 3.31289 11.0868 3.0002 12 3Z"/><path stroke="currentColor" stroke-linecap="round" stroke-linejoin="round" stroke-width="1.5" d="M6.161 17.009L18 17"/></g><defs><clipPath id="clip0_39_336"><rect width="24" height="24" fill="currentColor"/></clipPath></defs></svg>