<svg xmlns="http://www.w3.org/2000/svg" width="1.5em" height="1.5em" fill="none" viewBox="0 0 24 24"><path fill="currentColor" d="M19 10H18.7065C18.4723 9.21983 18.1033 8.48674 17.616 7.834L19.5355 5.9145L18.1215 4.5L16.207 6.4145C15.3064 5.73328 14.2541 5.28049 13.1402 5.09493C12.0263 4.90936 10.884 4.99654 9.81121 5.34901C8.73839 5.70147 7.76698 6.30871 6.98018 7.11872C6.19338 7.92874 5.61463 8.91739 5.2935 10H5C4.46957 10 3.96086 10.2107 3.58579 10.5858C3.21071 10.9609 3 11.4696 3 12C3 12.5304 3.21071 13.0391 3.58579 13.4142C3.96086 13.7893 4.46957 14 5 14H5.2935C5.72514 15.4433 6.61087 16.7088 7.81909 17.6086C9.02731 18.5083 10.4936 18.9943 12 18.9943C13.5064 18.9943 14.9727 18.5083 16.1809 17.6086C17.3891 16.7088 18.2749 15.4433 18.7065 14H19C19.5304 14 20.0391 13.7893 20.4142 13.4142C20.7893 13.0391 21 12.5304 21 12C21 11.4696 20.7893 10.9609 20.4142 10.5858C20.0391 10.2107 19.5304 10 19 10ZM8 10H10V12H8V10ZM15 15V15.985C14.1385 16.6433 13.0843 17 12 17C10.9157 17 9.86154 16.6433 9 15.985V14H15V15ZM16 12H14V10H16V12Z"/></svg>