<svg xmlns="http://www.w3.org/2000/svg" width="1.25em" height="1.25em" fill="none" viewBox="0 0 36 29"><path fill="currentColor" d="M32 11H31.413C30.9447 9.43966 30.2065 7.97348 29.232 6.668L33.071 2.829L30.243 0L26.414 3.829C24.6128 2.46655 22.5081 1.56099 20.2804 1.18986C18.0526 0.818726 15.7681 0.993089 13.6224 1.69802C11.4768 2.40294 9.53396 3.61742 7.96036 5.23745C6.38675 6.85748 5.22926 8.83477 4.587 11H4C2.93913 11 1.92172 11.4214 1.17157 12.1716C0.421427 12.9217 0 13.9391 0 15C0 16.0609 0.421427 17.0783 1.17157 17.8284C1.92172 18.5786 2.93913 19 4 19H4.587C5.45028 21.8866 7.22173 24.4176 9.63818 26.2171C12.0546 28.0166 14.9871 28.9886 18 28.9886C21.0129 28.9886 23.9454 28.0166 26.3618 26.2171C28.7783 24.4176 30.5497 21.8866 31.413 19H32C33.0609 19 34.0783 18.5786 34.8284 17.8284C35.5786 17.0783 36 16.0609 36 15C36 13.9391 35.5786 12.9217 34.8284 12.1716C34.0783 11.4214 33.0609 11 32 11ZM10 11H14V15H10V11ZM24 21V22.97C22.2769 24.2867 20.1686 25 18 25C15.8314 25 13.7231 24.2867 12 22.97V19H24V21ZM26 15H22V11H26V15Z"/></svg>