<svg xmlns="http://www.w3.org/2000/svg" width="1.25em" height="1.25em" fill="none" viewBox="0 0 18 15"><path fill="currentColor" d="M16 5.5H15.7065C15.4723 4.71983 15.1033 3.98674 14.616 3.334L16.5355 1.4145L15.1215 0L13.207 1.9145C12.3064 1.23328 11.2541 0.780494 10.1402 0.594928C9.0263 0.409363 7.88403 0.496545 6.81121 0.849008C5.73839 1.20147 4.76698 1.80871 3.98018 2.61872C3.19338 3.42874 2.61463 4.41739 2.2935 5.5H2C1.46957 5.5 0.960859 5.71071 0.585786 6.08579C0.210714 6.46086 0 6.96957 0 7.5C0 8.03043 0.210714 8.53914 0.585786 8.91421C0.960859 9.28929 1.46957 9.5 2 9.5H2.2935C2.72514 10.9433 3.61087 12.2088 4.81909 13.1086C6.02731 14.0083 7.49356 14.4943 9 14.4943C10.5064 14.4943 11.9727 14.0083 13.1809 13.1086C14.3891 12.2088 15.2749 10.9433 15.7065 9.5H16C16.5304 9.5 17.0391 9.28929 17.4142 8.91421C17.7893 8.53914 18 8.03043 18 7.5C18 6.96957 17.7893 6.46086 17.4142 6.08579C17.0391 5.71071 16.5304 5.5 16 5.5ZM5 5.5H7V7.5H5V5.5ZM12 10.5V11.485C11.1385 12.1433 10.0843 12.5 9 12.5C7.91572 12.5 6.86154 12.1433 6 11.485V9.5H12V10.5ZM13 7.5H11V5.5H13V7.5Z"/></svg>