<svg xmlns="http://www.w3.org/2000/svg" width="1.5em" height="1.5em" fill="none" viewBox="0 0 24 24"><path stroke="currentColor" stroke-linecap="round" stroke-linejoin="round" stroke-width="1.5" d="M12 21.22C16.3023 21.22 19.79 17.7323 19.79 13.43C19.79 9.12772 16.3023 5.64001 12 5.64001C7.69771 5.64001 4.21001 9.12772 4.21001 13.43C4.21001 17.7323 7.69771 21.22 12 21.22Z"/><path stroke="currentColor" stroke-linecap="round" stroke-linejoin="round" stroke-width="1.5" d="M15.5 14.96C15.27 16.7 13.8 18.04 12 18.04 10.2 18.04 8.73 16.7 8.5 14.96H15.51 15.5ZM10.46 12.17C10.36 11.4 9.7 10.8 8.9 10.8 8.1 10.8 7.44 11.4 7.34 12.17M16.66 12.17C16.56 11.4 15.9 10.8 15.1 10.8 14.3 10.8 13.64 11.4 13.54 12.17M13.19 5.71003C13.97 5.85003 14.81 5.63003 15.41 5.01003 16.01 4.39003 16.22 3.56003 16.06 2.78003M14.92 6.11C15.67 6.69 16.67 6.92 17.64 6.61 18.61 6.3 19.3 5.53 19.56 4.62"/></svg>