<svg xmlns="http://www.w3.org/2000/svg" width="1.5em" height="1.5em" fill="none" viewBox="0 0 24 24"><path fill="currentColor" fill-rule="evenodd" d="M11.985 4.375L15.985 3.125L11.985 1.875V4.375ZM7.48499 11C8.31499 11 8.98498 10.33 8.98498 9.5C8.98498 10.33 9.65498 11 10.485 11C11.315 11 11.985 10.33 11.985 9.5C11.985 10.33 12.655 11 13.485 11C14.315 11 14.985 10.33 14.985 9.5C14.985 10.33 15.655 11 16.485 11C17.315 11 17.985 10.33 17.985 9.5L11.985 4.5L5.98499 9.5C5.98499 10.33 6.65499 11 7.48499 11ZM17.485 13L18.485 17.665L18.985 20H13.485V17.5C13.485 16.67 12.815 16 11.985 16C11.155 16 10.485 16.67 10.485 17.5V20H4.98499L5.48499 17.665L6.48499 13H17.485Z" clip-rule="evenodd"/></svg>