<svg xmlns="http://www.w3.org/2000/svg" width="1.5em" height="1.5em" fill="none" viewBox="0 0 24 24"><path stroke="currentColor" stroke-linecap="round" stroke-linejoin="round" stroke-width="1.5" d="M12 6.29999 4.22998 12.83C4.22998 13.9 5.09998 14.77 6.16998 14.77 7.23998 14.77 8.10998 13.9 8.10998 12.83 8.10998 13.9 8.97998 14.77 10.05 14.77 11.12 14.77 11.99 13.9 11.99 12.83 11.99 13.9 12.86 14.77 13.93 14.77 15 14.77 15.87 13.9 15.87 12.83 15.87 13.9 16.74 14.77 17.81 14.77 18.88 14.77 19.75 13.9 19.75 12.83L11.98 6.29999H12ZM5.86998 14.87 4.41998 21.2H10.38V18.89C10.38 17.99 11.11 17.27 12 17.27 12.89 17.27 13.62 18 13.62 18.89V21.2H19.58L18.13 14.87M12 2.79999V6.18999L16.89 4.49999 12 2.79999Z"/></svg>