<svg xmlns="http://www.w3.org/2000/svg" width="1.5em" height="1.5em" fill="none" viewBox="0 0 24 24"><path stroke="currentColor" stroke-linecap="round" stroke-linejoin="round" stroke-width="1.5" d="M12 6.3 4.23 12.83C4.23 13.9 5.1 14.77 6.17 14.77 7.24 14.77 8.11 13.9 8.11 12.83 8.11 13.9 8.98 14.77 10.05 14.77 11.12 14.77 11.99 13.9 11.99 12.83 11.99 13.9 12.86 14.77 13.93 14.77 15 14.77 15.87 13.9 15.87 12.83 15.87 13.9 16.74 14.77 17.81 14.77 18.88 14.77 19.75 13.9 19.75 12.83L11.98 6.3H12ZM5.87 14.87 4.42 21.2H10.38V18.89C10.38 17.99 11.11 17.27 12 17.27 12.89 17.27 13.62 18 13.62 18.89V21.2H19.58L18.13 14.87M12 2.8V6.19L16.89 4.5 12 2.8Z"/></svg>