<svg xmlns="http://www.w3.org/2000/svg" width="1.25em" height="1.25em" fill="none" viewBox="0 0 14 19"><path fill="currentColor" fill-rule="evenodd" d="M7 2.5L11 1.25L7 0V2.5ZM2.5 9.125C3.33 9.125 4 8.455 4 7.625C4 8.455 4.67 9.125 5.5 9.125C6.33 9.125 7 8.455 7 7.625C7 8.455 7.67 9.125 8.5 9.125C9.33 9.125 10 8.455 10 7.625C10 8.455 10.67 9.125 11.5 9.125C12.33 9.125 13 8.455 13 7.625L7 2.625L1 7.625C1 8.455 1.67 9.125 2.5 9.125ZM12.5 11.125L13.5 15.79L14 18.125H8.5V15.625C8.5 14.795 7.83 14.125 7 14.125C6.17 14.125 5.5 14.795 5.5 15.625V18.125H0L0.5 15.79L1.5 11.125H12.5Z" clip-rule="evenodd"/></svg>