<svg xmlns="http://www.w3.org/2000/svg" width="1.25em" height="1.25em" fill="none" viewBox="0 0 28 37"><path fill="currentColor" fill-rule="evenodd" d="M14 5L22 2.5L14 0V5ZM5 18.25C6.66 18.25 8 16.91 8 15.25C8 16.91 9.34 18.25 11 18.25C12.66 18.25 14 16.91 14 15.25C14 16.91 15.34 18.25 17 18.25C18.66 18.25 20 16.91 20 15.25C20 16.91 21.34 18.25 23 18.25C24.66 18.25 26 16.91 26 15.25L14 5.25L2 15.25C2 16.91 3.34 18.25 5 18.25ZM25 22.25L27 31.58L28 36.25H17V31.25C17 29.59 15.66 28.25 14 28.25C12.34 28.25 11 29.59 11 31.25V36.25H0L1 31.58L3 22.25H25Z" clip-rule="evenodd"/></svg>