<svg xmlns="http://www.w3.org/2000/svg" width="1.5em" height="1.5em" fill="none" viewBox="0 0 24 24"><g clip-path="url(#clip0_39_334)"><path stroke="currentColor" stroke-linecap="round" stroke-linejoin="round" stroke-width="1.5" d="M4 11H20"/><path stroke="currentColor" stroke-linecap="round" stroke-linejoin="round" stroke-width="1.5" d="M12 6.5C12 7.5 7 11 4 11"/><path stroke="currentColor" stroke-linecap="round" stroke-linejoin="round" stroke-width="1.5" d="M12 6.5C12 7.5 17 11 20 11"/><path stroke="currentColor" stroke-linecap="round" stroke-linejoin="round" stroke-width="1.5" d="M6 11C5.667 16.333 5 19.667 4 21H8C9 21 12 17 12 12V11"/><path stroke="currentColor" stroke-linecap="round" stroke-linejoin="round" stroke-width="1.5" d="M18 11C18.333 16.333 19 19.667 20 21H16C15 21 12 17 12 12V11"/><path stroke="currentColor" stroke-linecap="round" stroke-linejoin="round" stroke-width="1.5" d="M12 7V3L14 4H12"/></g><defs><clipPath id="clip0_39_334"><rect width="24" height="24" fill="currentColor"/></clipPath></defs></svg>