<svg xmlns="http://www.w3.org/2000/svg" width="1.25em" height="1.25em" fill="none" viewBox="0 0 33 30"><path fill="currentColor" d="M33 18.281C33 16.0847 32.1275 13.9784 30.5746 12.4254C29.0216 10.8725 26.9153 10 24.719 10H23.319C23.7676 9.06356 24.0004 8.03836 24 7C24 6.08075 23.8189 5.1705 23.4672 4.32122C23.1154 3.47194 22.5998 2.70026 21.9497 2.05025C21.2997 1.40024 20.5281 0.884627 19.6788 0.532844C18.8295 0.181061 17.9193 0 17 0C16.0807 0 15.1705 0.181061 14.3212 0.532844C13.4719 0.884627 12.7003 1.40024 12.0503 2.05025C11.4002 2.70026 10.8846 3.47194 10.5328 4.32122C10.1811 5.1705 10 6.08075 10 7H14C14 6.40666 14.1759 5.82664 14.5056 5.33329C14.8352 4.83994 15.3038 4.45542 15.8519 4.22836C16.4001 4.0013 17.0033 3.94189 17.5853 4.05764C18.1672 4.1734 18.7018 4.45912 19.1213 4.87868C19.5409 5.29824 19.8266 5.83279 19.9424 6.41473C20.0581 6.99667 19.9987 7.59987 19.7716 8.14805C19.5446 8.69623 19.1601 9.16477 18.6667 9.49441C18.1734 9.82405 17.5933 10 17 10H8.281C6.08482 10.0003 3.97867 10.8728 2.42574 12.4257C0.87281 13.9787 0.000265159 16.0848 0 18.281V23H7V30H26V23H33V18.281ZM29 19H26C26 18.4696 25.7893 17.9609 25.4142 17.5858C25.0391 17.2107 24.5304 17 24 17H9C8.46957 17 7.96086 17.2107 7.58579 17.5858C7.21071 17.9609 7 18.4696 7 19H4V18.17C4 17.064 4.43934 16.0034 5.22136 15.2214C6.00339 14.4393 7.06405 14 8.17 14H24.83C25.936 14 26.9966 14.4393 27.7786 15.2214C28.5607 16.0034 29 17.064 29 18.17V19Z"/></svg>