<svg xmlns="http://www.w3.org/2000/svg" width="1.5em" height="1.5em" fill="none" viewBox="0 0 24 24"><path fill="currentColor" d="M20 13.1405C20 12.0424 19.5638 10.9892 18.7873 10.2127C18.0108 9.43623 16.9576 9 15.8595 9H15.1595C15.3838 8.53178 15.5002 8.01918 15.5 7.5C15.5 7.04037 15.4095 6.58525 15.2336 6.16061C15.0577 5.73597 14.7999 5.35013 14.4749 5.02513C14.1499 4.70012 13.764 4.44231 13.3394 4.26642C12.9148 4.09053 12.4596 4 12 4C11.5404 4 11.0852 4.09053 10.6606 4.26642C10.236 4.44231 9.85013 4.70012 9.52513 5.02513C9.20012 5.35013 8.94231 5.73597 8.76642 6.16061C8.59053 6.58525 8.5 7.04037 8.5 7.5H10.5C10.5 7.20333 10.588 6.91332 10.7528 6.66664C10.9176 6.41997 11.1519 6.22771 11.426 6.11418C11.7001 6.00065 12.0017 5.97094 12.2926 6.02882C12.5836 6.0867 12.8509 6.22956 13.0607 6.43934C13.2704 6.64912 13.4133 6.91639 13.4712 7.20736C13.5291 7.49834 13.4994 7.79994 13.3858 8.07403C13.2723 8.34811 13.08 8.58238 12.8334 8.7472C12.5867 8.91203 12.2967 9 12 9H7.6405C6.54241 9.00013 5.48934 9.43641 4.71287 10.2129C3.9364 10.9893 3.50013 12.0424 3.5 13.1405V15.5H7V19H16.5V15.5H20V13.1405ZM18 13.5H16.5C16.5 13.2348 16.3946 12.9804 16.2071 12.7929C16.0196 12.6054 15.7652 12.5 15.5 12.5H8C7.73478 12.5 7.48043 12.6054 7.29289 12.7929C7.10536 12.9804 7 13.2348 7 13.5H5.5V13.085C5.5 12.532 5.71967 12.0017 6.11068 11.6107C6.5017 11.2197 7.03202 11 7.585 11H15.915C16.468 11 16.9983 11.2197 17.3893 11.6107C17.7803 12.0017 18 12.532 18 13.085V13.5Z"/></svg>