<svg xmlns="http://www.w3.org/2000/svg" width="1.25em" height="1.25em" fill="none" viewBox="0 0 17 15"><path fill="currentColor" d="M16.5 9.1405C16.5 8.04237 16.0638 6.98922 15.2873 6.21272C14.5108 5.43623 13.4576 5 12.3595 5H11.6595C11.8838 4.53178 12.0002 4.01918 12 3.5C12 3.04037 11.9095 2.58525 11.7336 2.16061C11.5577 1.73597 11.2999 1.35013 10.9749 1.02513C10.6499 0.700121 10.264 0.442313 9.83939 0.266422C9.41475 0.0905303 8.95963 0 8.5 0C8.04037 0 7.58525 0.0905303 7.16061 0.266422C6.73597 0.442313 6.35013 0.700121 6.02513 1.02513C5.70012 1.35013 5.44231 1.73597 5.26642 2.16061C5.09053 2.58525 5 3.04037 5 3.5H7C7 3.20333 7.08797 2.91332 7.2528 2.66664C7.41762 2.41997 7.65189 2.22771 7.92597 2.11418C8.20006 2.00065 8.50166 1.97094 8.79264 2.02882C9.08361 2.0867 9.35088 2.22956 9.56066 2.43934C9.77044 2.64912 9.9133 2.91639 9.97118 3.20736C10.0291 3.49834 9.99935 3.79994 9.88582 4.07403C9.77229 4.34811 9.58003 4.58238 9.33335 4.7472C9.08668 4.91203 8.79667 5 8.5 5H4.1405C3.04241 5.00013 1.98934 5.43641 1.21287 6.21287C0.436405 6.98934 0.000132579 8.04241 0 9.1405V11.5H3.5V15H13V11.5H16.5V9.1405ZM14.5 9.5H13C13 9.23478 12.8946 8.98043 12.7071 8.79289C12.5196 8.60536 12.2652 8.5 12 8.5H4.5C4.23478 8.5 3.98043 8.60536 3.79289 8.79289C3.60536 8.98043 3.5 9.23478 3.5 9.5H2V9.085C2 8.53202 2.21967 8.0017 2.61068 7.61068C3.0017 7.21967 3.53202 7 4.085 7H12.415C12.968 7 13.4983 7.21967 13.8893 7.61068C14.2803 8.0017 14.5 8.53202 14.5 9.085V9.5Z"/></svg>