<svg xmlns="http://www.w3.org/2000/svg" width="1.5em" height="1.5em" fill="none" viewBox="0 0 24 24"><g clip-path="url(#clip0_39_287)"><path stroke="currentColor" stroke-linecap="round" stroke-linejoin="round" stroke-width="1.5" d="M3 14C3.83 14.642 5.077 15.017 6.5 15 7.923 15.017 9.17 14.642 10 14 10.83 13.358 12.077 12.983 13.5 13 14.923 12.983 16.17 13.358 17 14M8 3C7.684 3.227 7.427 3.528 7.253 3.876 7.079 4.225 6.992 4.611 7 5 6.992 5.39 7.079 5.775 7.253 6.124 7.427 6.472 7.684 6.773 8 7M12 3C11.684 3.227 11.427 3.528 11.253 3.876 11.079 4.225 10.992 4.611 11 5 10.992 5.39 11.079 5.775 11.253 6.124 11.427 6.472 11.684 6.773 12 7"/><path stroke="currentColor" stroke-linecap="round" stroke-linejoin="round" stroke-width="1.5" d="M3 10H17V15C17 16.5913 16.3679 18.1174 15.2426 19.2426C14.1174 20.3679 12.5913 21 11 21H9C7.4087 21 5.88258 20.3679 4.75736 19.2426C3.63214 18.1174 3 16.5913 3 15V10Z"/><path stroke="currentColor" stroke-linecap="round" stroke-linejoin="round" stroke-width="1.5" d="M16.746 16.726C17.1926 16.931 17.6827 17.0232 18.1733 16.9944C18.6639 16.9657 19.1398 16.8168 19.5594 16.561C19.979 16.3052 20.3293 15.9502 20.5795 15.5273C20.8297 15.1043 20.9723 14.6264 20.9945 14.1355C21.0168 13.6446 20.9181 13.1558 20.7072 12.7119C20.4963 12.2681 20.1796 11.8829 19.7849 11.5901C19.3902 11.2973 18.9297 11.106 18.4437 11.0329C17.9578 10.9599 17.4613 11.0073 16.998 11.171"/></g><defs><clipPath id="clip0_39_287"><rect width="24" height="24" fill="currentColor"/></clipPath></defs></svg>