<svg xmlns="http://www.w3.org/2000/svg" width="1.25em" height="1.25em" fill="none" viewBox="0 0 15 14"><path fill="currentColor" d="M10.5 2V0H0V12C0 12.5304 0.210714 13.0391 0.585786 13.4142C0.960859 13.7893 1.46957 14 2 14H8.5C9.03043 14 9.53914 13.7893 9.91421 13.4142C10.2893 13.0391 10.5 12.5304 10.5 12V10.5H11.5C12.2954 10.4992 13.058 10.1829 13.6204 9.62044C14.1829 9.05801 14.4992 8.29541 14.5 7.5V2H10.5ZM12.5 7.5C12.5 7.76522 12.3946 8.01957 12.2071 8.20711C12.0196 8.39464 11.7652 8.5 11.5 8.5H10.5V4H12.5V7.5Z"/></svg>