<svg xmlns="http://www.w3.org/2000/svg" width="1.5em" height="1.5em" fill="none" viewBox="0 0 24 24"><path fill="currentColor" d="M16 7V5H5.5V17C5.5 17.5304 5.71071 18.0391 6.08579 18.4142C6.46086 18.7893 6.96957 19 7.5 19H14C14.5304 19 15.0391 18.7893 15.4142 18.4142C15.7893 18.0391 16 17.5304 16 17V15.5H17C17.7954 15.4992 18.558 15.1829 19.1204 14.6204C19.6829 14.058 19.9992 13.2954 20 12.5V7H16ZM18 12.5C18 12.7652 17.8946 13.0196 17.7071 13.2071C17.5196 13.3946 17.2652 13.5 17 13.5H16V9H18V12.5Z"/></svg>