<svg xmlns="http://www.w3.org/2000/svg" width="1.25em" height="1.25em" fill="none" viewBox="0 0 32 32"><path fill="currentColor" fill-rule="evenodd" d="M7.11088 2.69649C9.74207 0.938384 12.8355 0 16 0C20.242 0.00476422 24.3089 1.692 27.3085 4.69155C30.308 7.6911 31.9952 11.758 32 16C32 19.1645 31.0616 22.2579 29.3035 24.8891C27.5454 27.5203 25.0466 29.5711 22.1229 30.7821C19.1993 31.9931 15.9823 32.3099 12.8786 31.6926C9.77487 31.0752 6.92394 29.5513 4.6863 27.3137C2.44866 25.0761 0.924806 22.2251 0.307443 19.1214C-0.309921 16.0177 0.00693256 12.8007 1.21793 9.87707C2.42894 6.95345 4.4797 4.45459 7.11088 2.69649ZM17.627 26.32L25 16L17.627 5.678C17.4419 5.41913 17.1978 5.20816 16.9148 5.06261C16.6318 4.91706 16.3182 4.84113 16 4.84113C15.6818 4.84113 15.3682 4.91706 15.0852 5.06261C14.8022 5.20816 14.5581 5.41913 14.373 5.678L7.00001 16L14.373 26.32C14.5581 26.5789 14.8022 26.7898 15.0852 26.9354C15.3682 27.0809 15.6818 27.1569 16 27.1569C16.3182 27.1569 16.6318 27.0809 16.9148 26.9354C17.1978 26.7898 17.4419 26.5789 17.627 26.32ZM16 8.999L21 15.999H11L16 8.999Z" clip-rule="evenodd"/></svg>