<svg xmlns="http://www.w3.org/2000/svg" width="1.5em" height="1.5em" fill="none" viewBox="0 0 24 24"><path fill="currentColor" fill-rule="evenodd" d="M7.55544 5.34824C8.87103 4.46919 10.4178 4 12 4C14.121 4.00238 16.1545 4.846 17.6542 6.34578C19.154 7.84555 19.9976 9.879 20 12C20 13.5823 19.5308 15.129 18.6518 16.4446C17.7727 17.7602 16.5233 18.7855 15.0615 19.391C13.5997 19.9965 11.9911 20.155 10.4393 19.8463C8.88743 19.5376 7.46197 18.7757 6.34315 17.6569C5.22433 16.538 4.4624 15.1126 4.15372 13.5607C3.84504 12.0089 4.00347 10.4003 4.60897 8.93853C5.21447 7.47672 6.23985 6.22729 7.55544 5.34824ZM12.8135 17.16L16.5 12L12.8135 6.839C12.721 6.70957 12.5989 6.60408 12.4574 6.53131C12.3159 6.45853 12.1591 6.42057 12 6.42057C11.8409 6.42057 11.6841 6.45853 11.5426 6.53131C11.4011 6.60408 11.279 6.70957 11.1865 6.839L7.5 12L11.1865 17.16C11.279 17.2894 11.4011 17.3949 11.5426 17.4677C11.6841 17.5405 11.8409 17.5784 12 17.5784C12.1591 17.5784 12.3159 17.5405 12.4574 17.4677C12.5989 17.3949 12.721 17.2894 12.8135 17.16ZM12 8.4995L14.5 11.9995H9.5L12 8.4995Z" clip-rule="evenodd"/></svg>