<svg xmlns="http://www.w3.org/2000/svg" width="1.25em" height="1.25em" fill="none" viewBox="0 0 16 16"><path fill="currentColor" fill-rule="evenodd" d="M3.55544 1.34824C4.87103 0.469192 6.41775 0 8 0C10.121 0.00238204 12.1544 0.846001 13.6542 2.34578C15.154 3.84555 15.9976 5.879 16 8C16 9.58225 15.5308 11.129 14.6518 12.4446C13.7727 13.7602 12.5233 14.7855 11.0615 15.391C9.59966 15.9965 7.99113 16.155 6.43928 15.8463C4.88743 15.5376 3.46197 14.7757 2.34315 13.6569C1.22433 12.538 0.462403 11.1126 0.153721 9.56072C-0.15496 8.00887 0.00346626 6.40034 0.608967 4.93853C1.21447 3.47672 2.23985 2.22729 3.55544 1.34824ZM8.8135 13.16L12.5 8L8.8135 2.839C8.72097 2.70957 8.59889 2.60408 8.4574 2.5313C8.31592 2.45853 8.15911 2.42056 8 2.42056C7.8409 2.42056 7.68409 2.45853 7.5426 2.5313C7.40111 2.60408 7.27903 2.70957 7.1865 2.839L3.5 8L7.1865 13.16C7.27903 13.2894 7.40111 13.3949 7.5426 13.4677C7.68409 13.5405 7.8409 13.5784 8 13.5784C8.15911 13.5784 8.31592 13.5405 8.4574 13.4677C8.59889 13.3949 8.72097 13.2894 8.8135 13.16ZM8 4.4995L10.5 7.9995H5.5L8 4.4995Z" clip-rule="evenodd"/></svg>