<svg xmlns="http://www.w3.org/2000/svg" width="1.25em" height="1.25em" fill="none" viewBox="0 0 18 19"><path fill="currentColor" fill-rule="evenodd" d="M18 1.04158C18 1.61683 17.5337 2.08317 16.9584 2.08317C16.3832 2.08317 15.9168 1.61683 15.9168 1.04158C15.9168 0.466333 16.3832 0 16.9584 0C17.5337 0 18 0.466333 18 1.04158ZM14.0784 9.43672C14.5524 9.90544 15.1304 10.2075 15.7345 10.3429L15.7398 10.3481C16.1356 10.4366 16.4272 10.796 16.396 11.2022C16.2449 13.0771 15.4533 14.9102 14.0159 16.3476C10.6829 19.6807 5.19893 19.5505 2.03251 15.9622C-0.654774 12.9104 -0.680814 8.25453 1.97523 5.17664C3.45948 3.45803 5.46974 2.5154 7.52687 2.34874C7.9435 2.3175 8.30285 2.61435 8.39659 3.02057C8.532 3.61948 8.83406 4.19235 9.30277 4.66106C9.90689 5.26518 10.7089 5.6089 11.5213 5.66619C12.3754 5.72348 13.0368 6.40571 13.0941 7.25981C13.1462 8.05662 13.4795 8.83781 14.0784 9.43672ZM3.13138 12.0042C3.5376 12.4104 4.19901 12.4104 4.60523 12.0042C5.01144 11.598 5.01144 10.9366 4.60523 10.5304C4.19901 10.1242 3.5376 10.1242 3.13138 10.5304C2.72517 10.9366 2.72517 11.598 3.13138 12.0042ZM9.62045 8.55658C9.21423 8.15037 8.55283 8.15037 8.14661 8.55658C7.74039 8.9628 7.74039 9.62421 8.14661 10.0304C8.55283 10.4366 9.21423 10.4366 9.62045 10.0304C10.0267 9.62421 10.0267 8.9628 9.62045 8.55658ZM8.45388 15.2279C8.96425 15.7383 9.78711 15.7383 10.2975 15.2279C10.8079 14.7176 10.8079 13.8947 10.2975 13.3843C9.78711 12.874 8.96425 12.874 8.45388 13.3843C7.9435 13.8947 7.9435 14.7176 8.45388 15.2279ZM13.0525 4.16634C13.7715 4.16634 14.3545 3.58342 14.3545 2.86436C14.3545 2.14529 13.7715 1.56238 13.0525 1.56238C12.3334 1.56238 11.7505 2.14529 11.7505 2.86436C11.7505 3.58342 12.3334 4.16634 13.0525 4.16634ZM17.2188 5.85891C17.2188 6.43416 16.7525 6.90049 16.1772 6.90049C15.602 6.90049 15.1356 6.43416 15.1356 5.85891C15.1356 5.28366 15.602 4.81733 16.1772 4.81733C16.7525 4.81733 17.2188 5.28366 17.2188 5.85891Z" clip-rule="evenodd"/></svg>