<svg xmlns="http://www.w3.org/2000/svg" width="1.5em" height="1.5em" fill="none" viewBox="0 0 24 24"><path stroke="currentColor" stroke-linecap="round" stroke-linejoin="round" stroke-width="1.5" d="M15.17 12.1C14.42 11.35 14.18 10.3 14.43 9.35001C14.52 9.02001 14.23 8.74001 13.9 8.82001C12.95 9.07001 11.9 8.82001 11.15 8.08001C10.17 7.10001 10.04 5.58001 10.78 4.46001C8.63 4.53001 6.49 5.48001 4.99 7.34001C2.72 10.13 2.71 14.25 4.96 17.05C7.91 20.72 13.29 20.94 16.52 17.7C17.97 16.25 18.72 14.36 18.78 12.46C17.66 13.2 16.15 13.07 15.16 12.09L15.17 12.1Z"/><path stroke="currentColor" stroke-linecap="round" stroke-linejoin="round" stroke-width="1.5" d="M17.61 6.17C18.09 5.69 18.87 5.69 19.35 6.17C19.83 6.65 19.83 7.43 19.35 7.91C18.87 8.39 18.09 8.39 17.61 7.91C17.13 7.43 17.13 6.65 17.61 6.17Z"/><path stroke="currentColor" stroke-linecap="round" stroke-linejoin="round" stroke-width="1.5" d="M7.23 11.13C7.71 10.65 8.49 10.65 8.97 11.13C9.45 11.61 9.45 12.39 8.97 12.87C8.49 13.35 7.71 13.35 7.23 12.87C6.75 12.39 6.75 11.61 7.23 11.13Z"/></svg>