<svg xmlns="http://www.w3.org/2000/svg" width="1.5em" height="1.5em" fill="none" viewBox="0 0 24 24"><path fill="currentColor" fill-rule="evenodd" d="M19.95 3.75C19.95 4.30228 19.5023 4.75 18.95 4.75C18.3977 4.75 17.95 4.30228 17.95 3.75C17.95 3.19772 18.3977 2.75 18.95 2.75C19.5023 2.75 19.95 3.19772 19.95 3.75ZM16.185 11.81C16.64 12.26 17.195 12.55 17.775 12.68L17.78 12.685C18.16 12.77 18.44 13.115 18.41 13.505C18.265 15.305 17.505 17.065 16.125 18.445C12.925 21.645 7.66001 21.52 4.62001 18.075C2.04001 15.145 2.01501 10.675 4.56501 7.71997C5.99001 6.06997 7.92001 5.16497 9.89501 5.00497C10.295 4.97497 10.64 5.25997 10.73 5.64997C10.86 6.22497 11.15 6.77497 11.6 7.22497C12.18 7.80497 12.95 8.13497 13.73 8.18997C14.55 8.24497 15.185 8.89997 15.24 9.71997C15.29 10.485 15.61 11.235 16.185 11.81ZM5.67501 14.275C6.06501 14.665 6.70001 14.665 7.09001 14.275C7.48001 13.885 7.48001 13.25 7.09001 12.86C6.70001 12.47 6.06501 12.47 5.67501 12.86C5.28501 13.25 5.28501 13.885 5.67501 14.275ZM11.905 10.965C11.515 10.575 10.88 10.575 10.49 10.965C10.1 11.355 10.1 11.99 10.49 12.38C10.88 12.77 11.515 12.77 11.905 12.38C12.295 11.99 12.295 11.355 11.905 10.965ZM10.785 17.37C11.275 17.86 12.065 17.86 12.555 17.37C13.045 16.88 13.045 16.09 12.555 15.6C12.065 15.11 11.275 15.11 10.785 15.6C10.295 16.09 10.295 16.88 10.785 17.37ZM15.2 6.75C15.8904 6.75 16.45 6.19036 16.45 5.5C16.45 4.80964 15.8904 4.25 15.2 4.25C14.5097 4.25 13.95 4.80964 13.95 5.5C13.95 6.19036 14.5097 6.75 15.2 6.75ZM19.2 8.375C19.2 8.92728 18.7523 9.375 18.2 9.375C17.6477 9.375 17.2 8.92728 17.2 8.375C17.2 7.82272 17.6477 7.375 18.2 7.375C18.7523 7.375 19.2 7.82272 19.2 8.375Z" clip-rule="evenodd"/></svg>