<svg xmlns="http://www.w3.org/2000/svg" width="1.25em" height="1.25em" fill="none" viewBox="0 0 35 37"><path fill="currentColor" fill-rule="evenodd" d="M35 2.0253C35 3.14385 34.0932 4.0506 32.9747 4.0506C31.8562 4.0506 30.9494 3.14385 30.9494 2.0253C30.9494 0.906759 31.8562 0 32.9747 0C34.0932 0 35 0.906759 35 2.0253ZM27.3747 18.3492C28.2962 19.2606 29.4203 19.8479 30.595 20.1112L30.6051 20.1213C31.3747 20.2935 31.9418 20.9922 31.881 21.7821C31.5874 25.4276 30.0481 28.9921 27.2532 31.7871C20.7722 38.268 10.109 38.0149 3.95211 31.0377C-1.27317 25.1036 -1.3238 16.0505 3.84072 10.0657C6.72677 6.72395 10.6356 4.89105 14.6356 4.567C15.4457 4.50624 16.1444 5.08345 16.3267 5.87332C16.59 7.03787 17.1773 8.15179 18.0887 9.06317C19.2634 10.2378 20.8229 10.9062 22.4026 11.0176C24.0634 11.129 25.3494 12.4556 25.4608 14.1163C25.5621 15.6657 26.2102 17.1846 27.3747 18.3492ZM6.0888 23.3416C6.87867 24.1314 8.16474 24.1314 8.9546 23.3416C9.74447 22.5517 9.74447 21.2656 8.9546 20.4758C8.16474 19.6859 6.87867 19.6859 6.0888 20.4758C5.29893 21.2656 5.29893 22.5517 6.0888 23.3416ZM18.7064 16.6378C17.9166 15.8479 16.6305 15.8479 15.8406 16.6378C15.0508 17.4277 15.0508 18.7137 15.8406 19.5036C16.6305 20.2935 17.9166 20.2935 18.7064 19.5036C19.4963 18.7137 19.4963 17.4277 18.7064 16.6378ZM16.4381 29.6099C17.4305 30.6023 19.0305 30.6023 20.0229 29.6099C21.0153 28.6175 21.0153 27.0175 20.0229 26.0251C19.0305 25.0327 17.4305 25.0327 16.4381 26.0251C15.4457 27.0175 15.4457 28.6175 16.4381 29.6099ZM25.3798 8.10121C26.778 8.10121 27.9114 6.96776 27.9114 5.56958C27.9114 4.1714 26.778 3.03795 25.3798 3.03795C23.9816 3.03795 22.8482 4.1714 22.8482 5.56958C22.8482 6.96776 23.9816 8.10121 25.3798 8.10121ZM33.481 11.3923C33.481 12.5109 32.5743 13.4176 31.4557 13.4176C30.3372 13.4176 29.4304 12.5109 29.4304 11.3923C29.4304 10.2738 30.3372 9.36702 31.4557 9.36702C32.5743 9.36702 33.481 10.2738 33.481 11.3923Z" clip-rule="evenodd"/></svg>