<svg xmlns="http://www.w3.org/2000/svg" width="1.5em" height="1.5em" fill="none" viewBox="0 0 24 24"><path stroke="currentColor" stroke-linecap="round" stroke-linejoin="round" stroke-width="1.5" d="M6.16 16.16V18.24"/><path stroke="currentColor" stroke-linecap="round" stroke-linejoin="round" stroke-width="1.5" d="M17.84 16.16V18.24"/><path stroke="currentColor" stroke-linecap="round" stroke-linejoin="round" stroke-width="1.5" d="M17.84 11.6V12.89H6.16001V11.6C6.16001 10.72 5.44001 9.99999 4.56001 9.99999C3.68001 9.99999 2.96001 10.72 2.96001 11.6V12.89V14.64C2.96001 15.47 3.64001 16.15 4.47001 16.15H19.51C20.34 16.15 21.02 15.47 21.02 14.64V11.59C21.02 10.71 20.3 9.98999 19.42 9.98999C18.54 9.98999 17.82 10.71 17.82 11.59L17.84 11.6Z"/><path stroke="currentColor" stroke-linecap="round" stroke-linejoin="round" stroke-width="1.5" d="M12 12.9V10.18C12 8.57001 10.69 7.26001 9.08 7.26001C7.47 7.26001 6.16 8.57001 6.16 10.18V12.9"/><path stroke="currentColor" stroke-linecap="round" stroke-linejoin="round" stroke-width="1.5" d="M17.84 12.9V10.18C17.84 8.57001 16.53 7.26001 14.92 7.26001C13.31 7.26001 12 8.57001 12 10.18V12.9"/></svg>