<svg xmlns="http://www.w3.org/2000/svg" width="1.5em" height="1.5em" fill="none" viewBox="0 0 24 24"><path fill="currentColor" fill-rule="evenodd" d="M16.985 9.98498V11.485H6.98499V9.98498C6.98499 8.87998 7.87998 7.98499 8.98498 7.98499H9.98498C11.09 7.98499 11.985 8.87998 11.985 9.98498C11.985 8.87998 12.88 7.98499 13.985 7.98499H14.985C16.09 7.98499 16.985 8.87998 16.985 9.98498ZM17.985 12.485C17.985 11.655 18.655 10.985 19.485 10.985C20.315 10.985 20.985 11.655 20.985 12.485V14.485C20.985 15.59 20.09 16.485 18.985 16.485H17.985V17.485H15.985V16.485H7.98499V17.485H5.98499V16.485H4.98499C3.87999 16.485 2.98499 15.59 2.98499 14.485V12.485C2.98499 11.655 3.65499 10.985 4.48499 10.985C5.31499 10.985 5.98499 11.655 5.98499 12.485V13.485H17.985V12.485Z" clip-rule="evenodd"/></svg>