<svg xmlns="http://www.w3.org/2000/svg" width="1.5em" height="1.5em" fill="none" viewBox="0 0 24 24"><path fill="currentColor" fill-rule="evenodd" d="M19.5 8V9H4.5V8C4.5 7.46957 4.71071 6.96086 5.08579 6.58579C5.46086 6.21071 5.96957 6 6.5 6H17.5C18.0304 6 18.5391 6.21071 18.9142 6.58579C19.2893 6.96086 19.5 7.46957 19.5 8ZM4.5 16V11H19.5V16C19.5 16.5304 19.2893 17.0391 18.9142 17.4142C18.5391 17.7893 18.0304 18 17.5 18H6.5C5.96957 18 5.46086 17.7893 5.08579 17.4142C4.71071 17.0391 4.5 16.5304 4.5 16ZM7 15H9V13H7V15Z" clip-rule="evenodd"/></svg>