<svg xmlns="http://www.w3.org/2000/svg" width="1.25em" height="1.25em" fill="none" viewBox="0 0 15 12"><path fill="currentColor" fill-rule="evenodd" d="M15 2V3H0V2C0 1.46957 0.210714 0.960859 0.585786 0.585786C0.960859 0.210713 1.46957 0 2 0H13C13.5304 0 14.0391 0.210713 14.4142 0.585786C14.7893 0.960859 15 1.46957 15 2ZM0 10V5H15V10C15 10.5304 14.7893 11.0391 14.4142 11.4142C14.0391 11.7893 13.5304 12 13 12H2C1.46957 12 0.960859 11.7893 0.585786 11.4142C0.210714 11.0391 0 10.5304 0 10ZM2.5 9H4.5V7H2.5V9Z" clip-rule="evenodd"/></svg>