<svg xmlns="http://www.w3.org/2000/svg" width="1.5em" height="1.5em" fill="none" viewBox="0 0 24 24"><path fill="currentColor" fill-rule="evenodd" d="M18.5 5.765L13.5 8.675C13.196 8.85053 12.8511 8.94295 12.5 8.94295C12.1489 8.94295 11.804 8.85053 11.5 8.675L6.5 5.765L11.605 3.21C11.8829 3.07096 12.1893 2.99857 12.5 2.99857C12.8107 2.99857 13.1171 3.07096 13.395 3.21L18.5 5.765ZM13.5 16.18V10.68V10.675L18.5 7.77V12.12C18.4988 12.4699 18.4058 12.8133 18.2303 13.116C18.0548 13.4187 17.803 13.6701 17.5 13.845L13.5 16.18ZM7.5 13.84L11.5 16.175V10.675L6.5 7.765V12.115C6.50124 12.4649 6.59424 12.8083 6.76971 13.111C6.94519 13.4137 7.197 13.6651 7.5 13.84ZM20.4965 18.1058C20.5882 18.232 20.6508 18.3768 20.68 18.53C20.716 18.6903 20.7144 18.8568 20.6754 19.0164C20.6364 19.176 20.5609 19.3244 20.455 19.45L18.745 21.49L17.71 21.685L17.43 20.185C15.9019 20.5933 14.3267 20.7984 12.745 20.795C7.04001 20.795 2.74501 18.495 2.74501 15.445C2.7442 15.1248 2.79139 14.8062 2.88501 14.5C3.03068 14.0624 3.25615 13.6555 3.55001 13.3L5.30001 14.3C5.07653 14.513 4.9054 14.7748 4.80001 15.065C4.76225 15.1795 4.74367 15.2994 4.74501 15.42C4.74501 17 8.16501 18.77 12.745 18.77C14.2016 18.7775 15.6522 18.5823 17.055 18.19L16.775 16.73L17.81 16.535L20.15 17.8C20.2866 17.8752 20.4049 17.9796 20.4965 18.1058Z" clip-rule="evenodd"/></svg>