<svg xmlns="http://www.w3.org/2000/svg" width="1.25em" height="1.25em" fill="none" viewBox="0 0 36 38"><path fill="currentColor" fill-rule="evenodd" d="M31.5786 5.54491L21.5568 11.3776C20.9474 11.7294 20.2562 11.9146 19.5525 11.9146C18.8488 11.9146 18.1575 11.7294 17.5481 11.3776L7.52636 5.54491L17.7586 0.423785C18.3155 0.145097 18.9297 0 19.5525 0C20.1752 0 20.7895 0.145097 21.3464 0.423785L31.5786 5.54491ZM21.5568 26.4202V15.3963V15.3863L31.5786 9.56364V18.2826C31.5761 18.9838 31.3897 19.6722 31.038 20.2789C30.6863 20.8856 30.1816 21.3894 29.5742 21.7401L21.5568 26.4202ZM9.53072 21.7301L17.5481 26.4102V15.3863L7.52636 9.55361V18.2725C7.52884 18.9738 7.71524 19.6622 8.06695 20.2689C8.41867 20.8756 8.92339 21.3794 9.53072 21.7301ZM35.5804 30.2802C35.764 30.5332 35.8895 30.8235 35.9481 31.1305C36.0203 31.4518 36.0171 31.7855 35.9389 32.1054C35.8606 32.4253 35.7094 32.7227 35.4971 32.9745L32.0697 37.0634L29.9952 37.4542L29.4339 34.4477C26.3711 35.266 23.2138 35.6771 20.0436 35.6703C8.60872 35.6703 2.05221e-05 31.0603 2.05221e-05 24.947C-0.00159302 24.3052 0.0929942 23.6667 0.28063 23.0529C0.572606 22.1758 1.02453 21.3603 1.61352 20.6477L5.12114 22.6521C4.67322 23.079 4.33021 23.6038 4.11897 24.1854C4.0433 24.4149 4.00605 24.6553 4.00873 24.8969C4.00873 28.0638 10.8636 31.6115 20.0436 31.6115C22.9631 31.6265 25.8706 31.2352 28.6823 30.449L28.1211 27.5226L30.1956 27.1318L34.8858 29.6673C35.1596 29.818 35.3967 30.0273 35.5804 30.2802Z" clip-rule="evenodd"/></svg>