<svg xmlns="http://www.w3.org/2000/svg" width="1.25em" height="1.25em" fill="none" viewBox="0 0 18 19"><path fill="currentColor" fill-rule="evenodd" d="M15.7893 2.77245L10.7784 5.68879C10.4737 5.86471 10.1281 5.95732 9.77624 5.95732C9.4244 5.95732 9.07876 5.86471 8.77406 5.68879L3.76318 2.77245L8.87929 0.211892C9.15776 0.0725486 9.46486 0 9.77624 0C10.0876 0 10.3947 0.0725486 10.6732 0.211892L15.7893 2.77245ZM10.7784 13.2101V7.69815V7.69314L15.7893 4.78182V9.14129C15.7881 9.49192 15.6949 9.8361 15.519 10.1395C15.3431 10.4428 15.0908 10.6947 14.7871 10.87L10.7784 13.2101ZM4.76536 10.865L8.77406 13.2051V7.69314L3.76318 4.77681V9.13627C3.76442 9.48691 3.85762 9.83109 4.03348 10.1344C4.20933 10.4378 4.46169 10.6897 4.76536 10.865ZM17.7902 15.1401C17.882 15.2666 17.9448 15.4117 17.974 15.5652C18.0101 15.7259 18.0086 15.8927 17.9694 16.0527C17.9303 16.2126 17.8547 16.3614 17.7486 16.4872L16.0348 18.5317L14.9976 18.7271L14.717 17.2238C13.1856 17.633 11.6069 17.8386 10.0218 17.8352C4.30436 17.8352 1.01497e-05 15.5302 1.01497e-05 12.4735C-0.00079662 12.1526 0.046497 11.8334 0.140315 11.5265C0.286303 11.0879 0.512263 10.6801 0.806762 10.3239L2.56057 11.326C2.33661 11.5395 2.1651 11.8019 2.05948 12.0927C2.02165 12.2074 2.00303 12.3277 2.00436 12.4485C2.00436 14.0319 5.43181 15.8058 10.0218 15.8058C11.4816 15.8133 12.9353 15.6176 14.3412 15.2245L14.0605 13.7613L15.0978 13.5659L17.4429 14.8336C17.5798 14.909 17.6984 15.0137 17.7902 15.1401Z" clip-rule="evenodd"/></svg>