<svg xmlns="http://www.w3.org/2000/svg" width="1.25em" height="1.25em" fill="none" viewBox="0 0 14 17"><path fill="currentColor" fill-rule="evenodd" d="M6 0H11.635C12.2622 0 12.8638 0.249169 13.3073 0.692692C13.7508 1.13622 14 1.73776 14 2.365V10.5C14 11.0304 13.7893 11.5391 13.4142 11.9142C13.0391 12.2893 12.5304 12.5 12 12.5V4C12 3.46957 11.7893 2.96086 11.4142 2.58579C11.0391 2.21071 10.5304 2 10 2H4C4 1.46957 4.21071 0.960859 4.58579 0.585786C4.96086 0.210714 5.46957 0 6 0ZM2 4H8C8.53043 4 9.03914 4.21071 9.41421 4.58579C9.78929 4.96086 10 5.46957 10 6V14.5C10 15.0304 9.78929 15.5391 9.41421 15.9142C9.03914 16.2893 8.53043 16.5 8 16.5H2C1.46957 16.5 0.960859 16.2893 0.585786 15.9142C0.210714 15.5391 0 15.0304 0 14.5V6C0 5.46957 0.210714 4.96086 0.585786 4.58579C0.960859 4.21071 1.46957 4 2 4ZM2 11.95H8V10.05H2V11.95ZM2 7.95H8V6.05H2V7.95Z" clip-rule="evenodd"/></svg>