<svg xmlns="http://www.w3.org/2000/svg" width="1.5em" height="1.5em" fill="none" viewBox="0 0 24 24"><path fill="currentColor" fill-rule="evenodd" d="M11 4H16.635C17.2622 4 17.8638 4.24917 18.3073 4.69269C18.7508 5.13622 19 5.73776 19 6.365V14.5C19 15.0304 18.7893 15.5391 18.4142 15.9142C18.0391 16.2893 17.5304 16.5 17 16.5V8C17 7.46957 16.7893 6.96086 16.4142 6.58579C16.0391 6.21071 15.5304 6 15 6H9C9 5.46957 9.21071 4.96086 9.58579 4.58579C9.96086 4.21071 10.4696 4 11 4ZM7 8H13C13.5304 8 14.0391 8.21071 14.4142 8.58579C14.7893 8.96086 15 9.46957 15 10V18.5C15 19.0304 14.7893 19.5391 14.4142 19.9142C14.0391 20.2893 13.5304 20.5 13 20.5H7C6.46957 20.5 5.96086 20.2893 5.58579 19.9142C5.21071 19.5391 5 19.0304 5 18.5V10C5 9.46957 5.21071 8.96086 5.58579 8.58579C5.96086 8.21071 6.46957 8 7 8ZM7 15.95H13V14.05H7V15.95ZM7 11.95H13V10.05H7V11.95Z" clip-rule="evenodd"/></svg>