<svg xmlns="http://www.w3.org/2000/svg" width="1.25em" height="1.25em" fill="none" viewBox="0 0 16 16"><path fill="currentColor" d="M16 13.7861L13.286 11.0721C14.7498 8.73839 14.4685 5.62852 12.4421 3.59694L9.94171 1.09653L8.09767 2.94058L5.46182 0.304737C5.05551 -0.101579 4.39394 -0.101579 3.98763 0.304737C3.58131 0.711053 3.58131 1.37262 3.98763 1.77893L6.62347 4.41478L4.41478 6.62347L1.77893 3.98763C1.37262 3.58131 0.711053 3.58131 0.304737 3.98763C-0.101579 4.39394 -0.101579 5.05551 0.304737 5.46182L2.94058 8.09767L1.09653 9.94171L3.36773 12.2129C5.44098 14.2862 8.59254 14.6248 11.02 13.2339L13.7861 16L15.9948 13.7913L16 13.7861Z"/></svg>