<svg xmlns="http://www.w3.org/2000/svg" width="1.5em" height="1.5em" fill="none" viewBox="0 0 24 24"><path fill="currentColor" d="M19.795 17.67L17.19 15.065C18.595 12.825 18.325 9.84 16.38 7.89L13.98 5.49L12.21 7.26L9.68 4.73C9.29 4.34 8.655 4.34 8.265 4.73C7.875 5.12 7.875 5.755 8.265 6.145L10.795 8.675L8.675 10.795L6.145 8.265C5.755 7.875 5.12 7.875 4.73 8.265C4.34 8.655 4.34 9.29 4.73 9.68L7.26 12.21L5.49 13.98L7.67 16.16C9.66 18.15 12.685 18.475 15.015 17.14L17.67 19.795L19.79 17.675L19.795 17.67Z"/></svg>