<svg xmlns="http://www.w3.org/2000/svg" width="1.5em" height="1.5em" fill="none" viewBox="0 0 24 24"><path fill="currentColor" fill-rule="evenodd" d="M5.5 4H11.5C12.0304 4 12.5391 4.21071 12.9142 4.58579C13.2893 4.96086 13.5 5.46957 13.5 6V18C13.5 18.5304 13.2893 19.0391 12.9142 19.4142C12.5391 19.7893 12.0304 20 11.5 20H5.5C4.96957 20 4.46086 19.7893 4.08579 19.4142C3.71071 19.0391 3.5 18.5304 3.5 18V6C3.5 5.46957 3.71071 4.96086 4.08579 4.58579C4.46086 4.21071 4.96957 4 5.5 4ZM7.5 13H9.5V7H7.5V13ZM18.815 7.385C18.716 7.2646 18.5916 7.16762 18.4507 7.10104C18.3098 7.03446 18.1559 6.99992 18 6.99992C17.8441 6.99992 17.6902 7.03446 17.5493 7.10104C17.4084 7.16762 17.284 7.2646 17.185 7.385L15.5 9.445V10.5H20.5V9.445L18.815 7.385ZM15.5 14.555L17.185 16.615C17.284 16.7354 17.4084 16.8324 17.5493 16.899C17.6902 16.9655 17.8441 17.0001 18 17.0001C18.1559 17.0001 18.3098 16.9655 18.4507 16.899C18.5916 16.8324 18.716 16.7354 18.815 16.615L20.5 14.555V13.5H15.5V14.555Z" clip-rule="evenodd"/></svg>