<svg xmlns="http://www.w3.org/2000/svg" width="1.25em" height="1.25em" fill="none" viewBox="0 0 17 16"><path fill="currentColor" fill-rule="evenodd" d="M2 0H8C8.53043 0 9.03914 0.210714 9.41421 0.585786C9.78929 0.960859 10 1.46957 10 2V14C10 14.5304 9.78929 15.0391 9.41421 15.4142C9.03914 15.7893 8.53043 16 8 16H2C1.46957 16 0.960859 15.7893 0.585786 15.4142C0.210714 15.0391 0 14.5304 0 14V2C0 1.46957 0.210714 0.960859 0.585786 0.585786C0.960859 0.210714 1.46957 0 2 0ZM4 9H6V3H4V9ZM15.315 3.385C15.216 3.2646 15.0916 3.16762 14.9507 3.10104C14.8098 3.03446 14.6559 2.99992 14.5 2.99992C14.3441 2.99992 14.1902 3.03446 14.0493 3.10104C13.9084 3.16762 13.784 3.2646 13.685 3.385L12 5.445V6.5H17V5.445L15.315 3.385ZM12 10.555L13.685 12.615C13.784 12.7354 13.9084 12.8324 14.0493 12.899C14.1902 12.9655 14.3441 13.0001 14.5 13.0001C14.6559 13.0001 14.8098 12.9655 14.9507 12.899C15.0916 12.8324 15.216 12.7354 15.315 12.615L17 10.555V9.5H12V10.555Z" clip-rule="evenodd"/></svg>