<svg xmlns="http://www.w3.org/2000/svg" width="1.25em" height="1.25em" fill="none" viewBox="0 0 34 32"><path fill="currentColor" fill-rule="evenodd" d="M4 0H16C17.0609 0 18.0783 0.421427 18.8284 1.17157C19.5786 1.92172 20 2.93913 20 4V28C20 29.0609 19.5786 30.0783 18.8284 30.8284C18.0783 31.5786 17.0609 32 16 32H4C2.93913 32 1.92172 31.5786 1.17157 30.8284C0.421427 30.0783 0 29.0609 0 28V4C0 2.93913 0.421427 1.92172 1.17157 1.17157C1.92172 0.421427 2.93913 0 4 0ZM8 18H12V6H8V18ZM30.63 6.77C30.4321 6.5292 30.1832 6.33524 29.9014 6.20208C29.6196 6.06891 29.3117 5.99985 29 5.99985C28.6883 5.99985 28.3804 6.06891 28.0986 6.20208C27.8168 6.33524 27.5679 6.5292 27.37 6.77L24 10.89V13H34V10.89L30.63 6.77ZM24 21.11L27.37 25.23C27.5679 25.4708 27.8168 25.6648 28.0986 25.7979C28.3804 25.9311 28.6883 26.0001 29 26.0001C29.3117 26.0001 29.6196 25.9311 29.9014 25.7979C30.1832 25.6648 30.4321 25.4708 30.63 25.23L34 21.11V19H24V21.11Z" clip-rule="evenodd"/></svg>