<svg xmlns="http://www.w3.org/2000/svg" width="1.25em" height="1.25em" fill="none" viewBox="0 0 15 15"><path fill="currentColor" d="M13 0H2C1.46957 0 0.960859 0.210714 0.585786 0.585786C0.210714 0.960859 0 1.46957 0 2V13C0 13.5304 0.210714 14.0391 0.585786 14.4142C0.960859 14.7893 1.46957 15 2 15H13C13.5304 15 14.0391 14.7893 14.4142 14.4142C14.7893 14.0391 15 13.5304 15 13V2C15 1.46957 14.7893 0.960859 14.4142 0.585786C14.0391 0.210714 13.5304 0 13 0ZM12.5 6.0355L11.7555 6.78L10.695 5.719L5.719 10.695L6.78 11.7555L6.0355 12.5H3.3535C3.12714 12.5 2.91005 12.4101 2.74998 12.25C2.58992 12.09 2.5 11.8729 2.5 11.6465V8.9645L3.2445 8.22L4.305 9.281L9.281 4.305L8.22 3.2445L8.9645 2.5H11.6465C11.8729 2.5 12.09 2.58992 12.25 2.74998C12.4101 2.91005 12.5 3.12714 12.5 3.3535V6.0355Z"/></svg>