<svg xmlns="http://www.w3.org/2000/svg" width="1.5em" height="1.5em" fill="none" viewBox="0 0 24 24"><path fill="currentColor" d="M17.5 4.5H6.5C5.96957 4.5 5.46086 4.71071 5.08579 5.08579C4.71071 5.46086 4.5 5.96957 4.5 6.5V17.5C4.5 18.0304 4.71071 18.5391 5.08579 18.9142C5.46086 19.2893 5.96957 19.5 6.5 19.5H17.5C18.0304 19.5 18.5391 19.2893 18.9142 18.9142C19.2893 18.5391 19.5 18.0304 19.5 17.5V6.5C19.5 5.96957 19.2893 5.46086 18.9142 5.08579C18.5391 4.71071 18.0304 4.5 17.5 4.5ZM17 10.5355L16.2555 11.28L15.195 10.219L10.219 15.195L11.28 16.2555L10.5355 17H7.8535C7.62714 17 7.41005 16.9101 7.24998 16.75C7.08992 16.59 7 16.3729 7 16.1465V13.4645L7.7445 12.72L8.805 13.781L13.781 8.805L12.72 7.7445L13.4645 7H16.1465C16.3729 7 16.59 7.08992 16.75 7.24998C16.9101 7.41005 17 7.62714 17 7.8535V10.5355Z"/></svg>