<svg xmlns="http://www.w3.org/2000/svg" width="1.5em" height="1.5em" fill="none" viewBox="0 0 24 24"><path stroke="currentColor" stroke-linecap="round" stroke-linejoin="round" stroke-width="1.5" d="M12 12C12 12.796 12.316 13.559 12.879 14.121 13.441 14.684 14.204 15 15 15 15.796 15 16.559 14.684 17.121 14.121 17.684 13.559 18 12.796 18 12 18 11.204 17.684 10.441 17.121 9.879 16.559 9.316 15.796 9 15 9 14.204 9 13.441 9.316 12.879 9.879 12.316 10.441 12 11.204 12 12ZM6 6C6 5.204 6.316 4.441 6.879 3.879 7.441 3.316 8.204 3 9 3H15C15.796 3 16.559 3.316 17.121 3.879 17.684 4.441 18 5.204 18 6 18 6.796 17.684 7.559 17.121 8.121 16.559 8.684 15.796 9 15 9H9C8.204 9 7.441 8.684 6.879 8.121 6.316 7.559 6 6.796 6 6Z"/><path stroke="currentColor" stroke-linecap="round" stroke-linejoin="round" stroke-width="1.5" d="M9 9C8.20435 9 7.44129 9.31607 6.87868 9.87868C6.31607 10.4413 6 11.2044 6 12C6 12.7956 6.31607 13.5587 6.87868 14.1213C7.44129 14.6839 8.20435 15 9 15M9 15H12M9 15C8.40666 15 7.82664 15.1759 7.33329 15.5056C6.83994 15.8352 6.45543 16.3038 6.22836 16.8519C6.0013 17.4001 5.94189 18.0033 6.05765 18.5853C6.1734 19.1672 6.45912 19.7018 6.87868 20.1213C7.29824 20.5409 7.83279 20.8266 8.41473 20.9424C8.99667 21.0581 9.59987 20.9987 10.1481 20.7716C10.6962 20.5446 11.1648 20.1601 11.4944 19.6667C11.8241 19.1734 12 18.5933 12 18V3"/></svg>