<svg xmlns="http://www.w3.org/2000/svg" width="1.25em" height="1.25em" fill="none" viewBox="0 0 11 15"><path fill="currentColor" fill-rule="evenodd" d="M4.5 0V4.5C4.5 5.03043 4.71071 5.53914 5.08579 5.91421C5.46086 6.28929 5.96957 6.5 6.5 6.5H11V13C11 13.5304 10.7893 14.0391 10.4142 14.4142C10.0391 14.7893 9.53043 15 9 15H2C1.46957 15 0.960859 14.7893 0.585786 14.4142C0.210714 14.0391 0 13.5304 0 13V2C0 1.46957 0.210714 0.960859 0.585786 0.585786C0.960859 0.210713 1.46957 0 2 0H4.5ZM6.5 0H7.5L11 3.5V4.5H7.5C7.23478 4.5 6.98043 4.39464 6.79289 4.20711C6.60536 4.01957 6.5 3.76522 6.5 3.5V0Z" clip-rule="evenodd"/></svg>