<svg xmlns="http://www.w3.org/2000/svg" width="1.5em" height="1.5em" fill="none" viewBox="0 0 24 24"><path fill="currentColor" fill-rule="evenodd" d="M11 4.5V9C11 9.53043 11.2107 10.0391 11.5858 10.4142C11.9609 10.7893 12.4696 11 13 11H17.5V17.5C17.5 18.0304 17.2893 18.5391 16.9142 18.9142C16.5391 19.2893 16.0304 19.5 15.5 19.5H8.5C7.96957 19.5 7.46086 19.2893 7.08579 18.9142C6.71071 18.5391 6.5 18.0304 6.5 17.5V6.5C6.5 5.96957 6.71071 5.46086 7.08579 5.08579C7.46086 4.71071 7.96957 4.5 8.5 4.5H11ZM13 4.5H14L17.5 8V9H14C13.7348 9 13.4804 8.89464 13.2929 8.70711C13.1054 8.51957 13 8.26522 13 8V4.5Z" clip-rule="evenodd"/></svg>