<svg xmlns="http://www.w3.org/2000/svg" width="1.25em" height="1.25em" fill="none" viewBox="0 0 16 17"><path fill="currentColor" d="M13.3492 11.6875C12.2624 11.6875 11.3294 12.3462 10.9211 13.2812H0V15.4062H10.9211C11.3294 16.3412 12.2624 17 13.3492 17C14.8125 17 16 15.81 16 14.3438C16 12.8775 14.8125 11.6875 13.3492 11.6875Z"/><path fill="currentColor" d="M13.3492 5.3125C14.8125 5.3125 16 4.1225 16 2.65625C16 1.19 14.8125 0 13.3492 0C12.2624 0 11.3294 0.65875 10.9211 1.59375H0V3.71875H10.9211C11.3294 4.65375 12.2624 5.3125 13.3492 5.3125Z"/><path fill="currentColor" d="M8.04771 5.84375C6.9609 5.84375 6.02783 6.5025 5.61962 7.4375H0V9.5625H5.61962C6.02783 10.4975 6.9609 11.1562 8.04771 11.1562C9.13453 11.1562 10.0676 10.4975 10.4758 9.5625H16V7.4375H10.4705C10.0623 6.5025 9.12922 5.84375 8.04771 5.84375Z"/></svg>