<svg xmlns="http://www.w3.org/2000/svg" width="1.5em" height="1.5em" fill="none" viewBox="0 0 24 24"><path fill="currentColor" d="M17.3492 15.1875C16.2624 15.1875 15.3294 15.8462 14.9211 16.7812H4V18.9062H14.9211C15.3294 19.8412 16.2624 20.5 17.3492 20.5C18.8125 20.5 20 19.31 20 17.8438C20 16.3775 18.8125 15.1875 17.3492 15.1875Z"/><path fill="currentColor" d="M17.3492 8.8125C18.8125 8.8125 20 7.6225 20 6.15625C20 4.69 18.8125 3.5 17.3492 3.5C16.2624 3.5 15.3294 4.15875 14.9211 5.09375H4V7.21875H14.9211C15.3294 8.15375 16.2624 8.8125 17.3492 8.8125Z"/><path fill="currentColor" d="M12.0477 9.34375C10.9609 9.34375 10.0278 10.0025 9.61962 10.9375H4V13.0625H9.61962C10.0278 13.9975 10.9609 14.6562 12.0477 14.6562C13.1345 14.6562 14.0676 13.9975 14.4758 13.0625H20V10.9375H14.4705C14.0623 10.0025 13.1292 9.34375 12.0477 9.34375Z"/></svg>