<svg xmlns="http://www.w3.org/2000/svg" width="1.5em" height="1.5em" fill="none" viewBox="0 0 24 24"><path fill="currentColor" d="M12 2.35001C7.58 2.35001 4 5.93001 4 10.35V20.475H20V10.35C20 5.93001 16.42 2.35001 12 2.35001ZM14.5 11.355C14.5 12.22 14.01 12.975 13.3 13.4C13.3 13.365 13.31 13.335 13.31 13.3C13.31 12.605 12 10.885 12 10.885C12 10.885 10.69 12.64 10.69 13.3C10.69 13.33 10.7 13.36 10.7 13.39C9.995 12.965 9.5 12.215 9.5 11.355C9.5 10.09 12 6.72501 12 6.72501C12 6.72501 14.5 10.025 14.5 11.355ZM17 17.47H7V14.97H9.25C10.025 15.555 10.985 15.915 12.01 15.915C13.035 15.915 14.025 15.56 14.795 14.97H17V17.47Z"/></svg>