<svg xmlns="http://www.w3.org/2000/svg" width="1.25em" height="1.25em" fill="none" viewBox="0 0 32 37"><path fill="currentColor" d="M16 0C7.16 0 0 7.16 0 16V36.25H32V16C32 7.16 24.84 0 16 0ZM21 18.01C21 19.74 20.02 21.25 18.6 22.1C18.6 22.03 18.62 21.97 18.62 21.9C18.62 20.51 16 17.07 16 17.07C16 17.07 13.38 20.58 13.38 21.9C13.38 21.96 13.4 22.02 13.4 22.08C11.99 21.23 11 19.73 11 18.01C11 15.48 16 8.75 16 8.75C16 8.75 21 15.35 21 18.01ZM26 30.24H6V25.24H10.5C12.05 26.41 13.97 27.13 16.02 27.13C18.07 27.13 20.05 26.42 21.59 25.24H26V30.24Z"/></svg>