<svg xmlns="http://www.w3.org/2000/svg" width="1.25em" height="1.25em" fill="none" viewBox="0 0 16 19"><path fill="currentColor" d="M8 0C3.58 0 0 3.58 0 8V18.125H16V8C16 3.58 12.42 0 8 0ZM10.5 9.005C10.5 9.87 10.01 10.625 9.3 11.05C9.3 11.015 9.31 10.985 9.31 10.95C9.31 10.255 8 8.535 8 8.535C8 8.535 6.69 10.29 6.69 10.95C6.69 10.98 6.7 11.01 6.7 11.04C5.995 10.615 5.5 9.865 5.5 9.005C5.5 7.74 8 4.375 8 4.375C8 4.375 10.5 7.675 10.5 9.005ZM13 15.12H3V12.62H5.25C6.025 13.205 6.985 13.565 8.01 13.565C9.035 13.565 10.025 13.21 10.795 12.62H13V15.12Z"/></svg>