<svg xmlns="http://www.w3.org/2000/svg" width="1.5em" height="1.5em" fill="none" viewBox="0 0 24 24"><path stroke="currentColor" stroke-linecap="round" stroke-linejoin="round" stroke-width="1.5" d="M12 14.31C13.2758 14.31 14.31 13.2758 14.31 12C14.31 10.7242 13.2758 9.69 12 9.69C10.7242 9.69 9.69 10.7242 9.69 12C9.69 13.2758 10.7242 14.31 12 14.31Z"/><path stroke="currentColor" stroke-linecap="round" stroke-linejoin="round" stroke-width="1.5" d="M16.49 4.2C17.97 5.05 18.47 6.94 17.62 8.41C17.5 8.62 17.35 8.82 17.19 8.99C17.42 8.93 17.66 8.9 17.91 8.9C19.61 8.9 21 10.28 21 11.98C21 13.68 19.63 15.06 17.93 15.07C17.68 15.07 17.44 15.04 17.21 14.99C17.38 15.16 17.52 15.35 17.65 15.56C18.5 17.03 18.01 18.92 16.54 19.78C15.07 20.64 13.18 20.14 12.32 18.67C12.2 18.46 12.1 18.23 12.03 18C11.96 18.23 11.87 18.46 11.74 18.67C10.9 20.14 9.01 20.66 7.53 19.81C6.06 18.96 5.54 17.08 6.39 15.6C6.51 15.38 6.66 15.19 6.82 15.02C6.59 15.08 6.35 15.11 6.1 15.11C4.4 15.11 3.01 13.74 3 12.04V12.02C3 10.32 4.38 8.93 6.08 8.93C6.33 8.93 6.57 8.96 6.8 9.02C6.64 8.85 6.49 8.66 6.37 8.44C5.52 6.97 6.02 5.08 7.49 4.23C8.96 3.38 10.85 3.88 11.7 5.35C11.83 5.57 11.92 5.79 11.99 6.02C12.06 5.79 12.15 5.56 12.27 5.35C12.84 4.36 13.88 3.81 14.94 3.81C15.46 3.81 15.99 3.94 16.48 4.22L16.49 4.2Z"/></svg>