<svg xmlns="http://www.w3.org/2000/svg" width="1.5em" height="1.5em" fill="none" viewBox="0 0 24 24"><path stroke="currentColor" stroke-linecap="round" stroke-linejoin="round" stroke-width="1.5" d="M9 19C4.7 20.4 4.7 16.5 3 16M15 21V17.5C15 16.5 15.1 16.1 14.5 15.5C17.3 15.2 20 14.1 20 9.5C19.9988 8.30496 19.5325 7.15731 18.7 6.3C19.0905 5.26196 19.0545 4.11162 18.6 3.1C18.6 3.1 17.5 2.8 15.1 4.4C13.0672 3.87058 10.9328 3.87058 8.9 4.4C6.5 2.8 5.4 3.1 5.4 3.1C4.94548 4.11162 4.90953 5.26196 5.3 6.3C4.46745 7.15731 4.00122 8.30496 4 9.5C4 14.1 6.7 15.2 9.5 15.5C8.9 16.1 8.9 16.7 9 17.5V21"/></svg>