<svg xmlns="http://www.w3.org/2000/svg" width="1.5em" height="1.5em" fill="none" viewBox="0 0 24 24"><path stroke="currentColor" stroke-linecap="round" stroke-linejoin="round" stroke-width="1.5" d="M21.25 13.61V16.23C18.52 17.77 15.36 18.66 12 18.66 8.64 18.66 5.49 17.78 2.75 16.23V13.61L5.05 12.3C5.05 8.46001 8.16 5.35001 12 5.35001 15.84 5.35001 18.95 8.46001 18.95 12.3L21.25 13.61ZM9.89 5.98999V9.88999M14.11 5.98999V9.88999"/><path stroke="currentColor" stroke-linecap="round" stroke-linejoin="round" stroke-width="1.5" d="M13.63 14.03C13.63 13.1298 12.9002 12.4 12 12.4C11.0998 12.4 10.37 13.1298 10.37 14.03C10.37 14.9302 11.0998 15.66 12 15.66C12.9002 15.66 13.63 14.9302 13.63 14.03Z"/></svg>