<svg xmlns="http://www.w3.org/2000/svg" width="1.5em" height="1.5em" fill="none" viewBox="0 0 24 24"><path fill="currentColor" d="M19.505 12.88C19.33 10.215 17.75 7.945 15.5 6.77V10.375H13.5V5.5H10.5V10.5H8.5V6.77C6.25 7.945 4.67 10.215 4.495 12.88L3 14.5V17C3 17 7 19.75 12 19.75C17 19.75 21 17 21 17V14.5L19.505 12.88ZM10.515 14.5C10.58 13.73 11.215 13.125 12 13.125C12.785 13.125 13.425 13.73 13.485 14.5C13.485 14.54 13.5 14.58 13.5 14.625C13.5 15.455 12.83 16.125 12 16.125C11.17 16.125 10.5 15.455 10.5 14.625C10.5 14.58 10.51 14.54 10.515 14.5Z"/></svg>