<svg xmlns="http://www.w3.org/2000/svg" width="1.25em" height="1.25em" fill="none" viewBox="0 0 18 15"><path fill="currentColor" d="M16.505 7.38C16.33 4.715 14.75 2.445 12.5 1.27V4.875H10.5V0H7.5V5H5.5V1.27C3.25 2.445 1.67 4.715 1.495 7.38L0 9V11.5C0 11.5 4 14.25 9 14.25C14 14.25 18 11.5 18 11.5V9L16.505 7.38ZM7.515 9C7.58 8.23 8.215 7.625 9 7.625C9.785 7.625 10.425 8.23 10.485 9C10.485 9.04 10.5 9.08 10.5 9.125C10.5 9.955 9.83 10.625 9 10.625C8.17 10.625 7.5 9.955 7.5 9.125C7.5 9.08 7.51 9.04 7.515 9Z"/></svg>