<svg xmlns="http://www.w3.org/2000/svg" width="1.25em" height="1.25em" fill="none" viewBox="0 0 16 14"><path fill="currentColor" d="M11.2616 0C10.5055 0.00193497 9.76513 0.216953 9.12557 0.620394C8.48601 1.02383 7.9731 1.59936 7.64567 2.28098C7.24952 1.456 6.58381 0.790845 5.75851 0.395383C4.93321 -7.82004e-05 3.9977 -0.102182 3.10652 0.10594C2.21535 0.314062 1.42183 0.819957 0.857048 1.54005C0.29227 2.26015 -0.00997224 3.15136 0.000251086 4.06646C-0.000725875 5.07848 0.375607 6.05452 1.05574 6.80393L6.08568 13.2394C6.27087 13.4763 6.5076 13.6679 6.77789 13.7997C7.04819 13.9315 7.34495 14 7.64567 14C7.94638 14 8.24315 13.9315 8.51344 13.7997C8.78374 13.6679 9.02046 13.4763 9.20565 13.2394L14.2356 6.80393C14.7627 6.22275 15.1105 5.50161 15.2373 4.72732C15.3641 3.95304 15.2643 3.15862 14.9501 2.4397C14.6359 1.72078 14.1205 1.10802 13.4661 0.675176C12.8117 0.242333 12.0462 0.00786541 11.2616 0Z"/></svg>