<svg xmlns="http://www.w3.org/2000/svg" width="1.5em" height="1.5em" fill="none" viewBox="0 0 24 24"><path fill="currentColor" d="M15.616 5C14.8598 5.00193 14.1195 5.21695 13.4799 5.6204C12.8403 6.02385 12.3274 6.59938 12 7.281C11.6038 6.45602 10.9381 5.79085 10.1128 5.39539C9.28751 4.99992 8.35199 4.89782 7.46081 5.10594C6.56962 5.31407 5.77609 5.81997 5.2113 6.54007C4.64652 7.26017 4.34428 8.15139 4.3545 9.0665C4.35352 10.0785 4.72986 11.0546 5.41 11.804L10.44 18.2395C10.6252 18.4764 10.8619 18.6681 11.1322 18.7999C11.4025 18.9317 11.6993 19.0002 12 19.0002C12.3007 19.0002 12.5975 18.9317 12.8678 18.7999C13.1381 18.6681 13.3748 18.4764 13.56 18.2395L18.59 11.804C19.1171 11.2228 19.465 10.5017 19.5917 9.72738C19.7185 8.95308 19.6187 8.15865 19.3045 7.43973C18.9903 6.7208 18.4749 6.10803 17.8205 5.67518C17.1661 5.24234 16.4006 5.00787 15.616 5Z"/></svg>