<svg xmlns="http://www.w3.org/2000/svg" width="1.25em" height="1.25em" fill="none" viewBox="0 0 16 14"><path fill="currentColor" d="M11.26 1.5C12.655 1.5 13.79 2.65 13.79 4.065C13.79 4.705 13.555 5.32 13.12 5.795C13.095 5.82 13.075 5.85 13.05 5.875L8.025 12.315C7.93 12.435 7.795 12.5 7.645 12.5C7.495 12.5 7.36 12.435 7.265 12.315L2.24 5.88C2.22 5.85 2.195 5.825 2.17 5.8C1.735 5.32 1.5 4.705 1.5 4.065C1.5 2.65 2.635 1.5 4.03 1.5C5 1.5 5.865 2.05 6.295 2.935C6.545 3.45 7.07 3.78 7.645 3.78C8.22 3.78 8.745 3.45 8.995 2.935C9.425 2.05 10.295 1.5 11.26 1.5ZM11.26 0C9.67 0 8.3 0.93 7.645 2.28C6.99 0.93 5.62 0 4.03 0C1.805 0 0 1.82 0 4.065C0 5.12 0.4 6.08 1.055 6.805L6.085 13.24C6.46 13.72 7.035 14 7.645 14C8.255 14 8.83 13.72 9.205 13.24L14.235 6.805C14.89 6.08 15.29 5.125 15.29 4.065C15.29 1.82 13.485 0 11.26 0Z"/></svg>