<svg xmlns="http://www.w3.org/2000/svg" width="1.25em" height="1.25em" fill="none" viewBox="0 0 31 28"><path fill="currentColor" d="M22.5233 0C21.011 0.00386995 19.5303 0.433906 18.2512 1.24079C16.972 2.04767 15.9462 3.19873 15.2914 4.56196C14.4991 2.91201 13.1677 1.58169 11.517 0.790768C9.86644 -0.000156401 7.99542 -0.204364 6.21306 0.211881C4.4307 0.628125 2.84366 1.63992 1.7141 3.08011C0.584541 4.5203 -0.0199445 6.30273 0.000502173 8.13293C-0.00145175 10.157 0.751215 12.1091 2.11148 13.6079L12.1714 26.4788C12.5418 26.9526 13.0152 27.3359 13.5558 27.5995C14.0964 27.8631 14.6899 28.0001 15.2914 28.0001C15.8928 28.0001 16.4863 27.8631 17.0269 27.5995C17.5675 27.3359 18.041 26.9526 18.4113 26.4788L28.4713 13.6079C29.5254 12.4455 30.2212 11.0032 30.4747 9.45467C30.7282 7.9061 30.5287 6.31725 29.9003 4.87941C29.2718 3.44158 28.2411 2.21604 26.9323 1.35035C25.6235 0.484667 24.0924 0.0157309 22.5233 0Z"/></svg>