<svg xmlns="http://www.w3.org/2000/svg" width="1.5em" height="1.5em" fill="none" viewBox="0 0 24 24"><path fill="currentColor" d="M15.76 6.5C17.155 6.5 18.29 7.65 18.29 9.065C18.29 9.705 18.055 10.32 17.62 10.795C17.595 10.82 17.575 10.85 17.55 10.875L12.525 17.315C12.43 17.435 12.295 17.5 12.145 17.5C11.995 17.5 11.86 17.435 11.765 17.315L6.74 10.88C6.72 10.85 6.695 10.825 6.67 10.8C6.235 10.32 6 9.705 6 9.065C6 7.65 7.135 6.5 8.53 6.5C9.5 6.5 10.365 7.05 10.795 7.935C11.045 8.45 11.57 8.78 12.145 8.78C12.72 8.78 13.245 8.45 13.495 7.935C13.925 7.05 14.795 6.5 15.76 6.5ZM15.76 5C14.17 5 12.8 5.93 12.145 7.28C11.49 5.93 10.12 5 8.53 5C6.305 5 4.5 6.82 4.5 9.065C4.5 10.12 4.9 11.08 5.555 11.805L10.585 18.24C10.96 18.72 11.535 19 12.145 19C12.755 19 13.33 18.72 13.705 18.24L18.735 11.805C19.39 11.08 19.79 10.125 19.79 9.065C19.79 6.82 17.985 5 15.76 5Z"/></svg>