<svg xmlns="http://www.w3.org/2000/svg" width="1.25em" height="1.25em" fill="none" viewBox="0 0 31 28"><path fill="currentColor" d="M22.52 3C25.31 3 27.58 5.3 27.58 8.13C27.58 9.41 27.11 10.64 26.24 11.59C26.19 11.64 26.15 11.7 26.1 11.75L16.05 24.63C15.86 24.87 15.59 25 15.29 25C14.99 25 14.72 24.87 14.53 24.63L4.48 11.76C4.44 11.7 4.39 11.65 4.34 11.6C3.47 10.64 3 9.41 3 8.13C3 5.3 5.27 3 8.06 3C10 3 11.73 4.1 12.59 5.87C13.09 6.9 14.14 7.56 15.29 7.56C16.44 7.56 17.49 6.9 17.99 5.87C18.85 4.1 20.59 3 22.52 3ZM22.52 0C19.34 0 16.6 1.86 15.29 4.56C13.98 1.86 11.24 0 8.06 0C3.61 0 0 3.64 0 8.13C0 10.24 0.8 12.16 2.11 13.61L12.17 26.48C12.92 27.44 14.07 28 15.29 28C16.51 28 17.66 27.44 18.41 26.48L28.47 13.61C29.78 12.16 30.58 10.25 30.58 8.13C30.58 3.64 26.97 0 22.52 0Z"/></svg>