<svg xmlns="http://www.w3.org/2000/svg" width="1.5em" height="1.5em" fill="none" viewBox="0 0 24 24"><path fill="currentColor" d="M20.293 8.293L18.5 6.5H13.5V5.5C13.5 5.10218 13.342 4.72064 13.0607 4.43934C12.7794 4.15804 12.3978 4 12 4C11.6022 4 11.2206 4.15804 10.9393 4.43934C10.658 4.72064 10.5 5.10218 10.5 5.5V10.5H5.5L3.707 12.293C3.51953 12.4805 3.41422 12.7348 3.41422 13C3.41422 13.2652 3.51953 13.5195 3.707 13.707L5.5 15.5H10.5V20H13.5V11.5H18.5L20.293 9.707C20.4805 9.51947 20.5858 9.26516 20.5858 9C20.5858 8.73484 20.4805 8.48053 20.293 8.293Z"/></svg>