<svg xmlns="http://www.w3.org/2000/svg" width="1.25em" height="1.25em" fill="none" viewBox="0 0 18 16"><path fill="currentColor" d="M16.8788 4.293L15.0858 2.5H10.0858V1.5C10.0858 1.10218 9.92775 0.720644 9.64645 0.43934C9.36514 0.158035 8.98361 0 8.58579 0C8.18796 0 7.80643 0.158035 7.52513 0.43934C7.24382 0.720644 7.08579 1.10218 7.08579 1.5V6.5H2.08579L0.292786 8.293C0.105315 8.48053 0 8.73484 0 9C0 9.26516 0.105315 9.51947 0.292786 9.707L2.08579 11.5H7.08579V16H10.0858V7.5H15.0858L16.8788 5.707C17.0663 5.51947 17.1716 5.26516 17.1716 5C17.1716 4.73484 17.0663 4.48053 16.8788 4.293Z"/></svg>