<svg xmlns="http://www.w3.org/2000/svg" width="1.5em" height="1.5em" fill="none" viewBox="0 0 24 24"><path stroke="currentColor" stroke-linecap="round" stroke-linejoin="round" stroke-width="1.5" d="M12 8V12L14 14"/><path stroke="currentColor" stroke-linecap="round" stroke-linejoin="round" stroke-width="1.5" d="M3.05 10.9999C3.27409 8.8 4.30027 6.75956 5.93274 5.26791C7.56521 3.77627 9.6897 2.93783 11.9009 2.91257C14.1121 2.88732 16.2552 3.67701 17.9213 5.13098C19.5874 6.58495 20.6599 8.60142 20.9342 10.7957C21.2085 12.9899 20.6653 15.2084 19.4084 17.0277C18.1514 18.8471 16.2686 20.14 14.1193 20.6598C11.9699 21.1796 9.70441 20.8899 7.755 19.846C5.80559 18.8021 4.30872 17.077 3.55 14.9999M3.05 19.9999V14.9999H8.05"/></svg>