<svg xmlns="http://www.w3.org/2000/svg" width="1.5em" height="1.5em" fill="none" viewBox="0 0 24 24"><path stroke="currentColor" stroke-linecap="round" stroke-linejoin="round" stroke-width="1.5" d="M12 8V12L14 14"/><path stroke="currentColor" stroke-linecap="round" stroke-linejoin="round" stroke-width="1.5" d="M3.05 11C3.27409 8.80006 4.30027 6.75962 5.93274 5.26797C7.56521 3.77633 9.6897 2.93789 11.9009 2.91264C14.1121 2.88738 16.2552 3.67707 17.9213 5.13104C19.5874 6.58501 20.6599 8.60149 20.9342 10.7957C21.2085 12.99 20.6653 15.2084 19.4084 17.0278C18.1514 18.8471 16.2686 20.14 14.1193 20.6599C11.9699 21.1797 9.70441 20.89 7.755 19.8461C5.80559 18.8022 4.30872 17.0771 3.55 15M3.05 20V15H8.05"/></svg>