<svg xmlns="http://www.w3.org/2000/svg" width="1.25em" height="1.25em" fill="none" viewBox="0 0 14 14"><path fill="currentColor" d="M8.3 0.481416C7.93753 0.170758 7.47588 0 6.9985 0C6.52111 0 6.05947 0.170758 5.697 0.481416L0 5.36542V13.8654H14V5.36542L8.3 0.481416ZM8 11.8654H6V7.86542H8V11.8654ZM7 5.86542C6.80222 5.86542 6.60888 5.80677 6.44443 5.69689C6.27998 5.587 6.15181 5.43083 6.07612 5.2481C6.00043 5.06537 5.98063 4.86431 6.01921 4.67033C6.0578 4.47634 6.15304 4.29816 6.29289 4.15831C6.43275 4.01846 6.61093 3.92322 6.80491 3.88463C6.99889 3.84605 7.19996 3.86585 7.38268 3.94154C7.56541 4.01722 7.72159 4.1454 7.83147 4.30985C7.94135 4.47429 8 4.66763 8 4.86542C8 5.13063 7.89464 5.38499 7.70711 5.57252C7.51957 5.76006 7.26522 5.86542 7 5.86542Z"/></svg>