<svg xmlns="http://www.w3.org/2000/svg" width="1.5em" height="1.5em" fill="none" viewBox="0 0 24 24"><path fill="currentColor" d="M13.3 5.116C12.9375 4.80534 12.4759 4.63458 11.9985 4.63458C11.5211 4.63458 11.0595 4.80534 10.697 5.116L5 10V18.5H19V10L13.3 5.116ZM13 16.5H11V12.5H13V16.5ZM12 10.5C11.8022 10.5 11.6089 10.4413 11.4444 10.3315C11.28 10.2216 11.1518 10.0654 11.0761 9.88268C11.0004 9.69996 10.9806 9.49889 11.0192 9.30491C11.0578 9.11093 11.153 8.93274 11.2929 8.79289C11.4327 8.65304 11.6109 8.5578 11.8049 8.51921C11.9989 8.48063 12.2 8.50043 12.3827 8.57612C12.5654 8.65181 12.7216 8.77998 12.8315 8.94443C12.9414 9.10888 13 9.30222 13 9.5C13 9.76521 12.8946 10.0196 12.7071 10.2071C12.5196 10.3946 12.2652 10.5 12 10.5Z"/></svg>