<svg xmlns="http://www.w3.org/2000/svg" width="1.5em" height="1.5em" fill="none" viewBox="0 0 24 24"><path stroke="currentColor" stroke-linecap="round" stroke-linejoin="round" stroke-width="1.5" d="M21 13.21 17.6 10.07C16.95 9.47 15.94 9.47 15.3 10.08L12 13.21V20.18H14.96V15.91H18.03V20.18H20.99V13.21H21ZM12 13.21 8.6 10.07C7.95 9.47 6.94 9.47 6.3 10.08L3 13.21V20.18H5.96V15.91H9.03V20.18H11.99V13.21H12Z"/><path stroke="currentColor" stroke-linecap="round" stroke-linejoin="round" stroke-width="1.5" d="M21 14.3V7.33L17.6 4.19C16.95 3.59 15.94 3.59 15.3 4.2L12 7.33V14.3M12 14.3V7.33L8.6 4.19C7.95 3.59 6.94 3.59 6.3 4.2L3 7.33V14.3"/></svg>