<svg xmlns="http://www.w3.org/2000/svg" width="1.5em" height="1.5em" fill="none" viewBox="0 0 24 24"><path stroke="currentColor" stroke-linecap="round" stroke-linejoin="round" stroke-width="1.5" d="M5 12H3L12 3 21 12H19M5 12V19C5 19.53 5.211 20.039 5.586 20.414 5.961 20.789 6.47 21 7 21H17C17.53 21 18.039 20.789 18.414 20.414 18.789 20.039 19 19.53 19 19V12"/><path stroke="currentColor" stroke-linecap="round" stroke-linejoin="round" stroke-width="1.5" d="M9 21V15C9 14.4696 9.21071 13.9609 9.58579 13.5858C9.96086 13.2107 10.4696 13 11 13H13C13.5304 13 14.0391 13.2107 14.4142 13.5858C14.7893 13.9609 15 14.4696 15 15V21"/></svg>