<svg xmlns="http://www.w3.org/2000/svg" width="1.5em" height="1.5em" fill="none" viewBox="0 0 24 24"><g clip-path="url(#clip0_39_333)"><path stroke="currentColor" stroke-linecap="round" stroke-linejoin="round" stroke-width="1.5" d="M9 21V15C9 14.4696 9.21071 13.9609 9.58579 13.5858C9.96086 13.2107 10.4696 13 11 13H13C13.5304 13 14.0391 13.2107 14.4142 13.5858C14.7893 13.9609 15 14.4696 15 15"/><path stroke="currentColor" stroke-linecap="round" stroke-linejoin="round" stroke-width="1.5" d="M19 13.488V12H21L12 3 3 12H5V19C5 19.5304 5.21071 20.0391 5.58579 20.4142 5.96086 20.7893 6.46957 21 7 21H11.525M15 19 17 21 21 17"/></g><defs><clipPath id="clip0_39_333"><rect width="24" height="24" fill="currentColor"/></clipPath></defs></svg>