<svg xmlns="http://www.w3.org/2000/svg" width="1.5em" height="1.5em" fill="none" viewBox="0 0 24 24"><g clip-path="url(#clip0_39_317)"><path fill="currentColor" d="M8.85 4.5H15.15C17.55 4.5 19.5 6.45 19.5 8.85V15.15C19.5 16.3037 19.0417 17.4101 18.2259 18.2259C17.4101 19.0417 16.3037 19.5 15.15 19.5H8.85C6.45 19.5 4.5 17.55 4.5 15.15V8.85C4.5 7.69631 4.9583 6.58987 5.77409 5.77409C6.58987 4.9583 7.69631 4.5 8.85 4.5ZM8.7 6C7.98392 6 7.29716 6.28446 6.79081 6.79081C6.28446 7.29716 6 7.98392 6 8.7V15.3C6 16.7925 7.2075 18 8.7 18H15.3C16.0161 18 16.7028 17.7155 17.2092 17.2092C17.7155 16.7028 18 16.0161 18 15.3V8.7C18 7.2075 16.7925 6 15.3 6H8.7ZM15.9375 7.125C16.1861 7.125 16.4246 7.22377 16.6004 7.39959C16.7762 7.5754 16.875 7.81386 16.875 8.0625C16.875 8.31114 16.7762 8.5496 16.6004 8.72541C16.4246 8.90123 16.1861 9 15.9375 9C15.6889 9 15.4504 8.90123 15.2746 8.72541C15.0988 8.5496 15 8.31114 15 8.0625C15 7.81386 15.0988 7.5754 15.2746 7.39959C15.4504 7.22377 15.6889 7.125 15.9375 7.125ZM12 8.25C12.9946 8.25 13.9484 8.64509 14.6517 9.34835C15.3549 10.0516 15.75 11.0054 15.75 12C15.75 12.9946 15.3549 13.9484 14.6517 14.6517C13.9484 15.3549 12.9946 15.75 12 15.75C11.0054 15.75 10.0516 15.3549 9.34835 14.6517C8.64509 13.9484 8.25 12.9946 8.25 12C8.25 11.0054 8.64509 10.0516 9.34835 9.34835C10.0516 8.64509 11.0054 8.25 12 8.25ZM12 9.75C11.4033 9.75 10.831 9.98705 10.409 10.409C9.98705 10.831 9.75 11.4033 9.75 12C9.75 12.5967 9.98705 13.169 10.409 13.591C10.831 14.0129 11.4033 14.25 12 14.25C12.5967 14.25 13.169 14.0129 13.591 13.591C14.0129 13.169 14.25 12.5967 14.25 12C14.25 11.4033 14.0129 10.831 13.591 10.409C13.169 9.98705 12.5967 9.75 12 9.75Z"/></g><defs><clipPath id="clip0_39_317"><rect width="24" height="24" fill="currentColor"/></clipPath></defs></svg>