<svg xmlns="http://www.w3.org/2000/svg" width="1.25em" height="1.25em" fill="none" viewBox="0 0 1024 1024"><path fill="currentColor" d="M512 378.7C438.6 378.7 378.7 438.6 378.7 512C378.7 585.4 438.6 645.3 512 645.3C585.4 645.3 645.3 585.4 645.3 512C645.3 438.6 585.4 378.7 512 378.7ZM911.8 512C911.8 456.8 912.3 402.1 909.2 347C906.1 283 891.5 226.2 844.7 179.4C797.8 132.5 741.1 118 677.1 114.9C621.9 111.8 567.2 112.3 512.1 112.3C456.9 112.3 402.2 111.8 347.1 114.9C283.1 118 226.3 132.6 179.5 179.4C132.6 226.3 118.1 283 115 347C111.9 402.2 112.4 456.9 112.4 512C112.4 567.1 111.9 621.9 115 677C118.1 741 132.7 797.8 179.5 844.6C226.4 891.5 283.1 906 347.1 909.1C402.3 912.2 457 911.7 512.1 911.7C567.3 911.7 622 912.2 677.1 909.1C741.1 906 797.9 891.4 844.7 844.6C891.6 797.7 906.1 741 909.2 677C912.4 621.9 911.8 567.2 911.8 512ZM512 717.1C398.5 717.1 306.9 625.5 306.9 512C306.9 398.5 398.5 306.9 512 306.9C625.5 306.9 717.1 398.5 717.1 512C717.1 625.5 625.5 717.1 512 717.1ZM725.5 346.4C699 346.4 677.6 325 677.6 298.5C677.6 272 699 250.6 725.5 250.6C752 250.6 773.4 272 773.4 298.5C773.408 304.793 772.174 311.025 769.77 316.84C767.365 322.655 763.838 327.939 759.388 332.388C754.938 336.838 749.655 340.366 743.84 342.77C738.025 345.174 731.793 346.408 725.5 346.4Z"/></svg>