<svg xmlns="http://www.w3.org/2000/svg" width="1.5em" height="1.5em" fill="none" viewBox="0 0 24 24"><path stroke="currentColor" stroke-linecap="round" stroke-linejoin="round" stroke-width="1.5" d="M12.89 10.52L9.49 7.11998C8.72 6.34998 7.47 6.34998 6.7 7.11998L3.21 10.61C2.44 11.38 2.44 12.63 3.21 13.4L6.7 16.89C7.47 17.66 8.72 17.66 9.49 16.89L12.89 13.49H15.95V17.01H18.71V13.49H21.38V10.53H12.9L12.89 10.52Z"/><path stroke="currentColor" stroke-linecap="round" stroke-linejoin="round" stroke-width="1.5" d="M9.55 11.99C9.55 11.156 8.87395 10.48 8.04 10.48C7.20605 10.48 6.53 11.156 6.53 11.99C6.53 12.8239 7.20605 13.5 8.04 13.5C8.87395 13.5 9.55 12.8239 9.55 11.99Z"/></svg>