<svg xmlns="http://www.w3.org/2000/svg" width="1.5em" height="1.5em" fill="none" viewBox="0 0 24 24"><path fill="currentColor" d="M12.9 10.5L9.45 7.04999C9.07495 6.67505 8.56633 6.46442 8.036 6.46442C7.50567 6.46442 6.99706 6.67505 6.622 7.04999L3.0855 10.5855C2.89977 10.7712 2.75245 10.9917 2.65193 11.2343C2.55141 11.477 2.49968 11.7371 2.49968 11.9997C2.49968 12.2624 2.55141 12.5225 2.65193 12.7651C2.75245 13.0078 2.89977 13.2283 3.0855 13.414L6.6215 16.95C6.99656 17.3249 7.50517 17.5356 8.0355 17.5356C8.56583 17.5356 9.07445 17.3249 9.4495 16.95L12.9 13.5H16V16.5H19V13.5H21.5V10.5H12.9ZM9.536 13.5H6.536V10.5H9.536V13.5Z"/></svg>