<svg xmlns="http://www.w3.org/2000/svg" width="1.25em" height="1.25em" fill="none" viewBox="0 0 19 12"><path fill="currentColor" d="M10.4001 4.0355L6.95021 0.585563C6.57516 0.210628 6.06655 0 5.53623 0C5.00591 0 4.4973 0.210628 4.12225 0.585563L0.585813 4.121C0.400088 4.30672 0.252762 4.5272 0.152248 4.76985C0.051734 5.01251 0 5.27258 0 5.53523C0 5.79788 0.051734 6.05795 0.152248 6.30061C0.252762 6.54326 0.400088 6.76374 0.585813 6.94946L4.12175 10.4854C4.4968 10.8603 5.00541 11.071 5.53573 11.071C6.06605 11.071 6.57466 10.8603 6.94971 10.4854L10.4001 7.03545H13.5001V10.0354H16.5V7.03545H19V4.0355H10.4001ZM7.0362 7.03545H4.03625V4.0355H7.0362V7.03545Z"/></svg>