<svg xmlns="http://www.w3.org/2000/svg" width="1.25em" height="1.25em" fill="none" viewBox="0 0 15 15"><path fill="currentColor" fill-rule="evenodd" d="M5.57175 5.22675H8.35725V6.61425C8.7585 5.81625 9.7875 5.09925 11.3333 5.09925C14.2965 5.09925 15 6.68775 15 9.60225V15H12V10.266C12 8.60625 11.5988 7.67025 10.5773 7.67025C9.1605 7.67025 8.57175 8.679 8.57175 10.2653V15H5.57175V5.22675ZM0.4275 14.8725H3.4275V5.09925H0.4275V14.8725ZM3.85725 1.9125C3.85736 2.16396 3.80749 2.41293 3.71054 2.64494C3.61359 2.87695 3.47149 3.08738 3.2925 3.264C2.9298 3.62447 2.43886 3.82624 1.9275 3.825C1.41704 3.82466 0.927233 3.6234 0.564 3.26475C0.385659 3.08753 0.244039 2.87687 0.147258 2.64482C0.0504761 2.41278 0.000434349 2.16392 0 1.9125C0 1.40475 0.2025 0.91875 0.56475 0.56025C0.927664 0.201119 1.41768 -0.000224408 1.92825 1.87698e-07C2.43975 1.87698e-07 2.93025 0.20175 3.2925 0.56025C3.654 0.91875 3.85725 1.40475 3.85725 1.9125Z" clip-rule="evenodd"/></svg>