<svg xmlns="http://www.w3.org/2000/svg" width="1.5em" height="1.5em" fill="none" viewBox="0 0 24 24"><path fill="currentColor" fill-rule="evenodd" d="M10.0717 9.72675H12.8573V11.1143C13.2585 10.3163 14.2875 9.59925 15.8333 9.59925C18.7965 9.59925 19.5 11.1878 19.5 14.1023V19.5H16.5V14.766C16.5 13.1062 16.0988 12.1702 15.0773 12.1702C13.6605 12.1702 13.0717 13.179 13.0717 14.7653V19.5H10.0717V9.72675ZM4.9275 19.3725H7.9275V9.59925H4.9275V19.3725ZM8.35725 6.4125C8.35736 6.66396 8.30749 6.91293 8.21054 7.14494C8.11359 7.37695 7.97149 7.58738 7.7925 7.764C7.4298 8.12447 6.93886 8.32624 6.4275 8.325C5.91704 8.32466 5.42723 8.1234 5.064 7.76475C4.88566 7.58753 4.74404 7.37687 4.64726 7.14482C4.55048 6.91278 4.50043 6.66392 4.5 6.4125C4.5 5.90475 4.7025 5.41875 5.06475 5.06025C5.42766 4.70112 5.91768 4.49978 6.42825 4.5C6.93975 4.5 7.43025 4.70175 7.7925 5.06025C8.154 5.41875 8.35725 5.90475 8.35725 6.4125Z" clip-rule="evenodd"/></svg>