<svg xmlns="http://www.w3.org/2000/svg" width="1.25em" height="1.25em" fill="none" viewBox="0 0 17 17"><path fill="currentColor" fill-rule="evenodd" d="M9.21574 0H15.3805C16.2738 0 17 0.726183 17 1.61954V7.8365H14.5707V4.14812L9.76952 8.94928L8.05072 7.23048L12.8519 2.42932H9.21574V0ZM2.96742 16.9791H12.7474C14.3826 16.9791 15.7148 15.6469 15.7148 14.0117V9.93148H13.1026V14.0117C13.1026 14.2102 12.9407 14.3669 12.7474 14.3669H2.96742C2.7689 14.3669 2.61217 14.205 2.61217 14.0117V4.88478C2.61217 4.68625 2.77412 4.52952 2.96742 4.52952H7.11554V1.91735H2.96742C1.33221 1.91735 0 3.24956 0 4.88478V14.0117C0 15.6469 1.33221 16.9791 2.96742 16.9791Z" clip-rule="evenodd"/></svg>