<svg xmlns="http://www.w3.org/2000/svg" width="1.5em" height="1.5em" fill="none" viewBox="0 0 24 24"><path fill="currentColor" fill-rule="evenodd" d="M13.3 3.75H19.2C20.055 3.75 20.75 4.445 20.75 5.3V11.25H18.425V7.72L13.83 12.315L12.185 10.67L16.78 6.075H13.3V3.75ZM7.31998 20H16.68C18.245 20 19.52 18.725 19.52 17.16V13.255H17.02V17.16C17.02 17.35 16.865 17.5 16.68 17.5H7.31998C7.12998 17.5 6.97998 17.345 6.97998 17.16V8.42502C6.97998 8.23502 7.13498 8.08502 7.31998 8.08502H11.29V5.58502H7.31998C5.75498 5.58502 4.47998 6.86002 4.47998 8.42502V17.16C4.47998 18.725 5.75498 20 7.31998 20Z" clip-rule="evenodd"/></svg>