<svg xmlns="http://www.w3.org/2000/svg" width="1.5em" height="1.5em" fill="none" viewBox="0 0 24 24"><path fill="currentColor" fill-rule="evenodd" d="M4.51499 16.725H11.99C13.575 16.725 14.86 15.435 14.86 13.855V11.965H12.86V13.855C12.86 14.335 12.47 14.725 11.99 14.725H4.51499C4.03499 14.725 3.64499 14.335 3.64499 13.855V10.115C3.64499 9.63499 4.03499 9.245 4.51499 9.245H7.41999V7.245H4.51499C2.92999 7.245 1.64499 8.535 1.64499 10.115V13.855C1.64499 15.44 2.93499 16.725 4.51499 16.725ZM16.58 16.75H19C20.85 16.75 22.355 15.245 22.355 13.395V10.63C22.355 8.78002 20.85 7.27502 19 7.27502H12.5C10.65 7.27502 9.14499 8.78002 9.14499 10.63V11.63H11.145V10.63C11.145 9.88502 11.75 9.27502 12.5 9.27502H19C19.745 9.27502 20.355 9.88002 20.355 10.63V13.395C20.355 14.14 19.75 14.75 19 14.75H16.58V16.75Z" clip-rule="evenodd"/></svg>