<svg xmlns="http://www.w3.org/2000/svg" width="1.25em" height="1.25em" fill="none" viewBox="0 0 42 20"><path fill="currentColor" fill-rule="evenodd" d="M5.82038 19.2255H20.9797C24.1941 19.2255 26.8001 16.6094 26.8001 13.4051V9.57219H22.7441V13.4051C22.7441 14.3786 21.9532 15.1695 20.9797 15.1695H5.82038C4.84694 15.1695 4.05601 14.3786 4.05601 13.4051V5.82038C4.05601 4.84693 4.84694 4.05601 5.82038 4.05601H11.7117V0H5.82038C2.60599 0 0 2.61613 0 5.82038V13.4051C0 16.6195 2.61613 19.2255 5.82038 19.2255ZM30.2883 19.2763H35.1961C38.9479 19.2763 42 16.2241 42 12.4723V6.86486C42 3.11305 38.9479 0.0608996 35.1961 0.0608996H22.014C18.2622 0.0608996 15.21 3.11305 15.21 6.86486V8.89287H19.2661V6.86486C19.2661 5.354 20.493 4.11691 22.014 4.11691H35.1961C36.7069 4.11691 37.944 5.34386 37.944 6.86486V12.4723C37.944 13.9832 36.7171 15.2202 35.1961 15.2202H30.2883V19.2763Z" clip-rule="evenodd"/></svg>