<svg xmlns="http://www.w3.org/2000/svg" width="1.25em" height="1.25em" fill="none" viewBox="0 0 30 30"><path fill="currentColor" fill-rule="evenodd" d="M11.1435 10.4535H16.7145V13.2285C17.517 11.6325 19.575 10.1985 22.6665 10.1985C28.593 10.1985 30 13.3755 30 19.2045V30H24V20.532C24 17.2125 23.1975 15.3405 21.1545 15.3405C18.321 15.3405 17.1435 17.358 17.1435 20.5305V30H11.1435V10.4535ZM0.855 29.745H6.855V10.1985H0.855V29.745ZM7.7145 3.825C7.71472 4.32791 7.61498 4.82585 7.42108 5.28988C7.22718 5.75391 6.94298 6.17477 6.585 6.528C5.8596 7.24894 4.87772 7.65248 3.855 7.65C2.83408 7.64931 1.85447 7.2468 1.128 6.5295C0.771317 6.17507 0.488079 5.75374 0.294515 5.28965C0.100952 4.82556 0.000868698 4.32784 0 3.825C0 2.8095 0.405 1.8375 1.1295 1.1205C1.85533 0.402238 2.83536 -0.000448816 3.8565 3.75397e-07C4.8795 3.75397e-07 5.8605 0.4035 6.585 1.1205C7.308 1.8375 7.7145 2.8095 7.7145 3.825Z" clip-rule="evenodd"/></svg>