<svg xmlns="http://www.w3.org/2000/svg" width="1.25em" height="1.25em" fill="none" viewBox="0 0 33 33"><path fill="currentColor" fill-rule="evenodd" d="M17.8894 0H29.8562C31.5903 0 33 1.40965 33 3.14382V15.212H28.2843V8.05223L18.9644 17.3721L15.6279 14.0356L24.9478 4.71573H17.8894V0ZM5.76029 32.9594H24.7449C27.9191 32.9594 30.5052 30.3734 30.5052 27.1992V19.2788H25.4345V27.1992C25.4345 27.5845 25.1201 27.8888 24.7449 27.8888H5.76029C5.37492 27.8888 5.07068 27.5744 5.07068 27.1992V9.48221C5.07068 9.09684 5.38506 8.7926 5.76029 8.7926H13.8125V3.72192H5.76029C2.58605 3.72192 0 6.30797 0 9.48221V27.1992C0 30.3734 2.58605 32.9594 5.76029 32.9594Z" clip-rule="evenodd"/></svg>