<svg xmlns="http://www.w3.org/2000/svg" width="1.25em" height="1.25em" fill="none" viewBox="0 0 21 10"><path fill="currentColor" fill-rule="evenodd" d="M2.91019 9.61275H10.4899C12.0971 9.61275 13.4 8.30468 13.4 6.70256V4.78609H11.372V6.70256C11.372 7.18928 10.9766 7.58474 10.4899 7.58474H2.91019C2.42347 7.58474 2.02801 7.18928 2.02801 6.70256V2.91019C2.02801 2.42347 2.42347 2.02801 2.91019 2.02801H5.85587V0H2.91019C1.30299 0 0 1.30806 0 2.91019V6.70256C0 8.30975 1.30806 9.61275 2.91019 9.61275ZM15.1441 9.63813H17.598C19.4739 9.63813 21 8.11205 21 6.23615V3.43243C21 1.55652 19.4739 0.0304498 17.598 0.0304498H11.007C9.1311 0.0304498 7.60502 1.55652 7.60502 3.43243V4.44643H9.63303V3.43243C9.63303 2.677 10.2465 2.05846 11.007 2.05846H17.598C18.3535 2.05846 18.972 2.67193 18.972 3.43243V6.23615C18.972 6.99158 18.3585 7.61012 17.598 7.61012H15.1441V9.63813Z" clip-rule="evenodd"/></svg>