<svg xmlns="http://www.w3.org/2000/svg" width="1.25em" height="1.25em" fill="none" viewBox="0 0 14 14"><path fill="currentColor" fill-rule="evenodd" d="M14 0H6V3H14V0ZM6 5.5H14V8.5H6V5.5ZM6 11H14V14H6V11ZM3 12.5C3 13.3284 2.32843 14 1.5 14C0.671573 14 0 13.3284 0 12.5C0 11.6716 0.671573 11 1.5 11C2.32843 11 3 11.6716 3 12.5ZM1.5 8.5C2.32843 8.5 3 7.82843 3 7C3 6.17157 2.32843 5.5 1.5 5.5C0.671573 5.5 0 6.17157 0 7C0 7.82843 0.671573 8.5 1.5 8.5ZM3 1.5C3 2.32843 2.32843 3 1.5 3C0.671573 3 0 2.32843 0 1.5C0 0.671573 0.671573 0 1.5 0C2.32843 0 3 0.671573 3 1.5Z" clip-rule="evenodd"/></svg>