<svg xmlns="http://www.w3.org/2000/svg" width="1.25em" height="1.25em" fill="none" viewBox="0 0 28 28"><path fill="currentColor" fill-rule="evenodd" d="M28 0H12V6H28V0ZM12 11H28V17H12V11ZM12 22H28V28H12V22ZM6 25C6 26.6569 4.65685 28 3 28C1.34315 28 0 26.6569 0 25C0 23.3431 1.34315 22 3 22C4.65685 22 6 23.3431 6 25ZM3 17C4.65685 17 6 15.6569 6 14C6 12.3431 4.65685 11 3 11C1.34315 11 0 12.3431 0 14C0 15.6569 1.34315 17 3 17ZM6 3C6 4.65685 4.65685 6 3 6C1.34315 6 0 4.65685 0 3C0 1.34315 1.34315 0 3 0C4.65685 0 6 1.34315 6 3Z" clip-rule="evenodd"/></svg>