<svg xmlns="http://www.w3.org/2000/svg" width="1.25em" height="1.25em" fill="none" viewBox="0 0 30 30"><path fill="currentColor" fill-rule="evenodd" d="M14.4018 0.0119327C16.9653 -0.0903685 19.5121 0.466497 21.7989 1.6293C24.0856 2.79211 26.036 4.522 27.4635 6.65362C28.8909 8.78525 29.7479 11.2474 29.9523 13.8047C30.1567 16.3619 29.7019 18.9289 28.6312 21.2603C27.5605 23.5916 25.9097 25.6094 23.8367 27.1207C22.7211 27.9341 21.1572 27.6891 20.3438 26.5734C19.5304 25.4577 19.7755 23.8939 20.8912 23.0805C22.2732 22.0729 23.3737 20.7277 24.0874 19.1735C24.8012 17.6193 25.1045 15.908 24.9682 14.2031C24.8319 12.4982 24.2606 10.8568 23.309 9.43575C22.3573 8.01466 21.0571 6.86141 19.5326 6.0862C18.008 5.311 16.3102 4.93975 14.6012 5.00796C12.8923 5.07616 11.2294 5.58152 9.7715 6.47575C8.3136 7.36998 7.10942 8.62318 6.27403 10.1156C5.43865 11.608 5 13.2897 5 15C5 16.3807 3.88071 17.5 2.5 17.5C1.11929 17.5 0 16.3807 0 15C0 12.4346 0.657978 9.91198 1.91105 7.67337C3.16412 5.43477 4.97041 3.55497 7.15726 2.21362C9.34411 0.872282 11.8384 0.114234 14.4018 0.0119327ZM14.5 30C15.8807 30 17 28.8807 17 27.5C17 26.1193 15.8807 25 14.5 25C13.1193 25 12 26.1193 12 27.5C12 28.8807 13.1193 30 14.5 30Z" clip-rule="evenodd"/></svg>