<svg xmlns="http://www.w3.org/2000/svg" width="1.5em" height="1.5em" fill="none" viewBox="0 0 24 24"><path fill="currentColor" fill-rule="evenodd" d="M11.7009 4.50597C12.9826 4.45482 14.256 4.73325 15.3994 5.31465C16.5428 5.89606 17.518 6.761 18.2317 7.82681C18.9455 8.89262 19.3739 10.1237 19.4761 11.4023C19.5784 12.681 19.3509 13.9645 18.8156 15.1301C18.2802 16.2958 17.4549 17.3047 16.4184 18.0604C15.8605 18.4671 15.0786 18.3445 14.6719 17.7867C14.2652 17.2289 14.3877 16.4469 14.9456 16.0402C15.6366 15.5365 16.1868 14.8639 16.5437 14.0868C16.9006 13.3096 17.0522 12.454 16.9841 11.6016C16.916 10.7491 16.6303 9.92842 16.1545 9.21787C15.6787 8.50733 15.0285 7.9307 14.2663 7.5431C13.504 7.1555 12.6551 6.96988 11.8006 7.00398C10.9461 7.03808 10.1147 7.29076 9.38575 7.73787C8.6568 8.18499 8.05471 8.81159 7.63702 9.55779C7.21933 10.304 7 11.1449 7 12C7 12.6904 6.44036 13.25 5.75 13.25C5.05964 13.25 4.5 12.6904 4.5 12C4.5 10.7173 4.82899 9.45599 5.45552 8.33669C6.08206 7.21739 6.9852 6.27748 8.07863 5.60681C9.17206 4.93614 10.4192 4.55712 11.7009 4.50597ZM11.75 19.5C12.4404 19.5 13 18.9404 13 18.25C13 17.5596 12.4404 17 11.75 17C11.0596 17 10.5 17.5596 10.5 18.25C10.5 18.9404 11.0596 19.5 11.75 19.5Z" clip-rule="evenodd"/></svg>