<svg xmlns="http://www.w3.org/2000/svg" width="1.25em" height="1.25em" fill="none" viewBox="0 0 15 15"><path fill="currentColor" fill-rule="evenodd" d="M7.20092 0.00596634C8.48263 -0.0451843 9.75603 0.233248 10.8994 0.814652C12.0428 1.39606 13.018 2.261 13.7317 3.32681C14.4455 4.39262 14.8739 5.62368 14.9761 6.90233C15.0784 8.18097 14.8509 9.46447 14.3156 10.6301C13.7802 11.7958 12.9549 12.8047 11.9184 13.5604C11.3605 13.9671 10.5786 13.8445 10.1719 13.2867C9.76521 12.7289 9.88774 11.9469 10.4456 11.5402C11.1366 11.0365 11.6868 10.3639 12.0437 9.58676C12.4006 8.80964 12.5522 7.95398 12.4841 7.10155C12.416 6.24912 12.1303 5.42842 11.6545 4.71787C11.1787 4.00733 10.5285 3.4307 9.76628 3.0431C9.00402 2.6555 8.15508 2.46988 7.30062 2.50398C6.44615 2.53808 5.6147 2.79076 4.88575 3.23787C4.1568 3.68499 3.55471 4.31159 3.13702 5.05779C2.71933 5.80399 2.5 6.64485 2.5 7.5C2.5 8.19036 1.94036 8.75 1.25 8.75C0.559643 8.75 0 8.19036 0 7.5C0 6.21728 0.328989 4.95599 0.955524 3.83669C1.58206 2.71739 2.4852 1.77748 3.57863 1.10681C4.67206 0.436141 5.91922 0.0571169 7.20092 0.00596634ZM7.25 15C7.94036 15 8.5 14.4404 8.5 13.75C8.5 13.0596 7.94036 12.5 7.25 12.5C6.55964 12.5 6 13.0596 6 13.75C6 14.4404 6.55964 15 7.25 15Z" clip-rule="evenodd"/></svg>