<svg xmlns="http://www.w3.org/2000/svg" width="1.5em" height="1.5em" fill="none" viewBox="0 0 24 24"><path fill="currentColor" d="M17.5625 9.06248L13.375 4.87498C13.1944 4.69441 12.9801 4.55117 12.7442 4.45344C12.5082 4.35572 12.2554 4.30542 12 4.30542C11.7446 4.30542 11.4918 4.35572 11.2559 4.45344C11.0199 4.55117 10.8056 4.69441 10.625 4.87498L6.43751 9.06248C6.11454 9.38546 5.90816 9.80667 5.85086 10.2598C5.79356 10.713 5.8886 11.1723 6.12101 11.5655L10.4515 18.1655C10.6197 18.4228 10.8494 18.6341 11.1197 18.7804C11.3901 18.9266 11.6926 19.0032 12 19.0032C12.3074 19.0032 12.6099 18.9266 12.8803 18.7804C13.1507 18.6341 13.3803 18.4228 13.5485 18.1655L17.879 11.5655C18.1114 11.1723 18.2065 10.713 18.1492 10.2598C18.0919 9.80667 17.8855 9.38546 17.5625 9.06248ZM13.5 12H10.5V8.99998H13.5V12Z"/></svg>