<svg xmlns="http://www.w3.org/2000/svg" width="1.25em" height="1.25em" fill="none" viewBox="0 0 13 15"><path fill="currentColor" d="M11.969 4.85487L7.69544 0.581272C7.51116 0.396987 7.29239 0.250803 7.05162 0.151068C6.81085 0.0513334 6.55278 0 6.29217 0C6.03156 0 5.7735 0.0513334 5.53272 0.151068C5.29195 0.250803 5.07318 0.396987 4.8889 0.581272L0.615307 4.85487C0.285699 5.18448 0.0750765 5.61436 0.0165995 6.07681C-0.0418774 6.53927 0.0551126 7.00804 0.2923 7.40933L4.71183 14.145C4.88348 14.4076 5.11786 14.6233 5.39378 14.7726C5.6697 14.9218 5.97846 15 6.29217 15C6.60588 15 6.91465 14.9218 7.19057 14.7726C7.46648 14.6233 7.70086 14.4076 7.87251 14.145L12.292 7.40933C12.5292 7.00804 12.6262 6.53927 12.5677 6.07681C12.5093 5.61436 12.2986 5.18448 11.969 4.85487ZM7.82301 7.85276H4.76133V4.79108H7.82301V7.85276Z"/></svg>