<svg xmlns="http://www.w3.org/2000/svg" width="1.5em" height="1.5em" fill="none" viewBox="0 0 24 24"><path stroke="currentColor" stroke-linecap="round" stroke-linejoin="round" stroke-width="1.5" d="M17.61 9.71002L13.37 5.47002C12.61 4.71002 11.35 4.71002 10.59 5.47002L6.34999 9.71002C5.68999 10.37 5.53999 11.43 6.04999 12.23L10.44 18.89C11 19.75 12.16 20 13.01 19.45C13.21 19.3 13.41 19.15 13.57 18.89L17.96 12.23C18.41 11.42 18.31 10.41 17.61 9.71002Z"/><path stroke="currentColor" stroke-linecap="round" stroke-linejoin="round" stroke-width="1.5" d="M12.01 9.31H12C10.8844 9.31 9.98 10.2144 9.98 11.33V11.34C9.98 12.4556 10.8844 13.36 12 13.36H12.01C13.1256 13.36 14.03 12.4556 14.03 11.34V11.33C14.03 10.2144 13.1256 9.31 12.01 9.31Z"/></svg>