<svg xmlns="http://www.w3.org/2000/svg" width="1.5em" height="1.5em" fill="none" viewBox="0 0 24 24"><path stroke="currentColor" stroke-linecap="round" stroke-linejoin="round" stroke-width="1.5" d="M3 13C3 12.4696 3.21071 11.9609 3.58579 11.5858C3.96086 11.2107 4.46957 11 5 11H15C15.5304 11 16.0391 11.2107 16.4142 11.5858C16.7893 11.9609 17 12.4696 17 13V19C17 19.5304 16.7893 20.0391 16.4142 20.4142C16.0391 20.7893 15.5304 21 15 21H5C4.46957 21 3.96086 20.7893 3.58579 20.4142C3.21071 20.0391 3 19.5304 3 19V13Z"/><path stroke="currentColor" stroke-linecap="round" stroke-linejoin="round" stroke-width="1.5" d="M9 16C9 16.2652 9.10536 16.5196 9.29289 16.7071 9.48043 16.8946 9.73478 17 10 17 10.2652 17 10.5196 16.8946 10.7071 16.7071 10.8946 16.5196 11 16.2652 11 16 11 15.7348 10.8946 15.4804 10.7071 15.2929 10.5196 15.1054 10.2652 15 10 15 9.73478 15 9.48043 15.1054 9.29289 15.2929 9.10536 15.4804 9 15.7348 9 16ZM13 11V7C13 5.93913 13.4214 4.92172 14.1716 4.17157 14.9217 3.42143 15.9391 3 17 3 18.0609 3 19.0783 3.42143 19.8284 4.17157 20.5786 4.92172 21 5.93913 21 7V11"/></svg>