<svg xmlns="http://www.w3.org/2000/svg" width="1.5em" height="1.5em" fill="none" viewBox="0 0 24 24"><path stroke="currentColor" stroke-linecap="round" stroke-linejoin="round" stroke-width="1.5" d="M5 13C5 12.4696 5.21071 11.9609 5.58579 11.5858C5.96086 11.2107 6.46957 11 7 11H17C17.5304 11 18.0391 11.2107 18.4142 11.5858C18.7893 11.9609 19 12.4696 19 13V19C19 19.5304 18.7893 20.0391 18.4142 20.4142C18.0391 20.7893 17.5304 21 17 21H7C6.46957 21 5.96086 20.7893 5.58579 20.4142C5.21071 20.0391 5 19.5304 5 19V13Z"/><path stroke="currentColor" stroke-linecap="round" stroke-linejoin="round" stroke-width="1.5" d="M11 16C11 16.265 11.105 16.52 11.293 16.707 11.48 16.895 11.735 17 12 17 12.265 17 12.52 16.895 12.707 16.707 12.895 16.52 13 16.265 13 16 13 15.735 12.895 15.48 12.707 15.293 12.52 15.105 12.265 15 12 15 11.735 15 11.48 15.105 11.293 15.293 11.105 15.48 11 15.735 11 16ZM8 11V7C8 5.939 8.421 4.922 9.172 4.172 9.922 3.421 10.939 3 12 3 13.061 3 14.078 3.421 14.828 4.172 15.579 4.922 16 5.939 16 7V11"/></svg>