<svg xmlns="http://www.w3.org/2000/svg" width="1.5em" height="1.5em" fill="none" viewBox="0 0 24 24"><path stroke="currentColor" stroke-linecap="round" stroke-linejoin="round" stroke-width="1.5" d="M3 13C3 12.4696 3.21071 11.9609 3.58579 11.5858C3.96086 11.2107 4.46957 11 5 11H15C15.5304 11 16.0391 11.2107 16.4142 11.5858C16.7893 11.9609 17 12.4696 17 13V19C17 19.5304 16.7893 20.0391 16.4142 20.4142C16.0391 20.7893 15.5304 21 15 21H5C4.46957 21 3.96086 20.7893 3.58579 20.4142C3.21071 20.0391 3 19.5304 3 19V13Z"/><path stroke="currentColor" stroke-linecap="round" stroke-linejoin="round" stroke-width="1.5" d="M9 16C9 16.265 9.105 16.52 9.293 16.707 9.48 16.895 9.735 17 10 17 10.265 17 10.52 16.895 10.707 16.707 10.895 16.52 11 16.265 11 16 11 15.735 10.895 15.48 10.707 15.293 10.52 15.105 10.265 15 10 15 9.735 15 9.48 15.105 9.293 15.293 9.105 15.48 9 15.735 9 16ZM13 11V7C13 5.939 13.421 4.922 14.172 4.172 14.922 3.421 15.939 3 17 3 18.061 3 19.078 3.421 19.828 4.172 20.579 4.922 21 5.939 21 7V11"/></svg>