<svg xmlns="http://www.w3.org/2000/svg" width="1.5em" height="1.5em" fill="none" viewBox="0 0 24 24"><path stroke="currentColor" stroke-linecap="round" stroke-linejoin="round" stroke-width="1.5" d="M11.5 21H7C6.47 21 5.961 20.789 5.586 20.414 5.211 20.039 5 19.53 5 19V13C5 12.47 5.211 11.961 5.586 11.586 5.961 11.211 6.47 11 7 11H17C17.38 11 17.734 11.106 18.037 11.29M8 11V7C8 5.939 8.421 4.922 9.172 4.172 9.922 3.421 10.939 3 12 3 13.061 3 14.078 3.421 14.828 4.172 15.579 4.922 16 5.939 16 7V11"/><path stroke="currentColor" stroke-linecap="round" stroke-linejoin="round" stroke-width="1.5" d="M18 22L21.35 18.716C21.5554 18.5166 21.7188 18.2782 21.8306 18.0146C21.9423 17.7511 22.0001 17.4678 22.0006 17.1815C22.0011 16.8953 21.9442 16.6118 21.8333 16.3479C21.7224 16.084 21.5598 15.845 21.355 15.645C20.9371 15.2363 20.3762 15.007 19.7917 15.0059C19.2072 15.0048 18.6454 15.2319 18.226 15.639L18.002 15.859L17.779 15.639C17.3612 15.2306 16.8005 15.0015 16.2162 15.0004C15.632 14.9992 15.0704 15.2262 14.651 15.633C14.4455 15.8323 14.282 16.0707 14.1702 16.3342C14.0583 16.5977 14.0004 16.881 13.9999 17.1672C13.9993 17.4535 14.0561 17.7369 14.1669 18.0009C14.2777 18.2648 14.4403 18.5039 14.645 18.704L18 22Z"/></svg>