<svg xmlns="http://www.w3.org/2000/svg" width="1.25em" height="1.25em" fill="none" viewBox="0 0 14 11"><path fill="currentColor" fill-rule="evenodd" d="M14 2L7.992 5.433C7.68987 5.60558 7.34795 5.69635 7 5.69635C6.65205 5.69635 6.31013 5.60558 6.008 5.433L0 2C0 1.46957 0.210714 0.960859 0.585786 0.585786C0.960859 0.210713 1.46957 0 2 0H12C12.5304 0 13.0391 0.210713 13.4142 0.585786C13.7893 0.960859 14 1.46957 14 2ZM0 4.5L6 8H8L14 4.5V9C14 9.53043 13.7893 10.0391 13.4142 10.4142C13.0391 10.7893 12.5304 11 12 11H2C1.46957 11 0.960859 10.7893 0.585786 10.4142C0.210714 10.0391 0 9.53043 0 9V4.5Z" clip-rule="evenodd"/></svg>