<svg xmlns="http://www.w3.org/2000/svg" width="1.5em" height="1.5em" fill="none" viewBox="0 0 24 24"><path fill="currentColor" fill-rule="evenodd" d="M19 8.5L12.992 11.933C12.6899 12.1056 12.3479 12.1964 12 12.1964C11.6521 12.1964 11.3101 12.1056 11.008 11.933L5 8.5C5 7.96957 5.21071 7.46086 5.58579 7.08579C5.96086 6.71071 6.46957 6.5 7 6.5H17C17.5304 6.5 18.0391 6.71071 18.4142 7.08579C18.7893 7.46086 19 7.96957 19 8.5ZM5 11L11 14.5H13L19 11V15.5C19 16.0304 18.7893 16.5391 18.4142 16.9142C18.0391 17.2893 17.5304 17.5 17 17.5H7C6.46957 17.5 5.96086 17.2893 5.58579 16.9142C5.21071 16.5391 5 16.0304 5 15.5V11Z" clip-rule="evenodd"/></svg>