<svg xmlns="http://www.w3.org/2000/svg" width="1.25em" height="1.25em" fill="none" viewBox="0 0 11 18"><path fill="currentColor" fill-rule="evenodd" d="M1.255 8.60249L1.14 8.45749H1.12C0.549171 7.65749 0.209725 6.71572 0.138909 5.73551C0.0680935 4.75529 0.268644 3.77451 0.718556 2.90077C1.16847 2.02703 1.85036 1.29411 2.6894 0.782404C3.52845 0.270702 4.49223 0 5.475 0C6.45777 0 7.42155 0.270702 8.2606 0.782404C9.09965 1.29411 9.78154 2.02703 10.2314 2.90077C10.6814 3.77451 10.8819 4.75529 10.8111 5.73551C10.7403 6.71572 10.4008 7.65749 9.83 8.45749L9.715 8.60749L9.715 8.6075C9.665 8.67249 9.615 8.73749 9.56 8.79749L7.06 12.0075C6.91399 12.3003 6.68927 12.5465 6.41106 12.7187C6.13285 12.8908 5.81216 12.982 5.485 12.982C5.15784 12.982 4.83716 12.8908 4.55895 12.7187C4.28074 12.5465 4.05601 12.3003 3.91 12.0075L1.41 8.80249C1.37152 8.75701 1.33548 8.70908 1.30018 8.66213C1.28503 8.64198 1.27002 8.62201 1.255 8.60249ZM7 4.00249H4V7.00249H7V4.00249ZM2 15.0025H9L11 17.0025H0L2 15.0025Z" clip-rule="evenodd"/></svg>