<svg xmlns="http://www.w3.org/2000/svg" width="1.5em" height="1.5em" fill="none" viewBox="0 0 24 24"><path fill="currentColor" fill-rule="evenodd" d="M7.755 12.1L7.64 11.955H7.62C7.04917 11.155 6.70973 10.2132 6.63891 9.233C6.56809 8.25279 6.76864 7.27201 7.21856 6.39827C7.66847 5.52453 8.35036 4.7916 9.1894 4.2799C10.0284 3.7682 10.9922 3.4975 11.975 3.4975C12.9578 3.4975 13.9216 3.7682 14.7606 4.2799C15.5996 4.7916 16.2815 5.52453 16.7314 6.39827C17.1814 7.27201 17.3819 8.25279 17.3111 9.233C17.2403 10.2132 16.9008 11.155 16.33 11.955L16.215 12.105L16.215 12.105C16.165 12.17 16.115 12.235 16.06 12.295L13.56 15.505C13.414 15.7978 13.1893 16.044 12.9111 16.2162C12.6328 16.3883 12.3122 16.4795 11.985 16.4795C11.6578 16.4795 11.3372 16.3883 11.0589 16.2162C10.7807 16.044 10.556 15.7978 10.41 15.505L7.91 12.3C7.87152 12.2545 7.83548 12.2066 7.80018 12.1596C7.78503 12.1395 7.77002 12.1195 7.755 12.1ZM13.5 7.49998H10.5V10.5H13.5V7.49998ZM8.5 18.5H15.5L17.5 20.5H6.5L8.5 18.5Z" clip-rule="evenodd"/></svg>