<svg xmlns="http://www.w3.org/2000/svg" width="1.5em" height="1.5em" fill="none" viewBox="0 0 24 24"><path stroke="currentColor" stroke-linecap="round" stroke-linejoin="round" stroke-width="1.5" d="M14.49 19.07H19.2C20.19 19.07 21 18.26 21 17.27V13.84H15.85"/><path stroke="currentColor" stroke-linecap="round" stroke-linejoin="round" stroke-width="1.5" d="M9.51 19.07H4.8C3.81 19.07 3 18.26 3 17.27V13.84H8.15"/><path stroke="currentColor" stroke-linecap="round" stroke-linejoin="round" stroke-width="1.5" d="M8.31 12.14V17.27C8.31 18.26 9.12 19.07 10.11 19.07H13.89C14.88 19.07 15.69 18.26 15.69 17.27V12.14H8.32H8.31Z"/><path stroke="currentColor" stroke-linecap="round" stroke-linejoin="round" stroke-width="1.5" d="M12.01 9.74C13.0593 9.74 13.91 8.88934 13.91 7.84C13.91 6.79066 13.0593 5.94 12.01 5.94C10.9606 5.94 10.11 6.79066 10.11 7.84C10.11 8.88934 10.9606 9.74 12.01 9.74Z"/><path stroke="currentColor" stroke-linecap="round" stroke-linejoin="round" stroke-width="1.5" d="M18.92 11.29C19.9694 11.29 20.82 10.4393 20.82 9.38999C20.82 8.34065 19.9694 7.48999 18.92 7.48999C17.8707 7.48999 17.02 8.34065 17.02 9.38999C17.02 10.4393 17.8707 11.29 18.92 11.29Z"/><path stroke="currentColor" stroke-linecap="round" stroke-linejoin="round" stroke-width="1.5" d="M5.11002 11.29C6.15936 11.29 7.01002 10.4393 7.01002 9.38999C7.01002 8.34065 6.15936 7.48999 5.11002 7.48999C4.06068 7.48999 3.21002 8.34065 3.21002 9.38999C3.21002 10.4393 4.06068 11.29 5.11002 11.29Z"/></svg>