<svg xmlns="http://www.w3.org/2000/svg" width="1.25em" height="1.25em" fill="none" viewBox="0 0 41 26"><path fill="currentColor" fill-rule="evenodd" d="M25.943 5.39206C25.943 8.37002 23.5289 10.7841 20.5509 10.7841C17.5729 10.7841 15.1588 8.37002 15.1588 5.39206C15.1588 2.41411 17.5729 0 20.5509 0C23.5289 0 25.943 2.41411 25.943 5.39206ZM30.6229 19.4318V14.6502H10.5807V19.4318C10.5807 19.8489 10.6621 20.2559 10.7841 20.6323C11.303 22.2804 12.8291 23.5013 14.6502 23.5013H26.5534C28.171 23.5013 29.5546 22.5449 30.2159 21.1715C30.4703 20.6425 30.6229 20.0524 30.6229 19.4318ZM7.52858 17.9057V19.4317C7.52858 21.965 8.82064 24.1625 10.7842 25.4241V25.6377H7.3251H5.29036C2.44173 25.6377 0.101774 23.2977 0.101774 20.4491V17.9057H7.52858ZM30.2159 25.5461C32.2913 24.3151 33.675 22.0566 33.675 19.4317V17.9057H40.8983V20.4491C40.8983 23.2977 38.5583 25.6377 35.7097 25.6377H30.2159V25.5461ZM5.39206 13.8362C6.15509 13.8362 6.87742 13.6735 7.52854 13.3886C8.42382 13.002 9.18685 12.3712 9.7464 11.598C10.3873 10.7129 10.7841 9.62432 10.7841 8.44417C10.7841 5.46328 8.37295 3.05211 5.39206 3.05211C2.41117 3.05211 0 5.46328 0 8.44417C0 11.4251 2.41117 13.8362 5.39206 13.8362ZM35.608 13.8362C34.9263 13.8362 34.2752 13.6938 33.675 13.4598C32.6983 13.0834 31.864 12.4323 31.2536 11.598C30.6025 10.7129 30.2159 9.62432 30.2159 8.44417C30.2159 5.46328 32.6271 3.05211 35.608 3.05211C38.5889 3.05211 41 5.46328 41 8.44417C41 11.4251 38.5889 13.8362 35.608 13.8362Z" clip-rule="evenodd"/></svg>