<svg xmlns="http://www.w3.org/2000/svg" width="1.5em" height="1.5em" fill="none" viewBox="0 0 24 24"><path stroke="currentColor" stroke-linecap="round" stroke-linejoin="round" stroke-width="1.5" d="M14.49 19.07H19.2C20.19 19.07 21 18.26 21 17.27V13.84H15.85M9.51 19.07H4.8C3.81 19.07 3 18.26 3 17.27V13.84H8.15"/><path stroke="currentColor" stroke-linecap="round" stroke-linejoin="round" stroke-width="1.5" d="M8.31 12.14V17.27C8.31 18.26 9.12 19.07 10.11 19.07H13.89C14.88 19.07 15.69 18.26 15.69 17.27V12.14H8.32 8.31ZM12.01 9.74C13.059 9.74 13.91 8.889 13.91 7.84 13.91 6.791 13.059 5.94 12.01 5.94 10.961 5.94 10.11 6.791 10.11 7.84 10.11 8.889 10.961 9.74 12.01 9.74ZM18.92 11.29C19.969 11.29 20.82 10.439 20.82 9.39 20.82 8.341 19.969 7.49 18.92 7.49 17.871 7.49 17.02 8.341 17.02 9.39 17.02 10.439 17.871 11.29 18.92 11.29ZM5.11 11.29C6.159 11.29 7.01 10.439 7.01 9.39 7.01 8.341 6.159 7.49 5.11 7.49 4.061 7.49 3.21 8.341 3.21 9.39 3.21 10.439 4.061 11.29 5.11 11.29Z"/></svg>