<svg xmlns="http://www.w3.org/2000/svg" width="1.5em" height="1.5em" fill="none" viewBox="0 0 24 24"><path fill="currentColor" fill-rule="evenodd" d="M14.675 8.35001C14.675 9.81357 13.4886 11 12.025 11C10.5614 11 9.375 9.81357 9.375 8.35001C9.375 6.88646 10.5614 5.70001 12.025 5.70001C13.4886 5.70001 14.675 6.88646 14.675 8.35001ZM16.975 15.25V12.9H7.125V15.25C7.125 15.455 7.165 15.655 7.225 15.84C7.48 16.65 8.23 17.25 9.125 17.25H14.975C15.77 17.25 16.45 16.78 16.775 16.105C16.9 15.845 16.975 15.555 16.975 15.25ZM5.62501 14.5V15.25C5.62501 16.495 6.26001 17.575 7.22501 18.195V18.3H5.52501H4.52501C3.12501 18.3 1.97501 17.15 1.97501 15.75V14.5H5.62501ZM16.775 18.255C17.795 17.65 18.475 16.54 18.475 15.25V14.5H22.025V15.75C22.025 17.15 20.875 18.3 19.475 18.3H16.775V18.255ZM4.57499 12.5C4.94999 12.5 5.30499 12.42 5.62499 12.28C6.06499 12.09 6.43999 11.78 6.71499 11.4C7.02999 10.965 7.22499 10.43 7.22499 9.85001C7.22499 8.38501 6.03999 7.20001 4.57499 7.20001C3.10999 7.20001 1.92499 8.38501 1.92499 9.85001C1.92499 11.315 3.10999 12.5 4.57499 12.5ZM19.425 12.5C19.09 12.5 18.77 12.43 18.475 12.315C17.995 12.13 17.585 11.81 17.285 11.4C16.965 10.965 16.775 10.43 16.775 9.85001C16.775 8.38501 17.96 7.20001 19.425 7.20001C20.89 7.20001 22.075 8.38501 22.075 9.85001C22.075 11.315 20.89 12.5 19.425 12.5Z" clip-rule="evenodd"/></svg>