<svg xmlns="http://www.w3.org/2000/svg" width="1.25em" height="1.25em" fill="none" viewBox="0 0 21 13"><path fill="currentColor" fill-rule="evenodd" d="M13.1548 2.73413C13.1548 4.24415 11.9307 5.46826 10.4207 5.46826C8.91065 5.46826 7.68654 4.24415 7.68654 2.73413C7.68654 1.22411 8.91065 0 10.4207 0C11.9307 0 13.1548 1.22411 13.1548 2.73413ZM15.5278 9.85321V7.4286H5.3651V9.85321C5.3651 10.0647 5.40637 10.2711 5.46828 10.4619C5.73137 11.2977 6.50518 11.9167 7.4286 11.9167H13.4643C14.2846 11.9167 14.9862 11.4318 15.3215 10.7354C15.4504 10.4671 15.5278 10.1679 15.5278 9.85321ZM3.81749 9.07937V9.85318C3.81749 11.1377 4.47265 12.252 5.46828 12.8917V13H3.71431H2.68256C1.23812 13 0.0516063 11.8135 0.0516063 10.3691V9.07937H3.81749ZM15.3215 12.9536C16.3738 12.3294 17.0754 11.1841 17.0754 9.85318V9.07937H20.7381V10.3691C20.7381 11.8135 19.5516 13 18.1072 13H15.3215V12.9536ZM2.73413 7.01589C3.12104 7.01589 3.48731 6.93335 3.81747 6.7889C4.27144 6.59287 4.65834 6.27303 4.94207 5.88096C5.26707 5.43215 5.46826 4.88017 5.46826 4.28175C5.46826 2.77024 4.24564 1.54762 2.73413 1.54762C1.22262 1.54762 0 2.77024 0 4.28175C0 5.79327 1.22262 7.01589 2.73413 7.01589ZM18.0556 7.01589C17.71 7.01589 17.3798 6.94366 17.0754 6.82501C16.5802 6.63414 16.1572 6.30398 15.8477 5.88096C15.5175 5.43215 15.3215 4.88017 15.3215 4.28175C15.3215 2.77024 16.5441 1.54762 18.0556 1.54762C19.5671 1.54762 20.7897 2.77024 20.7897 4.28175C20.7897 5.79327 19.5671 7.01589 18.0556 7.01589Z" clip-rule="evenodd"/></svg>