<svg xmlns="http://www.w3.org/2000/svg" width="1.5em" height="1.5em" fill="none" viewBox="0 0 24 24"><path stroke="currentColor" stroke-linecap="round" stroke-linejoin="round" stroke-width="1.5" d="M17.16 13.25 13.95 5.62C13.64 4.88 12.68 4.69 12.11 5.26L6.68 10.86 3.35 12.26C2.9 12.45 2.69 12.96 2.88 13.41L3.84 15.7C4.03 16.15 4.54 16.36 4.99 16.17L5.72 15.86 7.29 19.59C7.41 19.88 7.75 20.02 8.05 19.9L9.67 19.22C9.96 19.1 10.1 18.76 9.98 18.46L8.43 14.77 16.13 14.81C16.93 14.81 17.47 13.98 17.16 13.25ZM18.56 8.15 20.9 7.25M18.73 10.76 21.18 11.3M16.94 6.1 18.39 4.06M5.73 15.86 8.43 14.77"/></svg>