<svg xmlns="http://www.w3.org/2000/svg" width="1.5em" height="1.5em" fill="none" viewBox="0 0 24 24"><path stroke="currentColor" stroke-linecap="round" stroke-linejoin="round" stroke-width="1.5" d="M17.14 21H6.86C5.37 21 4.16 19.79 4.16 18.3C4.16 13.96 6.26 9.89999 9.8 7.38999L10.27 7.04999H13.71L14.18 7.38999C17.72 9.89999 19.82 13.96 19.82 18.3C19.82 19.79 18.61 21 17.12 21H17.14Z"/><path stroke="currentColor" stroke-linecap="round" stroke-linejoin="round" stroke-width="1.5" d="M10.28 7.06L7.62 3H16.38L13.72 7.06"/><path stroke="currentColor" stroke-linecap="round" stroke-linejoin="round" stroke-width="1.5" d="M12 16.82L14.46 17.96L14.13 15.27L15.98 13.28L13.32 12.76L12 10.39L10.68 12.76L8.02 13.28L9.87 15.27L9.54 17.96L12 16.82Z"/></svg>