<svg xmlns="http://www.w3.org/2000/svg" width="1.5em" height="1.5em" fill="none" viewBox="0 0 24 24"><path stroke="currentColor" stroke-linecap="round" stroke-linejoin="round" stroke-width="1.5" d="M17.14 21H6.86C5.37 21 4.16 19.79 4.16 18.3C4.16 13.96 6.26 9.9 9.8 7.39L10.27 7.05H13.71L14.18 7.39C17.72 9.9 19.82 13.96 19.82 18.3C19.82 19.79 18.61 21 17.12 21H17.14Z"/><path stroke="currentColor" stroke-linecap="round" stroke-linejoin="round" stroke-width="1.5" d="M10.28 7.06 7.62 3H16.38L13.72 7.06M12 16.82 14.46 17.96 14.13 15.27 15.98 13.28 13.32 12.76 12 10.39 10.68 12.76 8.02 13.28 9.87 15.27 9.54 17.96 12 16.82Z"/></svg>