<svg xmlns="http://www.w3.org/2000/svg" width="1.5em" height="1.5em" fill="none" viewBox="0 0 24 24"><path stroke="currentColor" stroke-linecap="round" stroke-linejoin="round" stroke-width="1.5" d="M17.85 4.75999H6.14C4.81451 4.75999 3.74 5.83451 3.74 7.15999V16.84C3.74 18.1655 4.81451 19.24 6.14 19.24H17.85C19.1755 19.24 20.25 18.1655 20.25 16.84V7.15999C20.25 5.83451 19.1755 4.75999 17.85 4.75999Z"/><path stroke="currentColor" stroke-linecap="round" stroke-linejoin="round" stroke-width="1.5" d="M12.69 16.62V15.4C12.69 14.77 12.18 14.27 11.56 14.27H7.71C7.08 14.27 6.58 14.78 6.58 15.4V16.62M9.63 11.83C10.547 11.83 11.29 11.087 11.29 10.17 11.29 9.253 10.547 8.51 9.63 8.51 8.713 8.51 7.97 9.253 7.97 10.17 7.97 11.087 8.713 11.83 9.63 11.83Z"/></svg>