<svg xmlns="http://www.w3.org/2000/svg" width="1.5em" height="1.5em" fill="none" viewBox="0 0 24 24"><path stroke="currentColor" stroke-linecap="round" stroke-linejoin="round" stroke-width="1.5" d="M3 12C3 13.182 3.233 14.352 3.685 15.444 4.137 16.536 4.8 17.528 5.636 18.364 6.472 19.2 7.464 19.863 8.556 20.315 9.648 20.767 10.818 21 12 21 13.182 21 14.352 20.767 15.444 20.315 16.536 19.863 17.528 19.2 18.364 18.364 19.2 17.528 19.863 16.536 20.315 15.444 20.767 14.352 21 13.182 21 12 21 10.818 20.767 9.648 20.315 8.556 19.863 7.464 19.2 6.472 18.364 5.636 17.528 4.8 16.536 4.137 15.444 3.685 14.352 3.233 13.182 3 12 3 10.818 3 9.648 3.233 8.556 3.685 7.464 4.137 6.472 4.8 5.636 5.636 4.8 6.472 4.137 7.464 3.685 8.556 3.233 9.648 3 10.818 3 12ZM9 12H15"/></svg>