<svg xmlns="http://www.w3.org/2000/svg" width="1.5em" height="1.5em" fill="none" viewBox="0 0 24 24"><path stroke="currentColor" stroke-linecap="round" stroke-linejoin="round" stroke-width="1.5" d="M6 5C6 4.46957 6.21071 3.96086 6.58579 3.58579 6.96086 3.21071 7.46957 3 8 3H16C16.5304 3 17.0391 3.21071 17.4142 3.58579 17.7893 3.96086 18 4.46957 18 5V19C18 19.5304 17.7893 20.0391 17.4142 20.4142 17.0391 20.7893 16.5304 21 16 21H8C7.46957 21 6.96086 20.7893 6.58579 20.4142 6.21071 20.0391 6 19.5304 6 19V5ZM11 4H13M12 17V17.01"/></svg>