<svg xmlns="http://www.w3.org/2000/svg" width="1.5em" height="1.5em" fill="none" viewBox="0 0 24 24"><path fill="currentColor" d="M15.482 4H8.482C7.95157 4 7.44286 4.21071 7.06779 4.58579C6.69272 4.96086 6.482 5.46957 6.482 6V18C6.482 18.5304 6.69272 19.0391 7.06779 19.4142C7.44286 19.7893 7.95157 20 8.482 20H15.482C16.0124 20 16.5211 19.7893 16.8962 19.4142C17.2713 19.0391 17.482 18.5304 17.482 18V6C17.482 5.46957 17.2713 4.96086 16.8962 4.58579C16.5211 4.21071 16.0124 4 15.482 4ZM13 18H11V16H13V18ZM14.5 14H9.5V7H14.5V14Z"/></svg>