<svg xmlns="http://www.w3.org/2000/svg" width="1.25em" height="1.25em" fill="none" viewBox="0 0 11 16"><path fill="currentColor" d="M9 0H2C1.46957 0 0.960859 0.210714 0.585786 0.585786C0.210714 0.960859 0 1.46957 0 2V14C0 14.5304 0.210714 15.0391 0.585786 15.4142C0.960859 15.7893 1.46957 16 2 16H9C9.53043 16 10.0391 15.7893 10.4142 15.4142C10.7893 15.0391 11 14.5304 11 14V2C11 1.46957 10.7893 0.960859 10.4142 0.585786C10.0391 0.210714 9.53043 0 9 0ZM6.518 14H4.518V12H6.518V14ZM8.018 10H3.018V3H8.018V10Z"/></svg>