<svg xmlns="http://www.w3.org/2000/svg" width="1.5em" height="1.5em" fill="none" viewBox="0 0 24 24"><path stroke="currentColor" stroke-linecap="round" stroke-linejoin="round" stroke-width="1.5" d="M13 21H8C7.47 21 6.961 20.789 6.586 20.414 6.211 20.039 6 19.53 6 19V5C6 4.47 6.211 3.961 6.586 3.586 6.961 3.211 7.47 3 8 3H16C16.53 3 17.039 3.211 17.414 3.586 17.789 3.961 18 4.47 18 5V10M11 4H13M12 17V17.01M21 15H18.5C18.102 15 17.721 15.158 17.439 15.439 17.158 15.721 17 16.102 17 16.5 17 16.898 17.158 17.279 17.439 17.561 17.721 17.842 18.102 18 18.5 18H19.5C19.898 18 20.279 18.158 20.561 18.439 20.842 18.721 21 19.102 21 19.5 21 19.898 20.842 20.279 20.561 20.561 20.279 20.842 19.898 21 19.5 21H17M19 21V22M19 14V15"/></svg>