<svg xmlns="http://www.w3.org/2000/svg" width="1.25em" height="1.25em" fill="none" viewBox="0 0 27 28"><path fill="currentColor" d="M21.26 13L23.05 12C23.9686 11.4706 24.6395 10.5981 24.9151 9.57426C25.1908 8.55045 25.0486 7.45908 24.52 6.54L22.52 3.08L17.26 6.08V4C17.26 2.93913 16.8386 1.92172 16.0884 1.17157C15.3383 0.421427 14.3209 0 13.26 0H9.26V6.07L7.47 5.07C7.01508 4.80627 6.51262 4.63482 5.99138 4.56546C5.47013 4.49611 4.94033 4.53021 4.43227 4.66581C3.92422 4.80142 3.44789 5.03586 3.03053 5.35574C2.61318 5.67562 2.26299 6.07465 2 6.53L0 9.99L5.26 13L3.47 14C2.55137 14.5294 1.88053 15.4019 1.60488 16.4257C1.32924 17.4496 1.47136 18.5409 2 19.46L4 22.92L10.26 19.35V28H16.26V19.35L19.05 21C19.5049 21.2637 20.0074 21.4352 20.5286 21.5045C21.0499 21.5739 21.5797 21.5398 22.0877 21.4042C22.5958 21.2686 23.0721 21.0341 23.4895 20.7143C23.9068 20.3944 24.257 19.9954 24.52 19.54L26.52 16.08L21.26 13ZM16.26 16H10.26V10H16.26V16Z"/></svg>