<svg xmlns="http://www.w3.org/2000/svg" width="1.25em" height="1.25em" fill="none" viewBox="0 0 14 14"><path fill="currentColor" d="M10.63 6.5L11.525 6C11.9843 5.73528 12.3197 5.29904 12.4576 4.78713C12.5954 4.27522 12.5243 3.72954 12.26 3.27L11.26 1.54L8.63 3.04V2C8.63 1.46957 8.41929 0.960859 8.04421 0.585786C7.66914 0.210714 7.16043 0 6.63 0H4.63V3.035L3.735 2.535C3.50754 2.40313 3.25631 2.31741 2.99569 2.28273C2.73507 2.24805 2.47016 2.2651 2.21614 2.33291C1.96211 2.40071 1.72394 2.51793 1.51527 2.67787C1.30659 2.83781 1.13149 3.03732 1 3.265L0 4.995L2.63 6.5L1.735 7C1.27569 7.26472 0.940263 7.70096 0.802442 8.21287C0.664621 8.72478 0.735679 9.27046 1 9.73L2 11.46L5.13 9.675V14H8.13V9.675L9.525 10.5C9.75246 10.6319 10.0037 10.7176 10.2643 10.7523C10.5249 10.7869 10.7898 10.7699 11.0439 10.7021C11.2979 10.6343 11.5361 10.5171 11.7447 10.3571C11.9534 10.1972 12.1285 9.99768 12.26 9.77L13.26 8.04L10.63 6.5ZM8.13 8H5.13V5H8.13V8Z"/></svg>