<svg xmlns="http://www.w3.org/2000/svg" width="1.5em" height="1.5em" fill="none" viewBox="0 0 24 24"><path stroke="currentColor" stroke-linecap="round" stroke-linejoin="round" stroke-width="1.5" d="M13.71 10.59C13.71 9.64559 12.9444 8.88 12 8.88C11.0556 8.88 10.29 9.64559 10.29 10.59C10.29 11.5344 11.0556 12.3 12 12.3C12.9444 12.3 13.71 11.5344 13.71 10.59Z"/><path stroke="currentColor" stroke-linecap="round" stroke-linejoin="round" stroke-width="1.5" d="M5.28 20.87H18.72"/><path stroke="currentColor" stroke-linejoin="round" stroke-width="1.5" d="M19.27 7.04L17.92 4.71L14.32 6.79V4.58C14.32 3.5 13.45 2.63 12.37 2.63H9.68V6.79L7.77 5.69C6.84 5.15 5.64 5.47 5.1 6.4L3.75 8.73L7.35 10.81L5.44 11.91C4.51 12.45 4.19 13.64 4.73 14.58L6.08 16.91L10.15 14.56V20.87H13.87V14.56L16.25 15.93C17.18 16.47 18.38 16.15 18.92 15.22L20.27 12.89L16.67 10.81L18.58 9.71C19.51 9.17 19.83 7.98 19.29 7.04H19.27Z"/></svg>