<svg xmlns="http://www.w3.org/2000/svg" width="1.5em" height="1.5em" fill="none" viewBox="0 0 24 24"><path fill="currentColor" d="M16 11.5L16.895 11C17.3543 10.7353 17.6897 10.299 17.8276 9.78713C17.9654 9.27522 17.8943 8.72954 17.63 8.27L16.63 6.54L14 8.04V7C14 6.46957 13.7893 5.96086 13.4142 5.58579C13.0391 5.21071 12.5304 5 12 5H10V8.035L9.105 7.535C8.87754 7.40313 8.62631 7.31741 8.36569 7.28273C8.10507 7.24805 7.84016 7.2651 7.58614 7.33291C7.33211 7.40071 7.09394 7.51793 6.88527 7.67787C6.67659 7.83781 6.50149 8.03732 6.37 8.265L5.37 9.995L8 11.5L7.105 12C6.64569 12.2647 6.31026 12.701 6.17244 13.2129C6.03462 13.7248 6.10568 14.2705 6.37 14.73L7.37 16.46L10.5 14.675V19H13.5V14.675L14.895 15.5C15.1225 15.6319 15.3737 15.7176 15.6343 15.7523C15.8949 15.7869 16.1598 15.7699 16.4139 15.7021C16.6679 15.6343 16.9061 15.5171 17.1147 15.3571C17.3234 15.1972 17.4985 14.9977 17.63 14.77L18.63 13.04L16 11.5ZM13.5 13H10.5V10H13.5V13Z"/></svg>