<svg xmlns="http://www.w3.org/2000/svg" width="1.5em" height="1.5em" fill="none" viewBox="0 0 24 24"><path fill="currentColor" fill-rule="evenodd" d="M12.8463 7.16003C13.2746 7.86533 13.5008 8.67482 13.5 9.49999C13.499 10.4298 13.2101 11.3364 12.6729 12.0953C12.1357 12.8542 11.3766 13.4281 10.5 13.738V19H7.5V13.7385C6.72202 13.4634 6.03465 12.9798 5.51305 12.3404C4.99145 11.7009 4.65571 10.9304 4.54253 10.1131C4.42935 9.29569 4.5431 8.46293 4.87133 7.70585C5.19957 6.94877 5.72965 6.29652 6.40362 5.82042C7.07758 5.34432 7.86949 5.0627 8.69273 5.00635C9.51598 4.95001 10.3389 5.12111 11.0714 5.50095C11.804 5.88078 12.418 6.45473 12.8463 7.16003ZM19.0831 16.8766C19.353 17.2419 19.499 17.6839 19.5 18.138V19H12.5V18.138C12.5011 17.6839 12.6471 17.242 12.917 16.8767C13.1868 16.5115 13.5663 16.242 14 16.1075V15.5C14 14.9696 14.2107 14.4609 14.5858 14.0858C14.9609 13.7107 15.4696 13.5 16 13.5C16.5304 13.5 17.0391 13.7107 17.4142 14.0858C17.7893 14.4609 18 14.9696 18 15.5V16.1075C18.4338 16.2419 18.8133 16.5114 19.0831 16.8766Z" clip-rule="evenodd"/></svg>