<svg xmlns="http://www.w3.org/2000/svg" width="1.5em" height="1.5em" fill="none" viewBox="0 0 24 24"><path fill="currentColor" fill-rule="evenodd" d="M6.5 4.5H17.5C18.0304 4.5 18.5391 4.71071 18.9142 5.08579C19.2893 5.46086 19.5 5.96957 19.5 6.5V17.5C19.5 18.0304 19.2893 18.5391 18.9142 18.9142C18.5391 19.2893 18.0304 19.5 17.5 19.5H6.5C5.96957 19.5 5.46086 19.2893 5.08579 18.9142C4.71071 18.5391 4.5 18.0304 4.5 17.5V6.5C4.5 5.96957 4.71071 5.46086 5.08579 5.08579C5.46086 4.71071 5.96957 4.5 6.5 4.5ZM11 14H12.5C13.4283 14 14.3185 13.6313 14.9749 12.9749C15.6313 12.3185 16 11.4283 16 10.5C16 9.57174 15.6313 8.6815 14.9749 8.02513C14.3185 7.36875 13.4283 7 12.5 7H9V17H11V14ZM11 9H12.5C12.8978 9 13.2794 9.15804 13.5607 9.43934C13.842 9.72064 14 10.1022 14 10.5C14 10.8978 13.842 11.2794 13.5607 11.5607C13.2794 11.842 12.8978 12 12.5 12H11V9Z" clip-rule="evenodd"/></svg>