<svg xmlns="http://www.w3.org/2000/svg" width="1.5em" height="1.5em" fill="none" viewBox="0 0 24 24"><path stroke="currentColor" stroke-linecap="round" stroke-linejoin="round" stroke-width="1.5" d="M8.32999 14.4C11.5222 14.4 14.11 11.8122 14.11 8.62003 14.11 5.42782 11.5222 2.84003 8.32999 2.84003 5.13778 2.84003 2.54999 5.42782 2.54999 8.62003 2.54999 11.8122 5.13778 14.4 8.32999 14.4ZM18.9 20.42C20.07 20.42 21.01 19.47 21.01 18.31 21.01 17.15 20.06 16.2 18.9 16.2 18.62 16.2 18.36 16.26 18.12 16.35 18.19 16.14 18.23 15.92 18.23 15.69 18.23 14.52 17.28 13.58 16.12 13.58 14.96 13.58 14.01 14.53 14.01 15.69 14.01 15.92 14.06 16.14 14.12 16.35 13.88 16.25 13.61 16.2 13.34 16.2 12.17 16.2 11.23 17.15 11.23 18.31 11.23 19.47 12.18 20.42 13.34 20.42H18.9ZM8.33002 6.66003V20.28"/><path stroke="currentColor" stroke-linecap="round" stroke-linejoin="round" stroke-width="1.5" d="M5.64001 8.69005L8.34001 11.0701L11.05 8.68005"/></svg>