<svg xmlns="http://www.w3.org/2000/svg" width="1.25em" height="1.25em" fill="none" viewBox="0 0 15 15"><path fill="currentColor" fill-rule="evenodd" d="M8.34629 2.16418C8.77461 2.86948 9.00076 3.67897 9 4.50414C8.99904 5.43392 8.7101 6.34058 8.1729 7.09947C7.63569 7.85836 6.87661 8.43221 6 8.74214V14.0041H3V8.74264C2.22202 8.46758 1.53465 7.98391 1.01305 7.3445C0.491454 6.7051 0.155708 5.93458 0.0425303 5.11721C-0.0706478 4.29984 0.043099 3.46708 0.371333 2.71C0.699567 1.95293 1.22965 1.30067 1.90362 0.824572C2.57758 0.34847 3.36949 0.0668489 4.19273 0.0105044C5.01598 -0.0458401 5.83886 0.125261 6.57141 0.505098C7.30396 0.884935 7.91797 1.45888 8.34629 2.16418ZM14.5831 11.8808C14.853 12.2461 14.999 12.688 15 13.1421V14.0041H8V13.1421C8.00105 12.688 8.14714 12.2461 8.41697 11.8809C8.6868 11.5156 9.06625 11.2461 9.5 11.1116V10.5041C9.5 9.97371 9.71071 9.465 10.0858 9.08993C10.4609 8.71486 10.9696 8.50414 11.5 8.50414C12.0304 8.50414 12.5391 8.71486 12.9142 9.08993C13.2893 9.465 13.5 9.97371 13.5 10.5041V11.1116C13.9338 11.246 14.3133 11.5155 14.5831 11.8808Z" clip-rule="evenodd"/></svg>