<svg xmlns="http://www.w3.org/2000/svg" width="1.25em" height="1.25em" fill="none" viewBox="0 0 30 29"><path fill="currentColor" fill-rule="evenodd" d="M16.6926 4.32836C17.5492 5.73896 18.0015 7.35794 18 9.00828C17.9981 10.8678 17.4202 12.6812 16.3458 14.1989C15.2714 15.7167 13.7532 16.8644 12 17.4843V28.0083H6V17.4853C4.44405 16.9352 3.0693 15.9678 2.02611 14.689C0.982907 13.4102 0.311417 11.8692 0.0850604 10.2344C-0.141296 8.59968 0.0861978 6.93417 0.742666 5.42001C1.39913 3.90585 2.4593 2.60135 3.80723 1.64914C5.15517 0.69694 6.73897 0.133698 8.38546 0.0210092C10.032 -0.0916799 11.6777 0.250521 13.1428 1.0102C14.6079 1.76987 15.8359 2.91777 16.6926 4.32836ZM29.1663 23.7616C29.7059 24.4921 29.9981 25.376 30 26.2843V28.0083H16V26.2843C16.0021 25.3761 16.2943 24.4923 16.8339 23.7617C17.3736 23.0312 18.1325 22.4922 19 22.2233V21.0083C19 19.9474 19.4214 18.93 20.1716 18.1799C20.9217 17.4297 21.9391 17.0083 23 17.0083C24.0609 17.0083 25.0783 17.4297 25.8284 18.1799C26.5786 18.93 27 19.9474 27 21.0083V22.2233C27.8676 22.4921 28.6266 23.0311 29.1663 23.7616Z" clip-rule="evenodd"/></svg>