<svg xmlns="http://www.w3.org/2000/svg" width="1.5em" height="1.5em" fill="none" viewBox="0 0 24 24"><g clip-path="url(#clip0_39_301)"><path stroke="currentColor" stroke-linecap="round" stroke-linejoin="round" stroke-width="1.5" d="M16 5L19 8L17 9L21 13L18 14L22 18H13"/><path stroke="currentColor" stroke-linecap="round" stroke-linejoin="round" stroke-width="1.5" d="M15 21V18"/><path stroke="currentColor" stroke-linecap="round" stroke-linejoin="round" stroke-width="1.5" d="M8 13L6 11"/><path stroke="currentColor" stroke-linecap="round" stroke-linejoin="round" stroke-width="1.5" d="M8 12L10 10"/><path stroke="currentColor" stroke-linecap="round" stroke-linejoin="round" stroke-width="1.5" d="M8 21V8"/><path stroke="currentColor" stroke-linecap="round" stroke-linejoin="round" stroke-width="1.5" d="M5.82401 16C5.38648 15.9744 4.95988 15.8532 4.57421 15.645C4.18855 15.4368 3.85318 15.1466 3.59171 14.7949C3.33024 14.4431 3.14902 14.0384 3.06079 13.6091C2.97255 13.1798 2.97946 12.7363 3.08101 12.31C2.71848 12.0081 2.43227 11.6249 2.2456 11.1917C2.05894 10.7584 1.97709 10.2872 2.00671 9.81636C2.03633 9.34551 2.17657 8.88829 2.41606 8.48182C2.65554 8.07535 2.98751 7.73109 3.38501 7.47699C3.03638 6.85765 2.91896 6.13464 3.05367 5.4368C3.18838 4.73896 3.56647 4.11161 4.12057 3.66652C4.67468 3.22144 5.3688 2.98754 6.07928 3.00648C6.78975 3.02543 7.47042 3.29601 8.00001 3.76999C8.52972 3.29676 9.21017 3.02682 9.92024 3.00824C10.6303 2.98966 11.3239 3.22364 11.8777 3.66852C12.4314 4.11341 12.8093 4.74034 12.9442 5.43774C13.079 6.13514 12.962 6.85777 12.614 7.47699C13.0116 7.731 13.3436 8.0752 13.5832 8.48163C13.8228 8.88805 13.9631 9.34526 13.9928 9.8161C14.0226 10.2869 13.9408 10.7582 13.7542 11.1915C13.5676 11.6248 13.2815 12.008 12.919 12.31C13.024 12.7508 13.0277 13.2096 12.93 13.6521C12.8323 14.0945 12.6356 14.5091 12.3547 14.8647C12.0738 15.2202 11.716 15.5075 11.3082 15.705C10.9004 15.9025 10.4531 16.0051 10 16.005H6.00001L5.82401 16Z"/></g><defs><clipPath id="clip0_39_301"><rect width="24" height="24" fill="currentColor"/></clipPath></defs></svg>