<svg xmlns="http://www.w3.org/2000/svg" width="1.25em" height="1.25em" fill="none" viewBox="0 0 15 15"><path fill="currentColor" fill-rule="evenodd" d="M2 0H13C13.5304 0 14.0391 0.210713 14.4142 0.585786C14.7893 0.960859 15 1.46957 15 2V13C15 13.5304 14.7893 14.0391 14.4142 14.4142C14.0391 14.7893 13.5304 15 13 15H2C1.46957 15 0.960859 14.7893 0.585786 14.4142C0.210714 14.0391 0 13.5304 0 13V2C0 1.46957 0.210714 0.960859 0.585786 0.585786C0.960859 0.210713 1.46957 0 2 0ZM6.5 9.5H8C8.92826 9.5 9.8185 9.13125 10.4749 8.47487C11.1313 7.8185 11.5 6.92826 11.5 6C11.5 5.07174 11.1313 4.1815 10.4749 3.52513C9.8185 2.86875 8.92826 2.5 8 2.5H4.5V12.5H6.5V9.5ZM6.5 4.5H8C8.39782 4.5 8.77936 4.65804 9.06066 4.93934C9.34196 5.22064 9.5 5.60218 9.5 6C9.5 6.39782 9.34196 6.77936 9.06066 7.06066C8.77936 7.34196 8.39782 7.5 8 7.5H6.5V4.5Z" clip-rule="evenodd"/></svg>