<svg xmlns="http://www.w3.org/2000/svg" width="1.25em" height="1.25em" fill="none" viewBox="0 0 13 15"><path fill="currentColor" fill-rule="evenodd" d="M9 2.5C9 3.88071 7.88071 5 6.5 5C5.11929 5 4 3.88071 4 2.5C4 1.11929 5.11929 0 6.5 0C7.88071 0 9 1.11929 9 2.5ZM0 7V6H13V7C13 7.53043 12.7893 8.03914 12.4142 8.41421C12.0391 8.78929 11.5304 9 11 9H8.47975L11.5 14.23L10.635 14.73C10.4075 14.8619 10.1563 14.9476 9.89569 14.9823C9.63507 15.0169 9.37016 14.9999 9.11614 14.9321C8.86211 14.8643 8.62394 14.7471 8.41527 14.5871C8.20659 14.4272 8.03149 14.2277 7.9 14L6.5 11.57L5.1 14C4.96851 14.2277 4.79341 14.4272 4.58473 14.5871C4.37606 14.7471 4.13789 14.8643 3.88386 14.9321C3.62984 14.9999 3.36493 15.0169 3.10431 14.9823C2.84369 14.9476 2.59246 14.8619 2.365 14.73L1.5 14.23L4.52025 9H2C1.46957 9 0.960859 8.78929 0.585786 8.41421C0.210714 8.03914 0 7.53043 0 7Z" clip-rule="evenodd"/></svg>