<svg xmlns="http://www.w3.org/2000/svg" width="1.5em" height="1.5em" fill="none" viewBox="0 0 24 24"><path stroke="currentColor" stroke-linecap="round" stroke-linejoin="round" stroke-width="1.5" d="M19.16 10.62H4.84003V12.47C4.84003 13.23 5.46003 13.84 6.21003 13.84H8.94003L6.11003 20.16L7.51003 20.83C8.30003 21.21 9.24003 20.9 9.65003 20.13L11.99 15.7L14.35 20.13C14.76 20.9 15.7 21.21 16.49 20.83L17.89 20.15L15.04 13.84H17.78C18.54 13.84 19.15 13.22 19.15 12.47V10.62H19.16Z"/><path stroke="currentColor" stroke-linecap="round" stroke-linejoin="round" stroke-width="1.5" d="M12 8.24C13.447 8.24 14.62 7.06699 14.62 5.62C14.62 4.17301 13.447 3 12 3C10.553 3 9.38 4.17301 9.38 5.62C9.38 7.06699 10.553 8.24 12 8.24Z"/></svg>