<svg xmlns="http://www.w3.org/2000/svg" width="1.5em" height="1.5em" fill="none" viewBox="0 0 24 24"><path fill="currentColor" fill-rule="evenodd" d="M14.5 6.5C14.5 7.88071 13.3807 9 12 9C10.6193 9 9.5 7.88071 9.5 6.5C9.5 5.11929 10.6193 4 12 4C13.3807 4 14.5 5.11929 14.5 6.5ZM5.5 11V10H18.5V11C18.5 11.5304 18.2893 12.0391 17.9142 12.4142C17.5391 12.7893 17.0304 13 16.5 13H13.9798L17 18.23L16.135 18.73C15.9075 18.8619 15.6563 18.9476 15.3957 18.9823C15.1351 19.0169 14.8702 18.9999 14.6161 18.9321C14.3621 18.8643 14.1239 18.7471 13.9153 18.5871C13.7066 18.4272 13.5315 18.2277 13.4 18L12 15.57L10.6 18C10.4685 18.2277 10.2934 18.4272 10.0847 18.5871C9.87606 18.7471 9.63789 18.8643 9.38386 18.9321C9.12984 18.9999 8.86493 19.0169 8.60431 18.9823C8.34369 18.9476 8.09246 18.8619 7.865 18.73L7 18.23L10.0202 13H7.5C6.96957 13 6.46086 12.7893 6.08579 12.4142C5.71071 12.0391 5.5 11.5304 5.5 11Z" clip-rule="evenodd"/></svg>