<svg xmlns="http://www.w3.org/2000/svg" width="1.25em" height="1.25em" fill="none" viewBox="0 0 26 30"><path fill="currentColor" fill-rule="evenodd" d="M18 5C18 7.76142 15.7614 10 13 10C10.2386 10 8 7.76142 8 5C8 2.23858 10.2386 0 13 0C15.7614 0 18 2.23858 18 5ZM0 14V12H26V14C26 15.0609 25.5786 16.0783 24.8284 16.8284C24.0783 17.5786 23.0609 18 22 18H16.9595L23 28.46L21.27 29.46C20.8151 29.7237 20.3126 29.8952 19.7914 29.9645C19.2701 30.0339 18.7403 29.9998 18.2323 29.8642C17.7242 29.7286 17.2479 29.4941 16.8305 29.1743C16.4132 28.8544 16.063 28.4553 15.8 28L13 23.14L10.2 28C9.93701 28.4553 9.58682 28.8544 9.16947 29.1743C8.75211 29.4941 8.27578 29.7286 7.76773 29.8642C7.25967 29.9998 6.72987 30.0339 6.20862 29.9645C5.68738 29.8952 5.18492 29.7237 4.73 29.46L3 28.46L9.0405 18H4C2.93913 18 1.92172 17.5786 1.17157 16.8284C0.421427 16.0783 0 15.0609 0 14Z" clip-rule="evenodd"/></svg>