<svg xmlns="http://www.w3.org/2000/svg" width="1.5em" height="1.5em" fill="none" viewBox="0 0 24 24"><path stroke="currentColor" stroke-linecap="round" stroke-linejoin="round" stroke-width="1.5" d="M19.16 10.62H4.84V12.47C4.84 13.23 5.46 13.84 6.21 13.84H8.94L6.11 20.16 7.51 20.83C8.3 21.21 9.24 20.9 9.65 20.13L11.99 15.7 14.35 20.13C14.76 20.9 15.7 21.21 16.49 20.83L17.89 20.15 15.04 13.84H17.78C18.54 13.84 19.15 13.22 19.15 12.47V10.62H19.16ZM12 8.24C13.447 8.24 14.62 7.067 14.62 5.62 14.62 4.173 13.447 3 12 3 10.553 3 9.38 4.173 9.38 5.62 9.38 7.067 10.553 8.24 12 8.24Z"/></svg>