<svg xmlns="http://www.w3.org/2000/svg" width="1.5em" height="1.5em" fill="none" viewBox="0 0 24 24"><path fill="currentColor" d="M13.5 13.5V16H12.5C11.3069 15.9987 10.1631 15.5241 9.31948 14.6805C8.47585 13.8369 8.00132 12.6931 8 11.5V10.5H10.5V5H7C6.46957 5 5.96086 5.21071 5.58579 5.58579C5.21071 5.96086 5 6.46957 5 7V10.5V11.5C5.00225 13.4884 5.79315 15.3948 7.19918 16.8008C8.60522 18.2069 10.5116 18.9978 12.5 19H17C17.5304 19 18.0391 18.7893 18.4142 18.4142C18.7893 18.0391 19 17.5304 19 17V13.5H13.5Z"/></svg>