<svg xmlns="http://www.w3.org/2000/svg" width="1.25em" height="1.25em" fill="none" viewBox="0 0 28 28"><path fill="currentColor" d="M17 17V22H15C12.6139 21.9974 10.3262 21.0483 8.63896 19.361C6.95171 17.6738 6.00265 15.3861 6 13V11H11V0H4C2.93913 0 1.92172 0.421427 1.17157 1.17157C0.421427 1.92172 0 2.93913 0 4V11V13C0.00449947 16.9769 1.5863 20.7896 4.39837 23.6016C7.21044 26.4137 11.0231 27.9955 15 28H24C25.0609 28 26.0783 27.5786 26.8284 26.8284C27.5786 26.0783 28 25.0609 28 24V17H17Z"/></svg>