<svg xmlns="http://www.w3.org/2000/svg" width="1.25em" height="1.25em" fill="none" viewBox="0 0 14 14"><path fill="currentColor" d="M8.5 8.5V11H7.5C6.30693 10.9987 5.16311 10.5241 4.31948 9.68052C3.47585 8.83689 3.00132 7.69307 3 6.5V5.5H5.5V0H2C1.46957 0 0.960859 0.210714 0.585786 0.585786C0.210714 0.960859 0 1.46957 0 2V5.5V6.5C0.00224974 8.48843 0.793149 10.3948 2.19918 11.8008C3.60522 13.2069 5.51157 13.9978 7.5 14H12C12.5304 14 13.0391 13.7893 13.4142 13.4142C13.7893 13.0391 14 12.5304 14 12V8.5H8.5Z"/></svg>