<svg xmlns="http://www.w3.org/2000/svg" width="1.25em" height="1.25em" fill="none" viewBox="0 0 16 19"><path fill="currentColor" fill-rule="evenodd" d="M9.26001 2C9.26001 3.10457 8.36458 4 7.26001 4C6.15544 4 5.26001 3.10457 5.26001 2C5.26001 0.89543 6.15544 0 7.26001 0C8.36458 0 9.26001 0.89543 9.26001 2ZM13.775 9.05H16V12.05H13.77C13.4 13.28 12.6 14.355 11.5 15.145V18.55H8.5V16.41C8.015 16.5 7.515 16.55 7 16.55C6.485 16.55 5.985 16.5 5.5 16.41V18.55H2.5V15.145C0.975 14.04 0 12.395 0 10.55C0 7.75499 2.24 5.41 5.26 4.745V6.54999H9.26V4.87499C11.47 5.52499 13.185 7.08999 13.775 9.05ZM9.76 9.99999H11.76V7.99999H9.76V9.99999Z" clip-rule="evenodd"/></svg>