<svg xmlns="http://www.w3.org/2000/svg" width="1.5em" height="1.5em" fill="none" viewBox="0 0 24 24"><path stroke="currentColor" stroke-linecap="round" stroke-linejoin="round" stroke-width="1.5" d="M14.19 4.725C14.19 3.59 13.27 2.67 12.135 2.67 11 2.67 10.08 3.59 10.08 4.725 10.08 5.86 11 6.78 12.135 6.78 13.27 6.78 14.19 5.86 14.19 4.725ZM11.99 18.74V21.23M18.45 12.67C17.82 10.69 16.01 9.25 13.85 9.16V11.47H10.14V9.16C7.45 9.28 5.3 11.5 5.3 14.22 5.3 16.44 6.73 18.33 8.72 19.01V21.24H15.26V19.01C16.77 18.49 17.96 17.28 18.45 15.76H20.7V12.69H18.45V12.67Z"/></svg>