<svg xmlns="http://www.w3.org/2000/svg" width="1.5em" height="1.5em" fill="none" viewBox="0 0 24 24"><path fill="currentColor" fill-rule="evenodd" d="M13.76 3.45001C13.76 4.55458 12.8646 5.45001 11.76 5.45001C10.6554 5.45001 9.76001 4.55458 9.76001 3.45001C9.76001 2.34544 10.6554 1.45001 11.76 1.45001C12.8646 1.45001 13.76 2.34544 13.76 3.45001ZM18.275 10.5H20.5V13.5H18.27C17.9 14.73 17.1 15.805 16 16.595V20H13V17.86C12.515 17.95 12.015 18 11.5 18C10.985 18 10.485 17.95 10 17.86V20H7V16.595C5.475 15.49 4.5 13.845 4.5 12C4.5 9.20501 6.74 6.86001 9.76 6.19501V8.00001H13.76V6.32501C15.97 6.97501 17.685 8.54001 18.275 10.5ZM14.26 11.45H16.26V9.45001H14.26V11.45Z" clip-rule="evenodd"/></svg>