<svg xmlns="http://www.w3.org/2000/svg" width="1.25em" height="1.25em" fill="none" viewBox="0 0 32 38"><path fill="currentColor" fill-rule="evenodd" d="M18.52 4C18.52 6.20914 16.7292 8 14.52 8C12.3109 8 10.52 6.20914 10.52 4C10.52 1.79086 12.3109 0 14.52 0C16.7292 0 18.52 1.79086 18.52 4ZM27.55 18.1H32V24.1H27.54C26.8 26.56 25.2 28.71 23 30.29V37.1H17V32.82C16.03 33 15.03 33.1 14 33.1C12.97 33.1 11.97 33 11 32.82V37.1H5V30.29C1.95 28.08 0 24.79 0 21.1C0 15.51 4.48 10.82 10.52 9.48999V13.1H18.52V9.74999C22.94 11.05 26.37 14.18 27.55 18.1ZM19.52 20H23.52V16H19.52V20Z" clip-rule="evenodd"/></svg>