<svg xmlns="http://www.w3.org/2000/svg" width="1.5em" height="1.5em" fill="none" viewBox="0 0 24 24"><path fill="currentColor" d="M16 13H15V11H16C16.5933 11 17.1734 10.8241 17.6667 10.4944C18.1601 10.1648 18.5446 9.69623 18.7716 9.14805C18.9987 8.59987 19.0581 7.99667 18.9424 7.41473C18.8266 6.83279 18.5409 6.29824 18.1213 5.87868C17.7018 5.45912 17.1672 5.1734 16.5853 5.05765C16.0033 4.94189 15.4001 5.0013 14.852 5.22836C14.3038 5.45543 13.8352 5.83994 13.5056 6.33329C13.1759 6.82664 13 7.40666 13 8V9H11V8C11 7.40666 10.8241 6.82664 10.4944 6.33329C10.1648 5.83994 9.69623 5.45543 9.14805 5.22836C8.59987 5.0013 7.99667 4.94189 7.41473 5.05765C6.83279 5.1734 6.29824 5.45912 5.87868 5.87868C5.45912 6.29824 5.1734 6.83279 5.05765 7.41473C4.94189 7.99667 5.0013 8.59987 5.22836 9.14805C5.45543 9.69623 5.83994 10.1648 6.33329 10.4944C6.82664 10.8241 7.40666 11 8 11H9V13H8C7.40666 13 6.82664 13.1759 6.33329 13.5056C5.83994 13.8352 5.45543 14.3038 5.22836 14.852C5.0013 15.4001 4.94189 16.0033 5.05765 16.5853C5.1734 17.1672 5.45912 17.7018 5.87868 18.1213C6.29824 18.5409 6.83279 18.8266 7.41473 18.9424C7.99667 19.0581 8.59987 18.9987 9.14805 18.7716C9.69623 18.5446 10.1648 18.1601 10.4944 17.6667C10.8241 17.1734 11 16.5933 11 16V15H13V16C13 16.5933 13.1759 17.1734 13.5056 17.6667C13.8352 18.1601 14.3038 18.5446 14.852 18.7716C15.4001 18.9987 16.0033 19.0581 16.5853 18.9424C17.1672 18.8266 17.7018 18.5409 18.1213 18.1213C18.5409 17.7018 18.8266 17.1672 18.9424 16.5853C19.0581 16.0033 18.9987 15.4001 18.7716 14.852C18.5446 14.3038 18.1601 13.8352 17.6667 13.5056C17.1734 13.1759 16.5933 13 16 13ZM15 8C15 7.80222 15.0587 7.60888 15.1685 7.44443C15.2784 7.27998 15.4346 7.15181 15.6173 7.07612C15.8 7.00043 16.0011 6.98063 16.1951 7.01922C16.3891 7.0578 16.5673 7.15304 16.7071 7.29289C16.847 7.43275 16.9422 7.61093 16.9808 7.80491C17.0194 7.99889 16.9996 8.19996 16.9239 8.38268C16.8482 8.56541 16.72 8.72159 16.5556 8.83147C16.3911 8.94135 16.1978 9 16 9H15V8ZM9 16C9 16.1978 8.94135 16.3911 8.83147 16.5556C8.72159 16.72 8.56541 16.8482 8.38268 16.9239C8.19996 16.9996 7.99889 17.0194 7.80491 16.9808C7.61093 16.9422 7.43275 16.847 7.29289 16.7071C7.15304 16.5673 7.0578 16.3891 7.01922 16.1951C6.98063 16.0011 7.00043 15.8 7.07612 15.6173C7.15181 15.4346 7.27998 15.2784 7.44443 15.1685C7.60888 15.0587 7.80222 15 8 15H9V16ZM9 9H8C7.80222 9 7.60888 8.94135 7.44443 8.83147C7.27998 8.72159 7.15181 8.56541 7.07612 8.38268C7.00043 8.19996 6.98063 7.99889 7.01922 7.80491C7.0578 7.61093 7.15304 7.43275 7.29289 7.29289C7.43275 7.15304 7.61093 7.0578 7.80491 7.01922C7.99889 6.98063 8.19996 7.00043 8.38268 7.07612C8.56541 7.15181 8.72159 7.27998 8.83147 7.44443C8.94135 7.60888 9 7.80222 9 8V9ZM13 13H11V11H13V13ZM16 17C15.7348 17 15.4804 16.8946 15.2929 16.7071C15.1054 16.5196 15 16.2652 15 16V15H16C16.2652 15 16.5196 15.1054 16.7071 15.2929C16.8946 15.4804 17 15.7348 17 16C17 16.2652 16.8946 16.5196 16.7071 16.7071C16.5196 16.8946 16.2652 17 16 17Z"/></svg>