<svg xmlns="http://www.w3.org/2000/svg" width="1.5em" height="1.5em" fill="none" viewBox="0 0 24 24"><path stroke="currentColor" stroke-linecap="round" stroke-linejoin="round" stroke-width="1.5" d="M6.74 4.10999C8.19 4.10999 9.37 5.28998 9.37 6.73998V9.36999H6.74C5.29 9.36999 4.11 8.18999 4.11 6.73998 4.11 5.28998 5.29 4.10999 6.74 4.10999ZM17.26 4.10999C18.71 4.10999 19.89 5.28998 19.89 6.73998 19.89 8.18999 18.71 9.36999 17.26 9.36999H14.63V6.73998C14.63 5.28998 15.81 4.10999 17.26 4.10999ZM6.74 14.63H9.37V17.26C9.37 18.71 8.19 19.89 6.74 19.89 5.29 19.89 4.11 18.71 4.11 17.26 4.11 15.81 5.29 14.63 6.74 14.63ZM14.63 14.63H17.26C18.71 14.63 19.89 15.81 19.89 17.26 19.89 18.71 18.71 19.89 17.26 19.89 15.81 19.89 14.63 18.71 14.63 17.26V14.63ZM14.63 9.37H9.37V14.63H14.63V9.37Z"/></svg>