<svg xmlns="http://www.w3.org/2000/svg" width="1.25em" height="1.25em" fill="none" viewBox="0 0 14 14"><path fill="currentColor" d="M11 8H10V6H11C11.5933 6 12.1734 5.82405 12.6667 5.49441C13.1601 5.16476 13.5446 4.69623 13.7716 4.14805C13.9987 3.59987 14.0581 2.99667 13.9424 2.41473C13.8266 1.83279 13.5409 1.29824 13.1213 0.878681C12.7018 0.459123 12.1672 0.173401 11.5853 0.0576455C11.0033 -0.0581101 10.4001 0.00129986 9.85195 0.228363C9.30377 0.455426 8.83523 0.839943 8.50559 1.33329C8.17595 1.82664 8 2.40666 8 3V4H6V3C6 2.40666 5.82405 1.82664 5.49441 1.33329C5.16476 0.839943 4.69623 0.455426 4.14805 0.228363C3.59987 0.00129986 2.99667 -0.0581101 2.41473 0.0576455C1.83279 0.173401 1.29824 0.459123 0.878681 0.878681C0.459123 1.29824 0.173401 1.83279 0.0576455 2.41473C-0.0581101 2.99667 0.00129986 3.59987 0.228363 4.14805C0.455426 4.69623 0.839943 5.16476 1.33329 5.49441C1.82664 5.82405 2.40666 6 3 6H4V8H3C2.40666 8 1.82664 8.17595 1.33329 8.50559C0.839943 8.83523 0.455426 9.30377 0.228363 9.85195C0.00129986 10.4001 -0.0581101 11.0033 0.0576455 11.5853C0.173401 12.1672 0.459123 12.7018 0.878681 13.1213C1.29824 13.5409 1.83279 13.8266 2.41473 13.9424C2.99667 14.0581 3.59987 13.9987 4.14805 13.7716C4.69623 13.5446 5.16476 13.1601 5.49441 12.6667C5.82405 12.1734 6 11.5933 6 11V10H8V11C8 11.5933 8.17595 12.1734 8.50559 12.6667C8.83523 13.1601 9.30377 13.5446 9.85195 13.7716C10.4001 13.9987 11.0033 14.0581 11.5853 13.9424C12.1672 13.8266 12.7018 13.5409 13.1213 13.1213C13.5409 12.7018 13.8266 12.1672 13.9424 11.5853C14.0581 11.0033 13.9987 10.4001 13.7716 9.85195C13.5446 9.30377 13.1601 8.83523 12.6667 8.50559C12.1734 8.17595 11.5933 8 11 8ZM10 3C10 2.80222 10.0586 2.60888 10.1685 2.44443C10.2784 2.27998 10.4346 2.15181 10.6173 2.07612C10.8 2.00043 11.0011 1.98063 11.1951 2.01922C11.3891 2.0578 11.5673 2.15304 11.7071 2.29289C11.847 2.43275 11.9422 2.61093 11.9808 2.80491C12.0194 2.99889 11.9996 3.19996 11.9239 3.38268C11.8482 3.56541 11.72 3.72159 11.5556 3.83147C11.3911 3.94135 11.1978 4 11 4H10V3ZM4 11C4 11.1978 3.94135 11.3911 3.83147 11.5556C3.72159 11.72 3.56541 11.8482 3.38268 11.9239C3.19996 11.9996 2.99889 12.0194 2.80491 11.9808C2.61093 11.9422 2.43275 11.847 2.29289 11.7071C2.15304 11.5673 2.0578 11.3891 2.01922 11.1951C1.98063 11.0011 2.00043 10.8 2.07612 10.6173C2.15181 10.4346 2.27998 10.2784 2.44443 10.1685C2.60888 10.0586 2.80222 10 3 10H4V11ZM4 4H3C2.80222 4 2.60888 3.94135 2.44443 3.83147C2.27998 3.72159 2.15181 3.56541 2.07612 3.38268C2.00043 3.19996 1.98063 2.99889 2.01922 2.80491C2.0578 2.61093 2.15304 2.43275 2.29289 2.29289C2.43275 2.15304 2.61093 2.0578 2.80491 2.01922C2.99889 1.98063 3.19996 2.00043 3.38268 2.07612C3.56541 2.15181 3.72159 2.27998 3.83147 2.44443C3.94135 2.60888 4 2.80222 4 3V4ZM8 8H6V6H8V8ZM11 12C10.7348 12 10.4804 11.8946 10.2929 11.7071C10.1054 11.5196 10 11.2652 10 11V10H11C11.2652 10 11.5196 10.1054 11.7071 10.2929C11.8946 10.4804 12 10.7348 12 11C12 11.2652 11.8946 11.5196 11.7071 11.7071C11.5196 11.8946 11.2652 12 11 12Z"/></svg>