<svg xmlns="http://www.w3.org/2000/svg" width="1.5em" height="1.5em" fill="none" viewBox="0 0 24 24"><path stroke="currentColor" stroke-linecap="round" stroke-linejoin="round" stroke-width="1.5" d="M6 6C6 5.735 6.105 5.48 6.293 5.293 6.48 5.105 6.735 5 7 5H9C9.265 5 9.52 5.105 9.707 5.293 9.895 5.48 10 5.735 10 6V18C10 18.265 9.895 18.52 9.707 18.707 9.52 18.895 9.265 19 9 19H7C6.735 19 6.48 18.895 6.293 18.707 6.105 18.52 6 18.265 6 18V6ZM14 6C14 5.735 14.105 5.48 14.293 5.293 14.48 5.105 14.735 5 15 5H17C17.265 5 17.52 5.105 17.707 5.293 17.895 5.48 18 5.735 18 6V18C18 18.265 17.895 18.52 17.707 18.707 17.52 18.895 17.265 19 17 19H15C14.735 19 14.48 18.895 14.293 18.707 14.105 18.52 14 18.265 14 18V6Z"/></svg>