<svg xmlns="http://www.w3.org/2000/svg" width="1.5em" height="1.5em" fill="none" viewBox="0 0 24 24"><path stroke="currentColor" stroke-linecap="round" stroke-linejoin="round" stroke-width="1.5" d="M3 12C3 13.182 3.233 14.352 3.685 15.444 4.137 16.536 4.8 17.528 5.636 18.364 6.472 19.2 7.464 19.863 8.556 20.315 9.648 20.767 10.818 21 12 21 13.182 21 14.352 20.767 15.444 20.315 16.536 19.863 17.528 19.2 18.364 18.364 19.2 17.528 19.863 16.536 20.315 15.444 20.767 14.352 21 13.182 21 12 21 9.613 20.052 7.324 18.364 5.636 16.676 3.948 14.387 3 12 3 9.613 3 7.324 3.948 5.636 5.636 3.948 7.324 3 9.613 3 12ZM9 12H15M12 9V15"/></svg>