<svg xmlns="http://www.w3.org/2000/svg" width="1.5em" height="1.5em" fill="none" viewBox="0 0 24 24"><path fill="currentColor" d="M18 6H13V4H11V6H6C5.46957 6 4.96086 6.21071 4.58579 6.58579C4.21071 6.96086 4 7.46957 4 8V13.5C4 14.0304 4.21071 14.5391 4.58579 14.9142C4.96086 15.2893 5.46957 15.5 6 15.5H9.085L6 18.585L7.415 20L11.915 15.5H12.085L16.585 20L18 18.585L14.915 15.5H18C18.5304 15.5 19.0391 15.2893 19.4142 14.9142C19.7893 14.5391 20 14.0304 20 13.5V8C20 7.46957 19.7893 6.96086 19.4142 6.58579C19.0391 6.21071 18.5304 6 18 6Z"/></svg>