<svg xmlns="http://www.w3.org/2000/svg" width="1.25em" height="1.25em" fill="none" viewBox="0 0 16 16"><path fill="currentColor" d="M14 2H9V0H7V2H2C1.46957 2 0.960859 2.21071 0.585786 2.58579C0.210714 2.96086 0 3.46957 0 4V9.5C0 10.0304 0.210714 10.5391 0.585786 10.9142C0.960859 11.2893 1.46957 11.5 2 11.5H5.085L2 14.585L3.415 16L7.915 11.5H8.085L12.585 16L14 14.585L10.915 11.5H14C14.5304 11.5 15.0391 11.2893 15.4142 10.9142C15.7893 10.5391 16 10.0304 16 9.5V4C16 3.46957 15.7893 2.96086 15.4142 2.58579C15.0391 2.21071 14.5304 2 14 2Z"/></svg>