<svg xmlns="http://www.w3.org/2000/svg" width="1.5em" height="1.5em" fill="none" viewBox="0 0 24 24"><path fill="currentColor" d="M17.5 4.5H6.5C5.96957 4.5 5.46086 4.71071 5.08579 5.08579C4.71071 5.46086 4.5 5.96957 4.5 6.5V17.5C4.5 18.0304 4.71071 18.5391 5.08579 18.9142C5.46086 19.2893 5.96957 19.5 6.5 19.5H17.5C18.0304 19.5 18.5391 19.2893 18.9142 18.9142C19.2893 18.5391 19.5 18.0304 19.5 17.5V6.5C19.5 5.96957 19.2893 5.46086 18.9142 5.08579C18.5391 4.71071 18.0304 4.5 17.5 4.5ZM13 17.25H11V15.25H13V17.25ZM12 13.75H11V11.75H12C12.3978 11.75 12.7794 11.592 13.0607 11.3107C13.342 11.0294 13.5 10.6478 13.5 10.25C13.5 9.85218 13.342 9.47064 13.0607 9.18934C12.7794 8.90804 12.3978 8.75 12 8.75C11.6022 8.75 11.2206 8.90804 10.9393 9.18934C10.658 9.47064 10.5 9.85218 10.5 10.25H8.5C8.50154 9.70692 8.62873 9.17155 8.8716 8.6858C9.11448 8.20005 9.46646 7.77708 9.9 7.45C10.3437 7.11725 10.8601 6.89469 11.4066 6.80067C11.9532 6.70664 12.5142 6.74384 13.0436 6.9092C13.5729 7.07456 14.0554 7.36334 14.4513 7.75175C14.8471 8.14016 15.145 8.61708 15.3204 9.1432C15.4958 9.66933 15.5436 10.2296 15.46 10.7778C15.3763 11.3261 15.1636 11.8466 14.8393 12.2965C14.5151 12.7464 14.0885 13.1128 13.5949 13.3655C13.1012 13.6182 12.5546 13.75 12 13.75Z"/></svg>