<svg xmlns="http://www.w3.org/2000/svg" width="1.25em" height="1.25em" fill="none" viewBox="0 0 15 15"><path fill="currentColor" d="M13 0H2C1.46957 0 0.960859 0.210714 0.585786 0.585786C0.210714 0.960859 0 1.46957 0 2V13C0 13.5304 0.210714 14.0391 0.585786 14.4142C0.960859 14.7893 1.46957 15 2 15H13C13.5304 15 14.0391 14.7893 14.4142 14.4142C14.7893 14.0391 15 13.5304 15 13V2C15 1.46957 14.7893 0.960859 14.4142 0.585786C14.0391 0.210714 13.5304 0 13 0ZM8.5 12.75H6.5V10.75H8.5V12.75ZM7.5 9.25H6.5V7.25H7.5C7.89782 7.25 8.27936 7.09196 8.56066 6.81066C8.84196 6.52936 9 6.14782 9 5.75C9 5.35218 8.84196 4.97064 8.56066 4.68934C8.27936 4.40804 7.89782 4.25 7.5 4.25C7.10218 4.25 6.72064 4.40804 6.43934 4.68934C6.15804 4.97064 6 5.35218 6 5.75H4C4.00154 5.20692 4.12873 4.67155 4.3716 4.1858C4.61448 3.70005 4.96646 3.27708 5.4 2.95C5.84367 2.61725 6.36005 2.39469 6.9066 2.30067C7.45316 2.20664 8.01423 2.24384 8.54359 2.4092C9.07294 2.57456 9.55543 2.86334 9.95128 3.25175C10.3471 3.64016 10.645 4.11708 10.8204 4.6432C10.9958 5.16933 11.0436 5.72959 10.96 6.27783C10.8763 6.82607 10.6636 7.34659 10.3393 7.79649C10.0151 8.24639 9.58854 8.61279 9.09488 8.8655C8.60122 9.11821 8.05458 9.25 7.5 9.25Z"/></svg>