<svg xmlns="http://www.w3.org/2000/svg" width="1.25em" height="1.25em" fill="none" viewBox="0 0 30 30"><path fill="currentColor" d="M26 0H4C2.93913 0 1.92172 0.421427 1.17157 1.17157C0.421427 1.92172 0 2.93913 0 4V26C0 27.0609 0.421427 28.0783 1.17157 28.8284C1.92172 29.5786 2.93913 30 4 30H26C27.0609 30 28.0783 29.5786 28.8284 28.8284C29.5786 28.0783 30 27.0609 30 26V4C30 2.93913 29.5786 1.92172 28.8284 1.17157C28.0783 0.421427 27.0609 0 26 0ZM17 25.5H13V21.5H17V25.5ZM15 18.5H13V14.5H15C15.7956 14.5 16.5587 14.1839 17.1213 13.6213C17.6839 13.0587 18 12.2956 18 11.5C18 10.7044 17.6839 9.94129 17.1213 9.37868C16.5587 8.81607 15.7956 8.5 15 8.5C14.2044 8.5 13.4413 8.81607 12.8787 9.37868C12.3161 9.94129 12 10.7044 12 11.5H8C8.00308 10.4138 8.25745 9.34311 8.7432 8.3716C9.22896 7.4001 9.93291 6.55417 10.8 5.9C11.6873 5.2345 12.7201 4.78939 13.8132 4.60134C14.9063 4.41329 16.0285 4.48769 17.0872 4.81841C18.1459 5.14912 19.1109 5.72669 19.9026 6.50351C20.6943 7.28033 21.29 8.23416 21.6408 9.28641C21.9915 10.3387 22.0872 11.4592 21.9199 12.5557C21.7527 13.6521 21.3272 14.6932 20.6787 15.593C20.0302 16.4928 19.1771 17.2256 18.1898 17.731C17.2024 18.2364 16.1092 18.5 15 18.5Z"/></svg>