<svg xmlns="http://www.w3.org/2000/svg" width="1.5em" height="1.5em" fill="none" viewBox="0 0 24 24"><path stroke="currentColor" stroke-linecap="round" stroke-linejoin="round" stroke-width="1.5" d="M19.21 10.26C18.87 10.26 18.55 10.36 18.28 10.53 18.41 10.21 18.48 9.85 18.48 9.48 18.48 7.92 17.22 6.66 15.66 6.66 15.31 6.66 14.98 6.73 14.68 6.84 14.69 6.73 14.7 6.63 14.7 6.52 14.7 4.67 13.2 3.16 11.34 3.16 9.47999 3.16 7.97999 4.66 7.97999 6.52 7.97999 6.68 7.99999 6.83 8.00999 6.97 7.56999 6.78 7.08999 6.67 6.57999 6.67 4.59999 6.67 2.98999 8.28 2.98999 10.26 2.98999 12.24 4.59999 13.85 6.57999 13.85H19.2C20.19 13.85 20.99 13.05 20.99 12.06 20.99 11.07 20.19 10.27 19.2 10.27L19.21 10.26ZM14.54 20.62 17.12 16.8M9.75 20.62 12.34 16.8M4.95999 20.62 7.54999 16.8"/></svg>