<svg xmlns="http://www.w3.org/2000/svg" width="1.5em" height="1.5em" fill="none" viewBox="0 0 24 24"><path stroke="currentColor" stroke-linecap="round" stroke-linejoin="round" stroke-width="1.5" d="M19.21 10.26C18.87 10.26 18.55 10.36 18.28 10.53 18.41 10.21 18.48 9.85 18.48 9.48 18.48 7.92 17.22 6.66 15.66 6.66 15.31 6.66 14.98 6.73 14.68 6.84 14.69 6.73 14.7 6.63 14.7 6.52 14.7 4.67 13.2 3.16 11.34 3.16 9.48 3.16 7.98 4.66 7.98 6.52 7.98 6.68 8 6.83 8.01 6.97 7.57 6.78 7.09 6.67 6.58 6.67 4.6 6.67 2.99 8.28 2.99 10.26 2.99 12.24 4.6 13.85 6.58 13.85H19.2C20.19 13.85 20.99 13.05 20.99 12.06 20.99 11.07 20.19 10.27 19.2 10.27L19.21 10.26ZM14.54 20.62 17.12 16.8M9.75 20.62 12.34 16.8M4.96 20.62 7.55 16.8"/></svg>