<svg xmlns="http://www.w3.org/2000/svg" width="1.5em" height="1.5em" fill="none" viewBox="0 0 24 24"><path stroke="currentColor" stroke-linecap="round" stroke-linejoin="round" stroke-width="1.5" d="M14.46 21.2 11.84 18.58 14.46 15.95M7.52003 10.53 4.35003 16.02C3.70003 17.16 4.51003 18.57 5.82003 18.57H8.55003M16.64 10.81 13.47 5.32C12.81 4.19 11.18 4.18 10.52 5.32L9.15002 7.69"/><path stroke="currentColor" stroke-linecap="round" stroke-linejoin="round" stroke-width="1.5" d="M11.84 18.58H18.18C19.49 18.58 20.31 17.16 19.66 16.03L18.29 13.66M3.92999 11.5 7.51999 10.53 8.47999 14.12"/><path stroke="currentColor" stroke-linecap="round" stroke-linejoin="round" stroke-width="1.5" d="M3.92999 11.52 7.51999 10.55 8.47999 14.13M17.6 7.23001 16.64 10.81 13.05 9.86001"/></svg>