<svg xmlns="http://www.w3.org/2000/svg" width="1.5em" height="1.5em" fill="none" viewBox="0 0 24 24"><path stroke="currentColor" stroke-linecap="round" stroke-linejoin="round" stroke-width="1.5" d="M14.46 21.2 11.84 18.58 14.46 15.95M7.52 10.53 4.35 16.02C3.7 17.16 4.51 18.57 5.82 18.57H8.55M16.64 10.81 13.47 5.32C12.81 4.19 11.18 4.18 10.52 5.32L9.15 7.69"/><path stroke="currentColor" stroke-linecap="round" stroke-linejoin="round" stroke-width="1.5" d="M11.84 18.58H18.18C19.49 18.58 20.31 17.16 19.66 16.03L18.29 13.66M3.93 11.5 7.52 10.53 8.48 14.12"/><path stroke="currentColor" stroke-linecap="round" stroke-linejoin="round" stroke-width="1.5" d="M3.93 11.52 7.52 10.55 8.48 14.13M17.6 7.23 16.64 10.81 13.05 9.86"/></svg>