<svg xmlns="http://www.w3.org/2000/svg" width="1.5em" height="1.5em" fill="none" viewBox="0 0 24 24"><path fill="currentColor" fill-rule="evenodd" d="M16.425 9.23C16.37 9.54 16.185 9.815 15.91 9.975L15.915 9.98C15.645 10.14 15.31 10.165 15.015 10.055L12.545 9.155L12 8.23L13.01 7.62L12.08 6.005L9.58501 10.325L7.26501 8.985L9.87501 4.46C10.335 3.66 11.16 3.185 12.08 3.185C13 3.185 13.825 3.665 14.285 4.46L15.325 6.265L16.32 5.685L16.865 6.615L16.425 9.23ZM20.47 15.31L17.85 10.79L15.53 12.135L18.035 16.45H16.165L16.14 15.275L15.065 15.285L13.05 16.975C12.805 17.175 12.665 17.475 12.665 17.795C12.665 18.11 12.81 18.41 13.055 18.61L15.1 20.295L16.175 20.285V19.13H18.265C19.185 19.13 20.01 18.65 20.47 17.855C20.93 17.055 20.925 16.105 20.47 15.31ZM5.96501 16.47L6.89501 14.85L7.93001 15.42L8.46001 14.485L8.00001 11.895C7.95001 11.58 7.76001 11.31 7.48501 11.15C7.21001 10.99 6.88001 10.965 6.58501 11.08L4.10001 12.01L3.57001 12.945L4.57001 13.52L3.52501 15.335C3.06501 16.135 3.07001 17.085 3.52501 17.88C3.98501 18.675 4.81001 19.15 5.73001 19.15L10.955 19.14V16.46L5.96501 16.47Z" clip-rule="evenodd"/></svg>