<svg xmlns="http://www.w3.org/2000/svg" width="1.25em" height="1.25em" fill="none" viewBox="0 0 18 18"><path fill="currentColor" fill-rule="evenodd" d="M13.5201 6.17143C13.4639 6.48791 13.2751 6.76866 12.9943 6.93201L12.9994 6.93711C12.7238 7.10046 12.3818 7.12598 12.0806 7.01368L9.55895 6.09486L9.00255 5.15051L10.0337 4.52775L9.08423 2.87898L6.53705 7.28933L4.16853 5.9213L6.83311 1.30167C7.30273 0.484934 8.14499 0 9.08423 0C10.0235 0 10.8657 0.490039 11.3353 1.30167L12.3971 3.14442L13.4129 2.55229L13.9693 3.50174L13.5201 6.17143ZM17.6497 12.3786L14.9749 7.76403L12.6064 9.13716L15.1638 13.5424H13.2547L13.2291 12.3428L12.1316 12.353L10.0745 14.0784C9.82438 14.2826 9.68146 14.5888 9.68146 14.9155C9.68146 15.2371 9.82949 15.5434 10.0796 15.7476L12.1674 17.4678L13.2649 17.4576V16.2785H15.3986C16.3378 16.2785 17.1801 15.7884 17.6497 14.9768C18.1193 14.1601 18.1142 13.1902 17.6497 12.3786ZM2.84133 13.5628L3.79078 11.909L4.84743 12.4909L5.38852 11.5363L4.91889 8.89215C4.86785 8.57057 4.67388 8.29492 4.39312 8.13157C4.11237 7.96823 3.77547 7.9427 3.4743 8.06011L0.937329 9.00956L0.396245 9.96411L1.41716 10.5511L0.350304 12.4041C-0.119317 13.2208 -0.114212 14.1907 0.350304 15.0023C0.819924 15.814 1.66218 16.2989 2.60142 16.2989L7.9357 16.2887V13.5526L2.84133 13.5628Z" clip-rule="evenodd"/></svg>