<svg xmlns="http://www.w3.org/2000/svg" width="1.25em" height="1.25em" fill="none" viewBox="0 0 36 35"><path fill="currentColor" fill-rule="evenodd" d="M27.0402 12.3429C26.9279 12.9758 26.5502 13.5373 25.9887 13.864L25.9989 13.8742C25.4476 14.2009 24.7636 14.252 24.1612 14.0274L19.1179 12.1897L18.0051 10.301L20.0674 9.05551L18.1685 5.75796L13.0741 14.5787L8.33705 11.8426L13.6662 2.60333C14.6055 0.969869 16.29 0 18.1685 0C20.0469 0 21.7314 0.980078 22.6707 2.60333L24.7942 6.28883L26.8258 5.10457L27.9386 7.00347L27.0402 12.3429ZM35.2994 24.7571L29.9498 15.5281L25.2127 18.2743L30.3275 27.0848H26.5093L26.4583 24.6857L24.2633 24.7061L20.149 28.1568C19.6488 28.5651 19.3629 29.1777 19.3629 29.8311C19.3629 30.4742 19.659 31.0868 20.1592 31.4952L24.3348 34.9356L26.5297 34.9152V32.5569H30.7971C32.6756 32.5569 34.3601 31.5768 35.2994 29.9536C36.2386 28.3201 36.2284 26.3804 35.2994 24.7571ZM5.68267 27.1257L7.58157 23.8179L9.69486 24.9818L10.777 23.0726L9.83779 17.7843C9.7357 17.1411 9.34775 16.5898 8.78625 16.2631C8.22475 15.9365 7.55094 15.8854 6.9486 16.1202L1.87466 18.0191L0.792489 19.9282L2.83432 21.1023L0.700607 24.8082C-0.238633 26.4417 -0.228424 28.3814 0.700607 30.0046C1.63985 31.6279 3.32436 32.5978 5.20284 32.5978L15.8714 32.5774V27.1053L5.68267 27.1257Z" clip-rule="evenodd"/></svg>