<svg xmlns="http://www.w3.org/2000/svg" width="1.5em" height="1.5em" fill="none" viewBox="0 0 24 24"><g clip-path="url(#clip0_39_346)"><path stroke="currentColor" stroke-linecap="round" stroke-linejoin="round" stroke-width="1.5" d="M12 17L10 19L12 21"/><path stroke="currentColor" stroke-linecap="round" stroke-linejoin="round" stroke-width="1.5" d="M10 19H19C19.3186 18.9836 19.6287 18.8912 19.9043 18.7305C20.1799 18.5698 20.4131 18.3456 20.5843 18.0764C20.7556 17.8073 20.86 17.501 20.8888 17.1833C20.9177 16.8656 20.8701 16.5456 20.75 16.25L20.2 15.25"/><path stroke="currentColor" stroke-linecap="round" stroke-linejoin="round" stroke-width="1.5" d="M8.53601 11L7.80401 8.26801L5.07201 9.00001"/><path stroke="currentColor" stroke-linecap="round" stroke-linejoin="round" stroke-width="1.5" d="M7.804 8.26801L3.304 16.062C3.15904 16.3461 3.08412 16.6607 3.08548 16.9796C3.08685 17.2985 3.16445 17.6125 3.31184 17.8953C3.45922 18.1781 3.67209 18.4216 3.93271 18.6054C4.19333 18.7893 4.49412 18.9081 4.81 18.952L5.951 18.976"/><path stroke="currentColor" stroke-linecap="round" stroke-linejoin="round" stroke-width="1.5" d="M15.464 11L18.196 11.732L18.928 9"/><path stroke="currentColor" stroke-linecap="round" stroke-linejoin="round" stroke-width="1.5" d="M18.196 11.732L13.696 3.938C13.5224 3.67044 13.2873 3.44827 13.0104 3.29004C12.7335 3.13181 12.4227 3.0421 12.1041 3.0284C11.7855 3.0147 11.4681 3.0774 11.1787 3.21128C10.8892 3.34516 10.6359 3.54633 10.44 3.798L9.849 4.774"/></g><defs><clipPath id="clip0_39_346"><rect width="24" height="24" fill="currentColor"/></clipPath></defs></svg>