<svg xmlns="http://www.w3.org/2000/svg" width="1.25em" height="1.25em" fill="none" viewBox="0 0 17 16"><path fill="currentColor" fill-rule="evenodd" d="M2.04897 0.100596C2.18993 0.0340056 2.34396 -0.000357131 2.49986 2.86086e-06C2.65576 -0.000357131 2.80978 0.0340056 2.95074 0.100596C3.09171 0.167186 3.21607 0.264332 3.31481 0.384981L4.99971 2.44486V3.4998H3.4998V12.4993H4.99971V13.5492L3.31481 15.6091C3.2169 15.7311 3.09284 15.8296 2.95179 15.8972C2.81074 15.9649 2.65629 16 2.49986 16C2.34342 16 2.18898 15.9649 2.04793 15.8972C1.90688 15.8296 1.78282 15.7311 1.6849 15.6091L0 13.5492V12.4993H1.49991V3.4998H0V2.44486L1.6849 0.384981C1.78364 0.264332 1.90801 0.167186 2.04897 0.100596ZM7.49957 0H16.999V2.99983H7.49957V0ZM7.49957 6.49963H16.999V9.49946H7.49957V6.49963ZM16.999 12.9993H7.49957V15.9991H16.999V12.9993Z" clip-rule="evenodd"/></svg>