<svg xmlns="http://www.w3.org/2000/svg" width="1.5em" height="1.5em" fill="none" viewBox="0 0 24 24"><path fill="currentColor" fill-rule="evenodd" d="M5.54909 4.1006C5.69006 4.03401 5.84409 3.99964 6 4C6.15591 3.99964 6.30994 4.03401 6.45091 4.1006C6.59189 4.1672 6.71626 4.26435 6.815 4.385L8.5 6.445V7.5H7V16.5H8.5V17.55L6.815 19.61C6.71708 19.732 6.59301 19.8305 6.45196 19.8981C6.3109 19.9658 6.15645 20.0009 6 20.0009C5.84355 20.0009 5.6891 19.9658 5.54804 19.8981C5.40699 19.8305 5.28292 19.732 5.185 19.61L3.5 17.55V16.5H5V7.5H3.5V6.445L5.185 4.385C5.28374 4.26435 5.40811 4.1672 5.54909 4.1006ZM11 4H20.5V7H11V4ZM11 10.5H20.5V13.5H11V10.5ZM20.5 17H11V20H20.5V17Z" clip-rule="evenodd"/></svg>