<svg xmlns="http://www.w3.org/2000/svg" width="1.5em" height="1.5em" fill="none" viewBox="0 0 24 24"><path fill="currentColor" fill-rule="evenodd" d="M5.8255 5.5C5.34139 5.50013 4.87714 5.6925 4.53482 6.03482C4.1925 6.37714 4.00013 6.84139 4 7.3255V9.1755C4.0004 9.65944 4.19289 10.1234 4.53518 10.4655C4.87747 10.8076 5.34156 10.9999 5.8255 11H6.5V18.5H9V11H9.6745C10.1586 10.9999 10.6229 10.8075 10.9652 10.4652C11.3075 10.1229 11.4999 9.65861 11.5 9.1745V7.3245C11.4996 6.84056 11.3071 6.37657 10.9648 6.03447C10.6225 5.69237 10.1584 5.50013 9.6745 5.5H9V11H6.5V5.5H5.8255ZM15.8905 5.5H16.5H19V18.5H16.5V13H13.5V7.8905C13.5001 7.25654 13.752 6.64858 14.2003 6.20031C14.6486 5.75203 15.2565 5.50013 15.8905 5.5Z" clip-rule="evenodd"/></svg>