<svg xmlns="http://www.w3.org/2000/svg" width="1.5em" height="1.5em" fill="none" viewBox="0 0 24 24"><path stroke="currentColor" stroke-linecap="round" stroke-linejoin="round" stroke-width="1.5" d="M5.96002 12.46H9.38002V19.29C9.38002 20.23 8.61002 21 7.67002 21 6.73002 21 5.96002 20.23 5.96002 19.29V12.46ZM10.38 3.73999V6.61999C10.38 7.67999 9.52001 8.54999 8.45001 8.54999H6.88001C5.82001 8.54999 4.95001 7.68999 4.95001 6.61999V3.73999M7.66998 12.46V3.73999M14.43 12.46H17.85V19.29C17.85 20.23 17.08 21 16.14 21 15.2 21 14.43 20.23 14.43 19.29V12.46ZM16.14 12.46V9.21002M16.14 9.22C17.5262 9.22 18.65 7.82761 18.65 6.11 18.65 4.39239 17.5262 3 16.14 3 14.7538 3 13.63 4.39239 13.63 6.11 13.63 7.82761 14.7538 9.22 16.14 9.22Z"/></svg>