<svg xmlns="http://www.w3.org/2000/svg" width="1.5em" height="1.5em" fill="none" viewBox="0 0 24 24"><path stroke="currentColor" stroke-linecap="round" stroke-linejoin="round" stroke-width="1.5" d="M5.96 12.46H9.38V19.29C9.38 20.23 8.61 21 7.67 21 6.73 21 5.96 20.23 5.96 19.29V12.46ZM10.38 3.74V6.62C10.38 7.68 9.52 8.55 8.45 8.55H6.88C5.82 8.55 4.95 7.69 4.95 6.62V3.74M7.67 12.46V3.74M14.43 12.46H17.85V19.29C17.85 20.23 17.08 21 16.14 21 15.2 21 14.43 20.23 14.43 19.29V12.46ZM16.14 12.46V9.21M16.14 9.22C17.526 9.22 18.65 7.828 18.65 6.11 18.65 4.392 17.526 3 16.14 3 14.754 3 13.63 4.392 13.63 6.11 13.63 7.828 14.754 9.22 16.14 9.22Z"/></svg>