<svg xmlns="http://www.w3.org/2000/svg" width="1.25em" height="1.25em" fill="none" viewBox="0 0 15 13"><path fill="currentColor" fill-rule="evenodd" d="M1.8255 0C1.34139 0.000132561 0.877142 0.192504 0.534823 0.534823C0.192504 0.877142 0.000132543 1.34139 0 1.8255V3.6755C0.000397522 4.15944 0.192886 4.62343 0.535176 4.96553C0.877466 5.30763 1.34156 5.49987 1.8255 5.5H2.5V13H5V5.5H5.6745C6.15861 5.49987 6.62286 5.3075 6.96518 4.96518C7.3075 4.62286 7.49987 4.15861 7.5 3.6745V1.8245C7.4996 1.34056 7.30711 0.876572 6.96482 0.534469C6.62253 0.192367 6.15844 0.000132561 5.6745 0H5V5.5H2.5V0H1.8255ZM11.8905 0H12.5H15V13H12.5V7.5H9.5V2.3905C9.50013 1.75654 9.75203 1.14858 10.2003 0.700308C10.6486 0.252031 11.2565 0.000132561 11.8905 0Z" clip-rule="evenodd"/></svg>