<svg xmlns="http://www.w3.org/2000/svg" width="1.5em" height="1.5em" fill="none" viewBox="0 0 24 24"><path stroke="currentColor" stroke-linecap="round" stroke-linejoin="round" stroke-width="1.5" d="M4 13C5.78309 13.2119 7.44305 14.0175 8.71276 15.2872C9.98247 16.557 10.7881 18.2169 11 20C11.8839 19.4904 12.6233 18.7638 13.1482 17.8889C13.6732 17.014 13.9663 16.0197 14 15C15.6791 14.4093 17.1454 13.334 18.2133 11.91C19.2813 10.486 19.9031 8.77734 20 7C20 6.20435 19.6839 5.44129 19.1213 4.87868C18.5587 4.31607 17.7956 4 17 4C15.2227 4.09691 13.514 4.71867 12.09 5.78665C10.666 6.85464 9.59069 8.32089 9 10C7.98026 10.0337 6.98596 10.3268 6.11106 10.8518C5.23617 11.3767 4.50959 12.1161 4 13Z"/><path stroke="currentColor" stroke-linecap="round" stroke-linejoin="round" stroke-width="1.5" d="M7 14C5.959 14.588 5.118 15.473 4.583 16.542 4.049 17.611 3.846 18.815 4 20 5.185 20.154 6.389 19.951 7.458 19.417 8.527 18.882 9.412 18.041 10 17M14 9C14 9.265 14.105 9.52 14.293 9.707 14.48 9.895 14.735 10 15 10 15.265 10 15.52 9.895 15.707 9.707 15.895 9.52 16 9.265 16 9 16 8.735 15.895 8.48 15.707 8.293 15.52 8.105 15.265 8 15 8 14.735 8 14.48 8.105 14.293 8.293 14.105 8.48 14 8.735 14 9Z"/></svg>