<svg xmlns="http://www.w3.org/2000/svg" width="1.25em" height="1.25em" fill="none" viewBox="0 0 39 34"><path fill="currentColor" fill-rule="evenodd" d="M31.5385 9.05319L23.4452 2.87964L20.5656 0L18.9186 1.64695C17.7466 2.81902 16.6856 3.87994 17.3525 5.42585L17.8375 6.52719L13.9576 10.4071L6.15727 9.43714L4.42949 24.3304L1.176 27.5839C-0.410329 29.1703 -0.390121 31.767 1.22652 33.3836L1.83276 33.9899H12.3207L15.0488 31.2618L31.5486 14.7619C33.1249 13.1857 33.1249 10.6294 31.5486 9.04308L31.5385 9.05319ZM19.1106 19.0157L16.2512 16.1563L23.7079 8.69955L26.5674 11.559L19.1106 19.0157ZM38.6417 29.9584H21.4648V34H38.6417V29.9584ZM29.548 21.8752H38.6417V25.9168H29.548V21.8752Z" clip-rule="evenodd"/></svg>