<svg xmlns="http://www.w3.org/2000/svg" width="1.5em" height="1.5em" fill="none" viewBox="0 0 24 24"><path fill="currentColor" fill-rule="evenodd" d="M18.485 7.15499L14.48 4.09999L13.055 2.67499L12.24 3.48999C11.66 4.06999 11.135 4.59499 11.465 5.35999L11.705 5.90499L9.785 7.82499L5.925 7.34499L5.07 14.715L3.46 16.325C2.675 17.11 2.685 18.395 3.485 19.195L3.785 19.495H8.975L10.325 18.145L18.49 9.97999C19.27 9.19999 19.27 7.93499 18.49 7.14999L18.485 7.15499ZM12.335 12.085L10.92 10.67L14.61 6.97999L16.025 8.39499L12.335 12.085ZM22 17.5H13.5V19.5H22V17.5ZM17.5 13.5H22V15.5H17.5V13.5Z" clip-rule="evenodd"/></svg>