<svg xmlns="http://www.w3.org/2000/svg" width="1.25em" height="1.25em" fill="none" viewBox="0 0 20 17"><path fill="currentColor" fill-rule="evenodd" d="M15.7693 4.52659L11.7226 1.43982L10.2828 0L9.45932 0.823476C8.87328 1.40951 8.34282 1.93997 8.67626 2.71293L8.91875 3.26359L6.97878 5.20356L3.07864 4.71857L2.21474 12.1652L0.588 13.792C-0.205164 14.5851 -0.19506 15.8835 0.61326 16.6918L0.91638 16.9949H6.16036L7.5244 15.6309L15.7743 7.38097C16.5624 6.59286 16.5624 5.31471 15.7743 4.52154L15.7693 4.52659ZM9.5553 9.50787L8.12559 8.07815L11.854 4.34977L13.2837 5.77949L9.5553 9.50787ZM19.3208 14.9792H10.7324V17H19.3208V14.9792ZM14.774 10.9376H19.3208V12.9584H14.774V10.9376Z" clip-rule="evenodd"/></svg>