<svg xmlns="http://www.w3.org/2000/svg" width="1.25em" height="1.25em" fill="none" viewBox="0 0 31 30"><path fill="currentColor" fill-rule="evenodd" d="M9 6V19C9.79565 19 10.5587 19.3161 11.1213 19.8787C11.6839 20.4413 12 21.2044 12 22C12 22.7956 11.6839 23.5587 11.1213 24.1213C10.5587 24.6839 9.79565 25 9 25V30H3V25C2.20435 25 1.44129 24.6839 0.87868 24.1213C0.316071 23.5587 0 22.7956 0 22C0 21.2044 0.316071 20.4413 0.87868 19.8787C1.44129 19.3161 2.20435 19 3 19V6C3.00159 4.40919 3.63424 2.88399 4.75911 1.75911C5.88399 0.634239 7.40919 0.00158843 9 0H23C24.5908 0.00158843 26.116 0.634239 27.2409 1.75911C28.3658 2.88399 28.9984 4.40919 29 6V10H23V6H9ZM30.714 23.331H30.693C30.8907 23.8655 30.9946 24.4301 31 25C31 26.3261 30.4732 27.5979 29.5355 28.5355C28.5979 29.4732 27.3261 30 26 30C24.6739 30 23.4021 29.4732 22.4645 28.5355C21.5268 27.5979 21 26.3261 21 25C21.0054 24.4301 21.1093 23.8655 21.307 23.331H21.286L21.356 23.173C21.3906 23.086 21.4292 23.0029 21.4682 22.9189C21.4731 22.9083 21.4781 22.8977 21.483 22.887L25 15H27L30.517 22.888C30.5228 22.9005 30.5287 22.9129 30.5345 22.9253C30.5726 23.0063 30.6102 23.0863 30.644 23.173L30.714 23.331Z" clip-rule="evenodd"/></svg>