<svg xmlns="http://www.w3.org/2000/svg" width="1.5em" height="1.5em" fill="none" viewBox="0 0 24 24"><path fill="currentColor" fill-rule="evenodd" d="M8 7V13.5C8.39782 13.5 8.77936 13.658 9.06066 13.9393C9.34196 14.2206 9.5 14.6022 9.5 15C9.5 15.3978 9.34196 15.7794 9.06066 16.0607C8.77936 16.342 8.39782 16.5 8 16.5V19H5V16.5C4.60218 16.5 4.22064 16.342 3.93934 16.0607C3.65804 15.7794 3.5 15.3978 3.5 15C3.5 14.6022 3.65804 14.2206 3.93934 13.9393C4.22064 13.658 4.60218 13.5 5 13.5V7C5.00079 6.20459 5.31712 5.44199 5.87956 4.87956C6.44199 4.31712 7.20459 4.00079 8 4H15C15.7954 4.00079 16.558 4.31712 17.1204 4.87956C17.6829 5.44199 17.9992 6.20459 18 7V9H15V7H8ZM18.857 15.6655H18.8465C18.9454 15.9327 18.9973 16.2151 19 16.5C19 17.163 18.7366 17.7989 18.2678 18.2678C17.7989 18.7366 17.163 19 16.5 19C15.837 19 15.2011 18.7366 14.7322 18.2678C14.2634 17.7989 14 17.163 14 16.5C14.0027 16.2151 14.0546 15.9327 14.1535 15.6655H14.143L14.178 15.5865C14.1953 15.543 14.2146 15.5015 14.2341 15.4595C14.2366 15.4542 14.239 15.4488 14.2415 15.4435L16 11.5H17L18.7585 15.444C18.7614 15.4502 18.7643 15.4564 18.7672 15.4626C18.7863 15.5032 18.8051 15.5431 18.822 15.5865L18.857 15.6655Z" clip-rule="evenodd"/></svg>