<svg xmlns="http://www.w3.org/2000/svg" width="1.25em" height="1.25em" fill="none" viewBox="0 0 16 15"><path fill="currentColor" fill-rule="evenodd" d="M4.5 3V9.5C4.89782 9.5 5.27936 9.65804 5.56066 9.93934C5.84196 10.2206 6 10.6022 6 11C6 11.3978 5.84196 11.7794 5.56066 12.0607C5.27936 12.342 4.89782 12.5 4.5 12.5V15H1.5V12.5C1.10218 12.5 0.720644 12.342 0.43934 12.0607C0.158035 11.7794 0 11.3978 0 11C0 10.6022 0.158035 10.2206 0.43934 9.93934C0.720644 9.65804 1.10218 9.5 1.5 9.5V3C1.50079 2.20459 1.81712 1.44199 2.37956 0.879557C2.94199 0.31712 3.70459 0.000794172 4.5 0H11.5C12.2954 0.000794172 13.058 0.31712 13.6204 0.879557C14.1829 1.44199 14.4992 2.20459 14.5 3V5H11.5V3H4.5ZM15.357 11.6655H15.3465C15.4454 11.9327 15.4973 12.2151 15.5 12.5C15.5 13.163 15.2366 13.7989 14.7678 14.2678C14.2989 14.7366 13.663 15 13 15C12.337 15 11.7011 14.7366 11.2322 14.2678C10.7634 13.7989 10.5 13.163 10.5 12.5C10.5027 12.2151 10.5546 11.9327 10.6535 11.6655H10.643L10.678 11.5865C10.6953 11.543 10.7146 11.5015 10.7341 11.4595C10.7366 11.4542 10.739 11.4488 10.7415 11.4435L12.5 7.5H13.5L15.2585 11.444C15.2614 11.4502 15.2643 11.4564 15.2672 11.4626C15.2863 11.5032 15.3051 11.5431 15.322 11.5865L15.357 11.6655Z" clip-rule="evenodd"/></svg>