<svg xmlns="http://www.w3.org/2000/svg" width="1.25em" height="1.25em" fill="none" viewBox="0 0 16 16"><path fill="currentColor" fill-rule="evenodd" d="M8.0005 0C8.48494 0 8.95292 0.175834 9.3175 0.494839L16 6.34484V15.8448H0V6.34484L6.6835 0.494839C7.04808 0.175834 7.51606 0 8.0005 0ZM5.22215 13.0022C6.04439 13.5516 7.01109 13.8448 8 13.8448C9.32608 13.8448 10.5979 13.3181 11.5355 12.3804C12.4732 11.4427 13 10.1709 13 8.84484C13 7.85593 12.7068 6.88923 12.1573 6.06699C11.6079 5.24474 10.827 4.60388 9.91342 4.22544C8.99979 3.847 7.99445 3.74799 7.02455 3.94091C6.05464 4.13384 5.16373 4.61004 4.46447 5.3093C3.7652 6.00857 3.289 6.89948 3.09607 7.86939C2.90315 8.83929 3.00216 9.84462 3.3806 10.7583C3.75904 11.6719 4.3999 12.4528 5.22215 13.0022ZM7 5.84484H9V8.43034L10.207 9.63784L8.793 11.0518L7.5855 9.84484C7.21058 9.46977 6.99998 8.96116 7 8.43084V5.84484Z" clip-rule="evenodd"/></svg>