<svg xmlns="http://www.w3.org/2000/svg" width="1.5em" height="1.5em" fill="none" viewBox="0 0 24 24"><path fill="currentColor" fill-rule="evenodd" d="M12.0005 3.65515C12.4849 3.65515 12.9529 3.83099 13.3175 4.14999L20 9.99999V19.5H4V9.99999L10.6835 4.14999C11.0481 3.83099 11.5161 3.65515 12.0005 3.65515ZM9.22215 16.6573C10.0444 17.2067 11.0111 17.5 12 17.5C13.3261 17.5 14.5979 16.9732 15.5355 16.0355C16.4732 15.0978 17 13.8261 17 12.5C17 11.5111 16.7068 10.5444 16.1573 9.72214C15.6079 8.89989 14.827 8.25903 13.9134 7.88059C12.9998 7.50215 11.9945 7.40314 11.0245 7.59606C10.0546 7.78899 9.16373 8.26519 8.46447 8.96446C7.7652 9.66372 7.289 10.5546 7.09607 11.5245C6.90315 12.4944 7.00216 13.4998 7.3806 14.4134C7.75904 15.327 8.3999 16.1079 9.22215 16.6573ZM11 9.49999H13V12.0855L14.207 13.293L12.793 14.707L11.5855 13.5C11.2106 13.1249 11 12.6163 11 12.086V9.49999Z" clip-rule="evenodd"/></svg>