<svg xmlns="http://www.w3.org/2000/svg" width="1.25em" height="1.25em" fill="none" viewBox="0 0 32 32"><path fill="currentColor" fill-rule="evenodd" d="M16.001 0C16.9699 0 17.9058 0.351667 18.635 0.989677L32 12.6897V31.6897H0V12.6897L13.367 0.989677C14.0962 0.351667 15.0321 0 16.001 0ZM10.4443 26.0044C12.0888 27.1032 14.0222 27.6897 16 27.6897C18.6522 27.6897 21.1957 26.6361 23.0711 24.7607C24.9464 22.8854 26 20.3418 26 17.6897C26 15.7119 25.4135 13.7785 24.3147 12.134C23.2159 10.4895 21.6541 9.20776 19.8268 8.45088C17.9996 7.69401 15.9889 7.49597 14.0491 7.88182C12.1093 8.26768 10.3275 9.22008 8.92893 10.6186C7.53041 12.0171 6.578 13.799 6.19215 15.7388C5.80629 17.6786 6.00433 19.6892 6.7612 21.5165C7.51808 23.3438 8.79981 24.9056 10.4443 26.0044ZM14 11.6897H18V16.8607L20.414 19.2757L17.586 22.1037L15.171 19.6897C14.4212 18.9395 14 17.9223 14 16.8617V11.6897Z" clip-rule="evenodd"/></svg>