<svg xmlns="http://www.w3.org/2000/svg" width="1.25em" height="1.25em" fill="none" viewBox="0 0 16 15"><path fill="currentColor" d="M11.5709 9.37826C12.3405 8.07492 12.6081 6.53561 12.3237 5.04899C12.0393 3.56238 11.2224 2.23057 10.0261 1.30331C8.82978 0.376052 7.33632 -0.0829612 5.82575 0.012345C4.31518 0.107651 2.89125 0.750731 1.82099 1.82099C0.750731 2.89125 0.107651 4.31518 0.012345 5.82575C-0.0829612 7.33632 0.376052 8.82978 1.30331 10.0261C2.23057 11.2224 3.56238 12.0393 5.04899 12.3237C6.53561 12.6081 8.07492 12.3405 9.37826 11.5709L12.2019 14.3945C12.3938 14.5865 12.6217 14.7387 12.8725 14.8426C13.1233 14.9465 13.3921 15 13.6636 15C13.935 15 14.2038 14.9465 14.4546 14.8426C14.7054 14.7387 14.9333 14.5865 15.1252 14.3945L15.8559 13.6638L11.5709 9.37826ZM8.81705 8.81705H3.64938V3.64938H8.81705V8.81705Z"/></svg>