<svg xmlns="http://www.w3.org/2000/svg" width="1.5em" height="1.5em" fill="none" viewBox="0 0 24 24"><path fill="currentColor" d="M16.1645 13.543C16.9091 12.282 17.1681 10.7926 16.8929 9.35423C16.6177 7.91585 15.8273 6.62725 14.6698 5.73008C13.5123 4.83291 12.0673 4.38879 10.6058 4.481C9.14419 4.57321 7.76647 5.19543 6.73093 6.23096C5.6954 7.2665 5.07318 8.64422 4.98097 10.1058C4.88876 11.5673 5.33288 13.0123 6.23005 14.1698C7.12722 15.3273 8.41582 16.1177 9.8542 16.3929C11.2926 16.6681 12.7819 16.4091 14.043 15.6645L16.775 18.3965C16.9607 18.5823 17.1812 18.7296 17.4239 18.8301C17.6665 18.9306 17.9266 18.9823 18.1892 18.9823C18.4519 18.9823 18.712 18.9306 18.9546 18.8301C19.1973 18.7296 19.4178 18.5823 19.6035 18.3965L20.3105 17.6895L16.1645 13.543ZM13.5 13H8.5V8.00003H13.5V13Z"/></svg>