<svg xmlns="http://www.w3.org/2000/svg" width="1.5em" height="1.5em" fill="none" viewBox="0 0 24 24"><path stroke="currentColor" stroke-linecap="round" stroke-linejoin="round" stroke-width="1.5" d="M11.9 20.59V18.83C11.9 17.93 11.17 17.2 10.27 17.2H4.73001C3.83001 17.2 3.10001 17.93 3.10001 18.83V20.59"/><path stroke="currentColor" stroke-linecap="round" stroke-linejoin="round" stroke-width="1.5" d="M7.5 14.33C8.81443 14.33 9.88 13.2644 9.88 11.95C9.88 10.6356 8.81443 9.57001 7.5 9.57001C6.18556 9.57001 5.12 10.6356 5.12 11.95C5.12 13.2644 6.18556 14.33 7.5 14.33Z"/><path stroke="currentColor" stroke-linecap="round" stroke-linejoin="round" stroke-width="1.5" d="M16.31 10.83L19.14 12.15L18.77 9.04L20.9 6.74L17.83 6.14L16.31 3.41L14.78 6.14L11.71 6.74L13.84 9.04L13.47 12.15L16.31 10.83Z"/></svg>