<svg xmlns="http://www.w3.org/2000/svg" width="1.5em" height="1.5em" fill="none" viewBox="0 0 24 24"><path stroke="currentColor" stroke-linecap="round" stroke-linejoin="round" stroke-width="1.5" d="M11.9 20.59V18.83C11.9 17.93 11.17 17.2 10.27 17.2H4.73C3.83 17.2 3.1 17.93 3.1 18.83V20.59M7.5 14.33C8.814 14.33 9.88 13.264 9.88 11.95 9.88 10.636 8.814 9.57 7.5 9.57 6.186 9.57 5.12 10.636 5.12 11.95 5.12 13.264 6.186 14.33 7.5 14.33ZM16.31 10.83 19.14 12.15 18.77 9.04 20.9 6.74 17.83 6.14 16.31 3.41 14.78 6.14 11.71 6.74 13.84 9.04 13.47 12.15 16.31 10.83Z"/></svg>