<svg xmlns="http://www.w3.org/2000/svg" width="1.25em" height="1.25em" fill="none" viewBox="0 0 30 30"><path fill="currentColor" d="M27.457 11.289L29.2 10.284L25.985 4.716L24.245 5.721C23.5935 6.09714 22.8545 6.29518 22.1022 6.29522C21.3499 6.29525 20.6109 6.09728 19.9593 5.7212C19.3078 5.34511 18.7667 4.80417 18.3905 4.15273C18.0143 3.50128 17.8161 2.76228 17.816 2.01V0H11.386V2.009C11.386 2.76137 11.188 3.50049 10.8119 4.15208C10.4357 4.80366 9.89465 5.34475 9.24309 5.72095C8.59153 6.09715 7.85242 6.29521 7.10005 6.29521C6.34769 6.29522 5.60857 6.09718 4.957 5.721L3.217 4.716L0 10.284L1.74 11.289C2.39144 11.6651 2.93241 12.206 3.30852 12.8574C3.68463 13.5088 3.88264 14.2478 3.88264 15C3.88264 15.7522 3.68463 16.4912 3.30852 17.1426C2.93241 17.794 2.39144 18.3349 1.74 18.711L0 19.716L3.214 25.284L4.954 24.284C5.60557 23.9078 6.34469 23.7098 7.09705 23.7098C7.84942 23.7098 8.58853 23.9079 9.24009 24.2841C9.89165 24.6603 10.4327 25.2013 10.8089 25.8529C11.185 26.5045 11.383 27.2436 11.383 27.996V30H17.811V27.99C17.8111 27.2377 18.0093 26.4987 18.3855 25.8473C18.7617 25.1958 19.3028 24.6549 19.9543 24.2788C20.6059 23.9027 21.3449 23.7048 22.0972 23.7048C22.8495 23.7048 23.5885 23.9029 24.24 24.279L25.98 25.279L29.2 19.716L27.459 18.711C26.8075 18.3351 26.2663 17.7943 25.8901 17.143C25.5138 16.4917 25.3156 15.7528 25.3154 15.0006C25.3152 14.2484 25.513 13.5094 25.8889 12.8579C26.2648 12.2063 26.8057 11.6653 27.457 11.289ZM17.6 18H11.6V12H17.6V18Z"/></svg>