<svg xmlns="http://www.w3.org/2000/svg" width="1.5em" height="1.5em" fill="none" viewBox="0 0 24 24"><path fill="currentColor" d="M18.4285 10.1445L19.3 9.642L17.6925 6.858L16.8225 7.3605C16.4968 7.54857 16.1273 7.64759 15.7511 7.64761C15.375 7.64762 15.0054 7.54864 14.6797 7.3606C14.3539 7.17256 14.0834 6.90209 13.8953 6.57636C13.7072 6.25064 13.6081 5.88114 13.608 5.505V4.5H10.393V5.5045C10.393 5.88068 10.294 6.25025 10.1059 6.57604C9.91787 6.90183 9.64734 7.17237 9.32156 7.36047C8.99578 7.54857 8.62622 7.6476 8.25004 7.64761C7.87385 7.64761 7.5043 7.54859 7.17851 7.3605L6.30851 6.858L4.70001 9.642L5.57001 10.1445C5.89573 10.3325 6.16622 10.603 6.35427 10.9287C6.54233 11.2544 6.64133 11.6239 6.64133 12C6.64133 12.3761 6.54233 12.7456 6.35427 13.0713C6.16622 13.397 5.89573 13.6675 5.57001 13.8555L4.70001 14.358L6.30701 17.142L7.17701 16.642C7.5028 16.4539 7.87235 16.3549 8.24854 16.3549C8.62472 16.3549 8.99428 16.4539 9.32006 16.642C9.64584 16.8301 9.91637 17.1007 10.1044 17.4265C10.2925 17.7523 10.3915 18.1218 10.3915 18.498V19.5H13.6055V18.495C13.6056 18.1189 13.7047 17.7494 13.8928 17.4236C14.0809 17.0979 14.3514 16.8274 14.6772 16.6394C15.0029 16.4514 15.3725 16.3524 15.7486 16.3524C16.1248 16.3524 16.4943 16.4514 16.82 16.6395L17.69 17.1395L19.3 14.358L18.4295 13.8555C18.1037 13.6676 17.8332 13.3972 17.645 13.0715C17.4569 12.7458 17.3578 12.3764 17.3577 12.0003C17.3576 11.6242 17.4565 11.2547 17.6445 10.9289C17.8324 10.6032 18.1028 10.3326 18.4285 10.1445ZM13.5 13.5H10.5V10.5H13.5V13.5Z"/></svg>