<svg xmlns="http://www.w3.org/2000/svg" width="1.5em" height="1.5em" fill="none" viewBox="0 0 24 24"><path stroke="currentColor" stroke-linecap="round" stroke-linejoin="round" stroke-width="1.5" d="M19.49 9.83999L20.51 9.24999L18.64 6.00999L17.63 6.59999C16.44 7.28999 14.91 6.87999 14.22 5.68999C14 5.30999 13.89 4.87999 13.89 4.43999V3.26999H10.14V4.43999C10.14 5.81999 9.02001 6.93999 7.64001 6.93999C7.20001 6.93999 6.77001 6.81999 6.39001 6.60999L5.38001 6.01999L3.51001 9.25999L4.52001 9.84999C5.71001 10.54 6.12001 12.07 5.43001 13.26C5.21001 13.64 4.90001 13.95 4.52001 14.17L3.51001 14.76L5.38001 18L6.39001 17.42C7.58001 16.73 9.11001 17.14 9.80001 18.33C10.02 18.71 10.13 19.14 10.13 19.58V20.75H13.87V19.58C13.87 18.2 14.99 17.08 16.37 17.08C16.81 17.08 17.24 17.2 17.62 17.41L18.63 17.99L20.51 14.75L19.5 14.16C18.31 13.47 17.9 11.94 18.59 10.75C18.81 10.37 19.12 10.06 19.5 9.83999H19.49Z"/><path stroke="currentColor" stroke-linecap="round" stroke-linejoin="round" stroke-width="1.5" d="M12 14.31C13.2758 14.31 14.31 13.2758 14.31 12C14.31 10.7242 13.2758 9.69 12 9.69C10.7242 9.69 9.69 10.7242 9.69 12C9.69 13.2758 10.7242 14.31 12 14.31Z"/></svg>