<svg xmlns="http://www.w3.org/2000/svg" width="1.5em" height="1.5em" fill="none" viewBox="0 0 24 24"><path stroke="currentColor" stroke-linecap="round" stroke-linejoin="round" stroke-width="1.5" d="M19.49 9.84002L20.51 9.25002L18.64 6.01002L17.63 6.60002C16.44 7.29002 14.91 6.88002 14.22 5.69002C14 5.31002 13.89 4.88002 13.89 4.44002V3.27002H10.14V4.44002C10.14 5.82002 9.02001 6.94002 7.64001 6.94002C7.20001 6.94002 6.77001 6.82002 6.39001 6.61002L5.38001 6.02002L3.51001 9.26002L4.52001 9.85002C5.71001 10.54 6.12001 12.07 5.43001 13.26C5.21001 13.64 4.90001 13.95 4.52001 14.17L3.51001 14.76L5.38001 18L6.39001 17.42C7.58001 16.73 9.11001 17.14 9.80001 18.33C10.02 18.71 10.13 19.14 10.13 19.58V20.75H13.87V19.58C13.87 18.2 14.99 17.08 16.37 17.08C16.81 17.08 17.24 17.2 17.62 17.41L18.63 17.99L20.51 14.75L19.5 14.16C18.31 13.47 17.9 11.94 18.59 10.75C18.81 10.37 19.12 10.06 19.5 9.84002H19.49Z"/><path stroke="currentColor" stroke-linecap="round" stroke-linejoin="round" stroke-width="1.5" d="M12 14.3101C13.2758 14.3101 14.31 13.2758 14.31 12.0001C14.31 10.7243 13.2758 9.69006 12 9.69006C10.7242 9.69006 9.69 10.7243 9.69 12.0001C9.69 13.2758 10.7242 14.3101 12 14.3101Z"/></svg>