<svg xmlns="http://www.w3.org/2000/svg" width="1.25em" height="1.25em" fill="none" viewBox="0 0 15 15"><path fill="currentColor" d="M13.7285 5.6445L14.6 5.142L12.9925 2.358L12.1225 2.8605C11.7968 3.04857 11.4272 3.14759 11.0511 3.14761C10.675 3.14762 10.3054 3.04864 9.97967 2.8606C9.6539 2.67256 9.38337 2.40209 9.19526 2.07636C9.00714 1.75064 8.90807 1.38114 8.908 1.005V0H5.693V1.0045C5.69302 1.38068 5.59401 1.75025 5.40593 2.07604C5.21785 2.40183 4.94733 2.67237 4.62155 2.86047C4.29577 3.04857 3.92621 3.1476 3.55003 3.14761C3.17384 3.14761 2.80429 3.04859 2.4785 2.8605L1.6085 2.358L0 5.142L0.87 5.6445C1.19572 5.83254 1.4662 6.10301 1.65426 6.42871C1.84232 6.75442 1.94132 7.1239 1.94132 7.5C1.94132 7.8761 1.84232 8.24558 1.65426 8.57129C1.4662 8.89699 1.19572 9.16746 0.87 9.3555L0 9.858L1.607 12.642L2.477 12.142C2.80279 11.9539 3.17234 11.8549 3.54853 11.8549C3.92471 11.8549 4.29427 11.9539 4.62005 12.142C4.94583 12.3301 5.21635 12.6007 5.40443 12.9265C5.59251 13.2523 5.69152 13.6218 5.6915 13.998V15H8.9055V13.995C8.90557 13.6189 9.00464 13.2494 9.19275 12.9236C9.38087 12.5979 9.6514 12.3274 9.97717 12.1394C10.3029 11.9514 10.6725 11.8524 11.0486 11.8524C11.4247 11.8524 11.7943 11.9514 12.12 12.1395L12.99 12.6395L14.6 9.858L13.7295 9.3555C13.4037 9.16755 13.1332 8.89716 12.945 8.5715C12.7569 8.24584 12.6578 7.87639 12.6577 7.50029C12.6576 7.12419 12.7565 6.75469 12.9445 6.42893C13.1324 6.10317 13.4028 5.83263 13.7285 5.6445ZM8.8 9H5.8V6H8.8V9Z"/></svg>