<svg xmlns="http://www.w3.org/2000/svg" width="1.25em" height="1.25em" fill="none" viewBox="0 0 33 29"><path fill="currentColor" d="M8 0H0V4H5.165L10.576 19.378C9.9449 19.9756 9.48078 20.7277 9.22956 21.5598C8.97834 22.3919 8.94873 23.2751 9.14365 24.1222C9.33857 24.9692 9.75127 25.7506 10.3409 26.3892C10.9306 27.0278 11.6767 27.5013 12.5056 27.763C13.3344 28.0247 14.2172 28.0654 15.0667 27.8812C15.9161 27.697 16.7027 27.2941 17.3486 26.7126C17.9946 26.131 18.4775 25.3909 18.7496 24.5654C19.0217 23.7399 19.0735 22.8577 18.9 22.006H23.1C23.0328 22.3351 22.9993 22.6701 23 23.006C23 23.9949 23.2932 24.9616 23.8427 25.7839C24.3921 26.6061 25.173 27.247 26.0866 27.6254C27.0002 28.0038 28.0055 28.1029 28.9755 27.9099C29.9454 27.717 30.8363 27.2408 31.5355 26.5415C32.2348 25.8423 32.711 24.9514 32.9039 23.9815C33.0969 23.0115 32.9978 22.0062 32.6194 21.0926C32.241 20.179 31.6001 19.3981 30.7779 18.8487C29.9556 18.2992 28.9889 18.006 28 18.006C27.983 18.006 27.968 18.006 27.951 18.006H14.333L12.924 14.006H28C29.0609 14.006 30.0783 13.5846 30.8284 12.8344C31.5786 12.0843 32 11.0669 32 10.006V4.006H9.406L8 0.00599957V0Z"/></svg>