<svg xmlns="http://www.w3.org/2000/svg" width="1.5em" height="1.5em" fill="none" viewBox="0 0 24 24"><path stroke="currentColor" stroke-linecap="round" stroke-linejoin="round" stroke-width="1.5" d="M21 16.91C21 15.673 19.997 14.67 18.76 14.67 17.523 14.67 16.52 15.673 16.52 16.91 16.52 18.147 17.523 19.15 18.76 19.15 19.997 19.15 21 18.147 21 16.91ZM13.65 16.91C13.65 15.673 12.647 14.67 11.41 14.67 10.173 14.67 9.17 15.673 9.17 16.91 9.17 18.147 10.173 19.15 11.41 19.15 12.647 19.15 13.65 18.147 13.65 16.91ZM9.21 11.94H18.55C19.66 11.94 20.57 11.03 20.57 9.92V6.78H7.01"/><path stroke="currentColor" stroke-linecap="round" stroke-linejoin="round" stroke-width="1.5" d="M9.84 14.86 6.3 4.75H2.99M18.76 14.67H11.51"/></svg>