<svg xmlns="http://www.w3.org/2000/svg" width="1.5em" height="1.5em" fill="none" viewBox="0 0 24 24"><path fill="currentColor" d="M7.5 4.99701H3.5V6.99701H6.0825L8.788 14.686C8.47245 14.9848 8.24039 15.3609 8.11478 15.7769C7.98917 16.1929 7.97436 16.6346 8.07183 17.0581C8.16929 17.4816 8.37564 17.8723 8.67046 18.1916C8.96529 18.5109 9.33837 18.7477 9.75279 18.8785C10.1672 19.0094 10.6086 19.0297 11.0333 18.9376C11.458 18.8455 11.8513 18.6441 12.1743 18.3533C12.4973 18.0625 12.7387 17.6924 12.8748 17.2797C13.0108 16.867 13.0368 16.4258 12.95 16H15.05C15.0164 16.1645 14.9996 16.3321 15 16.5C15 16.9945 15.1466 17.4778 15.4213 17.8889C15.696 18.3001 16.0865 18.6205 16.5433 18.8097C17.0001 18.9989 17.5028 19.0484 17.9877 18.952C18.4727 18.8555 18.9181 18.6174 19.2678 18.2678C19.6174 17.9181 19.8555 17.4727 19.952 16.9877C20.0484 16.5028 19.9989 16.0001 19.8097 15.5433C19.6205 15.0865 19.3 14.696 18.8889 14.4213C18.4778 14.1466 17.9945 14 17.5 14C17.4915 14 17.484 14 17.4755 14H10.6665L9.962 12H17.5C18.0304 12 18.5391 11.7893 18.9142 11.4142C19.2893 11.0391 19.5 10.5304 19.5 10V7.00001H8.203L7.5 5.00001V4.99701Z"/></svg>