<svg xmlns="http://www.w3.org/2000/svg" width="1.25em" height="1.25em" fill="none" viewBox="0 0 17 15"><path fill="currentColor" d="M4.12121 0H0V2.06061H2.66076L5.44824 9.98261C5.12313 10.2905 4.88404 10.6779 4.75462 11.1066C4.62521 11.5352 4.60995 11.9902 4.71037 12.4266C4.81078 12.8629 5.02338 13.2655 5.32714 13.5944C5.6309 13.9234 6.01529 14.1674 6.44227 14.3022C6.86925 14.437 7.32403 14.458 7.76161 14.363C8.19919 14.2681 8.60441 14.0606 8.93717 13.761C9.26993 13.4614 9.51871 13.0801 9.65888 12.6549C9.79905 12.2296 9.82576 11.7752 9.73636 11.3364H11.9C11.8654 11.5059 11.8481 11.6786 11.8485 11.8516C11.8485 12.361 11.9995 12.859 12.2826 13.2826C12.5656 13.7062 12.9679 14.0363 13.4385 14.2313C13.9092 14.4262 14.4271 14.4772 14.9267 14.3778C15.4264 14.2785 15.8854 14.0331 16.2456 13.6729C16.6058 13.3127 16.8511 12.8537 16.9505 12.3541C17.0499 11.8544 16.9989 11.3365 16.8039 10.8659C16.609 10.3952 16.2788 9.99294 15.8553 9.70991C15.4317 9.42688 14.9337 9.27582 14.4242 9.27582C14.4155 9.27582 14.4078 9.27582 14.399 9.27582H7.38367L6.65782 7.21521H14.4242C14.9707 7.21521 15.4949 6.99811 15.8813 6.61167C16.2677 6.22524 16.4848 5.70111 16.4848 5.15461V2.0637H4.84552L4.12121 0.00309069V0Z"/></svg>