<svg xmlns="http://www.w3.org/2000/svg" width="1.5em" height="1.5em" fill="none" viewBox="0 0 24 24"><path stroke="currentColor" stroke-linecap="round" stroke-linejoin="round" stroke-width="1.5" d="M21 16.91C21 15.6729 19.9971 14.67 18.76 14.67C17.5229 14.67 16.52 15.6729 16.52 16.91C16.52 18.1471 17.5229 19.15 18.76 19.15C19.9971 19.15 21 18.1471 21 16.91Z"/><path stroke="currentColor" stroke-linecap="round" stroke-linejoin="round" stroke-width="1.5" d="M13.65 16.91C13.65 15.6729 12.6471 14.67 11.41 14.67C10.1729 14.67 9.16998 15.6729 9.16998 16.91C9.16998 18.1471 10.1729 19.15 11.41 19.15C12.6471 19.15 13.65 18.1471 13.65 16.91Z"/><path stroke="currentColor" stroke-linecap="round" stroke-linejoin="round" stroke-width="1.5" d="M9.21001 11.94H18.55C19.66 11.94 20.57 11.03 20.57 9.92V6.78H7.01001"/><path stroke="currentColor" stroke-linecap="round" stroke-linejoin="round" stroke-width="1.5" d="M9.83999 14.86L6.29999 4.75H2.98999"/><path stroke="currentColor" stroke-linecap="round" stroke-linejoin="round" stroke-width="1.5" d="M18.76 14.67H11.51"/></svg>