<svg xmlns="http://www.w3.org/2000/svg" width="1.5em" height="1.5em" fill="none" viewBox="0 0 24 24"><path stroke="currentColor" stroke-linecap="round" stroke-linejoin="round" stroke-width="1.5" d="M21 16.91C21 15.6729 19.9971 14.67 18.76 14.67 17.5229 14.67 16.52 15.6729 16.52 16.91 16.52 18.1471 17.5229 19.15 18.76 19.15 19.9971 19.15 21 18.1471 21 16.91ZM13.65 16.91C13.65 15.6729 12.6471 14.67 11.41 14.67 10.1729 14.67 9.16998 15.6729 9.16998 16.91 9.16998 18.1471 10.1729 19.15 11.41 19.15 12.6471 19.15 13.65 18.1471 13.65 16.91ZM9.21001 11.94H18.55C19.66 11.94 20.57 11.03 20.57 9.92003V6.78003H7.01001"/><path stroke="currentColor" stroke-linecap="round" stroke-linejoin="round" stroke-width="1.5" d="M9.83999 14.86 6.29999 4.75H2.98999M18.76 14.67H11.51"/></svg>