<svg xmlns="http://www.w3.org/2000/svg" width="1.5em" height="1.5em" fill="none" viewBox="0 0 24 24"><g clip-path="url(#clip0_39_335)"><path stroke="currentColor" stroke-linecap="round" stroke-linejoin="round" stroke-width="1.5" d="M17 4L20 7"/><path stroke="currentColor" stroke-linecap="round" stroke-linejoin="round" stroke-width="1.5" d="M18.5 5.5L10.5 13.5"/><path stroke="currentColor" stroke-linecap="round" stroke-linejoin="round" stroke-width="1.5" d="M8.27599 11.284L12.716 15.724C12.8059 15.8139 12.8772 15.9206 12.9258 16.0381C12.9745 16.1555 12.9995 16.2814 12.9995 16.4085C12.9995 16.5356 12.9745 16.6615 12.9258 16.779C12.8772 16.8964 12.8059 17.0031 12.716 17.093L10.012 19.797C9.24007 20.5603 8.19741 20.987 7.11185 20.9839C6.02629 20.9808 4.98609 20.5481 4.21855 19.7805C3.45101 19.0128 3.01853 17.9725 3.01561 16.8869C3.01269 15.8014 3.43958 14.7588 4.20299 13.987L6.90699 11.284C6.99689 11.194 7.10367 11.1225 7.22121 11.0738C7.33875 11.0251 7.46474 11 7.59199 11C7.71923 11 7.84523 11.0251 7.96277 11.0738C8.0803 11.1225 8.18708 11.194 8.27699 11.284H8.27599Z"/></g><defs><clipPath id="clip0_39_335"><rect width="24" height="24" fill="currentColor"/></clipPath></defs></svg>