<svg xmlns="http://www.w3.org/2000/svg" width="1.5em" height="1.5em" fill="none" viewBox="0 0 24 24"><path stroke="currentColor" stroke-linecap="round" stroke-linejoin="round" stroke-width="1.5" d="M16 12V6C16 5.46957 15.7893 4.96086 15.4142 4.58579 15.0391 4.21071 14.5304 4 14 4 13.4696 4 12.9609 4.21071 12.5858 4.58579 12.2107 4.96086 12 5.46957 12 6V12H18C18.3956 12 18.7822 11.8827 19.1111 11.6629 19.44 11.4432 19.6964 11.1308 19.8478 10.7654 19.9991 10.3999 20.0387 9.99778 19.9616 9.60982 19.8844 9.22186 19.6939 8.86549 19.4142 8.58579 19.1345 8.30608 18.7781 8.1156 18.3902 8.03843 18.0022 7.96126 17.6001 8.00087 17.2346 8.15224 16.8692 8.30362 16.5568 8.55996 16.3371 8.88886 16.1173 9.21776 16 9.60444 16 10M12 16H18C18.5304 16 19.0391 15.7893 19.4142 15.4142 19.7893 15.0391 20 14.5304 20 14 20 13.4696 19.7893 12.9609 19.4142 12.5858 19.0391 12.2107 18.5304 12 18 12H12V18C12 18.3956 12.1173 18.7822 12.3371 19.1111 12.5568 19.44 12.8692 19.6964 13.2346 19.8478 13.6001 19.9991 14.0022 20.0387 14.3902 19.9616 14.7781 19.8844 15.1345 19.6939 15.4142 19.4142 15.6939 19.1345 15.8844 18.7781 15.9616 18.3902 16.0387 18.0022 15.9991 17.6001 15.8478 17.2346 15.6964 16.8692 15.44 16.5568 15.1111 16.3371 14.7822 16.1173 14.3956 16 14 16M8 12V18C8 18.5304 8.21072 19.0391 8.58579 19.4142 8.96086 19.7893 9.46957 20 10 20 10.5304 20 11.0391 19.7893 11.4142 19.4142 11.7893 19.0391 12 18.5304 12 18V12H6C5.60444 12 5.21776 12.1173 4.88886 12.3371 4.55996 12.5568 4.30362 12.8692 4.15224 13.2346 4.00087 13.6001 3.96126 14.0022 4.03843 14.3902 4.1156 14.7781 4.30608 15.1345 4.58579 15.4142 4.86549 15.6939 5.22186 15.8844 5.60982 15.9616 5.99778 16.0387 6.39992 15.9991 6.76537 15.8478 7.13082 15.6964 7.44318 15.44 7.66294 15.1111 7.8827 14.7822 8 14.3956 8 14M12 8H6C5.46957 8 4.96086 8.21072 4.58579 8.58579 4.21071 8.96086 4 9.46957 4 10 4 10.5304 4.21071 11.0391 4.58579 11.4142 4.96086 11.7893 5.46957 12 6 12H12V6C12 5.60444 11.8827 5.21776 11.6629 4.88886 11.4432 4.55996 11.1308 4.30362 10.7654 4.15224 10.3999 4.00087 9.99778 3.96126 9.60982 4.03843 9.22186 4.1156 8.86549 4.30608 8.58579 4.58579 8.30608 4.86549 8.1156 5.22186 8.03843 5.60982 7.96126 5.99778 8.00087 6.39992 8.15224 6.76537 8.30362 7.13082 8.55996 7.44318 8.88886 7.66294 9.21776 7.8827 9.60444 8 10 8"/></svg>