<svg xmlns="http://www.w3.org/2000/svg" width="1.5em" height="1.5em" fill="none" viewBox="0 0 24 24"><path stroke="currentColor" stroke-linecap="round" stroke-linejoin="round" stroke-width="1.5" d="M16 12V6C16 5.47 15.789 4.961 15.414 4.586 15.039 4.211 14.53 4 14 4 13.47 4 12.961 4.211 12.586 4.586 12.211 4.961 12 5.47 12 6V12H18C18.396 12 18.782 11.883 19.111 11.663 19.44 11.443 19.696 11.131 19.848 10.765 19.999 10.4 20.039 9.998 19.962 9.61 19.884 9.222 19.694 8.865 19.414 8.586 19.135 8.306 18.778 8.116 18.39 8.038 18.002 7.961 17.6 8.001 17.235 8.152 16.869 8.304 16.557 8.56 16.337 8.889 16.117 9.218 16 9.604 16 10M12 16H18C18.53 16 19.039 15.789 19.414 15.414 19.789 15.039 20 14.53 20 14 20 13.47 19.789 12.961 19.414 12.586 19.039 12.211 18.53 12 18 12H12V18C12 18.396 12.117 18.782 12.337 19.111 12.557 19.44 12.869 19.696 13.235 19.848 13.6 19.999 14.002 20.039 14.39 19.962 14.778 19.884 15.135 19.694 15.414 19.414 15.694 19.135 15.884 18.778 15.962 18.39 16.039 18.002 15.999 17.6 15.848 17.235 15.696 16.869 15.44 16.557 15.111 16.337 14.782 16.117 14.396 16 14 16M8 12V18C8 18.53 8.211 19.039 8.586 19.414 8.961 19.789 9.47 20 10 20 10.53 20 11.039 19.789 11.414 19.414 11.789 19.039 12 18.53 12 18V12H6C5.604 12 5.218 12.117 4.889 12.337 4.56 12.557 4.304 12.869 4.152 13.235 4.001 13.6 3.961 14.002 4.038 14.39 4.116 14.778 4.306 15.135 4.586 15.414 4.865 15.694 5.222 15.884 5.61 15.962 5.998 16.039 6.4 15.999 6.765 15.848 7.131 15.696 7.443 15.44 7.663 15.111 7.883 14.782 8 14.396 8 14M12 8H6C5.47 8 4.961 8.211 4.586 8.586 4.211 8.961 4 9.47 4 10 4 10.53 4.211 11.039 4.586 11.414 4.961 11.789 5.47 12 6 12H12V6C12 5.604 11.883 5.218 11.663 4.889 11.443 4.56 11.131 4.304 10.765 4.152 10.4 4.001 9.998 3.961 9.61 4.038 9.222 4.116 8.865 4.306 8.586 4.586 8.306 4.865 8.116 5.222 8.038 5.61 7.961 5.998 8.001 6.4 8.152 6.765 8.304 7.131 8.56 7.443 8.889 7.663 9.218 7.883 9.604 8 10 8"/></svg>