<svg xmlns="http://www.w3.org/2000/svg" width="1.25em" height="1.25em" fill="none" viewBox="0 0 32 32"><path fill="currentColor" d="M27.1 23.3231C25.9041 22.4009 24.9094 21.2439 24.177 19.9231C23.4538 18.7563 22.6164 17.6642 21.677 16.6631C20.069 15.0998 18.1283 13.9204 16 13.2131V6.34215L10.828 1.17115C10.0779 0.421262 9.06066 0 8 0C6.93934 0 5.92211 0.421262 5.172 1.17115L0 6.34215V31.3421H4V27.3421H12V31.3421H16V19.7961C16.5204 20.1072 17.0021 20.4788 17.435 20.9031C18.0862 21.6289 18.6709 22.4117 19.182 23.2421C20.371 25.3253 22.0186 27.1104 24 28.4621C26.67 30.0711 28.625 30.3421 32 30.3421V24.3421C29.271 24.3421 28.538 24.1901 27.1 23.3231ZM8 8.34215C8.59334 8.34215 9.17336 8.51809 9.66671 8.84774C10.1601 9.17738 10.5446 9.64592 10.7716 10.1941C10.9987 10.7423 11.0581 11.3455 10.9424 11.9274C10.8266 12.5094 10.5409 13.0439 10.1213 13.4635C9.70176 13.883 9.16722 14.1687 8.58527 14.2845C8.00333 14.4003 7.40013 14.3408 6.85195 14.1138C6.30377 13.8867 5.83524 13.5022 5.50559 13.0089C5.17595 12.5155 5 11.9355 5 11.3421C5 10.5465 5.31607 9.78343 5.87868 9.22083C6.44129 8.65822 7.20435 8.34215 8 8.34215ZM12 23.3421H4V19.3421H12V23.3421Z"/></svg>