<svg xmlns="http://www.w3.org/2000/svg" width="1.5em" height="1.5em" fill="none" viewBox="0 0 24 24"><path fill="currentColor" d="M17.55 15.4905C16.9521 15.0294 16.4547 14.4508 16.0885 13.7905C15.7269 13.2071 15.3082 12.661 14.8385 12.1605C14.0345 11.3788 13.0641 10.7891 12 10.4355V6.99999L9.414 4.41449C9.03894 4.03955 8.53033 3.82892 8 3.82892C7.46967 3.82892 6.96106 4.03955 6.586 4.41449L4 6.99999V19.5H6V17.5H10V19.5H12V13.727C12.2602 13.8825 12.501 14.0683 12.7175 14.2805C13.0431 14.6434 13.3355 15.0348 13.591 15.45C14.1855 16.4916 15.0093 17.3841 16 18.06C17.335 18.8645 18.3125 19 20 19V16C18.6355 16 18.269 15.924 17.55 15.4905ZM8 7.99999C8.29667 7.99999 8.58668 8.08796 8.83335 8.25279C9.08003 8.41761 9.27229 8.65188 9.38582 8.92597C9.49935 9.20006 9.52906 9.50166 9.47118 9.79263C9.4133 10.0836 9.27044 10.3509 9.06066 10.5607C8.85088 10.7704 8.58361 10.9133 8.29264 10.9712C8.00166 11.029 7.70006 10.9993 7.42597 10.8858C7.15189 10.7723 6.91762 10.58 6.7528 10.3333C6.58797 10.0867 6.5 9.79666 6.5 9.49999C6.5 9.10217 6.65804 8.72064 6.93934 8.43933C7.22064 8.15803 7.60218 7.99999 8 7.99999ZM10 15.5H6V13.5H10V15.5Z"/></svg>