<svg xmlns="http://www.w3.org/2000/svg" width="1.5em" height="1.5em" fill="none" viewBox="0 0 24 24"><path stroke="currentColor" stroke-linecap="round" stroke-linejoin="round" stroke-width="1.5" d="M3 21.29V6.45002L7.43 2.65002 11.85 6.45002V21.29M3.2 15.09H11.66M3.2 18.37H11.66M11.85 12.21H13.02C14.18 12.21 15.21 12.94 15.59 14.03L17.53 19.47C17.92 20.56 18.95 21.29 20.1 21.29H21.27"/><path stroke="currentColor" stroke-linecap="round" stroke-linejoin="round" stroke-width="1.5" d="M9.01 8.87001C9.01 7.98083 8.28918 7.26001 7.4 7.26001C6.51082 7.26001 5.79 7.98083 5.79 8.87001C5.79 9.75919 6.51082 10.48 7.4 10.48C8.28918 10.48 9.01 9.75919 9.01 8.87001Z"/></svg>