<svg xmlns="http://www.w3.org/2000/svg" width="1.25em" height="1.25em" fill="none" viewBox="0 0 16 16"><path fill="currentColor" d="M13.55 11.6616C12.9521 11.2004 12.4547 10.6219 12.0885 9.96157C11.7269 9.37813 11.3082 8.83211 10.8385 8.33157C10.0345 7.54989 9.06414 6.96018 8 6.60657V3.17107L5.414 0.585573C5.03894 0.210631 4.53033 0 4 0C3.46967 0 2.96106 0.210631 2.586 0.585573L0 3.17107V15.6711H2V13.6711H6V15.6711H8V9.89807C8.26019 10.0536 8.50103 10.2394 8.7175 10.4516C9.04312 10.8144 9.33546 11.2059 9.591 11.6211C10.1855 12.6626 11.0093 13.5552 12 14.2311C13.335 15.0356 14.3125 15.1711 16 15.1711V12.1711C14.6355 12.1711 14.269 12.0951 13.55 11.6616ZM4 4.17107C4.29667 4.17107 4.58668 4.25905 4.83335 4.42387C5.08003 4.58869 5.27229 4.82296 5.38582 5.09705C5.49935 5.37114 5.52906 5.67274 5.47118 5.96371C5.4133 6.25468 5.27044 6.52195 5.06066 6.73173C4.85088 6.94151 4.58361 7.08437 4.29264 7.14225C4.00166 7.20013 3.70006 7.17042 3.42597 7.05689C3.15189 6.94336 2.91762 6.7511 2.7528 6.50443C2.58797 6.25775 2.5 5.96774 2.5 5.67107C2.5 5.27325 2.65804 4.89172 2.93934 4.61041C3.22064 4.32911 3.60218 4.17107 4 4.17107ZM6 11.6711H2V9.67107H6V11.6711Z"/></svg>