<svg xmlns="http://www.w3.org/2000/svg" width="1.5em" height="1.5em" fill="none" viewBox="0 0 24 24"><path fill="currentColor" fill-rule="evenodd" d="M8.54999 8.275L12.635 4.33C13.895 3.07 16.05 3.96 16.05 5.745V9.47C12.77 9.725 10.175 12.455 10.145 15.795L8.54999 14.275H3.04999V10.275C3.04999 9.17 3.94499 8.275 5.04999 8.275H8.54999ZM19.6596 12.7396C19.4649 12.5399 19.2452 12.3602 19.0106 12.2004C19.0104 12.2003 19.0102 12.2001 19.01 12.2C18.895 12.12 18.77 12.045 18.645 11.98C18.395 11.845 18.13 11.73 17.855 11.645C17.44 11.515 17 11.445 16.545 11.445C16.375 11.445 16.21 11.455 16.045 11.475C13.845 11.725 12.14 13.585 12.14 15.85C12.14 16.82 12.46 17.72 12.99 18.445C13.79 19.54 15.085 20.255 16.545 20.255C17 20.255 17.44 20.185 17.855 20.055C18.13 19.97 18.395 19.855 18.645 19.72C18.77 19.65 18.89 19.58 19.01 19.5C19.245 19.34 19.465 19.16 19.66 18.96C19.86 18.76 20.04 18.54 20.2 18.31C20.44 17.96 20.625 17.57 20.755 17.155C20.885 16.74 20.955 16.3 20.955 15.845C20.955 15.39 20.885 14.95 20.755 14.535V14.545C20.625 14.13 20.44 13.745 20.2 13.39C20.04 13.155 19.86 12.935 19.66 12.74C19.6599 12.7399 19.6597 12.7397 19.6596 12.7396ZM17.81 18.095L18.785 17.12L17.52 15.855L18.785 14.59L17.81 13.615L16.545 14.88L16.045 14.38L15.28 13.615L14.305 14.59L15.57 15.855L14.305 17.12L15.28 18.095L15.925 17.45L16.545 16.83L17.81 18.095Z" clip-rule="evenodd"/></svg>