<svg xmlns="http://www.w3.org/2000/svg" width="1.5em" height="1.5em" fill="none" viewBox="0 0 24 24"><path stroke="currentColor" stroke-linecap="round" stroke-linejoin="round" stroke-width="1.5" d="M6 15H4C3.73478 15 3.48043 14.8946 3.29289 14.7071 3.10536 14.5196 3 14.2652 3 14V10C3 9.73479 3.10536 9.48043 3.29289 9.2929 3.48043 9.10536 3.73478 9 4 9H6L9.5 4.5C9.5874 4.33023 9.73265 4.19733 9.90949 4.1253 10.0863 4.05327 10.2831 4.04686 10.4643 4.10725 10.6454 4.16763 10.799 4.29081 10.8972 4.45454 10.9955 4.61827 11.0319 4.81175 11 5V19C11.0319 19.1883 10.9955 19.3817 10.8972 19.5455 10.799 19.7092 10.6454 19.8324 10.4643 19.8928 10.2831 19.9531 10.0863 19.9467 9.90949 19.8747 9.73265 19.8027 9.5874 19.6698 9.5 19.5L6 15ZM16 10 20 14M20 10 16 14"/></svg>