<svg xmlns="http://www.w3.org/2000/svg" width="1.25em" height="1.25em" fill="none" viewBox="0 0 18 17"><path fill="currentColor" fill-rule="evenodd" d="M5.52917 4.55937L9.63584 0.593442C10.9025 -0.673241 13.069 0.22148 13.069 2.01595V5.76071C9.77156 6.01706 7.16279 8.76154 7.13263 12.1193L5.52917 10.5912H0V6.56998C0 5.45911 0.899748 4.55937 2.01061 4.55937H5.52917ZM16.6977 9.04765C16.5019 8.84691 16.2811 8.66622 16.0452 8.50558C16.0451 8.50545 16.0449 8.50533 16.0447 8.5052C15.9291 8.42477 15.8034 8.34938 15.6777 8.28403C15.4264 8.14832 15.16 8.03271 14.8836 7.94726C14.4664 7.81657 14.024 7.74619 13.5666 7.74619C13.3957 7.74619 13.2298 7.75625 13.064 7.77635C10.8523 8.02768 9.13824 9.89755 9.13824 12.1746C9.13824 13.1497 9.45994 14.0545 9.99275 14.7833C10.797 15.8841 12.0989 16.6029 13.5666 16.6029C14.024 16.6029 14.4664 16.5326 14.8836 16.4019C15.16 16.3164 15.4264 16.2008 15.6777 16.0651C15.8034 15.9947 15.924 15.9243 16.0447 15.8439C16.2809 15.6831 16.5021 15.5021 16.6981 15.3011C16.8992 15.1 17.0801 14.8788 17.241 14.6476C17.4823 14.2958 17.6682 13.9037 17.7989 13.4865C17.9296 13.0693 18 12.6269 18 12.1695C18 11.7121 17.9296 11.2698 17.7989 10.8526V10.8626C17.6682 10.4454 17.4823 10.0584 17.241 9.70151C17.0801 9.46527 16.8992 9.2441 16.6981 9.04807C16.698 9.04793 16.6979 9.04778 16.6977 9.04765ZM14.8383 14.4315L15.8185 13.4513L14.5468 12.1796L15.8185 10.9079L14.8383 9.9277L13.5666 11.1994L13.064 10.6968L12.2949 9.9277L11.3147 10.9079L12.5864 12.1796L11.3147 13.4513L12.2949 14.4315L12.9433 13.783L13.5666 13.1598L14.8383 14.4315Z" clip-rule="evenodd"/></svg>