<svg xmlns="http://www.w3.org/2000/svg" width="1.5em" height="1.5em" fill="none" viewBox="0 0 24 24"><path stroke="currentColor" stroke-linecap="round" stroke-linejoin="round" stroke-width="1.5" d="M6 15H4C3.735 15 3.48 14.895 3.293 14.707 3.105 14.52 3 14.265 3 14V10C3 9.735 3.105 9.48 3.293 9.293 3.48 9.105 3.735 9 4 9H6L9.5 4.5C9.587 4.33 9.733 4.197 9.909 4.125 10.086 4.053 10.283 4.047 10.464 4.107 10.645 4.168 10.799 4.291 10.897 4.455 10.996 4.618 11.032 4.812 11 5V19C11.032 19.188 10.996 19.382 10.897 19.546 10.799 19.709 10.645 19.832 10.464 19.893 10.283 19.953 10.086 19.947 9.909 19.875 9.733 19.803 9.587 19.67 9.5 19.5L6 15ZM16 10 20 14M20 10 16 14"/></svg>