<svg xmlns="http://www.w3.org/2000/svg" width="1.5em" height="1.5em" fill="none" viewBox="0 0 24 24"><path stroke="currentColor" stroke-linecap="round" stroke-linejoin="round" stroke-width="1.5" d="M17.03 3.12 17.72 4.84C17.98 5.49 18.5 6.01 19.15 6.27L20.87 6.96C21.03 7.03 21.03 7.26 20.87 7.33L19.15 8.02C18.5 8.28 17.98 8.8 17.72 9.45L17.03 11.17C16.96 11.33 16.73 11.33 16.66 11.17L15.97 9.45C15.71 8.8 15.19 8.28 14.54 8.02L12.82 7.33C12.66 7.26 12.66 7.03 12.82 6.96L14.54 6.27C15.19 6.01 15.71 5.49 15.97 4.84L16.66 3.12C16.73 2.96 16.96 2.96 17.03 3.12ZM9.37 8.97 10.44 11.61C10.8 12.5 11.5 13.2 12.39 13.56L15.03 14.63C15.27 14.73 15.27 15.07 15.03 15.17L12.39 16.24C11.5 16.6 10.8 17.3 10.44 18.19L9.37 20.83C9.27 21.07 8.93 21.07 8.83 20.83L7.76 18.19C7.4 17.3 6.7 16.6 5.81 16.24L3.17 15.17C2.93 15.07 2.93 14.73 3.17 14.63L5.81 13.56C6.7 13.2 7.4 12.5 7.76 11.61L8.83 8.97C8.93 8.73 9.27 8.73 9.37 8.97Z"/></svg>