<svg xmlns="http://www.w3.org/2000/svg" width="1.25em" height="1.25em" fill="none" viewBox="0 0 15 14"><path fill="currentColor" d="M14.6591 6.37809C14.8062 6.23637 14.9101 6.05583 14.9587 5.85744C15.0073 5.65905 14.9987 5.45093 14.9338 5.25726C14.8689 5.06358 14.7503 4.89228 14.592 4.76325C14.4336 4.63422 14.2419 4.55275 14.0392 4.52829L10.7845 4.06834C10.6104 4.04545 10.4441 3.98194 10.2991 3.88294C10.1541 3.78393 10.0343 3.65221 9.9496 3.4984L8.49476 0.603721C8.3989 0.421553 8.25509 0.269034 8.07887 0.162635C7.90265 0.0562361 7.70072 0 7.49487 0C7.28902 0 7.08708 0.0562361 6.91086 0.162635C6.73464 0.269034 6.59083 0.421553 6.49498 0.603721L5.04013 3.4984C4.95839 3.65688 4.83998 3.79354 4.69476 3.89702C4.54954 4.0005 4.3817 4.06781 4.20523 4.09334L0.95058 4.55329C0.747786 4.57775 0.556087 4.65922 0.397737 4.78825C0.239386 4.91728 0.120879 5.08858 0.055971 5.28225C-0.00893691 5.47593 -0.0175832 5.68404 0.0310361 5.88244C0.0796554 6.08083 0.183546 6.26137 0.330648 6.40309L2.68539 8.63784C2.80957 8.75644 2.90277 8.90369 2.95681 9.06669C3.01085 9.22968 3.02409 9.40344 2.99536 9.57274L2.44042 12.7274C2.41036 12.9302 2.43705 13.1373 2.51754 13.3259C2.59802 13.5144 2.72915 13.677 2.89638 13.7955C3.06362 13.9141 3.26042 13.984 3.46498 13.9976C3.66953 14.0111 3.87384 13.9678 4.05524 13.8723L6.96492 12.3724C7.12619 12.2911 7.30427 12.2488 7.48487 12.2488C7.66547 12.2488 7.84355 12.2911 8.00481 12.3724L10.9145 13.8723C11.0959 13.9678 11.3002 14.0111 11.5048 13.9976C11.7093 13.984 11.9061 13.9141 12.0734 13.7955C12.2406 13.677 12.3717 13.5144 12.4522 13.3259C12.5327 13.1373 12.5594 12.9302 12.5293 12.7274L11.9944 9.57274C11.9625 9.39874 11.9752 9.21952 12.0311 9.05171C12.087 8.88389 12.1845 8.73293 12.3143 8.61285L14.6591 6.37809Z"/></svg>