<svg xmlns="http://www.w3.org/2000/svg" width="1.5em" height="1.5em" fill="none" viewBox="0 0 24 24"><path fill="currentColor" d="M19.1328 11.3622C19.2797 11.2207 19.3834 11.0404 19.432 10.8423C19.4806 10.6441 19.4719 10.4363 19.4071 10.2429C19.3423 10.0495 19.2239 9.8784 19.0658 9.74954C18.9077 9.62069 18.7162 9.53932 18.5137 9.5149L15.2634 9.05557C15.0896 9.03271 14.9235 8.96929 14.7787 8.87041C14.6338 8.77154 14.5143 8.64 14.4296 8.4864L12.9768 5.59561C12.881 5.41369 12.7374 5.26138 12.5614 5.15512C12.3855 5.04887 12.1838 4.99271 11.9782 4.99271C11.7727 4.99271 11.571 5.04887 11.395 5.15512C11.219 5.26138 11.0754 5.41369 10.9797 5.59561L9.5268 8.4864C9.44516 8.64466 9.32691 8.78114 9.18189 8.88448C9.03686 8.98782 8.86926 9.05503 8.69301 9.08053L5.44275 9.53986C5.24023 9.56429 5.04879 9.64565 4.89065 9.77451C4.73252 9.90336 4.61417 10.0744 4.54935 10.2678C4.48453 10.4613 4.47589 10.6691 4.52445 10.8672C4.573 11.0653 4.67675 11.2456 4.82366 11.3872L7.17523 13.6189C7.29924 13.7374 7.39231 13.8844 7.44628 14.0472C7.50025 14.21 7.51347 14.3835 7.48478 14.5526L6.93058 17.703C6.90057 17.9055 6.92722 18.1123 7.0076 18.3006C7.08797 18.4889 7.21893 18.6513 7.38594 18.7697C7.55294 18.8881 7.74948 18.9579 7.95376 18.9714C8.15804 18.985 8.36207 18.9416 8.54323 18.8463L11.449 17.3485C11.61 17.2673 11.7879 17.225 11.9682 17.225C12.1486 17.225 12.3264 17.2673 12.4875 17.3485L15.3932 18.8463C15.5744 18.9416 15.7784 18.985 15.9827 18.9714C16.187 18.9579 16.3835 18.8881 16.5505 18.7697C16.7175 18.6513 16.8485 18.4889 16.9289 18.3006C17.0093 18.1123 17.0359 17.9055 17.0059 17.703L16.4717 14.5526C16.4399 14.3788 16.4525 14.1998 16.5083 14.0322C16.5642 13.8646 16.6615 13.7139 16.7912 13.5939L19.1328 11.3622Z"/></svg>