<svg xmlns="http://www.w3.org/2000/svg" width="1.5em" height="1.5em" fill="none" viewBox="0 0 24 24"><path fill="currentColor" fill-rule="evenodd" d="M13.5 9.5V3.5C15.0913 3.5 16.6174 4.13214 17.7426 5.25736C18.8679 6.38258 19.5 7.9087 19.5 9.5H13.5ZM4 9.5H8L9 11.5H19.5V14.691C19.4994 15.1538 19.3209 15.5987 19.0016 15.9336C18.6822 16.2686 18.2463 16.4679 17.784 16.4905C17.953 16.8707 18.0245 17.2871 17.9919 17.702C17.9593 18.1168 17.8237 18.5169 17.5973 18.8661C17.371 19.2153 17.061 19.5024 16.6956 19.7015C16.3302 19.9005 15.9209 20.0053 15.5048 20.0061C15.0887 20.007 14.6789 19.904 14.3127 19.7064C13.9465 19.5089 13.6353 19.223 13.4075 18.8748C13.1797 18.5266 13.0424 18.127 13.0081 17.7123C12.9738 17.2976 13.0435 16.8809 13.211 16.5H10.789C10.9931 16.9642 11.0509 17.4797 10.9547 17.9776C10.8584 18.4755 10.6127 18.9323 10.2502 19.287C9.88774 19.6417 9.42577 19.8775 8.92588 19.9629C8.42599 20.0484 7.91192 19.9795 7.45221 19.7653C6.9925 19.5512 6.60897 19.202 6.35276 18.7643C6.09655 18.3267 5.97983 17.8213 6.01815 17.3156C6.05648 16.8099 6.24802 16.3279 6.56726 15.9339C6.8865 15.5398 7.31826 15.2524 7.805 15.11L6 11.5H4V9.5Z" clip-rule="evenodd"/></svg>