<svg xmlns="http://www.w3.org/2000/svg" width="1.25em" height="1.25em" fill="none" viewBox="0 0 16 17"><path fill="currentColor" fill-rule="evenodd" d="M9.78424 6.17952V0C11.4232 0 12.9949 0.651055 14.1538 1.80994C15.3127 2.96883 15.9638 4.54061 15.9638 6.17952H9.78424ZM0 6.17952H4.11968L5.1496 8.23936H15.9638V11.5258C15.9631 12.0025 15.7794 12.4607 15.4504 12.8056C15.1215 13.1506 14.6725 13.3559 14.1964 13.3792C14.3705 13.7708 14.4441 14.1997 14.4106 14.6269C14.377 15.0541 14.2373 15.4663 14.0042 15.8259C13.771 16.1855 13.4518 16.4812 13.0755 16.6862C12.6991 16.8913 12.2776 16.9991 11.849 17C11.4205 17.0009 10.9984 16.8948 10.6213 16.6913C10.2441 16.4879 9.92364 16.1935 9.68901 15.8348C9.45439 15.4762 9.31299 15.0647 9.27764 14.6376C9.2423 14.2105 9.31412 13.7813 9.48659 13.389H6.99213C7.20238 13.8671 7.2619 14.398 7.16276 14.9108C7.06362 15.4236 6.81052 15.894 6.43721 16.2593C6.0639 16.6246 5.58811 16.8675 5.07326 16.9555C4.55841 17.0435 4.02897 16.9725 3.5555 16.752C3.08203 16.5314 2.68703 16.1718 2.42316 15.7211C2.15928 15.2703 2.03907 14.7498 2.07854 14.229C2.11801 13.7082 2.31528 13.2117 2.64407 12.8059C2.97287 12.4 3.41755 12.1041 3.91885 11.9574L2.05984 8.23936H0V6.17952Z" clip-rule="evenodd"/></svg>