<svg xmlns="http://www.w3.org/2000/svg" width="1.5em" height="1.5em" fill="none" viewBox="0 0 24 24"><path stroke="currentColor" stroke-linecap="round" stroke-linejoin="round" stroke-width="1.5" d="M10.79 17.1C10.79 15.642 9.60804 14.46 8.15001 14.46 6.69198 14.46 5.51001 15.642 5.51001 17.1 5.51001 18.558 6.69198 19.74 8.15001 19.74 9.60804 19.74 10.79 18.558 10.79 17.1ZM19.12 17.1C19.12 15.642 17.938 14.46 16.48 14.46 15.022 14.46 13.84 15.642 13.84 17.1 13.84 18.558 15.022 19.74 16.48 19.74 17.938 19.74 19.12 18.558 19.12 17.1ZM20.99 10.39C20.99 6.59 17.91 3.5 14.1 3.5V10.39"/><path stroke="currentColor" stroke-linecap="round" stroke-linejoin="round" stroke-width="1.5" d="M2.87 8.39H5.31L7.41 14.53M19.17 16C20.19 15.95 20.99 15.11 20.99 14.09V10.52H6.06M10.59 16.01H14.05"/></svg>