<svg xmlns="http://www.w3.org/2000/svg" width="1.25em" height="1.25em" fill="none" viewBox="0 0 31 34"><path fill="currentColor" fill-rule="evenodd" d="M19 12V0C22.1826 0 25.2348 1.26428 27.4853 3.51472C29.7357 5.76516 31 8.8174 31 12H19ZM0 12H8L10 16H31V22.382C30.9988 23.3076 30.6419 24.1974 30.0031 24.8672C29.3643 25.5371 28.4925 25.9358 27.568 25.981C27.9061 26.7415 28.049 27.5743 27.9838 28.404C27.9186 29.2336 27.6474 30.0339 27.1947 30.7322C26.7419 31.4305 26.1221 32.0048 25.3913 32.403C24.6604 32.8011 23.8418 33.0105 23.0096 33.0123C22.1774 33.014 21.3579 32.808 20.6254 32.4129C19.8929 32.0177 19.2707 31.4461 18.8151 30.7496C18.3595 30.0532 18.0849 29.2541 18.0162 28.4247C17.9476 27.5953 18.0871 26.7619 18.422 26H13.578C13.9863 26.9285 14.1019 27.9594 13.9093 28.9552C13.7168 29.9511 13.2253 30.8646 12.5004 31.574C11.7755 32.2834 10.8515 32.755 9.85176 32.9259C8.85198 33.0968 7.82385 32.9589 6.90442 32.5307C5.98499 32.1024 5.21794 31.404 4.70553 30.5287C4.19311 29.6534 3.95966 28.6426 4.03631 27.6312C4.11295 26.6199 4.49605 25.6559 5.13452 24.8677C5.773 24.0796 6.63653 23.5048 7.61 23.22L4 16H0V12Z" clip-rule="evenodd"/></svg>