<svg xmlns="http://www.w3.org/2000/svg" width="1.25em" height="1.25em" fill="none" viewBox="0 0 32 28"><path fill="currentColor" d="M26.535 0H5.465C4.01559 0 2.62555 0.575775 1.60066 1.60066C0.575775 2.62555 0 4.01559 0 5.465V22.535C0 23.2527 0.141356 23.9633 0.415998 24.6264C0.69064 25.2894 1.09319 25.8919 1.60066 26.3993C2.10813 26.9068 2.71059 27.3094 3.37364 27.584C4.03668 27.8586 4.74733 28 5.465 28H26.535C27.2527 28 27.9633 27.8586 28.6264 27.584C29.2894 27.3094 29.8919 26.9068 30.3993 26.3993C30.9068 25.8919 31.3094 25.2894 31.584 24.6264C31.8586 23.9633 32 23.2527 32 22.535V5.465C32 4.74733 31.8586 4.03668 31.584 3.37364C31.3094 2.71059 30.9068 2.10813 30.3993 1.60066C29.8919 1.09319 29.2894 0.69064 28.6264 0.415998C27.9633 0.141356 27.2527 0 26.535 0ZM9.961 23H9.894L4.946 18.052L7.788 15.211L9.927 17.351L14.158 13.12L17 15.961L9.961 23ZM27 9H5V5H27V9Z"/></svg>