<svg xmlns="http://www.w3.org/2000/svg" width="1.5em" height="1.5em" fill="none" viewBox="0 0 24 24"><path fill="currentColor" d="M17.2675 5H6.7325C6.0078 5 5.31277 5.28789 4.80033 5.80033C4.28789 6.31277 4 7.0078 4 7.7325V16.2675C4 16.6263 4.07068 16.9817 4.208 17.3132C4.34532 17.6447 4.54659 17.9459 4.80033 18.1997C5.05407 18.4534 5.3553 18.6547 5.68682 18.792C6.01834 18.9293 6.37366 19 6.7325 19H17.2675C17.6263 19 17.9817 18.9293 18.3132 18.792C18.6447 18.6547 18.9459 18.4534 19.1997 18.1997C19.4534 17.9459 19.6547 17.6447 19.792 17.3132C19.9293 16.9817 20 16.6263 20 16.2675V7.7325C20 7.37366 19.9293 7.01834 19.792 6.68682C19.6547 6.3553 19.4534 6.05407 19.1997 5.80033C18.9459 5.54659 18.6447 5.34532 18.3132 5.208C17.9817 5.07068 17.6263 5 17.2675 5ZM8.9805 16.5H8.947L6.473 14.026L7.894 12.6055L8.9635 13.6755L11.079 11.56L12.5 12.9805L8.9805 16.5ZM17.5 9.5H6.5V7.5H17.5V9.5Z"/></svg>