<svg xmlns="http://www.w3.org/2000/svg" width="1.25em" height="1.25em" fill="none" viewBox="0 0 16 14"><path fill="currentColor" d="M13.2675 0H2.7325C2.0078 0 1.31277 0.287888 0.800331 0.800331C0.287888 1.31277 0 2.0078 0 2.7325V11.2675C0 11.6263 0.0706782 11.9817 0.207999 12.3132C0.34532 12.6447 0.546595 12.9459 0.800331 13.1997C1.05407 13.4534 1.3553 13.6547 1.68682 13.792C2.01834 13.9293 2.37366 14 2.7325 14H13.2675C13.6263 14 13.9817 13.9293 14.3132 13.792C14.6447 13.6547 14.9459 13.4534 15.1997 13.1997C15.4534 12.9459 15.6547 12.6447 15.792 12.3132C15.9293 11.9817 16 11.6263 16 11.2675V2.7325C16 2.37366 15.9293 2.01834 15.792 1.68682C15.6547 1.3553 15.4534 1.05407 15.1997 0.800331C14.9459 0.546595 14.6447 0.34532 14.3132 0.207999C13.9817 0.0706782 13.6263 0 13.2675 0ZM4.9805 11.5H4.947L2.473 9.026L3.894 7.6055L4.9635 8.6755L7.079 6.56L8.5 7.9805L4.9805 11.5ZM13.5 4.5H2.5V2.5H13.5V4.5Z"/></svg>