<svg xmlns="http://www.w3.org/2000/svg" width="1.5em" height="1.5em" fill="none" viewBox="0 0 24 24"><path fill="currentColor" fill-rule="evenodd" d="M7 3H17C17.5304 3 18.0391 3.21071 18.4142 3.58579C18.7893 3.96086 19 4.46957 19 5V17H5V5C5 4.46957 5.21071 3.96086 5.58579 3.58579C5.96086 3.21071 6.46957 3 7 3ZM7.94443 14.3315C8.10888 14.4414 8.30222 14.5 8.5 14.5C8.76522 14.5 9.01957 14.3946 9.20711 14.2071C9.39464 14.0196 9.5 13.7652 9.5 13.5C9.5 13.3022 9.44135 13.1089 9.33147 12.9444C9.22159 12.78 9.06541 12.6518 8.88268 12.5761C8.69996 12.5004 8.49889 12.4806 8.30491 12.5192C8.11093 12.5578 7.93275 12.653 7.79289 12.7929C7.65304 12.9327 7.5578 13.1109 7.51921 13.3049C7.48063 13.4989 7.50043 13.7 7.57612 13.8827C7.65181 14.0654 7.77998 14.2216 7.94443 14.3315ZM14.9444 14.3315C15.1089 14.4414 15.3022 14.5 15.5 14.5C15.7652 14.5 16.0196 14.3946 16.2071 14.2071C16.3946 14.0196 16.5 13.7652 16.5 13.5C16.5 13.3022 16.4414 13.1089 16.3315 12.9444C16.2216 12.78 16.0654 12.6518 15.8827 12.5761C15.7 12.5004 15.4989 12.4806 15.3049 12.5192C15.1109 12.5578 14.9327 12.653 14.7929 12.7929C14.653 12.9327 14.5578 13.1109 14.5192 13.3049C14.4806 13.4989 14.5004 13.7 14.5761 13.8827C14.6518 14.0654 14.78 14.2216 14.9444 14.3315ZM7 10.5H17V5.5H7V10.5ZM7 21H9.5L11 18.9995H8.5L7 21ZM13 19L14.5 21H17L15.5 19H13Z" clip-rule="evenodd"/></svg>