<svg xmlns="http://www.w3.org/2000/svg" width="1.25em" height="1.25em" fill="none" viewBox="0 0 14 18"><path fill="currentColor" fill-rule="evenodd" d="M2 0H12C12.5304 0 13.0391 0.210714 13.4142 0.585786C13.7893 0.960859 14 1.46957 14 2V14H0V2C0 1.46957 0.210714 0.960859 0.585786 0.585786C0.960859 0.210714 1.46957 0 2 0ZM2.94443 11.3315C3.10888 11.4414 3.30222 11.5 3.5 11.5C3.76522 11.5 4.01957 11.3946 4.20711 11.2071C4.39464 11.0196 4.5 10.7652 4.5 10.5C4.5 10.3022 4.44135 10.1089 4.33147 9.94443C4.22159 9.77998 4.06541 9.65181 3.88268 9.57612C3.69996 9.50043 3.49889 9.48063 3.30491 9.51921C3.11093 9.5578 2.93275 9.65304 2.79289 9.79289C2.65304 9.93275 2.5578 10.1109 2.51921 10.3049C2.48063 10.4989 2.50043 10.7 2.57612 10.8827C2.65181 11.0654 2.77998 11.2216 2.94443 11.3315ZM9.94443 11.3315C10.1089 11.4414 10.3022 11.5 10.5 11.5C10.7652 11.5 11.0196 11.3946 11.2071 11.2071C11.3946 11.0196 11.5 10.7652 11.5 10.5C11.5 10.3022 11.4414 10.1089 11.3315 9.94443C11.2216 9.77998 11.0654 9.65181 10.8827 9.57612C10.7 9.50043 10.4989 9.48063 10.3049 9.51921C10.1109 9.5578 9.93275 9.65304 9.79289 9.79289C9.65304 9.93275 9.5578 10.1109 9.51921 10.3049C9.48063 10.4989 9.50043 10.7 9.57612 10.8827C9.65181 11.0654 9.77998 11.2216 9.94443 11.3315ZM2 7.5H12V2.5H2V7.5ZM2 18H4.5L6 15.9995H3.5L2 18ZM8 16L9.5 18H12L10.5 16H8Z" clip-rule="evenodd"/></svg>