<svg xmlns="http://www.w3.org/2000/svg" width="1.25em" height="1.25em" fill="none" viewBox="0 0 20 20"><path fill="currentColor" fill-rule="evenodd" d="M11 0H9V3H11V0ZM10 5C7.24 5 5 7.24 5 10C5 12.76 7.24 15 10 15C12.76 15 15 12.76 15 10C15 7.24 12.76 5 10 5ZM9 20V17H11V20H9ZM20 9H17V11H20V9ZM3 9V11H0V9H3ZM3.63757 2.22226L2.22336 3.63647L4.34468 5.75779L5.75889 4.34358L3.63757 2.22226ZM16.363 2.22278L17.7772 3.63699L15.6559 5.75831L14.2417 4.3441L16.363 2.22278ZM5.75833 15.657L4.34412 14.2428L2.2228 16.3641L3.63701 17.7783L5.75833 15.657ZM14.2422 15.6564L15.6564 14.2422L17.7778 16.3635L16.3635 17.7778L14.2422 15.6564Z" clip-rule="evenodd"/></svg>