<svg xmlns="http://www.w3.org/2000/svg" width="1.5em" height="1.5em" fill="none" viewBox="0 0 24 24"><path fill="currentColor" fill-rule="evenodd" d="M13 2H11V5H13V2ZM12 7C9.24 7 7 9.24 7 12C7 14.76 9.24 17 12 17C14.76 17 17 14.76 17 12C17 9.24 14.76 7 12 7ZM11 22V19H13V22H11ZM22 11H19V13H22V11ZM5 11V13H2V11H5ZM5.63757 4.22226L4.22336 5.63647L6.34468 7.75779L7.75889 6.34358L5.63757 4.22226ZM18.363 4.22278L19.7772 5.63699L17.6559 7.75831L16.2417 6.3441L18.363 4.22278ZM7.75833 17.657L6.34412 16.2428L4.2228 18.3641L5.63701 19.7783L7.75833 17.657ZM16.2422 17.6564L17.6564 16.2422L19.7778 18.3635L18.3635 19.7778L16.2422 17.6564Z" clip-rule="evenodd"/></svg>