<svg xmlns="http://www.w3.org/2000/svg" width="1.5em" height="1.5em" fill="none" viewBox="0 0 24 24"><path fill="currentColor" d="M16 13V4H15C14.7348 4 14.4804 4.10536 14.2929 4.29289C14.1054 4.48043 14 4.73478 14 5V8H10V5C10 4.73478 9.89464 4.48043 9.70711 4.29289C9.51957 4.10536 9.26522 4 9 4H8V13H4V20C4.93855 20.0075 5.8439 19.6531 6.528 19.0105C6.71985 18.8143 6.94898 18.6583 7.20194 18.5519C7.45489 18.4454 7.72656 18.3906 8.001 18.3906C8.27544 18.3906 8.54711 18.4454 8.80006 18.5519C9.05302 18.6583 9.28215 18.8143 9.474 19.0105C10.162 19.6466 11.0645 19.9999 12.0015 19.9999C12.9385 19.9999 13.841 19.6466 14.529 19.0105C14.7206 18.8143 14.9495 18.6583 15.2023 18.5519C15.455 18.4454 15.7265 18.3906 16.0007 18.3906C16.275 18.3906 16.5465 18.4454 16.7992 18.5519C17.052 18.6583 17.2809 18.8143 17.4725 19.0105C18.1563 19.6532 19.0616 20.0076 20 20V13H16ZM10 13V10H14V13H10Z"/></svg>