<svg xmlns="http://www.w3.org/2000/svg" width="1.25em" height="1.25em" fill="none" viewBox="0 0 16 16"><path fill="currentColor" d="M11.9999 8.99993V0H10.9999C10.7347 0 10.4803 0.105356 10.2928 0.292891C10.1053 0.480426 9.99992 0.734778 9.99992 0.999992V3.99997H5.99995V0.999992C5.99995 0.734778 5.8946 0.480426 5.70706 0.292891C5.51953 0.105356 5.26518 0 4.99996 0H3.99997V8.99993H0V15.9999C0.938539 16.0073 1.84388 15.653 2.52798 15.0104C2.71983 14.8141 2.94896 14.6582 3.20191 14.5518C3.45486 14.4453 3.72653 14.3905 4.00097 14.3905C4.27541 14.3905 4.54708 14.4453 4.80003 14.5518C5.05298 14.6582 5.28211 14.8141 5.47396 15.0104C6.16193 15.6465 7.06446 15.9998 8.00144 15.9998C8.93842 15.9998 9.84095 15.6465 10.5289 15.0104C10.7205 14.8142 10.9494 14.6582 11.2022 14.5518C11.4549 14.4453 11.7264 14.3905 12.0007 14.3905C12.2749 14.3905 12.5464 14.4453 12.7991 14.5518C13.0519 14.6582 13.2808 14.8142 13.4724 15.0104C14.1562 15.6531 15.0615 16.0075 15.9999 15.9999V8.99993H11.9999ZM5.99995 8.99993V5.99995H9.99992V8.99993H5.99995Z"/></svg>