<svg xmlns="http://www.w3.org/2000/svg" width="1.25em" height="1.25em" fill="none" viewBox="0 0 34 30"><path fill="currentColor" d="M27 0H7C5.14413 0.00211736 3.36489 0.740295 2.05259 2.05259C0.740295 3.36489 0.00211736 5.14413 0 7V30H6V7C6 6.73478 6.10536 6.48043 6.29289 6.29289C6.48043 6.10536 6.73478 6 7 6H10V18.778C9.54714 19.1831 9.22794 19.7161 9.08464 20.3065C8.94134 20.8969 8.98069 21.517 9.19748 22.0845C9.41428 22.6521 9.7983 23.1405 10.2987 23.485C10.7992 23.8296 11.3924 24.0141 12 24.0141C12.6076 24.0141 13.2008 23.8296 13.7013 23.485C14.2017 23.1405 14.5857 22.6521 14.8025 22.0845C15.0193 21.517 15.0587 20.8969 14.9154 20.3065C14.7721 19.7161 14.4529 19.1831 14 18.778V6H20V18.778C19.5471 19.1831 19.2279 19.7161 19.0846 20.3065C18.9413 20.8969 18.9807 21.517 19.1975 22.0845C19.4143 22.6521 19.7983 23.1405 20.2987 23.485C20.7992 23.8296 21.3924 24.0141 22 24.0141C22.6076 24.0141 23.2008 23.8296 23.7013 23.485C24.2017 23.1405 24.5857 22.6521 24.8025 22.0845C25.0193 21.517 25.0587 20.8969 24.9154 20.3065C24.7721 19.7161 24.4529 19.1831 24 18.778V6H27C27.2652 6 27.5196 6.10536 27.7071 6.29289C27.8946 6.48043 28 6.73478 28 7V30H34V7C33.9979 5.14413 33.2597 3.36489 31.9474 2.05259C30.6351 0.740295 28.8559 0.00211736 27 0Z"/></svg>