<svg xmlns="http://www.w3.org/2000/svg" width="1.5em" height="1.5em" fill="none" viewBox="0 0 24 24"><g clip-path="url(#clip0_39_315)"><path stroke="currentColor" stroke-linecap="round" stroke-linejoin="round" stroke-width="1.5" d="M4 17C4 17.394 4.0776 17.7841 4.22836 18.1481C4.37913 18.512 4.6001 18.8427 4.87868 19.1213C5.15726 19.3999 5.48797 19.6209 5.85195 19.7716C6.21593 19.9224 6.60603 20 7 20C7.39397 20 7.78407 19.9224 8.14805 19.7716C8.51203 19.6209 8.84274 19.3999 9.12132 19.1213C9.3999 18.8427 9.62087 18.512 9.77164 18.1481C9.9224 17.7841 10 17.394 10 17C10 16.606 9.9224 16.2159 9.77164 15.8519C9.62087 15.488 9.3999 15.1573 9.12132 14.8787C8.84274 14.6001 8.51203 14.3791 8.14805 14.2284C7.78407 14.0776 7.39397 14 7 14C6.60603 14 6.21593 14.0776 5.85195 14.2284C5.48797 14.3791 5.15726 14.6001 4.87868 14.8787C4.6001 15.1573 4.37913 15.488 4.22836 15.8519C4.0776 16.2159 4 16.606 4 17Z"/><path stroke="currentColor" stroke-linecap="round" stroke-linejoin="round" stroke-width="1.5" d="M14 17C14 17.7956 14.3161 18.5587 14.8787 19.1213C15.4413 19.6839 16.2044 20 17 20C17.7956 20 18.5587 19.6839 19.1213 19.1213C19.6839 18.5587 20 17.7956 20 17C20 16.2044 19.6839 15.4413 19.1213 14.8787C18.5587 14.3161 17.7956 14 17 14C16.2044 14 15.4413 14.3161 14.8787 14.8787C14.3161 15.4413 14 16.2044 14 17Z"/><path stroke="currentColor" stroke-linecap="round" stroke-linejoin="round" stroke-width="1.5" d="M7 15V4"/><path stroke="currentColor" stroke-linecap="round" stroke-linejoin="round" stroke-width="1.5" d="M17 15V4"/><path stroke="currentColor" stroke-linecap="round" stroke-linejoin="round" stroke-width="1.5" d="M3 4H21"/></g><defs><clipPath id="clip0_39_315"><rect width="24" height="24" fill="currentColor"/></clipPath></defs></svg>