<svg xmlns="http://www.w3.org/2000/svg" width="1.25em" height="1.25em" fill="none" viewBox="0 0 17 15"><path fill="currentColor" d="M13.5 0H3.5C2.57207 0.00105868 1.68244 0.370148 1.0263 1.0263C0.370148 1.68244 0.00105868 2.57207 0 3.5V15H3V3.5C3 3.36739 3.05268 3.24021 3.14645 3.14645C3.24021 3.05268 3.36739 3 3.5 3H5V9.389C4.77357 9.59153 4.61397 9.85803 4.54232 10.1532C4.47067 10.4485 4.49034 10.7585 4.59874 11.0423C4.70714 11.3261 4.89915 11.5702 5.14937 11.7425C5.39958 11.9148 5.69621 12.007 6 12.007C6.30379 12.007 6.60042 11.9148 6.85063 11.7425C7.10085 11.5702 7.29286 11.3261 7.40126 11.0423C7.50966 10.7585 7.52933 10.4485 7.45768 10.1532C7.38603 9.85803 7.22643 9.59153 7 9.389V3H10V9.389C9.77357 9.59153 9.61397 9.85803 9.54232 10.1532C9.47067 10.4485 9.49034 10.7585 9.59874 11.0423C9.70714 11.3261 9.89915 11.5702 10.1494 11.7425C10.3996 11.9148 10.6962 12.007 11 12.007C11.3038 12.007 11.6004 11.9148 11.8506 11.7425C12.1008 11.5702 12.2929 11.3261 12.4013 11.0423C12.5097 10.7585 12.5293 10.4485 12.4577 10.1532C12.386 9.85803 12.2264 9.59153 12 9.389V3H13.5C13.6326 3 13.7598 3.05268 13.8536 3.14645C13.9473 3.24021 14 3.36739 14 3.5V15H17V3.5C16.9989 2.57207 16.6299 1.68244 15.9737 1.0263C15.3176 0.370148 14.4279 0.00105868 13.5 0Z"/></svg>