<svg xmlns="http://www.w3.org/2000/svg" width="1.5em" height="1.5em" fill="none" viewBox="0 0 24 24"><path fill="currentColor" d="M17 4.5H7C6.07207 4.50106 5.18244 4.87015 4.5263 5.5263C3.87015 6.18244 3.50106 7.07207 3.5 8V19.5H6.5V8C6.5 7.86739 6.55268 7.74021 6.64645 7.64645C6.74021 7.55268 6.86739 7.5 7 7.5H8.5V13.889C8.27357 14.0915 8.11397 14.358 8.04232 14.6532C7.97067 14.9485 7.99034 15.2585 8.09874 15.5423C8.20714 15.8261 8.39915 16.0702 8.64937 16.2425C8.89958 16.4148 9.19621 16.507 9.5 16.507C9.80379 16.507 10.1004 16.4148 10.3506 16.2425C10.6008 16.0702 10.7929 15.8261 10.9013 15.5423C11.0097 15.2585 11.0293 14.9485 10.9577 14.6532C10.886 14.358 10.7264 14.0915 10.5 13.889V7.5H13.5V13.889C13.2736 14.0915 13.114 14.358 13.0423 14.6532C12.9707 14.9485 12.9903 15.2585 13.0987 15.5423C13.2071 15.8261 13.3992 16.0702 13.6494 16.2425C13.8996 16.4148 14.1962 16.507 14.5 16.507C14.8038 16.507 15.1004 16.4148 15.3506 16.2425C15.6008 16.0702 15.7929 15.8261 15.9013 15.5423C16.0097 15.2585 16.0293 14.9485 15.9577 14.6532C15.886 14.358 15.7264 14.0915 15.5 13.889V7.5H17C17.1326 7.5 17.2598 7.55268 17.3536 7.64645C17.4473 7.74021 17.5 7.86739 17.5 8V19.5H20.5V8C20.4989 7.07207 20.1299 6.18244 19.4737 5.5263C18.8176 4.87015 17.9279 4.50106 17 4.5Z"/></svg>