<svg xmlns="http://www.w3.org/2000/svg" width="1.5em" height="1.5em" fill="none" viewBox="0 0 24 24"><path fill="currentColor" fill-rule="evenodd" d="M11.9 7.05502C10.85 8.10502 9.09998 8.10502 8.04998 7.05502C7.86998 6.87502 7.73498 6.67002 7.61498 6.45502C7.04498 5.42002 7.17998 4.06502 8.04998 3.15502C9.14998 2.10502 10.85 2.10502 11.9 3.20502C12.555 3.86002 12.8 4.78502 12.64 5.64002C12.545 6.16002 12.295 6.66002 11.9 7.05502ZM14.15 6.30499C13.95 6.97999 13.585 7.61999 13.05 8.15499C11.4 9.85499 8.65 9.85499 6.95 8.15499C6.75 7.95999 6.575 7.74999 6.425 7.52999C5.54 8.57499 5 9.92499 5 11.405C5 13.55 6.13 15.43 7.825 16.49L16.085 8.22999C15.595 7.44999 14.935 6.78999 14.15 6.30499ZM16.16 14.46C16.69 13.565 17 12.52 17 11.405C17 11.01 16.96 10.625 16.885 10.255L9.84998 17.29C10.225 17.36 10.605 17.405 11 17.405C12.105 17.405 13.14 17.1 14.03 16.575L18.145 20.69L20.265 18.57L16.155 14.46H16.16Z" clip-rule="evenodd"/></svg>