<svg xmlns="http://www.w3.org/2000/svg" width="1.25em" height="1.25em" fill="none" viewBox="0 0 16 19"><path fill="currentColor" fill-rule="evenodd" d="M7.15752 4.85609C6.06833 5.94528 4.25301 5.94528 3.16382 4.85609C2.9771 4.66937 2.83707 4.45672 2.71259 4.2337C2.12131 3.16006 2.26135 1.75449 3.16382 0.810523C4.30488 -0.278668 6.06833 -0.278668 7.15752 0.862389C7.83697 1.54184 8.09112 2.50136 7.92514 3.38828C7.8266 3.92768 7.56727 4.44635 7.15752 4.85609ZM9.49152 4.07807C9.28406 4.77827 8.90543 5.44215 8.35047 5.99712C6.63888 7.76058 3.78624 7.76058 2.02278 5.99712C1.81532 5.79484 1.63379 5.57701 1.47819 5.3488C0.560156 6.4328 0 7.83319 0 9.36843C0 11.5935 1.17218 13.5437 2.93044 14.6432L11.4987 6.07492C10.9905 5.26581 10.3058 4.58117 9.49152 4.07807ZM11.5765 12.5375C12.1263 11.6091 12.4479 10.5251 12.4479 9.36844C12.4479 8.9587 12.4064 8.55933 12.3286 8.17552L5.031 15.4731C5.42 15.5457 5.81418 15.5924 6.22392 15.5924C7.37017 15.5924 8.4438 15.276 9.36702 14.7314L13.6356 19L15.8347 16.8009L11.5713 12.5375H11.5765Z" clip-rule="evenodd"/></svg>