<svg xmlns="http://www.w3.org/2000/svg" width="1.5em" height="1.5em" fill="none" viewBox="0 0 24 24"><g clip-path="url(#clip0_39_350)"><path stroke="currentColor" stroke-linecap="round" stroke-linejoin="round" stroke-width="1.5" d="M12.718 20.713C11.0909 21.1731 9.35708 21.0803 7.78831 20.4493C6.21954 19.8183 4.90443 18.6846 4.04905 17.226C3.19367 15.7674 2.84634 14.0662 3.0615 12.3891C3.27666 10.7119 4.04214 9.15347 5.23801 7.95801L5.95801 7.23801C7.13089 6.06511 8.6535 5.30562 10.296 5.07417C11.9385 4.84273 13.6117 5.1519 15.063 5.95501L17.45 3.61001C17.8302 3.23328 18.3409 3.01758 18.876 3.00777C19.4111 2.99795 19.9294 3.19478 20.3231 3.55732C20.7168 3.91986 20.9556 4.4202 20.9899 4.9543C21.0241 5.4884 20.8512 6.01515 20.507 6.42501L20.391 6.55101L18.045 8.93801C18.8204 10.3394 19.136 11.949 18.9472 13.5395C18.7585 15.13 18.0749 16.621 16.993 17.802"/><path stroke="currentColor" stroke-linecap="round" stroke-linejoin="round" stroke-width="1.5" d="M11 18C11 18.394 11.0776 18.7841 11.2284 19.1481C11.3791 19.512 11.6001 19.8427 11.8787 20.1213C12.1573 20.3999 12.488 20.6209 12.8519 20.7716C13.2159 20.9224 13.606 21 14 21C14.394 21 14.7841 20.9224 15.1481 20.7716C15.512 20.6209 15.8427 20.3999 16.1213 20.1213C16.3999 19.8427 16.6209 19.512 16.7716 19.1481C16.9224 18.7841 17 18.394 17 18C17 17.606 16.9224 17.2159 16.7716 16.8519C16.6209 16.488 16.3999 16.1573 16.1213 15.8787C15.8427 15.6001 15.512 15.3791 15.1481 15.2284C14.7841 15.0776 14.394 15 14 15C13.606 15 13.2159 15.0776 12.8519 15.2284C12.488 15.3791 12.1573 15.6001 11.8787 15.8787C11.6001 16.1573 11.3791 16.488 11.2284 16.8519C11.0776 17.2159 11 17.606 11 18Z"/><path stroke="currentColor" stroke-linecap="round" stroke-linejoin="round" stroke-width="1.5" d="M9.3 5.29999L18.7 14.7"/></g><defs><clipPath id="clip0_39_350"><rect width="24" height="24" fill="currentColor"/></clipPath></defs></svg>