<svg xmlns="http://www.w3.org/2000/svg" width="1.25em" height="1.25em" fill="none" viewBox="0 0 31 37"><path fill="currentColor" fill-rule="evenodd" d="M13.9383 9.4566C11.8173 11.5777 8.28219 11.5777 6.16113 9.4566C5.79752 9.09299 5.52481 8.67888 5.28241 8.24456C4.13097 6.15381 4.40368 3.41664 6.16113 1.57839C8.38319 -0.542669 11.8173 -0.542669 13.9383 1.67939C15.2615 3.00252 15.7564 4.87107 15.4332 6.59822C15.2413 7.64865 14.7363 8.65867 13.9383 9.4566ZM18.4835 7.94151C18.0795 9.30505 17.3422 10.5979 16.2614 11.6786C12.9283 15.1127 7.3732 15.1127 3.9391 11.6786C3.53509 11.2847 3.18159 10.8605 2.87858 10.4161C1.09083 12.527 0 15.2541 0 18.2438C0 22.5768 2.28266 26.3745 5.70665 28.5158L22.3923 11.8301C21.4025 10.2545 20.0692 8.92123 18.4835 7.94151ZM22.5437 24.4151C23.6144 22.6071 24.2406 20.4962 24.2406 18.2438C24.2406 17.4459 24.1598 16.6682 24.0083 15.9207L9.79721 30.1318C10.5547 30.2732 11.3223 30.3641 12.1203 30.3641C14.3524 30.3641 16.4432 29.748 18.241 28.6875L26.5536 37L30.8361 32.7175L22.5336 24.4151H22.5437Z" clip-rule="evenodd"/></svg>