<svg xmlns="http://www.w3.org/2000/svg" width="1.5em" height="1.5em" fill="none" viewBox="0 0 24 24"><path stroke="currentColor" stroke-linecap="round" stroke-linejoin="round" stroke-width="1.5" d="M6.44002 7.06C6.32002 7.16 6.21002 7.27 6.09002 7.38C3.75002 9.72 3.75002 13.51 6.09002 15.85C7.95002 17.71 10.73 18.09 12.97 16.98L16.93 20.94L19.65 18.22L15.69 14.26C16.79 12.02 16.42 9.24 14.56 7.38C13.86 6.68 13.04 6.19 12.16 5.91"/><path stroke="currentColor" stroke-linecap="round" stroke-linejoin="round" stroke-width="1.5" d="M12 5.92C12 7.5 10.72 8.78 9.14003 8.78 7.56003 8.78 6.28003 7.5 6.28003 5.92 6.28003 4.34 7.56003 3.06 9.14003 3.06 10.72 3.06 12 4.34 12 5.92ZM15.6 8.78 7.46997 16.91"/></svg>