<svg xmlns="http://www.w3.org/2000/svg" width="1.5em" height="1.5em" fill="none" viewBox="0 0 24 24"><path stroke="currentColor" stroke-linecap="round" stroke-linejoin="round" stroke-width="1.5" d="M15 5V7M15 11V13M15 17V19M5 5H19C19.53 5 20.039 5.211 20.414 5.586 20.789 5.961 21 6.47 21 7V10C20.47 10 19.961 10.211 19.586 10.586 19.211 10.961 19 11.47 19 12 19 12.53 19.211 13.039 19.586 13.414 19.961 13.789 20.47 14 21 14V17C21 17.53 20.789 18.039 20.414 18.414 20.039 18.789 19.53 19 19 19H5C4.47 19 3.961 18.789 3.586 18.414 3.211 18.039 3 17.53 3 17V14C3.53 14 4.039 13.789 4.414 13.414 4.789 13.039 5 12.53 5 12 5 11.47 4.789 10.961 4.414 10.586 4.039 10.211 3.53 10 3 10V7C3 6.47 3.211 5.961 3.586 5.586 3.961 5.211 4.47 5 5 5Z"/></svg>