<svg xmlns="http://www.w3.org/2000/svg" width="1.5em" height="1.5em" fill="none" viewBox="0 0 24 24"><path fill="currentColor" d="M15.5 12V10H18V4H15C15 4.79565 14.6839 5.55871 14.1213 6.12132C13.5587 6.68393 12.7956 7 12 7C11.2044 7 10.4413 6.68393 9.87868 6.12132C9.31607 5.55871 9 4.79565 9 4H6V10H8.5V12H6V20H9C9 19.2044 9.31607 18.4413 9.87868 17.8787C10.4413 17.3161 11.2044 17 12 17C12.7956 17 13.5587 17.3161 14.1213 17.8787C14.6839 18.4413 15 19.2044 15 20H18V12H15.5ZM13.5 12H10.5V10H13.5V12Z"/></svg>