<svg xmlns="http://www.w3.org/2000/svg" width="1.5em" height="1.5em" fill="none" viewBox="0 0 24 24"><path fill="currentColor" d="M21.2845 13.604L20.2885 11.5H16V8.49999H19C18.5 7.49999 18.016 6.49999 16 6.49999H4C3.80363 6.49887 3.60897 6.53654 3.42719 6.61084C3.24542 6.68514 3.0801 6.7946 2.94074 6.93295C2.80137 7.07129 2.69069 7.2358 2.61506 7.41702C2.53943 7.59824 2.50033 7.79262 2.5 7.98899V8.49999H8V11.5H2.5L2.5035 16.4795L14.75 16.5H19.5C19.8408 16.4994 20.1757 16.4117 20.4731 16.2453C20.7705 16.0789 21.0204 15.8393 21.1991 15.5492C21.3779 15.2591 21.4796 14.9281 21.4945 14.5877C21.5095 14.2472 21.4372 13.9086 21.2845 13.604ZM13.5 14H10.5V8.49999H13.5V14Z"/></svg>