<svg xmlns="http://www.w3.org/2000/svg" width="1.25em" height="1.25em" fill="none" viewBox="0 0 19 10"><path fill="currentColor" d="M18.7844 7.104L17.7884 5.00001H13.5V2.00002H16.4999C16 1.00002 15.516 2.42345e-05 13.5 2.42345e-05H1.5C1.30363 -0.00109516 1.10897 0.0365744 0.927192 0.110871C0.745417 0.185168 0.580102 0.29463 0.440735 0.432975C0.301368 0.57132 0.190693 0.735824 0.11506 0.917048C0.0394274 1.09827 0.000325963 1.29265 0 1.48902V2.00002H5.49998V5.00001H0L0.00349997 9.97949L12.25 9.99999H16.9999C17.3407 9.99939 17.6757 9.91172 17.973 9.74532C18.2704 9.57892 18.5203 9.3393 18.6991 9.04919C18.8778 8.75909 18.9795 8.42812 18.9945 8.08769C19.0094 7.74726 18.9371 7.40865 18.7844 7.104ZM11 7.5H7.99998V2.00002H11V7.5Z"/></svg>