<svg xmlns="http://www.w3.org/2000/svg" width="1.25em" height="1.25em" fill="none" viewBox="0 0 38 20"><path fill="currentColor" d="M37.569 14.208L35.577 10H27V4.00005H33C32 2.00005 31.032 4.84692e-05 27 4.84692e-05H3C2.60726 -0.00219032 2.21794 0.073149 1.85439 0.221743C1.49084 0.370338 1.16021 0.589262 0.881473 0.865952C0.602739 1.14264 0.381387 1.47165 0.230121 1.8341C0.078855 2.19655 0.000651928 2.5853 0 2.97805V4.00005H11V10H0L0.00699997 19.959L24.5 20H34C34.6815 19.9988 35.3514 19.8235 35.9462 19.4907C36.5409 19.1579 37.0407 18.6787 37.3983 18.0984C37.7558 17.5182 37.9591 16.8563 37.989 16.1754C38.0189 15.4946 37.8743 14.8174 37.569 14.208ZM22 15H16V4.00005H22V15Z"/></svg>