<svg xmlns="http://www.w3.org/2000/svg" width="1.5em" height="1.5em" fill="none" viewBox="0 0 24 24"><path fill="currentColor" d="M18 11.5H15.5V9.5H17.75L16.5 7.5H14V5.5H6C5.46957 5.5 4.96086 5.71071 4.58579 6.08579C4.21071 6.46086 4 6.96957 4 7.5V15.5H5.5V15.975C5.5 16.5054 5.71071 17.0141 6.08579 17.3892C6.46086 17.7643 6.96957 17.975 7.5 17.975C8.03043 17.975 8.53914 17.7643 8.91421 17.3892C9.28929 17.0141 9.5 16.5054 9.5 15.975V15.5H14.5V15.975C14.5 16.5054 14.7107 17.0141 15.0858 17.3892C15.4609 17.7643 15.9696 17.975 16.5 17.975C17.0304 17.975 17.5391 17.7643 17.9142 17.3892C18.2893 17.0141 18.5 16.5054 18.5 15.975V15.5H20V13.5C20 12.9696 19.7893 12.4609 19.4142 12.0858C19.0391 11.7107 18.5304 11.5 18 11.5Z"/></svg>