<svg xmlns="http://www.w3.org/2000/svg" width="1.25em" height="1.25em" fill="none" viewBox="0 0 16 13"><path fill="currentColor" d="M14 6H11.5V4H13.75L12.5 2H10V0H2C1.46957 0 0.960859 0.210714 0.585786 0.585786C0.210714 0.960859 0 1.46957 0 2V10H1.5V10.475C1.5 11.0054 1.71071 11.5141 2.08579 11.8892C2.46086 12.2643 2.96957 12.475 3.5 12.475C4.03043 12.475 4.53914 12.2643 4.91421 11.8892C5.28929 11.5141 5.5 11.0054 5.5 10.475V10H10.5V10.475C10.5 11.0054 10.7107 11.5141 11.0858 11.8892C11.4609 12.2643 11.9696 12.475 12.5 12.475C13.0304 12.475 13.5391 12.2643 13.9142 11.8892C14.2893 11.5141 14.5 11.0054 14.5 10.475V10H16V8C16 7.46957 15.7893 6.96086 15.4142 6.58579C15.0391 6.21071 14.5304 6 14 6Z"/></svg>