<svg xmlns="http://www.w3.org/2000/svg" width="1.25em" height="1.25em" fill="none" viewBox="0 0 32 25"><path fill="currentColor" d="M28 12H23V8H27.5L25 4H20V0H4C2.93913 0 1.92172 0.421427 1.17157 1.17157C0.421427 1.92172 0 2.93913 0 4V20H3V20.95C3 22.0109 3.42143 23.0283 4.17157 23.7784C4.92172 24.5286 5.93913 24.95 7 24.95C8.06087 24.95 9.07828 24.5286 9.82843 23.7784C10.5786 23.0283 11 22.0109 11 20.95V20H21V20.95C21 22.0109 21.4214 23.0283 22.1716 23.7784C22.9217 24.5286 23.9391 24.95 25 24.95C26.0609 24.95 27.0783 24.5286 27.8284 23.7784C28.5786 23.0283 29 22.0109 29 20.95V20H32V16C32 14.9391 31.5786 13.9217 30.8284 13.1716C30.0783 12.4214 29.0609 12 28 12Z"/></svg>