<svg xmlns="http://www.w3.org/2000/svg" width="1.5em" height="1.5em" fill="none" viewBox="0 0 24 24"><path fill="currentColor" d="M17.5 7.5H13.4145L15.5 5.4145L14.0855 4L12 6.0855L9.9145 4L8.5 5.4145L10.5855 7.5H6.5C5.96957 7.5 5.46086 7.71071 5.08579 8.08579C4.71071 8.46086 4.5 8.96957 4.5 9.5V16.5C4.5 17.0304 4.71071 17.5391 5.08579 17.9142C5.46086 18.2893 5.96957 18.5 6.5 18.5H17.5C18.0304 18.5 18.5391 18.2893 18.9142 17.9142C19.2893 17.5391 19.5 17.0304 19.5 16.5V9.5C19.5 8.96957 19.2893 8.46086 18.9142 8.08579C18.5391 7.71071 18.0304 7.5 17.5 7.5ZM14.5 16H7V10H14.5V16ZM17 12C16.8022 12 16.6089 11.9414 16.4444 11.8315C16.28 11.7216 16.1518 11.5654 16.0761 11.3827C16.0004 11.2 15.9806 10.9989 16.0192 10.8049C16.0578 10.6109 16.153 10.4327 16.2929 10.2929C16.4327 10.153 16.6109 10.0578 16.8049 10.0192C16.9989 9.98063 17.2 10.0004 17.3827 10.0761C17.5654 10.1518 17.7216 10.28 17.8315 10.4444C17.9414 10.6089 18 10.8022 18 11C18 11.2652 17.8946 11.5196 17.7071 11.7071C17.5196 11.8946 17.2652 12 17 12Z"/></svg>