<svg xmlns="http://www.w3.org/2000/svg" width="1.25em" height="1.25em" fill="none" viewBox="0 0 15 15"><path fill="currentColor" d="M13 3.5H8.9145L11 1.4145L9.5855 0L7.5 2.0855L5.4145 0L4 1.4145L6.0855 3.5H2C1.46957 3.5 0.960859 3.71071 0.585786 4.08579C0.210714 4.46086 0 4.96957 0 5.5V12.5C0 13.0304 0.210714 13.5391 0.585786 13.9142C0.960859 14.2893 1.46957 14.5 2 14.5H13C13.5304 14.5 14.0391 14.2893 14.4142 13.9142C14.7893 13.5391 15 13.0304 15 12.5V5.5C15 4.96957 14.7893 4.46086 14.4142 4.08579C14.0391 3.71071 13.5304 3.5 13 3.5ZM10 12H2.5V6H10V12ZM12.5 8C12.3022 8 12.1089 7.94135 11.9444 7.83147C11.78 7.72159 11.6518 7.56541 11.5761 7.38268C11.5004 7.19996 11.4806 6.99889 11.5192 6.80491C11.5578 6.61093 11.653 6.43275 11.7929 6.29289C11.9327 6.15304 12.1109 6.0578 12.3049 6.01921C12.4989 5.98063 12.7 6.00043 12.8827 6.07612C13.0654 6.15181 13.2216 6.27998 13.3315 6.44443C13.4414 6.60888 13.5 6.80222 13.5 7C13.5 7.26522 13.3946 7.51957 13.2071 7.70711C13.0196 7.89464 12.7652 8 12.5 8Z"/></svg>