<svg xmlns="http://www.w3.org/2000/svg" width="1.5em" height="1.5em" fill="none" viewBox="0 0 24 24"><path stroke="currentColor" stroke-linecap="round" stroke-linejoin="round" stroke-width="1.5" d="M18.73 7.31H5.28C4.17543 7.31 3.28 8.20543 3.28 9.31V18.44C3.28 19.5446 4.17543 20.44 5.28 20.44H18.73C19.8346 20.44 20.73 19.5446 20.73 18.44V9.31C20.73 8.20543 19.8346 7.31 18.73 7.31Z"/><path stroke="currentColor" stroke-linecap="round" stroke-linejoin="round" stroke-width="1.5" d="M16.61 10.22H7.39C6.83771 10.22 6.39 10.6677 6.39 11.22V16.53C6.39 17.0823 6.83771 17.53 7.39 17.53H16.61C17.1623 17.53 17.61 17.0823 17.61 16.53V11.22C17.61 10.6677 17.1623 10.22 16.61 10.22ZM16.53 2.57001 12 7.31001 7.47 2.57001"/></svg>