<svg xmlns="http://www.w3.org/2000/svg" width="1.5em" height="1.5em" fill="none" viewBox="0 0 24 24"><path fill="currentColor" d="M21.4588 6.76471C20.7794 7.07353 20.0471 7.27647 19.2882 7.37353C20.0647 6.90588 20.6647 6.16471 20.9471 5.27353C20.2147 5.71471 19.4029 6.02353 18.5471 6.2C17.85 5.44118 16.8706 5 15.7588 5C13.6853 5 11.9912 6.69412 11.9912 8.78529C11.9912 9.08529 12.0265 9.37647 12.0882 9.65C8.94706 9.49118 6.15 7.98235 4.28824 5.69706C3.96176 6.25294 3.77647 6.90588 3.77647 7.59412C3.77647 8.90882 4.43824 10.0735 5.46176 10.7353C4.83529 10.7353 4.25294 10.5588 3.74118 10.2941C3.74118 10.2941 3.74118 10.2941 3.74118 10.3206C3.74118 12.1559 5.04706 13.6912 6.77647 14.0353C6.45882 14.1235 6.12353 14.1676 5.77941 14.1676C5.54118 14.1676 5.30294 14.1412 5.07353 14.0971C5.55 15.5882 6.93529 16.7 8.60294 16.7265C7.31471 17.75 5.68235 18.35 3.9 18.35C3.6 18.35 3.3 18.3324 3 18.2971C4.67647 19.3735 6.67059 20 8.80588 20C15.7588 20 19.5794 14.2294 19.5794 9.22647C19.5794 9.05882 19.5794 8.9 19.5706 8.73235C20.3118 8.20294 20.9471 7.53235 21.4588 6.76471Z"/></svg>