<svg xmlns="http://www.w3.org/2000/svg" width="1.25em" height="1.25em" fill="none" viewBox="0 0 19 15"><path fill="currentColor" d="M18.4588 1.76471C17.7794 2.07353 17.0471 2.27647 16.2882 2.37353C17.0647 1.90588 17.6647 1.16471 17.9471 0.273529C17.2147 0.714706 16.4029 1.02353 15.5471 1.2C14.85 0.441177 13.8706 0 12.7588 0C10.6853 0 8.99118 1.69412 8.99118 3.78529C8.99118 4.08529 9.02647 4.37647 9.08824 4.65C5.94706 4.49118 3.15 2.98235 1.28824 0.697059C0.961765 1.25294 0.776471 1.90588 0.776471 2.59412C0.776471 3.90882 1.43824 5.07353 2.46176 5.73529C1.83529 5.73529 1.25294 5.55882 0.741177 5.29412C0.741177 5.29412 0.741177 5.29412 0.741177 5.32059C0.741177 7.15588 2.04706 8.69118 3.77647 9.03529C3.45882 9.12353 3.12353 9.16765 2.77941 9.16765C2.54118 9.16765 2.30294 9.14118 2.07353 9.09706C2.55 10.5882 3.93529 11.7 5.60294 11.7265C4.31471 12.75 2.68235 13.35 0.9 13.35C0.6 13.35 0.3 13.3324 0 13.2971C1.67647 14.3735 3.67059 15 5.80588 15C12.7588 15 16.5794 9.22941 16.5794 4.22647C16.5794 4.05882 16.5794 3.9 16.5706 3.73235C17.3118 3.20294 17.9471 2.53235 18.4588 1.76471Z"/></svg>