<svg xmlns="http://www.w3.org/2000/svg" width="1.5em" height="1.5em" fill="none" viewBox="0 0 24 24"><path stroke="currentColor" stroke-linecap="round" stroke-linejoin="round" stroke-width="1.5" d="M17 22V20M9 15 15 9M11 6 11.463 5.464C12.4008 4.52633 13.6727 3.9996 14.9989 3.99969 16.325 3.99979 17.5968 4.52669 18.5345 5.4645 19.4722 6.40231 19.9989 7.67419 19.9988 9.00035 19.9987 10.3265 19.4718 11.5983 18.534 12.536L18 13M13 18 12.603 18.534C11.6542 19.4722 10.3738 19.9984 9.0395 19.9984 7.70521 19.9984 6.42475 19.4722 5.476 18.534 5.00835 18.0716 4.63709 17.521 4.38371 16.9141 4.13032 16.3073 3.99986 15.6561 3.99986 14.9985 3.99986 14.3408 4.13032 13.6897 4.38371 13.0829 4.63709 12.476 5.00835 11.9254 5.476 11.463L6 11M20 17H22M2 7H4M7 2V4"/></svg>