<svg xmlns="http://www.w3.org/2000/svg" width="1.5em" height="1.5em" fill="none" viewBox="0 0 24 24"><path stroke="currentColor" stroke-linecap="round" stroke-linejoin="round" stroke-width="1.5" d="M17 22V20M9 15 15 9M11 6 11.463 5.464C12.401 4.526 13.673 4 14.999 4 16.325 4 17.597 4.527 18.535 5.465 19.472 6.402 19.999 7.674 19.999 9 19.999 10.327 19.472 11.598 18.534 12.536L18 13M13 18 12.603 18.534C11.654 19.472 10.374 19.998 9.04 19.998 7.705 19.998 6.425 19.472 5.476 18.534 5.008 18.072 4.637 17.521 4.384 16.914 4.13 16.307 4 15.656 4 14.999 4 14.341 4.13 13.69 4.384 13.083 4.637 12.476 5.008 11.925 5.476 11.463L6 11M20 17H22M2 7H4M7 2V4"/></svg>