<svg xmlns="http://www.w3.org/2000/svg" width="1.5em" height="1.5em" fill="none" viewBox="0 0 24 24"><g clip-path="url(#clip0_4740_2388)"><path stroke="currentColor" stroke-linecap="round" stroke-linejoin="round" stroke-width="1.5" d="M17 22V20"/><path stroke="currentColor" stroke-linecap="round" stroke-linejoin="round" stroke-width="1.5" d="M9 15L15 9"/><path stroke="currentColor" stroke-linecap="round" stroke-linejoin="round" stroke-width="1.5" d="M11 6L11.463 5.464C12.4008 4.52633 13.6727 3.9996 14.9989 3.99969C16.325 3.99979 17.5968 4.52669 18.5345 5.4645C19.4722 6.40231 19.9989 7.67419 19.9988 9.00035C19.9987 10.3265 19.4718 11.5983 18.534 12.536L18 13"/><path stroke="currentColor" stroke-linecap="round" stroke-linejoin="round" stroke-width="1.5" d="M13 18L12.603 18.534C11.6543 19.4722 10.3738 19.9984 9.03951 19.9984C7.70522 19.9984 6.42476 19.4722 5.476 18.534C5.00836 18.0716 4.6371 17.521 4.38372 16.9141C4.13033 16.3073 3.99986 15.6561 3.99986 14.9985C3.99986 14.3408 4.13033 13.6897 4.38372 13.0829C4.6371 12.476 5.00836 11.9254 5.476 11.463L6 11"/><path stroke="currentColor" stroke-linecap="round" stroke-linejoin="round" stroke-width="1.5" d="M20 17H22"/><path stroke="currentColor" stroke-linecap="round" stroke-linejoin="round" stroke-width="1.5" d="M2 7H4"/><path stroke="currentColor" stroke-linecap="round" stroke-linejoin="round" stroke-width="1.5" d="M7 2V4"/></g><defs><clipPath id="clip0_4740_2388"><rect width="24" height="24" fill="currentColor"/></clipPath></defs></svg>