<svg xmlns="http://www.w3.org/2000/svg" width="1.5em" height="1.5em" fill="none" viewBox="0 0 24 24"><path fill="currentColor" d="M15.755 4C14.3622 4 13.0263 4.55296 12.0409 5.53739C11.0556 6.52181 10.5013 7.85715 10.5 9.25V10.5H5C4.46957 10.5 3.96086 10.7107 3.58579 11.0858C3.21071 11.4609 3 11.9696 3 12.5V20H15V12.5C15 11.9696 14.7893 11.4609 14.4142 11.0858C14.0391 10.7107 13.5304 10.5 13 10.5V9.25C12.9668 8.52065 13.2248 7.80801 13.7171 7.26884C14.2094 6.72968 14.8957 6.40815 15.625 6.375C16.3543 6.34185 17.067 6.59979 17.6062 7.09207C18.1453 7.58435 18.4668 8.27065 18.5 9H21C20.9345 7.65268 20.3535 6.38213 19.3771 5.45138C18.4008 4.52063 17.1039 4.00098 15.755 4ZM10 17.5H8V13.5H10V17.5Z"/></svg>