<svg xmlns="http://www.w3.org/2000/svg" width="1.25em" height="1.25em" fill="none" viewBox="0 0 18 16"><path fill="currentColor" d="M12.755 0C11.3622 -6.30475e-07 10.0263 0.552963 9.04092 1.53739C8.05556 2.52181 7.50133 3.85715 7.5 5.25V6.5H2C1.46957 6.5 0.960859 6.71071 0.585786 7.08579C0.210714 7.46086 0 7.96957 0 8.5V16H12V8.5C12 7.96957 11.7893 7.46086 11.4142 7.08579C11.0391 6.71071 10.5304 6.5 10 6.5V5.25C9.96685 4.52065 10.2248 3.80801 10.7171 3.26884C11.2094 2.72968 11.8957 2.40815 12.625 2.375C13.3543 2.34185 14.067 2.59979 14.6062 3.09207C15.1453 3.58435 15.4668 4.27065 15.5 5H18C17.9345 3.65268 17.3535 2.38213 16.3771 1.45138C15.4008 0.520633 14.1039 0.000977851 12.755 0ZM7 13.5H5V9.5H7V13.5Z"/></svg>