<svg xmlns="http://www.w3.org/2000/svg" width="1.5em" height="1.5em" fill="none" viewBox="0 0 24 24"><path stroke="currentColor" stroke-linecap="round" stroke-linejoin="round" stroke-width="1.5" d="M15.91 20C17.4454 20 18.69 18.7554 18.69 17.22 18.69 15.6847 17.4454 14.44 15.91 14.44 14.3747 14.44 13.13 15.6847 13.13 17.22 13.13 18.7554 14.3747 20 15.91 20ZM9.96997 17.22C9.96997 18.76 8.71997 20 7.18997 20 5.65997 20 4.40997 18.75 4.40997 17.22 4.40997 15.69 5.65997 14.44 7.18997 14.44 8.71997 14.44 9.96997 15.69 9.96997 17.22ZM8.15002 14.49 10.6 7.75M14.64 14.49 8.32997 4H4.71997M10.6 7.75H19.6L16.87 14.49"/></svg>