<svg xmlns="http://www.w3.org/2000/svg" width="1.5em" height="1.5em" fill="none" viewBox="0 0 24 24"><path stroke="currentColor" stroke-linecap="round" stroke-linejoin="round" stroke-width="1.5" d="M15.91 20C17.445 20 18.69 18.755 18.69 17.22 18.69 15.685 17.445 14.44 15.91 14.44 14.375 14.44 13.13 15.685 13.13 17.22 13.13 18.755 14.375 20 15.91 20ZM9.97 17.22C9.97 18.76 8.72 20 7.19 20 5.66 20 4.41 18.75 4.41 17.22 4.41 15.69 5.66 14.44 7.19 14.44 8.72 14.44 9.97 15.69 9.97 17.22ZM8.15 14.49 10.6 7.75M14.64 14.49 8.33 4H4.72M10.6 7.75H19.6L16.87 14.49"/></svg>