<svg xmlns="http://www.w3.org/2000/svg" width="1.5em" height="1.5em" fill="none" viewBox="0 0 24 24"><path fill="currentColor" d="M12.5 5H8.00001V7H11.1405L12.546 10.5545L8.91251 14.1775C8.6223 14.0612 8.31266 14.0009 8.00001 14C7.46077 13.9961 6.9345 14.1653 6.49864 14.4828C6.06278 14.8004 5.74035 15.2494 5.57879 15.7639C5.41723 16.2784 5.42507 16.8311 5.60116 17.3408C5.77725 17.8505 6.11229 18.2902 6.55698 18.5953C7.00167 18.9003 7.53253 19.0546 8.07144 19.0353C8.61035 19.0161 9.12886 18.8244 9.55067 18.4884C9.97248 18.1525 10.2753 17.69 10.4146 17.169C10.5539 16.6481 10.5223 16.0962 10.3245 15.5945L13.347 12.5805L14.209 14.7605C13.8343 15.1451 13.5934 15.6402 13.5219 16.1724C13.4504 16.7046 13.5522 17.2457 13.8122 17.7155C14.0722 18.1854 14.4766 18.559 14.9655 18.7812C15.4544 19.0033 16.0018 19.0621 16.5268 18.9489C17.0517 18.8357 17.5262 18.5564 17.8801 18.1525C18.2339 17.7486 18.4483 17.2415 18.4916 16.7063C18.5348 16.171 18.4045 15.6361 18.12 15.1806C17.8355 14.7252 17.412 14.3735 16.912 14.1775L18.446 10.374C18.5072 10.2222 18.5302 10.0577 18.513 9.89497C18.4959 9.73221 18.439 9.57616 18.3474 9.44051C18.2558 9.30486 18.1324 9.19376 17.9879 9.11695C17.8433 9.04015 17.6822 8.99999 17.5185 9H14.082L12.5 5Z"/></svg>