<svg xmlns="http://www.w3.org/2000/svg" width="1.25em" height="1.25em" fill="none" viewBox="0 0 14 15"><path fill="currentColor" d="M7.5197 0H2.71096V2.13722H6.06693L7.56886 5.93559L3.68607 9.80717C3.37595 9.68285 3.04507 9.61848 2.71096 9.61749C2.13472 9.61328 1.57235 9.79414 1.10658 10.1335C0.640821 10.4728 0.296268 10.9526 0.123624 11.5024C-0.0490214 12.0522 -0.0406411 12.6429 0.147531 13.1875C0.335703 13.7322 0.693729 14.2021 1.16893 14.5281C1.64413 14.854 2.21141 15.0188 2.7873 14.9983C3.36318 14.9777 3.91727 14.7729 4.36802 14.4139C4.81877 14.0548 5.14238 13.5606 5.29124 13.0039C5.4401 12.4472 5.40635 11.8575 5.19494 11.3214L8.42482 8.1006L9.34596 10.4302C8.94552 10.8412 8.68806 11.3702 8.6117 11.9389C8.53534 12.5077 8.64414 13.0859 8.92198 13.588C9.19982 14.09 9.63194 14.4893 10.1544 14.7267C10.6768 14.9641 11.2618 15.0269 11.8227 14.9059C12.3837 14.7849 12.8907 14.4865 13.2689 14.0549C13.647 13.6233 13.8761 13.0814 13.9223 12.5094C13.9685 11.9375 13.8293 11.3658 13.5253 10.8791C13.2213 10.3925 12.7687 10.0166 12.2344 9.80717L13.8737 5.74271C13.9391 5.58051 13.9637 5.40474 13.9453 5.23081C13.9269 5.05688 13.8662 4.89013 13.7683 4.74517C13.6704 4.60021 13.5385 4.48149 13.3841 4.39942C13.2296 4.31734 13.0574 4.27443 12.8825 4.27444H9.21025L7.5197 0Z"/></svg>