<svg xmlns="http://www.w3.org/2000/svg" width="1.5em" height="1.5em" fill="none" viewBox="0 0 24 24"><path fill="currentColor" d="M19.7745 16.566L14.06 5.5775C13.8912 5.25278 13.6365 4.9806 13.3237 4.79061C13.0109 4.60062 12.652 4.5001 12.286 4.5H11.714C11.348 4.5001 10.9891 4.60062 10.6763 4.79061C10.3635 4.9806 10.1088 5.25278 9.94 5.5775L4.2255 16.566C4.07737 16.8511 4.00003 17.1677 4 17.489V17.5C4 18.0304 4.21071 18.5391 4.58579 18.9142C4.96086 19.2893 5.46957 19.5 6 19.5H18C18.5304 19.5 19.0391 19.2893 19.4142 18.9142C19.7893 18.5391 20 18.0304 20 17.5V17.489C20 17.1677 19.9226 16.8511 19.7745 16.566ZM13 17.5H11V15.5H13V17.5ZM13 13.5H11V8H13V13.5Z"/></svg>