<svg xmlns="http://www.w3.org/2000/svg" width="1.25em" height="1.25em" fill="none" viewBox="0 0 16 15"><path fill="currentColor" d="M15.7745 12.066L10.06 1.0775C9.89119 0.752777 9.63652 0.480599 9.32372 0.290608C9.01092 0.100617 8.65198 9.89008e-05 8.286 0H7.714C7.34802 9.89008e-05 6.98908 0.100617 6.67628 0.290608C6.36348 0.480599 6.10881 0.752777 5.94 1.0775L0.2255 12.066C0.0773741 12.3511 3.02688e-05 12.6677 0 12.989V13C0 13.5304 0.210714 14.0391 0.585786 14.4142C0.960859 14.7893 1.46957 15 2 15H14C14.5304 15 15.0391 14.7893 15.4142 14.4142C15.7893 14.0391 16 13.5304 16 13V12.989C16 12.6677 15.9226 12.3511 15.7745 12.066ZM9 13H7V11H9V13ZM9 9H7V3.5H9V9Z"/></svg>