<svg xmlns="http://www.w3.org/2000/svg" width="1.5em" height="1.5em" fill="none" viewBox="0 0 24 24"><path stroke="currentColor" stroke-linecap="round" stroke-linejoin="round" stroke-width="1.5" d="M12 9V13"/><path stroke="currentColor" stroke-linecap="round" stroke-linejoin="round" stroke-width="1.5" d="M10.363 3.59101L2.25699 17.125C2.08988 17.4144 2.00145 17.7425 2.0005 18.0766C1.99954 18.4108 2.08609 18.7394 2.25153 19.0297C2.41698 19.3201 2.65555 19.562 2.94353 19.7316C3.2315 19.9011 3.55884 19.9923 3.89299 19.996H20.107C20.441 19.9922 20.7682 19.901 21.056 19.7315C21.3438 19.562 21.5823 19.3202 21.7477 19.03C21.9131 18.7398 21.9997 18.4114 21.9989 18.0774C21.9981 17.7434 21.9098 17.4154 21.743 17.126L13.637 3.59001C13.4664 3.30851 13.2262 3.07575 12.9394 2.9142C12.6527 2.75266 12.3291 2.66779 12 2.66779C11.6709 2.66779 11.3473 2.75266 11.0605 2.9142C10.7738 3.07575 10.5335 3.30851 10.363 3.59001V3.59101Z"/><path stroke="currentColor" stroke-linecap="round" stroke-linejoin="round" stroke-width="1.5" d="M12 16H12.01"/></svg>