<svg xmlns="http://www.w3.org/2000/svg" width="1.5em" height="1.5em" fill="none" viewBox="0 0 24 24"><path stroke="currentColor" stroke-linecap="round" stroke-linejoin="round" stroke-width="1.5" d="M12 9V13M10.363 3.591 2.257 17.125C2.09 17.414 2.001 17.742 2.001 18.077 2 18.411 2.086 18.739 2.252 19.03 2.417 19.32 2.656 19.562 2.944 19.732 3.232 19.901 3.559 19.992 3.893 19.996H20.107C20.441 19.992 20.768 19.901 21.056 19.731 21.344 19.562 21.582 19.32 21.748 19.03 21.913 18.74 22 18.411 21.999 18.077 21.998 17.743 21.91 17.415 21.743 17.126L13.637 3.59C13.466 3.308 13.226 3.076 12.939 2.914 12.653 2.753 12.329 2.668 12 2.668 11.671 2.668 11.347 2.753 11.061 2.914 10.774 3.076 10.534 3.308 10.363 3.59V3.591ZM12 16H12.01"/></svg>