<svg xmlns="http://www.w3.org/2000/svg" width="1.5em" height="1.5em" fill="none" viewBox="0 0 24 24"><path stroke="currentColor" stroke-linecap="round" stroke-linejoin="round" stroke-width="1.5" d="M12 9V13M10.363 3.59095 2.25699 17.1249C2.08988 17.4143 2.00145 17.7424 2.0005 18.0766 1.99954 18.4108 2.08609 18.7393 2.25153 19.0297 2.41698 19.32 2.65555 19.562 2.94353 19.7315 3.2315 19.901 3.55884 19.9922 3.89299 19.9959H20.107C20.441 19.9921 20.7682 19.9009 21.056 19.7314 21.3438 19.562 21.5823 19.3201 21.7477 19.0299 21.9131 18.7397 21.9997 18.4113 21.9989 18.0773 21.9981 17.7433 21.9098 17.4153 21.743 17.1259L13.637 3.58994C13.4664 3.30845 13.2262 3.07569 12.9394 2.91414 12.6527 2.7526 12.3291 2.66772 12 2.66772 11.6709 2.66772 11.3473 2.7526 11.0605 2.91414 10.7738 3.07569 10.5335 3.30845 10.363 3.58994V3.59095ZM12 16H12.01"/></svg>