<svg xmlns="http://www.w3.org/2000/svg" width="1.5em" height="1.5em" fill="none" viewBox="0 0 24 24"><path fill="currentColor" d="M17 4H7C6.46957 4 5.96086 4.21071 5.58579 4.58579C5.21071 4.96086 5 5.46957 5 6V20H19V6C19 5.46957 18.7893 4.96086 18.4142 4.58579C18.0391 4.21071 17.5304 4 17 4ZM7.5 6H11V8H7.5V6ZM12 17.5C11.2089 17.5 10.4355 17.2654 9.77772 16.8259C9.11992 16.3864 8.60723 15.7616 8.30448 15.0307C8.00173 14.2998 7.92252 13.4956 8.07686 12.7196C8.2312 11.9437 8.61216 11.231 9.17157 10.6716C9.73098 10.1122 10.4437 9.7312 11.2196 9.57686C11.9956 9.42252 12.7998 9.50173 13.5307 9.80448C14.2616 10.1072 14.8864 10.6199 15.3259 11.2777C15.7654 11.9355 16 12.7089 16 13.5C16 14.5609 15.5786 15.5783 14.8284 16.3284C14.0783 17.0786 13.0609 17.5 12 17.5Z"/></svg>