<svg xmlns="http://www.w3.org/2000/svg" width="1.25em" height="1.25em" fill="none" viewBox="0 0 14 16"><path fill="currentColor" d="M12 0H2C1.46957 0 0.960859 0.210714 0.585786 0.585786C0.210714 0.960859 0 1.46957 0 2V16H14V2C14 1.46957 13.7893 0.960859 13.4142 0.585786C13.0391 0.210714 12.5304 0 12 0ZM2.5 2H6V4H2.5V2ZM7 13.5C6.20887 13.5 5.43552 13.2654 4.77772 12.8259C4.11992 12.3864 3.60723 11.7616 3.30448 11.0307C3.00173 10.2998 2.92252 9.49556 3.07686 8.71964C3.2312 7.94371 3.61216 7.23098 4.17157 6.67157C4.73098 6.11216 5.44371 5.7312 6.21964 5.57686C6.99556 5.42252 7.79983 5.50173 8.53073 5.80448C9.26164 6.10723 9.88635 6.61992 10.3259 7.27772C10.7654 7.93552 11 8.70887 11 9.5C11 10.5609 10.5786 11.5783 9.82843 12.3284C9.07828 13.0786 8.06087 13.5 7 13.5Z"/></svg>