<svg xmlns="http://www.w3.org/2000/svg" width="1.25em" height="1.25em" fill="none" viewBox="0 0 15 17"><path fill="currentColor" fill-rule="evenodd" d="M7.285 3.09143C8.2325 3.08868 9.17113 3.27393 10.0465 3.63647C10.9219 3.99901 11.7167 4.53163 12.3848 5.20347L14.5705 3.01776C13.6138 2.06102 12.478 1.30208 11.228 0.784293C9.97803 0.266504 8.63827 0 7.28526 0C5.93225 0 4.59249 0.266504 3.34249 0.784293C2.09248 1.30208 0.956696 2.06102 0 3.01776L2.18571 5.20347C2.85368 4.53157 3.64835 3.99892 4.52368 3.63637C5.399 3.27383 6.33757 3.0886 7.285 3.09143ZM3.6425 6.66077L5.82821 8.84648C6.01955 8.65513 6.2467 8.50334 6.49671 8.39978C6.74671 8.29622 7.01466 8.24292 7.28526 8.24292C7.55586 8.24292 7.82381 8.29622 8.07382 8.39978C8.32382 8.50334 8.55097 8.65513 8.74231 8.84648L10.9275 6.66077C9.96145 5.69473 8.6512 5.15202 7.285 5.15202C5.9188 5.15202 4.60856 5.69473 3.6425 6.66077ZM1.51913 10.8184H13.0292C13.4157 10.8185 13.7862 10.9721 14.0594 11.2454C14.3326 11.5187 14.486 11.8893 14.486 12.2757V17H0.0623312V12.2757C0.0623312 11.8893 0.215798 11.5187 0.488985 11.2454C0.762172 10.9721 1.13271 10.8185 1.51913 10.8184ZM2.58074 14.7658C2.75017 14.879 2.94936 14.9395 3.15313 14.9395C3.42637 14.9395 3.68842 14.8309 3.88163 14.6377C4.07485 14.4445 4.18339 14.1824 4.18339 13.9092C4.18339 13.7054 4.12297 13.5062 4.00976 13.3368C3.89655 13.1674 3.73565 13.0353 3.54739 12.9574C3.35914 12.8794 3.15198 12.859 2.95213 12.8987C2.75228 12.9385 2.5687 13.0366 2.42462 13.1807C2.28053 13.3248 2.18241 13.5084 2.14266 13.7082C2.1029 13.9081 2.12331 14.1152 2.20129 14.3035C2.27926 14.4917 2.41132 14.6526 2.58074 14.7658Z" clip-rule="evenodd"/></svg>