<svg xmlns="http://www.w3.org/2000/svg" width="1.5em" height="1.5em" fill="none" viewBox="0 0 24 24"><path stroke="currentColor" stroke-linecap="round" stroke-linejoin="round" stroke-width="1.5" d="M18.51 6.58999C16.85 4.90999 14.55 3.85999 12 3.85999 9.44999 3.85999 7.14999 4.89999 5.48999 6.58999M7.92999 9.03C8.95999 7.97 10.41 7.31 12 7.31 13.59 7.31 15.04 7.97 16.07 9.03M10.36 11.47C10.77 11.03 11.35 10.76 12 10.76 12.65 10.76 13.22 11.04 13.64 11.47"/><path stroke="currentColor" stroke-linecap="round" stroke-linejoin="round" stroke-width="1.5" d="M16.07 9.03C15.04 7.97 13.59 7.31 12 7.31 10.41 7.31 8.95999 7.97 7.92999 9.03M13.64 11.47C13.23 11.03 12.65 10.76 12 10.76 11.35 10.76 10.78 11.04 10.36 11.47M5.78999 14.68H18.22C19.35 14.68 20.27 15.6 20.27 16.73V20.34H3.73999V16.73C3.73999 15.6 4.65999 14.68 5.78999 14.68ZM6.82001 17.51H9.38001"/></svg>