<svg xmlns="http://www.w3.org/2000/svg" width="1.5em" height="1.5em" fill="none" viewBox="0 0 24 24"><path fill="currentColor" fill-rule="evenodd" d="M12.0105 6.5C12.9302 6.49733 13.8412 6.67715 14.6909 7.02904C15.5406 7.38093 16.312 7.8979 16.9605 8.55L19.082 6.4285C18.1534 5.49986 17.051 4.76322 15.8377 4.26064C14.6244 3.75806 13.324 3.49939 12.0108 3.49939C10.6975 3.49939 9.3971 3.75806 8.18381 4.26064C6.97052 4.76322 5.86811 5.49986 4.93951 6.4285L7.06101 8.55C7.70936 7.89784 8.48069 7.38084 9.3303 7.02894C10.1799 6.67705 11.0909 6.49726 12.0105 6.5ZM8.47501 9.96449L10.5965 12.086C10.7822 11.9003 11.0027 11.7529 11.2454 11.6524C11.488 11.5519 11.7481 11.5002 12.0108 11.5002C12.2734 11.5002 12.5335 11.5519 12.7762 11.6524C13.0188 11.7529 13.2393 11.9003 13.425 12.086L15.546 9.96449C14.6083 9.02683 13.3366 8.50006 12.0105 8.50006C10.6844 8.50006 9.41269 9.02683 8.47501 9.96449ZM6.41401 14H17.586C17.9611 14.0001 18.3207 14.1492 18.5859 14.4145C18.8511 14.6797 19 15.0394 19 15.4145V20H5.00001V15.4145C5.00001 15.0394 5.14897 14.6797 5.41413 14.4145C5.6793 14.1492 6.03895 14.0001 6.41401 14ZM7.44444 17.8315C7.60889 17.9414 7.80223 18 8.00001 18C8.26523 18 8.51958 17.8946 8.70712 17.7071C8.89466 17.5196 9.00001 17.2652 9.00001 17C9.00001 16.8022 8.94137 16.6089 8.83148 16.4444C8.7216 16.28 8.56542 16.1518 8.3827 16.0761C8.19997 16.0004 7.9989 15.9806 7.80492 16.0192C7.61094 16.0578 7.43276 16.153 7.29291 16.2929C7.15306 16.4327 7.05781 16.6109 7.01923 16.8049C6.98064 16.9989 7.00045 17.2 7.07613 17.3827C7.15182 17.5654 7.27999 17.7216 7.44444 17.8315Z" clip-rule="evenodd"/></svg>