<svg xmlns="http://www.w3.org/2000/svg" width="1.25em" height="1.25em" fill="none" viewBox="0 0 29 34"><path fill="currentColor" fill-rule="evenodd" d="M14.4995 6.15294C16.3853 6.14746 18.2535 6.51618 19.9958 7.23775C21.7381 7.95932 23.32 9.0194 24.6498 10.3566L29 6.00632C27.0959 4.10209 24.8353 2.59156 22.3474 1.561C19.8595 0.530428 17.1929 0 14.5 0C11.8071 0 9.14054 0.530428 6.65262 1.561C4.1647 2.59156 1.90413 4.10209 0 6.00632L4.35026 10.3566C5.67974 9.01929 7.26139 7.95913 9.00357 7.23755C10.7457 6.51597 12.6138 6.14731 14.4995 6.15294ZM7.24975 13.2571L11.6 17.6073C11.9808 17.2265 12.433 16.9244 12.9305 16.7183C13.4281 16.5122 13.9614 16.4061 14.5 16.4061C15.0386 16.4061 15.5719 16.5122 16.0695 16.7183C16.5671 16.9244 17.0192 17.2265 17.4 17.6073L21.7493 13.2571C19.8265 11.3343 17.2187 10.2542 14.4995 10.2542C11.7803 10.2542 9.17252 11.3343 7.24975 13.2571ZM3.02355 21.5321H25.9324C26.7015 21.5324 27.439 21.8381 27.9827 22.382C28.5264 22.9259 28.8319 23.6635 28.8319 24.4326V33.8355H0.124059V24.4326C0.124059 23.6635 0.429507 22.9259 0.973238 22.382C1.51697 21.8381 2.25446 21.5324 3.02355 21.5321ZM5.13651 29.3888C5.47372 29.6141 5.87017 29.7344 6.27574 29.7344C6.81958 29.7344 7.34114 29.5183 7.7257 29.1338C8.11025 28.7492 8.32629 28.2276 8.32629 27.6838C8.32629 27.2782 8.20603 26.8818 7.98071 26.5446C7.75539 26.2074 7.43514 25.9445 7.06045 25.7893C6.68576 25.6341 6.27346 25.5935 5.87569 25.6726C5.47792 25.7518 5.11255 25.9471 4.82577 26.2338C4.539 26.5206 4.3437 26.886 4.26458 27.2837C4.18546 27.6815 4.22606 28.0938 4.38127 28.4685C4.53647 28.8432 4.79929 29.1635 5.13651 29.3888Z" clip-rule="evenodd"/></svg>