<svg xmlns="http://www.w3.org/2000/svg" width="1.5em" height="1.5em" fill="none" viewBox="0 0 24 24"><path fill="currentColor" d="M18.935 15.075L14.435 10.575C14.6829 9.95261 14.7426 9.27112 14.6066 8.61512C14.4706 7.95913 14.1449 7.35752 13.67 6.88499L11.87 5.07999C11.6839 4.89102 11.4621 4.74096 11.2175 4.63852C10.9728 4.53609 10.7102 4.48334 10.445 4.48334C10.1798 4.48334 9.91722 4.53609 9.67258 4.63852C9.42794 4.74096 9.20611 4.89102 9.02002 5.07999L8.27002 5.82499L11.21 8.76999L9.10002 10.9L6.16002 7.95999L5.41502 8.70499C5.22605 8.89109 5.07598 9.11292 4.97354 9.35756C4.87111 9.6022 4.81836 9.86477 4.81836 10.13C4.81836 10.3952 4.87111 10.6578 4.97354 10.9024C5.07598 11.1471 5.22605 11.3689 5.41502 11.555L7.21502 13.36C7.68994 13.8328 8.29263 14.1566 8.94905 14.2917C9.60547 14.4267 10.287 14.367 10.91 14.12L15.41 18.62C15.7737 18.9827 16.2664 19.1864 16.78 19.1864C17.2937 19.1864 17.7863 18.9827 18.15 18.62L18.95 17.825C19.1301 17.6437 19.2727 17.4287 19.3695 17.1922C19.4663 16.9557 19.5154 16.7024 19.514 16.4469C19.5126 16.1913 19.4607 15.9386 19.3614 15.7032C19.262 15.4677 19.1171 15.2543 18.935 15.075Z"/></svg>