<svg xmlns="http://www.w3.org/2000/svg" width="1.25em" height="1.25em" fill="none" viewBox="0 0 15 15"><path fill="currentColor" d="M14.4017 10.8055L9.81085 6.21467C10.0638 5.57972 10.1246 4.88446 9.9859 4.21522C9.84716 3.54598 9.51491 2.93222 9.0304 2.45015L7.19405 0.608704C7.0042 0.415919 6.77789 0.26282 6.52831 0.158318C6.27873 0.053817 6.01085 0 5.74028 0C5.4697 0 5.20183 0.053817 4.95224 0.158318C4.70266 0.26282 4.47636 0.415919 4.2865 0.608704L3.52136 1.36875L6.52073 4.37322L4.36812 6.54623L1.36875 3.54686L0.608704 4.30691C0.415919 4.49676 0.26282 4.72307 0.158318 4.97265C0.053817 5.22223 0 5.4901 0 5.76068C0 6.03126 0.053817 6.29913 0.158318 6.54871C0.26282 6.7983 0.415919 7.0246 0.608704 7.21446L2.44505 9.05591C2.92956 9.53828 3.54442 9.86863 4.2141 10.0064C4.88378 10.1441 5.57911 10.0833 6.21467 9.83125L10.8055 14.4221C11.1766 14.7922 11.6792 15 12.2032 15C12.7272 15 13.2298 14.7922 13.6009 14.4221L14.417 13.6111C14.6008 13.4262 14.7462 13.2068 14.8449 12.9655C14.9437 12.7242 14.9938 12.4658 14.9924 12.2051C14.9909 11.9444 14.938 11.6866 14.8367 11.4464C14.7353 11.2062 14.5875 10.9884 14.4017 10.8055Z"/></svg>