<svg xmlns="http://www.w3.org/2000/svg" width="1.25em" height="1.25em" fill="none" viewBox="0 0 30 30"><path fill="currentColor" d="M28.8034 21.611L19.6217 12.4293C20.1275 11.1594 20.2492 9.7689 19.9718 8.43042C19.6943 7.09194 19.0298 5.86443 18.0608 4.9003L14.3881 1.21741C14.0084 0.831835 13.5558 0.525639 13.0566 0.316636C12.5574 0.107634 12.0217 0 11.4805 0C10.9394 0 10.4036 0.107634 9.90447 0.316636C9.40531 0.525639 8.9527 0.831835 8.57299 1.21741L7.0427 2.73749L13.0414 8.74642L8.73622 13.0924L2.73749 7.09371L1.21741 8.61379C0.831835 8.9935 0.525639 9.44611 0.316636 9.94528C0.107634 10.4444 0 10.9802 0 11.5213C0 12.0625 0.107634 12.5982 0.316636 13.0974C0.525639 13.5966 0.831835 14.0492 1.21741 14.4289L4.8901 18.1118C5.85912 19.0765 7.08883 19.7372 8.42819 20.0127C9.76754 20.2882 11.1582 20.1665 12.4293 19.6625L21.611 28.8442C22.3531 29.5843 23.3583 29.9999 24.4064 29.9999C25.4544 29.9999 26.4596 29.5843 27.2017 28.8442L28.834 27.2221C29.2015 26.8523 29.4924 26.4135 29.6898 25.9309C29.8873 25.4484 29.9875 24.9316 29.9846 24.4102C29.9818 23.8888 29.876 23.3731 29.6733 22.8928C29.4705 22.4124 29.1749 21.9768 28.8034 21.611Z"/></svg>