<svg xmlns="http://www.w3.org/2000/svg" width="1.5em" height="1.5em" fill="none" viewBox="0 0 24 24"><path fill="currentColor" d="M22.1833 11.9354C22.1833 11.8846 22.1833 11.8269 22.181 11.7599C22.1787 11.5729 22.1741 11.3629 22.1694 11.139C22.151 10.4949 22.1187 9.85318 22.0679 9.24838C21.9986 8.41505 21.897 7.72022 21.7585 7.19852C21.6124 6.65408 21.3259 6.15755 20.9277 5.75853C20.5295 5.35952 20.0335 5.07201 19.4894 4.92475C18.8361 4.74931 17.5572 4.64081 15.7567 4.57387C14.9003 4.54155 13.9838 4.52078 13.0674 4.50923C12.7465 4.50462 12.4488 4.50231 12.181 4.5H11.5023C11.2345 4.50231 10.9367 4.50462 10.6159 4.50923C9.69944 4.52078 8.78301 4.54155 7.92659 4.57387C6.12604 4.64312 4.84488 4.75162 4.19391 4.92475C3.64959 5.07165 3.15344 5.35904 2.75518 5.75811C2.35692 6.15717 2.07054 6.65391 1.92475 7.19852C1.78393 7.72022 1.68467 8.41505 1.61542 9.24838C1.56464 9.85318 1.53232 10.4949 1.51385 11.139C1.50693 11.3629 1.50462 11.5729 1.50231 11.7599C1.50231 11.8269 1.5 11.8846 1.5 11.9354V12.0646C1.5 12.1154 1.5 12.1731 1.50231 12.2401C1.50462 12.4271 1.50923 12.6371 1.51385 12.861C1.53232 13.5051 1.56464 14.1468 1.61542 14.7516C1.68467 15.5849 1.78624 16.2798 1.92475 16.8015C2.22022 17.9072 3.08818 18.7798 4.19391 19.0753C4.84488 19.2507 6.12604 19.3592 7.92659 19.4261C8.78301 19.4584 9.69944 19.4792 10.6159 19.4908C10.9367 19.4954 11.2345 19.4977 11.5023 19.5H12.181C12.4488 19.4977 12.7465 19.4954 13.0674 19.4908C13.9838 19.4792 14.9003 19.4584 15.7567 19.4261C17.5572 19.3569 18.8384 19.2484 19.4894 19.0753C20.5951 18.7798 21.4631 17.9095 21.7585 16.8015C21.8994 16.2798 21.9986 15.5849 22.0679 14.7516C22.1187 14.1468 22.151 13.5051 22.1694 12.861C22.1764 12.6371 22.1787 12.4271 22.181 12.2401C22.181 12.1731 22.1833 12.1154 22.1833 12.0646V11.9354ZM20.5212 12.0554C20.5212 12.1039 20.5212 12.157 20.5189 12.2193C20.5166 12.3994 20.512 12.5979 20.5074 12.8126C20.4912 13.4266 20.4589 14.0406 20.4104 14.6108C20.3481 15.3541 20.2604 15.9635 20.1519 16.3721C20.0088 16.9054 19.5886 17.3278 19.0577 17.4686C18.5729 17.5979 17.3518 17.7018 15.6921 17.7641C14.8518 17.7964 13.9469 17.8172 13.0443 17.8287C12.7281 17.8333 12.4349 17.8356 12.1717 17.8356H11.5115L10.639 17.8287C9.73638 17.8172 8.83379 17.7964 7.99123 17.7641C6.33149 17.6994 5.10803 17.5979 4.62558 17.4686C4.09464 17.3255 3.67452 16.9054 3.53139 16.3721C3.4229 15.9635 3.33518 15.3541 3.27285 14.6108C3.22438 14.0406 3.19437 13.4266 3.1759 12.8126C3.16898 12.5979 3.16667 12.397 3.16436 12.2193C3.16436 12.157 3.16205 12.1016 3.16205 12.0554V11.9446C3.16205 11.8961 3.16205 11.843 3.16436 11.7807C3.16667 11.6006 3.17128 11.4021 3.1759 11.1874C3.19206 10.5734 3.22438 9.95937 3.27285 9.3892C3.33518 8.64589 3.4229 8.03647 3.53139 7.62789C3.67452 7.09464 4.09464 6.67221 4.62558 6.53139C5.11034 6.40212 6.33149 6.29825 7.99123 6.23592C8.83149 6.2036 9.73638 6.18283 10.639 6.17128C10.9552 6.16667 11.2484 6.16436 11.5115 6.16436H12.1717L13.0443 6.17128C13.9469 6.18283 14.8495 6.2036 15.6921 6.23592C17.3518 6.30055 18.5753 6.40212 19.0577 6.53139C19.5886 6.67452 20.0088 7.09464 20.1519 7.62789C20.2604 8.03647 20.3481 8.64589 20.4104 9.3892C20.4589 9.95937 20.4889 10.5734 20.5074 11.1874C20.5143 11.4021 20.5166 11.603 20.5189 11.7807C20.5189 11.843 20.5212 11.8984 20.5212 11.9446V12.0554ZM9.78716 15.0933L15.1427 11.9769L9.78716 8.90674V15.0933Z"/></svg>