<svg xmlns="http://www.w3.org/2000/svg" width="1.25em" height="1.25em" fill="none" viewBox="0 0 42 30"><path fill="currentColor" d="M41.3666 14.8707C41.3666 14.7692 41.3666 14.6537 41.362 14.5199C41.3573 14.1459 41.3481 13.7258 41.3389 13.2779C41.3019 11.9898 41.2373 10.7064 41.1357 9.49677C40.9972 7.8301 40.7941 6.44044 40.5171 5.39704C40.2248 4.30817 39.6518 3.31509 38.8554 2.51707C38.0589 1.71904 37.067 1.14403 35.9788 0.849492C34.6722 0.498615 32.1145 0.281625 28.5134 0.147738C26.8006 0.0831023 24.9677 0.041551 23.1348 0.0184669C22.4931 0.00923333 21.8975 0.0046168 21.362 0H20.0046C19.4691 0.0046168 18.8735 0.00923333 18.2318 0.0184669C16.3989 0.041551 14.566 0.0831023 12.8532 0.147738C9.25208 0.286242 6.68975 0.503231 5.38781 0.849492C4.29917 1.1433 3.30688 1.71808 2.51036 2.51621C1.71385 3.31435 1.14109 4.30781 0.849492 5.39704C0.567867 6.44044 0.369344 7.8301 0.23084 9.49677C0.129271 10.7064 0.0646352 11.9898 0.0277008 13.2779C0.0138503 13.7258 0.00923354 14.1459 0.00461673 14.5199C0.00461673 14.6537 0 14.7692 0 14.8707V15.1293C0 15.2308 -7.03149e-08 15.3463 0.00461673 15.4801C0.00923354 15.8541 0.0184671 16.2742 0.0277008 16.7221C0.0646352 18.0102 0.129271 19.2936 0.23084 20.5032C0.369344 22.1699 0.572484 23.5596 0.849492 24.603C1.44044 26.8144 3.17636 28.5596 5.38781 29.1505C6.68975 29.5014 9.25208 29.7184 12.8532 29.8523C14.566 29.9169 16.3989 29.9584 18.2318 29.9815C18.8735 29.9908 19.4691 29.9954 20.0046 30H21.362C21.8975 29.9954 22.4931 29.9908 23.1348 29.9815C24.9677 29.9584 26.8006 29.9169 28.5134 29.8523C32.1145 29.7138 34.6768 29.4968 35.9788 29.1505C38.1902 28.5596 39.9261 26.819 40.5171 24.603C40.7987 23.5596 40.9972 22.1699 41.1357 20.5032C41.2373 19.2936 41.3019 18.0102 41.3389 16.7221C41.3527 16.2742 41.3573 15.8541 41.362 15.4801C41.362 15.3463 41.3666 15.2308 41.3666 15.1293V14.8707ZM38.0425 15.1108C38.0425 15.2078 38.0425 15.3139 38.0379 15.4386C38.0332 15.7987 38.024 16.1958 38.0148 16.6251C37.9825 17.8532 37.9178 19.0813 37.8209 20.2216C37.6962 21.7082 37.5208 22.9271 37.3038 23.7442C37.0175 24.8107 36.1773 25.6556 35.1154 25.9372C34.1459 26.1958 31.7036 26.4035 28.3841 26.5282C26.7036 26.5928 24.8938 26.6343 23.0886 26.6574C22.4561 26.6667 21.8698 26.6713 21.3435 26.6713H20.0231L18.2779 26.6574C16.4728 26.6343 14.6676 26.5928 12.9825 26.5282C9.66297 26.3989 7.21607 26.1958 6.25115 25.9372C5.18929 25.651 4.34903 24.8107 4.06279 23.7442C3.8458 22.9271 3.67036 21.7082 3.54571 20.2216C3.44875 19.0813 3.38874 17.8532 3.3518 16.6251C3.33795 16.1958 3.33333 15.7941 3.32872 15.4386C3.32872 15.3139 3.3241 15.2031 3.3241 15.1108V14.8892C3.3241 14.7922 3.3241 14.6861 3.32872 14.5614C3.33333 14.2013 3.34257 13.8042 3.3518 13.3749C3.38412 12.1468 3.44875 10.9187 3.54571 9.77839C3.67036 8.29178 3.8458 7.07295 4.06279 6.25577C4.34903 5.18929 5.18929 4.34441 6.25115 4.06279C7.22068 3.80425 9.66297 3.59649 12.9825 3.47184C14.663 3.4072 16.4728 3.36565 18.2779 3.34257C18.9104 3.33333 19.4968 3.32872 20.0231 3.32872H21.3435L23.0886 3.34257C24.8938 3.36565 26.699 3.4072 28.3841 3.47184C31.7036 3.60111 34.1505 3.80425 35.1154 4.06279C36.1773 4.34903 37.0175 5.18929 37.3038 6.25577C37.5208 7.07295 37.6962 8.29178 37.8209 9.77839C37.9178 10.9187 37.9778 12.1468 38.0148 13.3749C38.0286 13.8042 38.0332 14.2059 38.0379 14.5614C38.0379 14.6861 38.0425 14.7969 38.0425 14.8892V15.1108ZM16.5743 21.1865L27.2853 14.9538L16.5743 8.81348V21.1865Z"/></svg>