<svg xmlns="http://www.w3.org/2000/svg" width="1.25em" height="1.25em" fill="none" viewBox="0 0 21 15"><path fill="currentColor" d="M20.6833 7.43536C20.6833 7.38458 20.6833 7.32687 20.681 7.25993C20.6787 7.07294 20.6741 6.86288 20.6694 6.63897C20.651 5.99492 20.6187 5.35318 20.5679 4.74838C20.4986 3.91505 20.397 3.22022 20.2585 2.69852C20.1124 2.15408 19.8259 1.65755 19.4277 1.25853C19.0295 0.859521 18.5335 0.572013 17.9894 0.424746C17.3361 0.249307 16.0572 0.140812 14.2567 0.0738688C13.4003 0.0415512 12.4838 0.0207755 11.5674 0.00923347C11.2465 0.00461666 10.9488 0.0023084 10.681 0H10.0023C9.73453 0.0023084 9.43675 0.00461666 9.11588 0.00923347C8.19944 0.0207755 7.28301 0.0415512 6.42659 0.0738688C4.62604 0.143121 3.34488 0.251616 2.69391 0.424746C2.14959 0.571651 1.65344 0.859038 1.25518 1.25811C0.856923 1.65717 0.570545 2.15391 0.424746 2.69852C0.283934 3.22022 0.184672 3.91505 0.11542 4.74838C0.0646353 5.35318 0.0323176 5.99492 0.0138504 6.63897C0.00692517 6.86288 0.00461677 7.07294 0.00230837 7.25993C0.00230837 7.32687 0 7.38458 0 7.43536V7.56463C0 7.61542 -3.51574e-08 7.67313 0.00230837 7.74007C0.00461677 7.92705 0.00923357 8.13712 0.0138504 8.36103C0.0323176 9.00508 0.0646353 9.64681 0.11542 10.2516C0.184672 11.0849 0.286242 11.7798 0.424746 12.3015C0.720222 13.4072 1.58818 14.2798 2.69391 14.5753C3.34488 14.7507 4.62604 14.8592 6.42659 14.9261C7.28301 14.9584 8.19944 14.9792 9.11588 14.9908C9.43675 14.9954 9.73453 14.9977 10.0023 15H10.681C10.9488 14.9977 11.2465 14.9954 11.5674 14.9908C12.4838 14.9792 13.4003 14.9584 14.2567 14.9261C16.0572 14.8569 17.3384 14.7484 17.9894 14.5753C19.0951 14.2798 19.9631 13.4095 20.2585 12.3015C20.3994 11.7798 20.4986 11.0849 20.5679 10.2516C20.6187 9.64681 20.651 9.00508 20.6694 8.36103C20.6764 8.13712 20.6787 7.92705 20.681 7.74007C20.681 7.67313 20.6833 7.61542 20.6833 7.56463V7.43536ZM19.0212 7.5554C19.0212 7.60388 19.0212 7.65697 19.0189 7.7193C19.0166 7.89935 19.012 8.09788 19.0074 8.31256C18.9912 8.92659 18.9589 9.54063 18.9104 10.1108C18.8481 10.8541 18.7604 11.4635 18.6519 11.8721C18.5088 12.4054 18.0886 12.8278 17.5577 12.9686C17.0729 13.0979 15.8518 13.2018 14.1921 13.2641C13.3518 13.2964 12.4469 13.3172 11.5443 13.3287C11.2281 13.3333 10.9349 13.3356 10.6717 13.3356H10.0115L9.13896 13.3287C8.23638 13.3172 7.33379 13.2964 6.49123 13.2641C4.83149 13.1994 3.60803 13.0979 3.12558 12.9686C2.59464 12.8255 2.17452 12.4054 2.03139 11.8721C1.9229 11.4635 1.83518 10.8541 1.77285 10.1108C1.72438 9.54063 1.69437 8.92659 1.6759 8.31256C1.66898 8.09788 1.66667 7.89704 1.66436 7.7193C1.66436 7.65697 1.66205 7.60157 1.66205 7.5554V7.4446C1.66205 7.39612 1.66205 7.34303 1.66436 7.2807C1.66667 7.10065 1.67128 6.90212 1.6759 6.68744C1.69206 6.07341 1.72438 5.45937 1.77285 4.8892C1.83518 4.14589 1.9229 3.53647 2.03139 3.12789C2.17452 2.59464 2.59464 2.17221 3.12558 2.03139C3.61034 1.90212 4.83149 1.79825 6.49123 1.73592C7.33149 1.7036 8.23638 1.68283 9.13896 1.67128C9.45522 1.66667 9.74838 1.66436 10.0115 1.66436H10.6717L11.5443 1.67128C12.4469 1.68283 13.3495 1.7036 14.1921 1.73592C15.8518 1.80055 17.0753 1.90212 17.5577 2.03139C18.0886 2.17452 18.5088 2.59464 18.6519 3.12789C18.7604 3.53647 18.8481 4.14589 18.9104 4.8892C18.9589 5.45937 18.9889 6.07341 19.0074 6.68744C19.0143 6.90212 19.0166 7.10295 19.0189 7.2807C19.0189 7.34303 19.0212 7.39843 19.0212 7.4446V7.5554ZM8.28716 10.5933L13.6427 7.47692L8.28716 4.40674V10.5933Z"/></svg>