<?xml version="1.0" encoding="UTF-8"?>
<svg id="Layer_1" data-name="Layer 1" xmlns="http://www.w3.org/2000/svg" viewBox="0 0 850 180">
  <path d="M144.41,5.35l-30.24,17.86c-5.46,3.22-12.46,2.03-16.51-2.84C87.45,8.11,72.01.37,54.77.57,25.14.92.92,25.09.51,54.72c-.43,30.7,24.33,55.71,54.93,55.71h.13c6.61-.01,12.01,5.25,12.01,11.86v33.66c0,11.41,9.25,20.67,20.67,20.67h145.57c11.41,0,20.67-9.25,20.67-20.67v-84.04c0-9.68-4.88-18.7-12.97-24.01L177.78,6.13c-10.06-6.6-23-6.9-33.37-.78ZM55.43,89.62c-18.82,0-34.12-15.31-34.12-34.12s15.31-34.12,34.12-34.12,34.12,15.31,34.12,34.12-15.31,34.12-34.12,34.12ZM161.04,30.06c9,0,16.28,7.28,16.28,16.47s-7.28,16.47-16.28,16.47-16.28-7.28-16.28-16.47,7.28-16.47,16.28-16.47ZM209.43,78.69c-8.19,3.77-18.75,7.78-26.74,10.74-1.52.57-2.42,2.14-2.11,3.74,2.55,13.18,13.9,47.61,19.47,61.3.18.44-.05.93-.49,1.08l-6.7,2.34c-4.13,1.44-8.68-.53-10.45-4.53-5.61-12.72-12.79-28.03-18.2-36.76-1.46-2.36-4.88-2.36-6.34,0-5.41,8.73-12.59,24.05-18.2,36.76-1.77,4-6.32,5.97-10.45,4.53l-6.7-2.34c-.44-.15-.67-.65-.49-1.08,5.57-13.68,16.92-48.12,19.47-61.3.31-1.6-.59-3.18-2.11-3.74-7.99-2.96-18.55-6.97-26.74-10.74-4.01-1.85-5.93-6.47-4.37-10.6l2.68-7.14c.18-.49.75-.7,1.21-.47,6.04,3.09,27.13,12.81,48.87,12.81s42.83-9.73,48.87-12.81c.46-.24,1.03-.02,1.21.47l2.68,7.14c1.55,4.13-.36,8.75-4.37,10.6Z"/>
  <g>
    <path d="M333.39,169.84c-10.19-6.25-18.16-15.1-23.92-26.56-5.76-11.45-8.64-24.77-8.64-39.94s2.88-28.49,8.64-39.94,13.73-20.31,23.92-26.56,21.68-9.38,34.46-9.38,24.48,3.13,34.67,9.38,18.16,15.11,23.92,26.56c5.76,11.46,8.64,24.77,8.64,39.94s-2.88,28.49-8.64,39.94c-5.76,11.46-13.74,20.31-23.92,26.56-10.19,6.25-21.75,9.38-34.67,9.38s-24.28-3.13-34.46-9.38h0ZM342.35,137.9c6.18,8.71,14.68,13.07,25.51,13.07s19.53-4.35,25.72-13.07c6.18-8.71,9.27-20.24,9.27-34.57s-3.09-25.85-9.27-34.57c-6.19-8.71-14.76-13.07-25.72-13.07s-19.32,4.36-25.51,13.07-9.27,20.24-9.27,34.57,3.09,25.86,9.27,34.57Z"/>
    <path d="M454.7,30.61h69.77c8.43,0,15.95,1.58,22.55,4.74,6.6,3.16,11.73,7.48,15.39,12.96,3.65,5.48,5.48,11.52,5.48,18.13,0,8.29-2.32,15.11-6.96,20.45-4.64,5.34-11.03,9.06-19.18,11.17,9.98,2.11,17.74,6.36,23.29,12.75,5.55,6.4,8.33,14.37,8.33,23.92,0,7.59-1.9,14.54-5.69,20.87-3.79,6.32-9.21,11.31-16.23,14.97-7.03,3.66-15.04,5.48-24.03,5.48h-72.72V30.61h0ZM518.99,87.32c5.06,0,9.2-1.3,12.44-3.9,3.23-2.6,4.85-6.29,4.85-11.07s-1.62-8.68-4.85-11.28-7.38-3.9-12.44-3.9h-33.09v30.14h33.09ZM522.57,148.87c5.34,0,9.84-1.54,13.49-4.64,3.65-3.09,5.48-7.45,5.48-13.07s-1.83-9.83-5.48-13.07c-3.66-3.23-8.15-4.85-13.49-4.85h-36.68v35.62h36.68Z"/>
    <path d="M618.16,169.84c-10.19-6.25-18.16-15.1-23.92-26.56-5.76-11.45-8.64-24.77-8.64-39.94s2.88-28.49,8.64-39.94,13.73-20.31,23.92-26.56,21.68-9.38,34.46-9.38,24.48,3.13,34.68,9.38c10.19,6.25,18.16,15.11,23.92,26.56,5.76,11.46,8.64,24.77,8.64,39.94s-2.88,28.49-8.64,39.94c-5.76,11.46-13.74,20.31-23.92,26.56-10.19,6.25-21.75,9.38-34.68,9.38s-24.28-3.13-34.46-9.38ZM627.12,137.9c6.18,8.71,14.68,13.07,25.51,13.07s19.53-4.35,25.72-13.07c6.18-8.71,9.27-20.24,9.27-34.57s-3.09-25.85-9.27-34.57c-6.19-8.71-14.76-13.07-25.72-13.07s-19.32,4.36-25.51,13.07-9.27,20.24-9.27,34.57,3.09,25.86,9.27,34.57Z"/>
    <path d="M751.69,168.79c-10.96-7.09-18.2-17.18-21.71-30.25l29.3-13.7c1.12,8.71,4.88,15.63,11.28,20.76,6.39,5.13,13.88,7.69,22.45,7.69s14.33-1.76,18.55-5.27c4.22-3.51,6.32-7.94,6.32-13.28,0-4.78-1.62-8.46-4.85-11.07-3.23-2.6-8.43-4.53-15.6-5.8l-16.65-3.58c-30.64-6.04-45.95-19.81-45.95-41.31,0-8.01,2.25-15.49,6.75-22.45,4.5-6.96,10.86-12.54,19.08-16.76s17.67-6.32,28.35-6.32c14.47,0,26.73,3.27,36.78,9.8,10.05,6.53,17.04,15.42,20.97,26.66l-27.61,13.28c-1.69-7.73-5.31-13.66-10.86-17.81-5.55-4.14-12.12-6.22-19.71-6.22-7.17,0-12.72,1.65-16.65,4.95-3.94,3.3-5.9,7.34-5.9,12.12,0,4.36,1.72,7.69,5.16,10.01s9.1,4.32,16.97,6.01l16.44,3.16c14.61,3.09,25.75,7.8,33.41,14.12s11.49,15.95,11.49,28.88c0,8.57-2.42,16.44-7.27,23.61-4.85,7.17-11.59,12.86-20.24,17.07-8.64,4.22-18.31,6.32-28.98,6.32-16.58,0-30.35-3.55-41.31-10.65v.03Z"/>
  </g>
</svg>