<svg xmlns="http://www.w3.org/2000/svg" xmlns:xlink="http://www.w3.org/1999/xlink" viewBox="0 0 484.1 115"><g><path fill="#0D4FA7" d="M59.5 38.1c0-12-9.7-21.8-21.6-21.8-12 0-21.6 9.7-21.6 21.8 0 12 9.7 21.8 21.6 21.8 11.9 0 21.6-9.8 21.6-21.8m47.4.8c0-4.7-3.8-8.6-8.5-8.6s-8.5 3.8-8.5 8.6c0 4.7 3.8 8.6 8.5 8.6s8.5-3.8 8.5-8.6m20.6 19.9c2.2-.4 4.9-8.2.7-7.8-29.4 2.1-30.2 2-59.5 0-4.2-.4-1.5 7.4.7 7.8 13.1 2.6 16.5 3.2 16.5 6.9-.4 6.1-.6 11.6-8.8 35.4-1.9 4.5 6.5 3.1 7.5.8 5.3-10.2 8.6-18.3 12.1-22.3.9-1.1 2.8-1.1 3.6 0 3.5 4 6.8 12.1 12.1 22.3 1 2.3 9.4 3.6 7.5-.8-8.2-23.9-8.4-29.4-8.8-35.4-.1-3.7 3.3-4.3 16.4-6.9m23.1-11.3v47.9c0 7.5-5.2 14.9-14.6 14.9H51.6c-9.9 0-13.7-8.7-13.7-14.9V78.2c0-3.2-2.3-6.7-6.3-7.2-15.4-3-27-16.6-27-32.9 0-18.5 14.9-33.5 33.3-33.5 10.4 0 19.8 4.8 25.9 12.4 3 3.8 6.3 3.6 9.1 2.1 7.6-4.3 13.7-7.8 14.6-8.3 4-2.3 7.8-3.1 12.8-.2 2.3 1.4 39.1 22.7 45.2 26.3 4.9 2.9 5.1 6.1 5.1 10.6"/><path fill="#FFF" d="M482.9 52.7l-14.1 4.2c-1.2-5.9-5.4-10.2-13.2-10.2-6.4 0-11 3.9-11 8.3 0 3.6 2.3 6.8 7.8 7.8l10.5 1.9c13.9 2.6 21.3 11.5 21.3 22.1 0 11.6-9.8 23.4-27.6 23.4-18 0-27.8-9.1-30.1-23.3l14.5-3.4c1.2 8.2 7.9 12.7 16.1 12.7 7.2 0 11.3-3.8 11.3-8.5 0-3.7-3.3-6.8-8.5-7.9l-10.6-2.1c-12.1-2.4-20-10.2-20-21.6 0-13.4 12.1-23.4 26.6-23.4 17.2 0 25.7 10.4 27 20M402.9 71.4c0-13-10.2-23.6-23.1-23.6-13 0-23.2 10.6-23.2 23.6 0 13 10.2 23.7 23.2 23.7s23.1-10.7 23.1-23.7M380 32.7c21.7 0 38.9 16.9 38.9 38.5 0 21.8-17.6 39-39.2 39-21.7 0-38.9-16.9-38.9-38.6-.1-21.7 17.6-38.9 39.2-38.9M313.9 56.2c0-6.2-5.7-8-10.9-8h-13.9v16.2H302c5.5 0 11.9-1.5 11.9-8.2m-8.5 38.4c5.6 0 11.8-1.6 11.8-8.3 0-6.9-6.5-8.4-12.3-8.4h-15.8v16.7h16.3zM318.6 70c8.9 3.4 13.8 8.4 13.8 18.3 0 15.3-13.5 20.8-26.8 20.8H274V33.9h31.2c12.1 0 24 6.4 24 19.9 0 7.5-4 12.7-10.5 16.1v.1zM245.2 71.4c0-13-10.2-23.6-23.1-23.6-13 0-23.2 10.6-23.2 23.6 0 13 10.2 23.7 23.2 23.7 12.9 0 23.1-10.7 23.1-23.7m-23-38.7c21.7 0 38.9 16.9 38.9 38.5 0 21.8-17.6 39-39.2 39-21.7 0-38.9-16.9-38.9-38.6 0-21.7 17.6-38.9 39.2-38.9M150.6 95.5v-48c0-4.6-.2-7.7-5.1-10.6-6.1-3.6-42.9-24.9-45.2-26.3-4.9-2.9-8.7-2.1-12.8.2-.9.5-7 4-14.6 8.3-2.8 1.5-6.1 1.7-9.1-2.1C57.7 9.5 48.3 4.6 37.9 4.6c-18.4 0-33.3 15-33.3 33.5 0 16.3 11.6 29.8 26.9 32.8 4.1.5 6.3 4 6.3 7.2v17.3c0 6.2 3.9 14.9 13.7 14.9h84.4c9.4 0 14.7-7.3 14.7-14.8m4.6-48v47.9c0 9.5-6.7 19.5-19.2 19.5H51.6c-11.9 0-18.4-10.1-18.4-19.5V78.2c0-.6-.4-2.4-2.6-2.6C12.9 72 0 56.3 0 38.1 0 17.1 17 0 37.9 0c11.6 0 22.3 5.2 29.5 14.2 1.4 1.7 2 1.6 3.3.9l14.5-8.3c3.8-2.2 9.8-4.6 17.4-.2l13.9 8.1 31.3 18.2c7.4 4.4 7.4 10.1 7.4 14.6"/><path fill="#FFF" d="M128.2 51c4.2-.4 1.5 7.4-.7 7.8-13.1 2.6-16.5 3.2-16.5 6.9.4 6.1.6 11.6 8.8 35.4 1.9 4.5-6.5 3.1-7.5.8-5.3-10.2-8.6-18.3-12.1-22.3-.8-1.1-2.8-1.1-3.6 0-3.5 4-6.8 12.1-12.1 22.3-1 2.3-9.4 3.6-7.5-.8 8.2-23.9 8.4-29.4 8.8-35.4 0-3.6-3.3-4.2-16.5-6.9-2.2-.4-4.9-8.2-.7-7.8 29.4 2 30.2 2.1 59.6 0M98.4 30.3c4.7 0 8.5 3.8 8.5 8.6 0 4.7-3.8 8.6-8.5 8.6s-8.5-3.8-8.5-8.6c0-4.7 3.8-8.6 8.5-8.6"/><path fill="#00AA79" d="M37.9 16.3c11.9 0 21.6 9.7 21.6 21.8 0 12-9.7 21.8-21.6 21.8-12 0-21.6-9.7-21.6-21.8-.1-12 9.6-21.8 21.6-21.8"/></g></svg>